<svg width="1440" height="1060" viewBox="0 0 1440 1060" fill="none" xmlns="http://www.w3.org/2000/svg">
<g filter="url(#filter0_d_70_6703)">
<path d="M1415 0H25C11.1929 0 0 11.1929 0 25V1023C0 1036.81 11.1929 1048 25 1048H1415C1428.81 1048 1440 1036.81 1440 1023V25C1440 11.1929 1428.81 0 1415 0Z" fill="white"/>
<path d="M1415 203.249H25C11.1929 203.249 0 214.441 0 228.249V819.752C0 833.559 11.1929 844.752 25 844.752H1415C1428.81 844.752 1440 833.559 1440 819.752V228.249C1440 214.441 1428.81 203.249 1415 203.249Z" fill="white"/>
</g>
<defs>
<filter id="filter0_d_70_6703" x="-4" y="0" width="1448" height="1060" filterUnits="userSpaceOnUse" color-interpolation-filters="sRGB">
<feFlood flood-opacity="0" result="BackgroundImageFix"/>
<feColorMatrix in="SourceAlpha" type="matrix" values="0 0 0 0 0 0 0 0 0 0 0 0 0 0 0 0 0 0 127 0" result="hardAlpha"/>
<feOffset dy="8"/>
<feGaussianBlur stdDeviation="2"/>
<feComposite in2="hardAlpha" operator="out"/>
<feColorMatrix type="matrix" values="0 0 0 0 0 0 0 0 0 0 0 0 0 0 0 0 0 0 0.25 0"/>
<feBlend mode="normal" in2="BackgroundImageFix" result="effect1_dropShadow_70_6703"/>
<feBlend mode="normal" in="SourceGraphic" in2="effect1_dropShadow_70_6703" result="shape"/>
</filter>
</defs>
</svg>
