<svg width="728" height="345" viewBox="0 0 728 345" fill="none" xmlns="http://www.w3.org/2000/svg">
<circle cx="172.5" cy="172.5" r="172.5" fill="white"/>
<path d="M173 173C207.719 173 235.857 143.231 235.857 106.5C235.857 69.7691 207.719 40 173 40C138.281 40 110.143 69.7691 110.143 106.5C110.143 143.231 138.281 173 173 173ZM217 189.625H208.799C197.897 194.924 185.768 197.938 173 197.938C160.232 197.938 148.152 194.924 137.201 189.625H129C92.5625 189.625 63 220.901 63 259.45V281.062C63 294.83 73.558 306 86.5714 306H259.429C272.442 306 283 294.83 283 281.062V259.45C283 220.901 253.438 189.625 217 189.625Z" fill="#208C53"/>
<path d="M382.331 132.63V95.6797H393.28V132.63C393.28 136.195 392.499 139.259 390.937 141.822C389.374 144.361 387.238 146.314 384.528 147.682C381.842 149.049 378.815 149.732 375.446 149.732C371.955 149.732 368.866 149.146 366.181 147.975C363.495 146.803 361.383 145.008 359.845 142.591C358.307 140.15 357.538 137.062 357.538 133.326H368.561C368.561 135.279 368.83 136.83 369.367 137.977C369.928 139.125 370.722 139.942 371.747 140.431C372.772 140.919 374.005 141.163 375.446 141.163C376.837 141.163 378.046 140.833 379.071 140.174C380.097 139.515 380.89 138.551 381.452 137.281C382.038 136.012 382.331 134.461 382.331 132.63ZM446.454 121.095V123.622C446.454 127.674 445.905 131.312 444.806 134.535C443.708 137.757 442.157 140.504 440.155 142.774C438.153 145.021 435.761 146.742 432.978 147.938C430.219 149.134 427.155 149.732 423.786 149.732C420.441 149.732 417.377 149.134 414.594 147.938C411.835 146.742 409.442 145.021 407.416 142.774C405.39 140.504 403.815 137.757 402.692 134.535C401.593 131.312 401.044 127.674 401.044 123.622V121.095C401.044 117.018 401.593 113.38 402.692 110.182C403.791 106.959 405.341 104.212 407.343 101.942C409.369 99.6714 411.762 97.938 414.521 96.7417C417.304 95.5454 420.368 94.9473 423.712 94.9473C427.082 94.9473 430.146 95.5454 432.904 96.7417C435.688 97.938 438.08 99.6714 440.082 101.942C442.108 104.212 443.671 106.959 444.77 110.182C445.893 113.38 446.454 117.018 446.454 121.095ZM435.358 123.622V121.021C435.358 118.189 435.102 115.699 434.589 113.551C434.076 111.402 433.319 109.596 432.318 108.131C431.317 106.666 430.097 105.567 428.656 104.835C427.216 104.078 425.568 103.7 423.712 103.7C421.857 103.7 420.209 104.078 418.769 104.835C417.353 105.567 416.144 106.666 415.143 108.131C414.167 109.596 413.422 111.402 412.909 113.551C412.396 115.699 412.14 118.189 412.14 121.021V123.622C412.14 126.429 412.396 128.919 412.909 131.092C413.422 133.241 414.179 135.06 415.18 136.549C416.181 138.014 417.401 139.125 418.842 139.881C420.282 140.638 421.93 141.017 423.786 141.017C425.641 141.017 427.289 140.638 428.729 139.881C430.17 139.125 431.378 138.014 432.355 136.549C433.332 135.06 434.076 133.241 434.589 131.092C435.102 128.919 435.358 126.429 435.358 123.622ZM489.923 117.396V125.965H462.091V117.396H489.923ZM465.351 95.6797V149H454.364V95.6797H465.351ZM497.76 95.6797V149H486.811V95.6797H497.76ZM550.714 95.6797V149H539.728L518.305 113.258V149H507.318V95.6797H518.305L539.765 131.458V95.6797H550.714ZM595.319 149H583.71L583.783 140.431H595.319C598.2 140.431 600.629 139.784 602.606 138.49C604.584 137.171 606.073 135.255 607.074 132.74C608.1 130.226 608.612 127.186 608.612 123.622V121.021C608.612 118.287 608.319 115.882 607.733 113.807C607.172 111.732 606.33 109.986 605.207 108.57C604.083 107.154 602.704 106.092 601.068 105.384C599.433 104.652 597.553 104.286 595.429 104.286H583.49V95.6797H595.429C598.993 95.6797 602.252 96.29 605.207 97.5107C608.185 98.707 610.761 100.428 612.934 102.674C615.106 104.92 616.779 107.606 617.951 110.731C619.147 113.832 619.745 117.286 619.745 121.095V123.622C619.745 127.406 619.147 130.86 617.951 133.985C616.779 137.11 615.106 139.796 612.934 142.042C610.785 144.264 608.209 145.985 605.207 147.206C602.228 148.402 598.932 149 595.319 149ZM589.936 95.6797V149H578.949V95.6797H589.936ZM663.507 140.431V149H635.126V140.431H663.507ZM638.715 95.6797V149H627.729V95.6797H638.715ZM659.809 117.396V125.746H635.126V117.396H659.809ZM663.471 95.6797V104.286H635.126V95.6797H663.471ZM713.715 121.095V123.622C713.715 127.674 713.166 131.312 712.067 134.535C710.968 137.757 709.418 140.504 707.416 142.774C705.414 145.021 703.021 146.742 700.238 147.938C697.479 149.134 694.416 149.732 691.046 149.732C687.702 149.732 684.638 149.134 681.854 147.938C679.096 146.742 676.703 145.021 674.677 142.774C672.65 140.504 671.076 137.757 669.953 134.535C668.854 131.312 668.305 127.674 668.305 123.622V121.095C668.305 117.018 668.854 113.38 669.953 110.182C671.051 106.959 672.602 104.212 674.604 101.942C676.63 99.6714 679.022 97.938 681.781 96.7417C684.564 95.5454 687.628 94.9473 690.973 94.9473C694.342 94.9473 697.406 95.5454 700.165 96.7417C702.948 97.938 705.341 99.6714 707.343 101.942C709.369 104.212 710.932 106.959 712.03 110.182C713.153 113.38 713.715 117.018 713.715 121.095ZM702.619 123.622V121.021C702.619 118.189 702.362 115.699 701.85 113.551C701.337 111.402 700.58 109.596 699.579 108.131C698.578 106.666 697.357 105.567 695.917 104.835C694.477 104.078 692.829 103.7 690.973 103.7C689.118 103.7 687.47 104.078 686.029 104.835C684.613 105.567 683.405 106.666 682.404 108.131C681.427 109.596 680.683 111.402 680.17 113.551C679.657 115.699 679.401 118.189 679.401 121.021V123.622C679.401 126.429 679.657 128.919 680.17 131.092C680.683 133.241 681.439 135.06 682.44 136.549C683.441 138.014 684.662 139.125 686.103 139.881C687.543 140.638 689.191 141.017 691.046 141.017C692.902 141.017 694.55 140.638 695.99 139.881C697.431 139.125 698.639 138.014 699.616 136.549C700.592 135.06 701.337 133.241 701.85 131.092C702.362 128.919 702.619 126.429 702.619 123.622Z" fill="black"/>
<path d="M374.859 200.328H368.938L369.547 196.734L373.891 196.75C374.526 196.75 375.135 196.677 375.719 196.531C376.312 196.375 376.812 196.104 377.219 195.719C377.635 195.333 377.901 194.786 378.016 194.078C378.109 193.432 378.057 192.927 377.859 192.562C377.661 192.188 377.344 191.922 376.906 191.766C376.479 191.599 375.969 191.51 375.375 191.5L372.516 191.484L369.297 210H363.953L367.891 187.25L375.547 187.266C376.536 187.276 377.516 187.385 378.484 187.594C379.453 187.802 380.323 188.141 381.094 188.609C381.865 189.068 382.469 189.693 382.906 190.484C383.344 191.266 383.526 192.245 383.453 193.422C383.38 194.703 383.021 195.745 382.375 196.547C381.74 197.339 380.917 197.927 379.906 198.312C378.896 198.688 377.802 198.891 376.625 198.922L374.859 200.328ZM373.047 210H365.859L368.422 205.781L373.219 205.797C373.812 205.786 374.37 205.688 374.891 205.5C375.422 205.312 375.865 205.021 376.219 204.625C376.583 204.219 376.818 203.703 376.922 203.078C377.016 202.547 377.005 202.083 376.891 201.688C376.786 201.281 376.568 200.964 376.234 200.734C375.911 200.505 375.474 200.375 374.922 200.344L370.156 200.328L370.812 196.734L376 196.75L376.938 198.172C377.99 198.182 378.922 198.37 379.734 198.734C380.547 199.099 381.172 199.651 381.609 200.391C382.057 201.12 382.245 202.036 382.172 203.141C382.068 204.839 381.578 206.193 380.703 207.203C379.828 208.203 378.714 208.922 377.359 209.359C376.005 209.797 374.568 210.01 373.047 210ZM399.938 205.781L399.203 210H387.406L388.141 205.781H399.938ZM393.281 187.25L389.328 210H383.984L387.922 187.25H393.281ZM400.062 196.281L399.359 200.359H389.078L389.797 196.281H400.062ZM403.188 187.25L402.453 191.484H390.609L391.359 187.25H403.188ZM416.328 187.25L412.391 210H407.031L410.984 187.25H416.328ZM422.969 187.25L422.234 191.484H403.75L404.5 187.25H422.969ZM437.859 187.25L433.922 210H428.578L432.531 187.25H437.859ZM445.078 210H439.875L440.641 205.781L445.25 205.812C446.552 205.812 447.625 205.49 448.469 204.844C449.323 204.198 449.984 203.359 450.453 202.328C450.932 201.297 451.255 200.208 451.422 199.062L451.531 198.094C451.625 197.406 451.667 196.688 451.656 195.938C451.646 195.177 451.536 194.469 451.328 193.812C451.12 193.156 450.766 192.615 450.266 192.188C449.776 191.76 449.089 191.531 448.203 191.5L443 191.484L443.734 187.25L448.375 187.266C449.896 187.297 451.229 187.609 452.375 188.203C453.521 188.786 454.464 189.583 455.203 190.594C455.943 191.594 456.464 192.74 456.766 194.031C457.068 195.323 457.135 196.682 456.969 198.109L456.859 199.094C456.661 200.615 456.234 202.042 455.578 203.375C454.922 204.698 454.078 205.859 453.047 206.859C452.016 207.849 450.823 208.625 449.469 209.188C448.125 209.74 446.661 210.01 445.078 210ZM446.906 187.25L442.953 210H437.609L441.547 187.25H446.906ZM458.25 207.625C458.229 206.823 458.5 206.167 459.062 205.656C459.625 205.135 460.297 204.875 461.078 204.875C461.828 204.865 462.479 205.099 463.031 205.578C463.583 206.047 463.87 206.667 463.891 207.438C463.911 208.24 463.641 208.901 463.078 209.422C462.516 209.932 461.844 210.188 461.062 210.188C460.323 210.198 459.672 209.969 459.109 209.5C458.557 209.021 458.271 208.396 458.25 207.625ZM460.406 195.156C460.385 194.354 460.656 193.698 461.219 193.188C461.781 192.667 462.453 192.406 463.234 192.406C463.984 192.396 464.635 192.63 465.188 193.109C465.74 193.578 466.026 194.198 466.047 194.969C466.068 195.771 465.797 196.432 465.234 196.953C464.672 197.464 464 197.719 463.219 197.719C462.479 197.729 461.828 197.5 461.266 197.031C460.714 196.552 460.427 195.927 460.406 195.156ZM479.656 192.297L471.281 210H465.359L477.422 187.25H481.203L479.656 192.297ZM481.094 210L478.781 191.75L478.906 187.25H482.469L486.672 210H481.094ZM482.312 201.516L481.562 205.75H470.203L470.953 201.516H482.312ZM499.266 200.328H493.344L493.953 196.734L498.297 196.75C498.932 196.75 499.542 196.677 500.125 196.531C500.719 196.375 501.219 196.104 501.625 195.719C502.042 195.333 502.307 194.786 502.422 194.078C502.516 193.432 502.464 192.927 502.266 192.562C502.068 192.188 501.75 191.922 501.312 191.766C500.885 191.599 500.375 191.51 499.781 191.5L496.922 191.484L493.703 210H488.359L492.297 187.25L499.953 187.266C500.943 187.276 501.922 187.385 502.891 187.594C503.859 187.802 504.729 188.141 505.5 188.609C506.271 189.068 506.875 189.693 507.312 190.484C507.75 191.266 507.932 192.245 507.859 193.422C507.786 194.703 507.427 195.745 506.781 196.547C506.146 197.339 505.323 197.927 504.312 198.312C503.302 198.688 502.208 198.891 501.031 198.922L499.266 200.328ZM497.453 210H490.266L492.828 205.781L497.625 205.797C498.219 205.786 498.776 205.688 499.297 205.5C499.828 205.312 500.271 205.021 500.625 204.625C500.99 204.219 501.224 203.703 501.328 203.078C501.422 202.547 501.411 202.083 501.297 201.688C501.193 201.281 500.974 200.964 500.641 200.734C500.318 200.505 499.88 200.375 499.328 200.344L494.562 200.328L495.219 196.734L500.406 196.75L501.344 198.172C502.396 198.182 503.328 198.37 504.141 198.734C504.953 199.099 505.578 199.651 506.016 200.391C506.464 201.12 506.651 202.036 506.578 203.141C506.474 204.839 505.984 206.193 505.109 207.203C504.234 208.203 503.12 208.922 501.766 209.359C500.411 209.797 498.974 210.01 497.453 210ZM522.156 202.312L527.391 202.25C527.245 203.979 526.688 205.453 525.719 206.672C524.76 207.88 523.547 208.797 522.078 209.422C520.62 210.047 519.062 210.344 517.406 210.312C515.833 210.281 514.51 209.958 513.438 209.344C512.365 208.719 511.521 207.885 510.906 206.844C510.292 205.792 509.885 204.615 509.688 203.312C509.49 202 509.479 200.646 509.656 199.25L509.828 198.016C510.036 196.568 510.422 195.177 510.984 193.844C511.547 192.5 512.281 191.302 513.188 190.25C514.104 189.198 515.193 188.375 516.453 187.781C517.714 187.177 519.141 186.891 520.734 186.922C522.432 186.953 523.875 187.307 525.062 187.984C526.26 188.661 527.188 189.609 527.844 190.828C528.51 192.047 528.885 193.484 528.969 195.141L523.641 195.125C523.672 194.323 523.594 193.635 523.406 193.062C523.219 192.49 522.885 192.047 522.406 191.734C521.938 191.411 521.276 191.234 520.422 191.203C519.495 191.172 518.719 191.365 518.094 191.781C517.479 192.188 516.979 192.734 516.594 193.422C516.208 194.109 515.911 194.854 515.703 195.656C515.505 196.458 515.354 197.234 515.25 197.984L515.094 199.266C515.021 199.88 514.953 200.573 514.891 201.344C514.828 202.104 514.854 202.839 514.969 203.547C515.083 204.245 515.349 204.828 515.766 205.297C516.182 205.766 516.833 206.016 517.719 206.047C518.552 206.068 519.276 205.938 519.891 205.656C520.505 205.365 521 204.938 521.375 204.375C521.76 203.802 522.021 203.115 522.156 202.312ZM536.234 210H531.031L531.797 205.781L536.406 205.812C537.708 205.812 538.781 205.49 539.625 204.844C540.479 204.198 541.141 203.359 541.609 202.328C542.089 201.297 542.411 200.208 542.578 199.062L542.688 198.094C542.781 197.406 542.823 196.688 542.812 195.938C542.802 195.177 542.693 194.469 542.484 193.812C542.276 193.156 541.922 192.615 541.422 192.188C540.932 191.76 540.245 191.531 539.359 191.5L534.156 191.484L534.891 187.25L539.531 187.266C541.052 187.297 542.385 187.609 543.531 188.203C544.677 188.786 545.62 189.583 546.359 190.594C547.099 191.594 547.62 192.74 547.922 194.031C548.224 195.323 548.292 196.682 548.125 198.109L548.016 199.094C547.818 200.615 547.391 202.042 546.734 203.375C546.078 204.698 545.234 205.859 544.203 206.859C543.172 207.849 541.979 208.625 540.625 209.188C539.281 209.74 537.818 210.01 536.234 210ZM538.062 187.25L534.109 210H528.766L532.703 187.25H538.062ZM563.609 186.906H564.531L564.125 191.062H563.922C562.849 191.042 561.844 191.188 560.906 191.5C559.979 191.812 559.146 192.271 558.406 192.875C557.667 193.479 557.052 194.208 556.562 195.062C556.083 195.917 555.766 196.88 555.609 197.953L555.062 201.953C555.021 202.38 555 202.839 555 203.328C555 203.818 555.062 204.286 555.188 204.734C555.312 205.172 555.531 205.531 555.844 205.812C556.156 206.094 556.599 206.24 557.172 206.25C557.682 206.26 558.13 206.151 558.516 205.922C558.911 205.682 559.245 205.365 559.516 204.969C559.797 204.573 560.016 204.146 560.172 203.688C560.339 203.229 560.448 202.781 560.5 202.344C560.542 201.948 560.536 201.536 560.484 201.109C560.443 200.682 560.339 200.286 560.172 199.922C560.005 199.547 559.766 199.245 559.453 199.016C559.141 198.786 558.74 198.667 558.25 198.656C557.656 198.646 557.12 198.776 556.641 199.047C556.161 199.307 555.766 199.667 555.453 200.125C555.141 200.583 554.932 201.099 554.828 201.672L553.719 200.391C553.781 199.547 554 198.776 554.375 198.078C554.75 197.37 555.24 196.755 555.844 196.234C556.448 195.714 557.125 195.318 557.875 195.047C558.635 194.766 559.432 194.63 560.266 194.641C561.307 194.661 562.188 194.901 562.906 195.359C563.635 195.818 564.214 196.422 564.641 197.172C565.078 197.911 565.375 198.734 565.531 199.641C565.698 200.547 565.745 201.453 565.672 202.359C565.578 203.484 565.286 204.536 564.797 205.516C564.318 206.484 563.688 207.333 562.906 208.062C562.125 208.792 561.229 209.359 560.219 209.766C559.219 210.161 558.151 210.349 557.016 210.328C555.734 210.297 554.625 210.026 553.688 209.516C552.76 209.005 552.005 208.323 551.422 207.469C550.839 206.604 550.427 205.63 550.188 204.547C549.958 203.464 549.906 202.333 550.031 201.156L550.266 199.234C550.495 197.505 550.979 195.896 551.719 194.406C552.469 192.917 553.427 191.615 554.594 190.5C555.771 189.375 557.12 188.5 558.641 187.875C560.161 187.25 561.818 186.927 563.609 186.906ZM585.625 187.25L585.141 190.297L573.922 210H568.297L579.469 191.312H569.031L569.688 187.25H585.625ZM591.484 196.422L593.766 196.453C594.391 196.432 594.943 196.302 595.422 196.062C595.911 195.823 596.302 195.479 596.594 195.031C596.896 194.573 597.083 194.031 597.156 193.406C597.219 192.938 597.172 192.521 597.016 192.156C596.87 191.792 596.63 191.505 596.297 191.297C595.974 191.078 595.573 190.964 595.094 190.953C594.635 190.943 594.214 191.026 593.828 191.203C593.443 191.38 593.115 191.63 592.844 191.953C592.583 192.276 592.406 192.656 592.312 193.094L587.141 193.125C587.214 191.75 587.651 190.599 588.453 189.672C589.266 188.745 590.271 188.052 591.469 187.594C592.667 187.125 593.896 186.896 595.156 186.906C596.469 186.927 597.688 187.172 598.812 187.641C599.938 188.099 600.833 188.802 601.5 189.75C602.167 190.688 602.458 191.875 602.375 193.312C602.323 194.281 602.057 195.13 601.578 195.859C601.099 196.589 600.479 197.193 599.719 197.672C598.969 198.151 598.151 198.516 597.266 198.766C596.391 199.005 595.521 199.125 594.656 199.125L591.047 199.109L591.484 196.422ZM590.859 200.344L591.281 197.719L594.359 197.734C595.245 197.755 596.099 197.88 596.922 198.109C597.745 198.339 598.479 198.682 599.125 199.141C599.781 199.599 600.286 200.188 600.641 200.906C600.995 201.625 601.151 202.484 601.109 203.484C601.047 204.651 600.745 205.672 600.203 206.547C599.661 207.411 598.958 208.125 598.094 208.688C597.24 209.25 596.292 209.667 595.25 209.938C594.219 210.208 593.177 210.339 592.125 210.328C591.115 210.307 590.177 210.146 589.312 209.844C588.448 209.531 587.688 209.094 587.031 208.531C586.385 207.958 585.88 207.266 585.516 206.453C585.161 205.63 584.984 204.698 584.984 203.656H590.094C590.104 204.146 590.208 204.583 590.406 204.969C590.604 205.354 590.885 205.661 591.25 205.891C591.615 206.109 592.047 206.224 592.547 206.234C593.12 206.245 593.656 206.135 594.156 205.906C594.656 205.667 595.073 205.333 595.406 204.906C595.74 204.469 595.948 203.958 596.031 203.375C596.115 202.76 596.078 202.234 595.922 201.797C595.776 201.349 595.51 201.005 595.125 200.766C594.74 200.516 594.234 200.38 593.609 200.359L590.859 200.344ZM618.953 203.609C618.859 205.12 618.401 206.38 617.578 207.391C616.766 208.391 615.734 209.135 614.484 209.625C613.234 210.115 611.906 210.344 610.5 210.312C609.198 210.292 608 210.042 606.906 209.562C605.823 209.073 604.969 208.354 604.344 207.406C603.729 206.458 603.464 205.276 603.547 203.859C603.62 202.766 603.911 201.807 604.422 200.984C604.932 200.161 605.589 199.479 606.391 198.938C607.203 198.396 608.094 197.995 609.062 197.734C610.042 197.464 611.031 197.339 612.031 197.359C613.271 197.38 614.432 197.63 615.516 198.109C616.599 198.578 617.464 199.271 618.109 200.188C618.755 201.104 619.036 202.245 618.953 203.609ZM613.875 203.188C613.938 202.708 613.911 202.26 613.797 201.844C613.682 201.417 613.469 201.068 613.156 200.797C612.854 200.526 612.438 200.385 611.906 200.375C611.312 200.365 610.792 200.5 610.344 200.781C609.906 201.062 609.552 201.443 609.281 201.922C609.01 202.391 608.844 202.896 608.781 203.438C608.729 203.917 608.76 204.37 608.875 204.797C609 205.224 609.219 205.573 609.531 205.844C609.854 206.115 610.281 206.255 610.812 206.266C611.396 206.276 611.906 206.141 612.344 205.859C612.781 205.568 613.13 205.188 613.391 204.719C613.651 204.24 613.812 203.729 613.875 203.188ZM620.344 193.203C620.26 194.568 619.818 195.703 619.016 196.609C618.224 197.516 617.234 198.193 616.047 198.641C614.87 199.089 613.661 199.297 612.422 199.266C611.276 199.245 610.188 199.016 609.156 198.578C608.135 198.141 607.312 197.495 606.688 196.641C606.073 195.786 605.797 194.724 605.859 193.453C605.943 192.016 606.359 190.807 607.109 189.828C607.87 188.849 608.839 188.115 610.016 187.625C611.203 187.125 612.474 186.891 613.828 186.922C615.089 186.943 616.224 187.198 617.234 187.688C618.255 188.177 619.047 188.885 619.609 189.812C620.172 190.74 620.417 191.87 620.344 193.203ZM615.141 193.484C615.182 193.078 615.161 192.682 615.078 192.297C615.005 191.911 614.839 191.594 614.578 191.344C614.328 191.094 613.964 190.969 613.484 190.969C612.964 190.958 612.521 191.089 612.156 191.359C611.802 191.62 611.521 191.964 611.312 192.391C611.115 192.818 610.984 193.266 610.922 193.734C610.88 194.141 610.896 194.542 610.969 194.938C611.052 195.333 611.219 195.667 611.469 195.938C611.719 196.208 612.089 196.344 612.578 196.344C613.109 196.354 613.552 196.219 613.906 195.938C614.271 195.656 614.552 195.297 614.75 194.859C614.958 194.411 615.089 193.953 615.141 193.484ZM627.484 196.422L629.766 196.453C630.391 196.432 630.943 196.302 631.422 196.062C631.911 195.823 632.302 195.479 632.594 195.031C632.896 194.573 633.083 194.031 633.156 193.406C633.219 192.938 633.172 192.521 633.016 192.156C632.87 191.792 632.63 191.505 632.297 191.297C631.974 191.078 631.573 190.964 631.094 190.953C630.635 190.943 630.214 191.026 629.828 191.203C629.443 191.38 629.115 191.63 628.844 191.953C628.583 192.276 628.406 192.656 628.312 193.094L623.141 193.125C623.214 191.75 623.651 190.599 624.453 189.672C625.266 188.745 626.271 188.052 627.469 187.594C628.667 187.125 629.896 186.896 631.156 186.906C632.469 186.927 633.688 187.172 634.812 187.641C635.938 188.099 636.833 188.802 637.5 189.75C638.167 190.688 638.458 191.875 638.375 193.312C638.323 194.281 638.057 195.13 637.578 195.859C637.099 196.589 636.479 197.193 635.719 197.672C634.969 198.151 634.151 198.516 633.266 198.766C632.391 199.005 631.521 199.125 630.656 199.125L627.047 199.109L627.484 196.422ZM626.859 200.344L627.281 197.719L630.359 197.734C631.245 197.755 632.099 197.88 632.922 198.109C633.745 198.339 634.479 198.682 635.125 199.141C635.781 199.599 636.286 200.188 636.641 200.906C636.995 201.625 637.151 202.484 637.109 203.484C637.047 204.651 636.745 205.672 636.203 206.547C635.661 207.411 634.958 208.125 634.094 208.688C633.24 209.25 632.292 209.667 631.25 209.938C630.219 210.208 629.177 210.339 628.125 210.328C627.115 210.307 626.177 210.146 625.312 209.844C624.448 209.531 623.688 209.094 623.031 208.531C622.385 207.958 621.88 207.266 621.516 206.453C621.161 205.63 620.984 204.698 620.984 203.656H626.094C626.104 204.146 626.208 204.583 626.406 204.969C626.604 205.354 626.885 205.661 627.25 205.891C627.615 206.109 628.047 206.224 628.547 206.234C629.12 206.245 629.656 206.135 630.156 205.906C630.656 205.667 631.073 205.333 631.406 204.906C631.74 204.469 631.948 203.958 632.031 203.375C632.115 202.76 632.078 202.234 631.922 201.797C631.776 201.349 631.51 201.005 631.125 200.766C630.74 200.516 630.234 200.38 629.609 200.359L626.859 200.344ZM642.422 206.094H642.656C643.677 206.115 644.625 206.005 645.5 205.766C646.375 205.516 647.151 205.135 647.828 204.625C648.516 204.115 649.078 203.474 649.516 202.703C649.964 201.922 650.266 201.01 650.422 199.969L651.062 195.25C651.104 194.875 651.125 194.448 651.125 193.969C651.135 193.479 651.083 193.01 650.969 192.562C650.865 192.104 650.672 191.729 650.391 191.438C650.109 191.135 649.698 190.979 649.156 190.969C648.656 190.958 648.219 191.094 647.844 191.375C647.479 191.656 647.167 192.016 646.906 192.453C646.656 192.891 646.458 193.354 646.312 193.844C646.177 194.323 646.089 194.766 646.047 195.172C646.005 195.557 646 195.969 646.031 196.406C646.062 196.833 646.151 197.24 646.297 197.625C646.443 198.01 646.661 198.328 646.953 198.578C647.255 198.828 647.651 198.958 648.141 198.969C648.568 198.969 648.953 198.896 649.297 198.75C649.651 198.604 649.958 198.396 650.219 198.125C650.49 197.854 650.708 197.542 650.875 197.188C651.052 196.833 651.167 196.458 651.219 196.062L652.594 197.266C652.521 198.016 652.307 198.724 651.953 199.391C651.599 200.047 651.146 200.63 650.594 201.141C650.042 201.651 649.417 202.052 648.719 202.344C648.031 202.625 647.307 202.76 646.547 202.75C645.495 202.74 644.589 202.521 643.828 202.094C643.078 201.656 642.474 201.078 642.016 200.359C641.557 199.63 641.234 198.818 641.047 197.922C640.859 197.026 640.802 196.104 640.875 195.156C640.969 194.031 641.255 192.969 641.734 191.969C642.214 190.969 642.839 190.089 643.609 189.328C644.391 188.557 645.286 187.958 646.297 187.531C647.307 187.094 648.385 186.891 649.531 186.922C650.802 186.943 651.875 187.229 652.75 187.781C653.635 188.323 654.344 189.047 654.875 189.953C655.406 190.849 655.771 191.844 655.969 192.938C656.167 194.021 656.208 195.12 656.094 196.234L655.859 198.047C655.682 199.474 655.339 200.812 654.828 202.062C654.318 203.312 653.667 204.443 652.875 205.453C652.083 206.464 651.161 207.333 650.109 208.062C649.068 208.781 647.906 209.339 646.625 209.734C645.354 210.12 643.979 210.318 642.5 210.328H642L642.422 206.094ZM665.109 187.25L667.516 194.781L672.297 187.25H678.625L670.547 198.766L674.984 210H669.078L666.578 202.328L661.672 210H655.266L663.562 198.297L659.234 187.25H665.109ZM684.953 187.25L687.359 194.781L692.141 187.25H698.469L690.391 198.766L694.828 210H688.922L686.422 202.328L681.516 210H675.109L683.406 198.297L679.078 187.25H684.953Z" fill="black"/>
<path d="M359.203 260.086L362.852 250.625H364.07L364.148 252.312L360.305 262H358.977L359.203 260.086ZM359.555 250.625L359.883 260.297L359.492 262H358L357.328 250.625H359.555ZM364.844 260.055L368.102 250.625H370.414L366.188 262H364.711L364.844 260.055ZM364.789 250.625L365.516 260.344L365.219 262H363.883L363.047 252.117L363.539 250.625H364.789ZM374.148 250.625L372.18 262H369.891L371.867 250.625H374.148ZM385.258 250.625L383.281 262H381.062L377.914 254.289L376.578 262H374.289L376.258 250.625H378.484L381.641 258.344L382.977 250.625H385.258ZM396.211 250.625L394.234 262H392.016L388.867 254.289L387.531 262H385.242L387.211 250.625H389.438L392.594 258.344L393.93 250.625H396.211ZM400.602 250.625L398.633 262H396.344L398.32 250.625H400.602ZM411.711 250.625L409.734 262H407.516L404.367 254.289L403.031 262H400.742L402.711 250.625H404.938L408.094 258.344L409.43 250.625H411.711ZM421.484 256.055L420.773 260.57C420.435 260.982 420.013 261.305 419.508 261.539C419.008 261.768 418.479 261.93 417.922 262.023C417.365 262.117 416.833 262.159 416.328 262.148C415.552 262.138 414.891 261.982 414.344 261.68C413.802 261.372 413.37 260.961 413.047 260.445C412.729 259.93 412.516 259.349 412.406 258.703C412.297 258.052 412.286 257.375 412.375 256.672L412.477 255.961C412.576 255.232 412.766 254.536 413.047 253.875C413.328 253.208 413.695 252.617 414.148 252.102C414.602 251.581 415.143 251.174 415.773 250.883C416.404 250.586 417.12 250.445 417.922 250.461C418.724 250.477 419.406 250.633 419.969 250.93C420.531 251.227 420.969 251.654 421.281 252.211C421.599 252.763 421.784 253.435 421.836 254.227L419.633 254.219C419.607 253.844 419.531 253.513 419.406 253.227C419.281 252.94 419.094 252.716 418.844 252.555C418.594 252.393 418.266 252.305 417.859 252.289C417.359 252.268 416.93 252.367 416.57 252.586C416.211 252.805 415.909 253.099 415.664 253.469C415.424 253.833 415.234 254.234 415.094 254.672C414.953 255.104 414.854 255.529 414.797 255.945L414.695 256.68C414.648 257.06 414.625 257.461 414.625 257.883C414.63 258.299 414.69 258.693 414.805 259.062C414.924 259.427 415.122 259.727 415.398 259.961C415.674 260.19 416.06 260.31 416.555 260.32C416.794 260.326 417.029 260.31 417.258 260.273C417.487 260.237 417.708 260.177 417.922 260.094C418.135 260.005 418.336 259.891 418.523 259.75L418.914 257.727H416.836L417.125 256.055H421.484ZM431.5 257.008H428.562L428.836 255.398L431.102 255.406C431.445 255.406 431.773 255.359 432.086 255.266C432.404 255.167 432.669 255.008 432.883 254.789C433.102 254.565 433.24 254.266 433.297 253.891C433.344 253.536 433.312 253.258 433.203 253.055C433.094 252.852 432.919 252.706 432.68 252.617C432.445 252.523 432.167 252.474 431.844 252.469L430.156 252.461L428.5 262H426.211L428.18 250.625L431.914 250.633C432.404 250.638 432.878 250.695 433.336 250.805C433.794 250.914 434.201 251.086 434.555 251.32C434.909 251.555 435.182 251.865 435.375 252.25C435.573 252.635 435.654 253.109 435.617 253.672C435.581 254.286 435.404 254.792 435.086 255.188C434.768 255.578 434.362 255.872 433.867 256.07C433.378 256.268 432.852 256.383 432.289 256.414L431.5 257.008ZM430.57 262H427.023L428.227 260.172L430.641 260.18C430.984 260.18 431.305 260.122 431.602 260.008C431.904 259.888 432.156 259.711 432.359 259.477C432.562 259.242 432.69 258.943 432.742 258.578C432.789 258.271 432.776 258.003 432.703 257.773C432.63 257.539 432.495 257.359 432.297 257.234C432.104 257.104 431.846 257.031 431.523 257.016L429.211 257.008L429.5 255.398L432.156 255.406L432.547 256.031C433.057 256.057 433.5 256.174 433.875 256.383C434.255 256.586 434.544 256.875 434.742 257.25C434.94 257.625 435.021 258.076 434.984 258.602C434.932 259.414 434.695 260.07 434.273 260.57C433.852 261.07 433.312 261.435 432.656 261.664C432.005 261.893 431.31 262.005 430.57 262ZM443.859 260.172L443.539 262H437.656L437.969 260.172H443.859ZM440.383 250.625L438.406 262H436.117L438.086 250.625H440.383ZM443.945 255.258L443.633 257.039H438.516L438.828 255.258H443.945ZM445.5 250.625L445.18 252.461H439.305L439.633 250.625H445.5ZM451.93 250.625L449.961 262H447.672L449.648 250.625H451.93ZM455.32 250.625L455 252.461H445.992L446.312 250.625H455.32ZM454.773 260.953C454.768 260.599 454.885 260.307 455.125 260.078C455.37 259.849 455.667 259.734 456.016 259.734C456.349 259.729 456.635 259.833 456.875 260.047C457.12 260.255 457.245 260.531 457.25 260.875C457.255 261.229 457.135 261.521 456.891 261.75C456.651 261.979 456.357 262.094 456.008 262.094C455.674 262.099 455.385 261.997 455.141 261.789C454.901 261.576 454.779 261.297 454.773 260.953ZM455.891 254.508C455.885 254.154 456.003 253.862 456.242 253.633C456.487 253.404 456.784 253.289 457.133 253.289C457.466 253.284 457.753 253.388 457.992 253.602C458.237 253.81 458.362 254.086 458.367 254.43C458.372 254.784 458.253 255.076 458.008 255.305C457.768 255.534 457.474 255.648 457.125 255.648C456.792 255.654 456.503 255.552 456.258 255.344C456.018 255.13 455.896 254.852 455.891 254.508ZM461.914 256.805L460.125 256.359L461.648 250.625H467.875L467.586 252.445H463.203L462.445 254.984C462.695 254.833 462.964 254.721 463.25 254.648C463.542 254.576 463.828 254.539 464.109 254.539C464.651 254.539 465.115 254.643 465.5 254.852C465.891 255.055 466.206 255.331 466.445 255.68C466.685 256.029 466.852 256.43 466.945 256.883C467.044 257.331 467.073 257.802 467.031 258.297C466.984 258.859 466.849 259.38 466.625 259.859C466.401 260.333 466.102 260.745 465.727 261.094C465.357 261.443 464.927 261.711 464.438 261.898C463.948 262.086 463.417 262.174 462.844 262.164C462.359 262.154 461.911 262.068 461.5 261.906C461.089 261.745 460.729 261.518 460.422 261.227C460.115 260.93 459.875 260.581 459.703 260.18C459.531 259.773 459.445 259.326 459.445 258.836H461.609C461.625 259.117 461.68 259.375 461.773 259.609C461.867 259.839 462.008 260.023 462.195 260.164C462.388 260.305 462.641 260.38 462.953 260.391C463.266 260.396 463.534 260.336 463.758 260.211C463.982 260.086 464.169 259.914 464.32 259.695C464.471 259.477 464.589 259.234 464.672 258.969C464.755 258.703 464.81 258.438 464.836 258.172C464.862 257.922 464.857 257.68 464.82 257.445C464.789 257.206 464.721 256.992 464.617 256.805C464.513 256.617 464.365 256.469 464.172 256.359C463.979 256.25 463.74 256.193 463.453 256.188C463.151 256.182 462.87 256.232 462.609 256.336C462.354 256.44 462.122 256.596 461.914 256.805ZM470.82 256.805L469.031 256.359L470.555 250.625H476.781L476.492 252.445H472.109L471.352 254.984C471.602 254.833 471.87 254.721 472.156 254.648C472.448 254.576 472.734 254.539 473.016 254.539C473.557 254.539 474.021 254.643 474.406 254.852C474.797 255.055 475.112 255.331 475.352 255.68C475.591 256.029 475.758 256.43 475.852 256.883C475.951 257.331 475.979 257.802 475.938 258.297C475.891 258.859 475.755 259.38 475.531 259.859C475.307 260.333 475.008 260.745 474.633 261.094C474.263 261.443 473.833 261.711 473.344 261.898C472.854 262.086 472.323 262.174 471.75 262.164C471.266 262.154 470.818 262.068 470.406 261.906C469.995 261.745 469.635 261.518 469.328 261.227C469.021 260.93 468.781 260.581 468.609 260.18C468.438 259.773 468.352 259.326 468.352 258.836H470.516C470.531 259.117 470.586 259.375 470.68 259.609C470.773 259.839 470.914 260.023 471.102 260.164C471.294 260.305 471.547 260.38 471.859 260.391C472.172 260.396 472.44 260.336 472.664 260.211C472.888 260.086 473.076 259.914 473.227 259.695C473.378 259.477 473.495 259.234 473.578 258.969C473.661 258.703 473.716 258.438 473.742 258.172C473.768 257.922 473.763 257.68 473.727 257.445C473.695 257.206 473.628 256.992 473.523 256.805C473.419 256.617 473.271 256.469 473.078 256.359C472.885 256.25 472.646 256.193 472.359 256.188C472.057 256.182 471.776 256.232 471.516 256.336C471.26 256.44 471.029 256.596 470.82 256.805ZM478.156 253.414L478.203 252.812C478.25 252.344 478.391 251.93 478.625 251.57C478.859 251.211 479.167 250.935 479.547 250.742C479.927 250.544 480.354 250.451 480.828 250.461C481.292 250.466 481.69 250.57 482.023 250.773C482.357 250.977 482.609 251.255 482.781 251.609C482.958 251.958 483.031 252.359 483 252.812L482.953 253.414C482.906 253.883 482.766 254.297 482.531 254.656C482.297 255.01 481.99 255.284 481.609 255.477C481.234 255.669 480.81 255.76 480.336 255.75C479.883 255.745 479.487 255.643 479.148 255.445C478.815 255.242 478.56 254.966 478.383 254.617C478.206 254.263 478.13 253.862 478.156 253.414ZM479.695 252.812L479.617 253.438C479.607 253.609 479.622 253.776 479.664 253.938C479.706 254.099 479.781 254.232 479.891 254.336C480.005 254.435 480.161 254.487 480.359 254.492C480.573 254.497 480.755 254.451 480.906 254.352C481.062 254.247 481.188 254.112 481.281 253.945C481.375 253.779 481.438 253.602 481.469 253.414L481.555 252.805C481.57 252.628 481.557 252.458 481.516 252.297C481.479 252.13 481.404 251.995 481.289 251.891C481.174 251.781 481.016 251.724 480.812 251.719C480.599 251.714 480.414 251.763 480.258 251.867C480.102 251.966 479.977 252.102 479.883 252.273C479.789 252.445 479.727 252.625 479.695 252.812ZM482.328 259.812L482.375 259.211C482.417 258.742 482.557 258.331 482.797 257.977C483.036 257.617 483.346 257.341 483.727 257.148C484.107 256.951 484.534 256.854 485.008 256.859C485.471 256.87 485.87 256.977 486.203 257.18C486.536 257.383 486.789 257.659 486.961 258.008C487.138 258.357 487.214 258.758 487.188 259.211L487.133 259.812C487.086 260.286 486.945 260.703 486.711 261.062C486.482 261.417 486.177 261.693 485.797 261.891C485.417 262.083 484.99 262.174 484.516 262.164C484.057 262.154 483.659 262.049 483.32 261.852C482.987 261.648 482.732 261.372 482.555 261.023C482.378 260.669 482.302 260.266 482.328 259.812ZM483.867 259.211L483.805 259.844C483.789 260.01 483.802 260.174 483.844 260.336C483.891 260.497 483.971 260.63 484.086 260.734C484.201 260.839 484.352 260.893 484.539 260.898C484.768 260.909 484.958 260.867 485.109 260.773C485.266 260.674 485.388 260.542 485.477 260.375C485.57 260.203 485.63 260.016 485.656 259.812L485.742 259.203C485.753 259.026 485.737 258.857 485.695 258.695C485.659 258.534 485.583 258.401 485.469 258.297C485.354 258.188 485.198 258.13 485 258.125C484.786 258.12 484.599 258.169 484.438 258.273C484.281 258.372 484.154 258.505 484.055 258.672C483.961 258.839 483.898 259.018 483.867 259.211ZM486.57 252.32L479.711 261.125L478.648 260.484L485.516 251.688L486.57 252.32Z" fill="black"/>
<line x1="512" y1="231" x2="512" y2="266" stroke="black" stroke-width="2"/>
<path d="M533.594 260.172L533.273 262H527.703L528.023 260.172H533.594ZM530.43 250.625L528.453 262H526.164L528.133 250.625H530.43ZM544.148 256.008L544.086 256.555C543.982 257.284 543.786 257.987 543.5 258.664C543.214 259.341 542.839 259.945 542.375 260.477C541.911 261.003 541.359 261.419 540.719 261.727C540.083 262.029 539.362 262.172 538.555 262.156C537.784 262.141 537.13 261.974 536.594 261.656C536.062 261.333 535.641 260.906 535.328 260.375C535.021 259.844 534.815 259.253 534.711 258.602C534.607 257.945 534.596 257.273 534.68 256.586L534.742 256.047C534.846 255.318 535.042 254.617 535.328 253.945C535.62 253.273 535.997 252.674 536.461 252.148C536.93 251.617 537.482 251.201 538.117 250.898C538.758 250.596 539.477 250.453 540.273 250.469C541.044 250.479 541.695 250.646 542.227 250.969C542.763 251.286 543.185 251.711 543.492 252.242C543.805 252.768 544.013 253.359 544.117 254.016C544.221 254.667 544.232 255.331 544.148 256.008ZM541.766 256.586L541.844 256.023C541.885 255.669 541.906 255.286 541.906 254.875C541.911 254.458 541.865 254.06 541.766 253.68C541.667 253.294 541.49 252.979 541.234 252.734C540.984 252.484 540.622 252.349 540.148 252.328C539.638 252.312 539.201 252.414 538.836 252.633C538.477 252.852 538.174 253.148 537.93 253.523C537.69 253.893 537.5 254.299 537.359 254.742C537.224 255.18 537.125 255.609 537.062 256.031L536.992 256.594C536.945 256.943 536.919 257.328 536.914 257.75C536.914 258.167 536.964 258.568 537.062 258.953C537.161 259.333 537.339 259.648 537.594 259.898C537.849 260.148 538.214 260.284 538.688 260.305C539.193 260.32 539.625 260.216 539.984 259.992C540.349 259.768 540.654 259.471 540.898 259.102C541.143 258.727 541.336 258.32 541.477 257.883C541.617 257.44 541.714 257.008 541.766 256.586ZM551.031 258.969C551.078 258.693 551.055 258.461 550.961 258.273C550.872 258.081 550.737 257.919 550.555 257.789C550.378 257.654 550.177 257.539 549.953 257.445C549.734 257.352 549.516 257.266 549.297 257.188C548.896 257.031 548.5 256.854 548.109 256.656C547.724 256.458 547.372 256.224 547.055 255.953C546.737 255.677 546.49 255.357 546.312 254.992C546.135 254.622 546.062 254.19 546.094 253.695C546.13 253.133 546.289 252.646 546.57 252.234C546.852 251.823 547.208 251.487 547.641 251.227C548.078 250.961 548.552 250.766 549.062 250.641C549.578 250.516 550.083 250.458 550.578 250.469C551.286 250.479 551.917 250.628 552.469 250.914C553.021 251.195 553.453 251.596 553.766 252.117C554.083 252.633 554.232 253.253 554.211 253.977H551.945C551.966 253.633 551.922 253.336 551.812 253.086C551.708 252.831 551.539 252.635 551.305 252.5C551.076 252.359 550.781 252.284 550.422 252.273C550.115 252.268 549.812 252.318 549.516 252.422C549.224 252.521 548.971 252.677 548.758 252.891C548.549 253.099 548.419 253.37 548.367 253.703C548.326 253.948 548.359 254.159 548.469 254.336C548.583 254.513 548.737 254.664 548.93 254.789C549.128 254.914 549.336 255.021 549.555 255.109C549.779 255.193 549.979 255.268 550.156 255.336C550.578 255.487 550.984 255.667 551.375 255.875C551.771 256.083 552.12 256.331 552.422 256.617C552.724 256.898 552.956 257.232 553.117 257.617C553.279 257.997 553.344 258.44 553.312 258.945C553.266 259.523 553.109 260.018 552.844 260.43C552.578 260.836 552.234 261.169 551.812 261.43C551.391 261.685 550.93 261.872 550.43 261.992C549.93 262.112 549.422 262.169 548.906 262.164C548.344 262.154 547.815 262.065 547.32 261.898C546.826 261.732 546.393 261.492 546.023 261.18C545.654 260.862 545.367 260.474 545.164 260.016C544.966 259.552 544.875 259.023 544.891 258.43L547.18 258.438C547.159 258.755 547.182 259.034 547.25 259.273C547.323 259.508 547.438 259.706 547.594 259.867C547.755 260.029 547.953 260.151 548.188 260.234C548.427 260.312 548.706 260.354 549.023 260.359C549.331 260.359 549.628 260.312 549.914 260.219C550.201 260.125 550.445 259.977 550.648 259.773C550.852 259.565 550.979 259.297 551.031 258.969ZM558.727 250.625L556.758 262H554.469L556.445 250.625H558.727ZM569.836 250.625L567.859 262H565.641L562.492 254.289L561.156 262H558.867L560.836 250.625H563.062L566.219 258.344L567.555 250.625H569.836ZM579.609 256.055L578.898 260.57C578.56 260.982 578.138 261.305 577.633 261.539C577.133 261.768 576.604 261.93 576.047 262.023C575.49 262.117 574.958 262.159 574.453 262.148C573.677 262.138 573.016 261.982 572.469 261.68C571.927 261.372 571.495 260.961 571.172 260.445C570.854 259.93 570.641 259.349 570.531 258.703C570.422 258.052 570.411 257.375 570.5 256.672L570.602 255.961C570.701 255.232 570.891 254.536 571.172 253.875C571.453 253.208 571.82 252.617 572.273 252.102C572.727 251.581 573.268 251.174 573.898 250.883C574.529 250.586 575.245 250.445 576.047 250.461C576.849 250.477 577.531 250.633 578.094 250.93C578.656 251.227 579.094 251.654 579.406 252.211C579.724 252.763 579.909 253.435 579.961 254.227L577.758 254.219C577.732 253.844 577.656 253.513 577.531 253.227C577.406 252.94 577.219 252.716 576.969 252.555C576.719 252.393 576.391 252.305 575.984 252.289C575.484 252.268 575.055 252.367 574.695 252.586C574.336 252.805 574.034 253.099 573.789 253.469C573.549 253.833 573.359 254.234 573.219 254.672C573.078 255.104 572.979 255.529 572.922 255.945L572.82 256.68C572.773 257.06 572.75 257.461 572.75 257.883C572.755 258.299 572.815 258.693 572.93 259.062C573.049 259.427 573.247 259.727 573.523 259.961C573.799 260.19 574.185 260.31 574.68 260.32C574.919 260.326 575.154 260.31 575.383 260.273C575.612 260.237 575.833 260.177 576.047 260.094C576.26 260.005 576.461 259.891 576.648 259.75L577.039 257.727H574.961L575.25 256.055H579.609ZM589.625 257.008H586.688L586.961 255.398L589.227 255.406C589.57 255.406 589.898 255.359 590.211 255.266C590.529 255.167 590.794 255.008 591.008 254.789C591.227 254.565 591.365 254.266 591.422 253.891C591.469 253.536 591.438 253.258 591.328 253.055C591.219 252.852 591.044 252.706 590.805 252.617C590.57 252.523 590.292 252.474 589.969 252.469L588.281 252.461L586.625 262H584.336L586.305 250.625L590.039 250.633C590.529 250.638 591.003 250.695 591.461 250.805C591.919 250.914 592.326 251.086 592.68 251.32C593.034 251.555 593.307 251.865 593.5 252.25C593.698 252.635 593.779 253.109 593.742 253.672C593.706 254.286 593.529 254.792 593.211 255.188C592.893 255.578 592.487 255.872 591.992 256.07C591.503 256.268 590.977 256.383 590.414 256.414L589.625 257.008ZM588.695 262H585.148L586.352 260.172L588.766 260.18C589.109 260.18 589.43 260.122 589.727 260.008C590.029 259.888 590.281 259.711 590.484 259.477C590.688 259.242 590.815 258.943 590.867 258.578C590.914 258.271 590.901 258.003 590.828 257.773C590.755 257.539 590.62 257.359 590.422 257.234C590.229 257.104 589.971 257.031 589.648 257.016L587.336 257.008L587.625 255.398L590.281 255.406L590.672 256.031C591.182 256.057 591.625 256.174 592 256.383C592.38 256.586 592.669 256.875 592.867 257.25C593.065 257.625 593.146 258.076 593.109 258.602C593.057 259.414 592.82 260.07 592.398 260.57C591.977 261.07 591.438 261.435 590.781 261.664C590.13 261.893 589.435 262.005 588.695 262ZM601.984 260.172L601.664 262H595.781L596.094 260.172H601.984ZM598.508 250.625L596.531 262H594.242L596.211 250.625H598.508ZM602.07 255.258L601.758 257.039H596.641L596.953 255.258H602.07ZM603.625 250.625L603.305 252.461H597.43L597.758 250.625H603.625ZM610.055 250.625L608.086 262H605.797L607.773 250.625H610.055ZM613.445 250.625L613.125 252.461H604.117L604.438 250.625H613.445ZM612.898 260.953C612.893 260.599 613.01 260.307 613.25 260.078C613.495 259.849 613.792 259.734 614.141 259.734C614.474 259.729 614.76 259.833 615 260.047C615.245 260.255 615.37 260.531 615.375 260.875C615.38 261.229 615.26 261.521 615.016 261.75C614.776 261.979 614.482 262.094 614.133 262.094C613.799 262.099 613.51 261.997 613.266 261.789C613.026 261.576 612.904 261.297 612.898 260.953ZM614.016 254.508C614.01 254.154 614.128 253.862 614.367 253.633C614.612 253.404 614.909 253.289 615.258 253.289C615.591 253.284 615.878 253.388 616.117 253.602C616.362 253.81 616.487 254.086 616.492 254.43C616.497 254.784 616.378 255.076 616.133 255.305C615.893 255.534 615.599 255.648 615.25 255.648C614.917 255.654 614.628 255.552 614.383 255.344C614.143 255.13 614.021 254.852 614.016 254.508ZM625.469 257.75L625.164 259.516H617.203L617.352 258.039L623.164 250.625H625.047L622.539 253.953L619.609 257.742L625.469 257.75ZM625.445 250.625L623.477 262H621.281L623.258 250.625H625.445ZM628.945 256.805L627.156 256.359L628.68 250.625H634.906L634.617 252.445H630.234L629.477 254.984C629.727 254.833 629.995 254.721 630.281 254.648C630.573 254.576 630.859 254.539 631.141 254.539C631.682 254.539 632.146 254.643 632.531 254.852C632.922 255.055 633.237 255.331 633.477 255.68C633.716 256.029 633.883 256.43 633.977 256.883C634.076 257.331 634.104 257.802 634.062 258.297C634.016 258.859 633.88 259.38 633.656 259.859C633.432 260.333 633.133 260.745 632.758 261.094C632.388 261.443 631.958 261.711 631.469 261.898C630.979 262.086 630.448 262.174 629.875 262.164C629.391 262.154 628.943 262.068 628.531 261.906C628.12 261.745 627.76 261.518 627.453 261.227C627.146 260.93 626.906 260.581 626.734 260.18C626.562 259.773 626.477 259.326 626.477 258.836H628.641C628.656 259.117 628.711 259.375 628.805 259.609C628.898 259.839 629.039 260.023 629.227 260.164C629.419 260.305 629.672 260.38 629.984 260.391C630.297 260.396 630.565 260.336 630.789 260.211C631.013 260.086 631.201 259.914 631.352 259.695C631.503 259.477 631.62 259.234 631.703 258.969C631.786 258.703 631.841 258.438 631.867 258.172C631.893 257.922 631.888 257.68 631.852 257.445C631.82 257.206 631.753 256.992 631.648 256.805C631.544 256.617 631.396 256.469 631.203 256.359C631.01 256.25 630.771 256.193 630.484 256.188C630.182 256.182 629.901 256.232 629.641 256.336C629.385 256.44 629.154 256.596 628.945 256.805ZM636.281 253.414L636.328 252.812C636.375 252.344 636.516 251.93 636.75 251.57C636.984 251.211 637.292 250.935 637.672 250.742C638.052 250.544 638.479 250.451 638.953 250.461C639.417 250.466 639.815 250.57 640.148 250.773C640.482 250.977 640.734 251.255 640.906 251.609C641.083 251.958 641.156 252.359 641.125 252.812L641.078 253.414C641.031 253.883 640.891 254.297 640.656 254.656C640.422 255.01 640.115 255.284 639.734 255.477C639.359 255.669 638.935 255.76 638.461 255.75C638.008 255.745 637.612 255.643 637.273 255.445C636.94 255.242 636.685 254.966 636.508 254.617C636.331 254.263 636.255 253.862 636.281 253.414ZM637.82 252.812L637.742 253.438C637.732 253.609 637.747 253.776 637.789 253.938C637.831 254.099 637.906 254.232 638.016 254.336C638.13 254.435 638.286 254.487 638.484 254.492C638.698 254.497 638.88 254.451 639.031 254.352C639.188 254.247 639.312 254.112 639.406 253.945C639.5 253.779 639.562 253.602 639.594 253.414L639.68 252.805C639.695 252.628 639.682 252.458 639.641 252.297C639.604 252.13 639.529 251.995 639.414 251.891C639.299 251.781 639.141 251.724 638.938 251.719C638.724 251.714 638.539 251.763 638.383 251.867C638.227 251.966 638.102 252.102 638.008 252.273C637.914 252.445 637.852 252.625 637.82 252.812ZM640.453 259.812L640.5 259.211C640.542 258.742 640.682 258.331 640.922 257.977C641.161 257.617 641.471 257.341 641.852 257.148C642.232 256.951 642.659 256.854 643.133 256.859C643.596 256.87 643.995 256.977 644.328 257.18C644.661 257.383 644.914 257.659 645.086 258.008C645.263 258.357 645.339 258.758 645.312 259.211L645.258 259.812C645.211 260.286 645.07 260.703 644.836 261.062C644.607 261.417 644.302 261.693 643.922 261.891C643.542 262.083 643.115 262.174 642.641 262.164C642.182 262.154 641.784 262.049 641.445 261.852C641.112 261.648 640.857 261.372 640.68 261.023C640.503 260.669 640.427 260.266 640.453 259.812ZM641.992 259.211L641.93 259.844C641.914 260.01 641.927 260.174 641.969 260.336C642.016 260.497 642.096 260.63 642.211 260.734C642.326 260.839 642.477 260.893 642.664 260.898C642.893 260.909 643.083 260.867 643.234 260.773C643.391 260.674 643.513 260.542 643.602 260.375C643.695 260.203 643.755 260.016 643.781 259.812L643.867 259.203C643.878 259.026 643.862 258.857 643.82 258.695C643.784 258.534 643.708 258.401 643.594 258.297C643.479 258.188 643.323 258.13 643.125 258.125C642.911 258.12 642.724 258.169 642.562 258.273C642.406 258.372 642.279 258.505 642.18 258.672C642.086 258.839 642.023 259.018 641.992 259.211ZM644.695 252.32L637.836 261.125L636.773 260.484L643.641 251.688L644.695 252.32Z" fill="black"/>
</svg>
