<svg width="227" height="22" viewBox="0 0 227 22" fill="none" xmlns="http://www.w3.org/2000/svg">
<path d="M2.77344 1.09375H6.46484L11.25 15.3262L16.0215 1.09375H19.7129L12.7402 21H9.74609L2.77344 1.09375ZM0.640625 1.09375H4.40039L5.09766 15.8457V21H0.640625V1.09375ZM18.0859 1.09375H21.8594V21H17.3887V15.8457L18.0859 1.09375ZM27.9707 1.09375L31.8672 9.95312L35.791 1.09375H40.6035L34.1367 13.8086V21H29.6113V13.8086L23.1309 1.09375H27.9707ZM49.2305 1.09375H56.873C58.3952 1.09375 59.7122 1.32161 60.8242 1.77734C61.9453 2.23307 62.8066 2.90755 63.4082 3.80078C64.0098 4.69401 64.3105 5.79688 64.3105 7.10938C64.3105 8.20312 64.1328 9.13281 63.7773 9.89844C63.4219 10.6641 62.9206 11.2975 62.2734 11.7988C61.6354 12.3001 60.888 12.7057 60.0312 13.0156L58.582 13.8086H52.0742L52.0469 10.3496H56.8867C57.5521 10.3496 58.1035 10.2311 58.541 9.99414C58.9785 9.75716 59.3066 9.42448 59.5254 8.99609C59.7533 8.55859 59.8672 8.04818 59.8672 7.46484C59.8672 6.86328 59.7533 6.34375 59.5254 5.90625C59.2975 5.46875 58.9603 5.13607 58.5137 4.9082C58.0762 4.67122 57.5293 4.55273 56.873 4.55273H53.6875V21H49.2305V1.09375ZM60.25 21L55.7793 12.1543L60.4824 12.1406L65.0215 20.7949V21H60.25ZM80.8672 17.5547V21H70.2715V17.5547H80.8672ZM71.7891 1.09375V21H67.332V1.09375H71.7891ZM79.5 9.10547V12.4414H70.2715V9.10547H79.5ZM80.8809 1.09375V4.55273H70.2715V1.09375H80.8809ZM94.498 14.3281H98.9277C98.8548 15.6953 98.4811 16.903 97.8066 17.9512C97.1413 18.9902 96.2161 19.806 95.0312 20.3984C93.8464 20.9818 92.4382 21.2734 90.8066 21.2734C89.5033 21.2734 88.3366 21.0501 87.3066 20.6035C86.2767 20.1569 85.4017 19.5189 84.6816 18.6895C83.9707 17.8509 83.4238 16.8438 83.041 15.668C82.6673 14.4831 82.4805 13.1478 82.4805 11.6621V10.4453C82.4805 8.95964 82.6764 7.62435 83.0684 6.43945C83.4603 5.25456 84.0208 4.24284 84.75 3.4043C85.4792 2.56576 86.3542 1.92318 87.375 1.47656C88.3958 1.02995 89.5352 0.806641 90.793 0.806641C92.4883 0.806641 93.9193 1.11198 95.0859 1.72266C96.2526 2.33333 97.1549 3.17188 97.793 4.23828C98.4401 5.30469 98.8275 6.52148 98.9551 7.88867H94.5117C94.4753 7.11393 94.3294 6.46224 94.0742 5.93359C93.819 5.39583 93.4271 4.99023 92.8984 4.7168C92.3698 4.44336 91.668 4.30664 90.793 4.30664C90.1549 4.30664 89.5944 4.42513 89.1113 4.66211C88.6374 4.89909 88.2409 5.26823 87.9219 5.76953C87.612 6.27083 87.3796 6.90885 87.2246 7.68359C87.0697 8.44922 86.9922 9.36068 86.9922 10.418V11.6621C86.9922 12.7103 87.0605 13.6172 87.1973 14.3828C87.334 15.1484 87.5527 15.7819 87.8535 16.2832C88.1634 16.7845 88.5599 17.1582 89.043 17.4043C89.526 17.6504 90.1139 17.7734 90.8066 17.7734C91.5996 17.7734 92.2604 17.6504 92.7891 17.4043C93.3177 17.1491 93.7233 16.7663 94.0059 16.2559C94.2884 15.7454 94.4525 15.1029 94.498 14.3281ZM114.938 17.5547V21H104.342V17.5547H114.938ZM105.859 1.09375V21H101.402V1.09375H105.859ZM113.57 9.10547V12.4414H104.342V9.10547H113.57ZM114.951 1.09375V4.55273H104.342V1.09375H114.951ZM133.545 1.09375V21H129.102L121.582 8.13477V21H117.125V1.09375H121.582L129.115 13.959V1.09375H133.545ZM145.699 1.09375V21H141.256V1.09375H145.699ZM151.756 1.09375V4.55273H135.322V1.09375H151.756ZM168.121 12.4004H163.008L162.98 9.41992H167.205C167.952 9.41992 168.559 9.32878 169.023 9.14648C169.497 8.96419 169.844 8.69987 170.062 8.35352C170.281 7.99805 170.391 7.56055 170.391 7.04102C170.391 6.44857 170.281 5.97005 170.062 5.60547C169.844 5.24089 169.497 4.97656 169.023 4.8125C168.559 4.63932 167.957 4.55273 167.219 4.55273H164.621V21H160.164V1.09375H167.219C168.413 1.09375 169.479 1.20312 170.418 1.42188C171.357 1.64062 172.154 1.97786 172.811 2.43359C173.476 2.88932 173.982 3.45898 174.328 4.14258C174.674 4.82617 174.848 5.63281 174.848 6.5625C174.848 7.3737 174.665 8.13021 174.301 8.83203C173.945 9.53385 173.371 10.1035 172.578 10.541C171.785 10.9785 170.723 11.2155 169.393 11.252L168.121 12.4004ZM167.943 21H161.873L163.486 17.5547H167.943C168.627 17.5547 169.183 17.4453 169.611 17.2266C170.04 17.0078 170.354 16.7116 170.555 16.3379C170.755 15.9642 170.855 15.5449 170.855 15.0801C170.855 14.5332 170.76 14.0592 170.568 13.6582C170.386 13.2572 170.094 12.9473 169.693 12.7285C169.301 12.5098 168.777 12.4004 168.121 12.4004H164.129L164.156 9.41992H169.037L170.076 10.5957C171.343 10.5684 172.355 10.7734 173.111 11.2109C173.877 11.6393 174.428 12.2044 174.766 12.9062C175.103 13.6081 175.271 14.3509 175.271 15.1348C175.271 16.429 174.993 17.5137 174.438 18.3887C173.882 19.2546 173.057 19.9062 171.963 20.3438C170.878 20.7812 169.538 21 167.943 21ZM191.691 17.5547V21H181.096V17.5547H191.691ZM182.613 1.09375V21H178.156V1.09375H182.613ZM190.324 9.10547V12.4414H181.096V9.10547H190.324ZM191.705 1.09375V4.55273H181.096V1.09375H191.705ZM203.422 1.09375V21H198.979V1.09375H203.422ZM209.479 1.09375V4.55273H193.045V1.09375H209.479ZM221.783 15.75C221.783 15.4128 221.733 15.112 221.633 14.8477C221.533 14.5742 221.35 14.3236 221.086 14.0957C220.822 13.8678 220.448 13.64 219.965 13.4121C219.482 13.1751 218.848 12.9336 218.064 12.6875C217.171 12.3958 216.319 12.0677 215.508 11.7031C214.706 11.3294 213.99 10.8965 213.361 10.4043C212.732 9.91211 212.236 9.33789 211.871 8.68164C211.516 8.02539 211.338 7.25977 211.338 6.38477C211.338 5.53711 211.525 4.77148 211.898 4.08789C212.272 3.4043 212.796 2.82096 213.471 2.33789C214.145 1.8457 214.938 1.47201 215.85 1.2168C216.761 0.952474 217.764 0.820312 218.857 0.820312C220.316 0.820312 221.596 1.08008 222.699 1.59961C223.811 2.11003 224.677 2.83008 225.297 3.75977C225.917 4.68034 226.227 5.7513 226.227 6.97266H221.797C221.797 6.4349 221.683 5.96094 221.455 5.55078C221.236 5.13151 220.899 4.80339 220.443 4.56641C219.997 4.32943 219.436 4.21094 218.762 4.21094C218.105 4.21094 217.554 4.3112 217.107 4.51172C216.67 4.70312 216.337 4.96745 216.109 5.30469C215.891 5.64193 215.781 6.01107 215.781 6.41211C215.781 6.73112 215.863 7.02279 216.027 7.28711C216.201 7.54232 216.447 7.78385 216.766 8.01172C217.094 8.23047 217.495 8.4401 217.969 8.64062C218.443 8.84115 218.985 9.03255 219.596 9.21484C220.662 9.55208 221.605 9.92578 222.426 10.3359C223.255 10.7461 223.952 11.2109 224.518 11.7305C225.083 12.25 225.507 12.8379 225.789 13.4941C226.081 14.1504 226.227 14.8932 226.227 15.7227C226.227 16.6068 226.053 17.3906 225.707 18.0742C225.37 18.7578 224.878 19.3411 224.23 19.8242C223.592 20.2982 222.827 20.6582 221.934 20.9043C221.04 21.1504 220.042 21.2734 218.939 21.2734C217.937 21.2734 216.948 21.1458 215.973 20.8906C214.997 20.6263 214.113 20.2253 213.32 19.6875C212.536 19.1497 211.908 18.4661 211.434 17.6367C210.969 16.7982 210.736 15.8047 210.736 14.6562H215.193C215.193 15.2578 215.28 15.7682 215.453 16.1875C215.626 16.5977 215.872 16.9303 216.191 17.1855C216.52 17.4408 216.916 17.623 217.381 17.7324C217.846 17.8418 218.365 17.8965 218.939 17.8965C219.605 17.8965 220.143 17.8053 220.553 17.623C220.972 17.4316 221.282 17.1719 221.482 16.8438C221.683 16.5156 221.783 16.151 221.783 15.75Z" fill="black"/>
</svg>
