<svg width="936" height="93" viewBox="0 0 936 93" fill="none" xmlns="http://www.w3.org/2000/svg">
<g filter="url(#filter0_d_70_6857)">
<rect x="6" width="923.92" height="75.2263" rx="37.6131" fill="white"/>
<g filter="url(#filter1_i_70_6857)">
<rect x="23.4082" y="11.606" width="160.015" height="52.0146" rx="26.0073" fill="#208C53"/>
<path d="M42.4333 32.4656V35.5736H45.8951C46.5135 35.5736 47.0139 35.4588 47.3964 35.2293C47.7853 34.9934 47.9798 34.5791 47.9798 33.9862C47.9798 33.3295 47.7248 32.896 47.2148 32.6856C46.7749 32.539 46.2138 32.4656 45.5317 32.4656H42.4333ZM42.4333 37.9069V41.6652H45.8951C46.5135 41.6652 46.9948 41.5823 47.3391 41.4165C47.9638 41.1105 48.2762 40.524 48.2762 39.657C48.2762 38.9238 47.9734 38.4202 47.3678 38.146C47.0299 37.993 46.5549 37.9133 45.9429 37.9069H42.4333ZM46.4688 30.0175C48.1965 30.043 49.4206 30.5435 50.141 31.5189C50.5745 32.1182 50.7913 32.8354 50.7913 33.6706C50.7913 34.5312 50.5745 35.223 50.141 35.7457C49.8987 36.039 49.5417 36.3068 49.07 36.549C49.7904 36.8104 50.3323 37.2248 50.6957 37.7922C51.0654 38.3596 51.2503 39.0481 51.2503 39.8578C51.2503 40.6929 51.0399 41.442 50.6192 42.1051C50.3514 42.545 50.0167 42.9147 49.615 43.2144C49.1624 43.5586 48.6269 43.7945 48.0085 43.922C47.3964 44.0495 46.7302 44.1133 46.0098 44.1133H39.6218V30.0175H46.4688ZM64.1507 32.5135H56.6916V35.5067H63.5387V37.9548H56.6916V41.5791H64.4949V44.1133H53.8132V30.0175H64.1507V32.5135ZM77.0319 30.0175V32.5135H72.8147V44.1133H69.8502V32.5135H65.6138V30.0175H77.0319ZM84.1946 44.1133V30.0175H87.1112V35.3919H92.6195V30.0175H95.5457V44.1133H92.6195V37.8209H87.1112V44.1133H84.1946ZM101.064 44.1133H98.1373V30.0175H101.064V44.1133ZM105.95 39.7622C106.039 40.4061 106.215 40.8874 106.476 41.2062C106.954 41.7863 107.774 42.0764 108.934 42.0764C109.629 42.0764 110.193 41.9999 110.626 41.8469C111.449 41.5536 111.86 41.0085 111.86 40.2116C111.86 39.7462 111.656 39.386 111.248 39.131C110.84 38.8824 110.199 38.6624 109.326 38.4712L107.834 38.1365C106.368 37.8049 105.354 37.4447 104.793 37.0558C103.843 36.4056 103.368 35.3887 103.368 34.0053C103.368 32.743 103.827 31.6942 104.745 30.8591C105.663 30.0239 107.012 29.6063 108.79 29.6063C110.276 29.6063 111.541 30.0016 112.587 30.7921C113.639 31.5763 114.19 32.7175 114.241 34.2157H111.411C111.36 33.3678 110.99 32.7653 110.301 32.4083C109.842 32.1724 109.272 32.0544 108.59 32.0544C107.831 32.0544 107.225 32.2075 106.773 32.5135C106.32 32.8195 106.094 33.2466 106.094 33.7949C106.094 34.2985 106.317 34.6747 106.763 34.9233C107.05 35.0891 107.662 35.2835 108.599 35.5067L111.028 36.09C112.093 36.345 112.896 36.6861 113.438 37.1132C114.279 37.7763 114.7 38.7357 114.7 39.9917C114.7 41.2795 114.206 42.3505 113.218 43.2048C112.236 44.0527 110.846 44.4767 109.049 44.4767C107.212 44.4767 105.768 44.0591 104.717 43.2239C103.665 42.3824 103.139 41.2285 103.139 39.7622H105.95ZM127.122 30.0175V32.5135H122.905V44.1133H119.941V32.5135H115.704V30.0175H127.122ZM134.744 42.0094C135.911 42.0094 136.835 41.5791 137.517 40.7184C138.206 39.8578 138.55 38.6337 138.55 37.0463C138.55 35.4652 138.206 34.2444 137.517 33.3837C136.835 32.5167 135.911 32.0831 134.744 32.0831C133.577 32.0831 132.647 32.5135 131.952 33.3741C131.257 34.2348 130.909 35.4588 130.909 37.0463C130.909 38.6337 131.257 39.8578 131.952 40.7184C132.647 41.5791 133.577 42.0094 134.744 42.0094ZM141.496 37.0463C141.496 39.5773 140.785 41.5154 139.363 42.8605C138.298 43.9571 136.759 44.5054 134.744 44.5054C132.73 44.5054 131.19 43.9571 130.125 42.8605C128.697 41.5154 127.983 39.5773 127.983 37.0463C127.983 34.4643 128.697 32.5262 130.125 31.232C131.19 30.1355 132.73 29.5872 134.744 29.5872C136.759 29.5872 138.298 30.1355 139.363 31.232C140.785 32.5262 141.496 34.4643 141.496 37.0463ZM146.698 32.4656V36.2526H150.035C150.698 36.2526 151.196 36.1761 151.527 36.0231C152.114 35.7553 152.407 35.2261 152.407 34.4356C152.407 33.5813 152.123 33.0075 151.556 32.7143C151.237 32.5485 150.759 32.4656 150.121 32.4656H146.698ZM150.733 30.0175C151.721 30.0367 152.48 30.1578 153.009 30.3809C153.545 30.6041 153.997 30.9324 154.367 31.3659C154.673 31.7229 154.916 32.1182 155.094 32.5517C155.273 32.9852 155.362 33.4793 155.362 34.034C155.362 34.7034 155.193 35.3632 154.855 36.0135C154.517 36.6574 153.959 37.1132 153.181 37.381C153.832 37.6424 154.291 38.0153 154.558 38.4998C154.833 38.978 154.97 39.7112 154.97 40.6993V41.646C154.97 42.29 154.995 42.7267 155.046 42.9562C155.123 43.3196 155.301 43.5873 155.582 43.7595V44.1133H152.34C152.251 43.8009 152.187 43.5491 152.149 43.3578C152.072 42.9625 152.031 42.5577 152.024 42.1433L152.005 40.8332C151.992 39.9343 151.827 39.335 151.508 39.0354C151.196 38.7357 150.606 38.5859 149.739 38.5859H146.698V44.1133H143.819V30.0175H150.733ZM165.221 30.0175H168.559L163.844 38.8154V44.1133H160.899V38.8154L156.022 30.0175H159.493L162.419 36.1569L165.221 30.0175Z" fill="black"/>
</g>
<g filter="url(#filter2_i_70_6857)">
<rect x="197.93" y="11.606" width="264.015" height="52.0146" rx="26.0073" fill="#F5F5F5"/>
<path d="M224.621 30.0175V32.5135H220.404V44.1133H217.439V32.5135H213.203V30.0175H224.621ZM229.297 32.4656V36.2526H232.635C233.298 36.2526 233.795 36.1761 234.127 36.0231C234.713 35.7553 235.006 35.2261 235.006 34.4356C235.006 33.5813 234.723 33.0075 234.155 32.7143C233.837 32.5485 233.358 32.4656 232.721 32.4656H229.297ZM233.333 30.0175C234.321 30.0367 235.08 30.1578 235.609 30.3809C236.144 30.6041 236.597 30.9324 236.967 31.3659C237.273 31.7229 237.515 32.1182 237.694 32.5517C237.872 32.9852 237.961 33.4793 237.961 34.034C237.961 34.7034 237.792 35.3632 237.455 36.0135C237.117 36.6574 236.559 37.1132 235.781 37.381C236.431 37.6424 236.89 38.0153 237.158 38.4998C237.432 38.978 237.569 39.7112 237.569 40.6993V41.646C237.569 42.29 237.595 42.7267 237.646 42.9562C237.722 43.3196 237.901 43.5873 238.181 43.7595V44.1133H234.939C234.85 43.8009 234.786 43.5491 234.748 43.3578C234.672 42.9625 234.63 42.5577 234.624 42.1433L234.605 40.8332C234.592 39.9343 234.426 39.335 234.108 39.0354C233.795 38.7357 233.205 38.5859 232.338 38.5859H229.297V44.1133H226.419V30.0175H233.333ZM244.359 38.7867H247.935L246.176 33.2402L244.359 38.7867ZM244.541 30.0175H247.869L252.86 44.1133H249.666L248.758 41.2157H243.565L242.59 44.1133H239.511L244.541 30.0175ZM254.61 30.0175H257.699L263.313 39.8578V30.0175H266.057V44.1133H263.112L257.355 34.1009V44.1133H254.61V30.0175ZM270.944 39.7622C271.033 40.4061 271.208 40.8874 271.47 41.2062C271.948 41.7863 272.767 42.0764 273.928 42.0764C274.622 42.0764 275.187 41.9999 275.62 41.8469C276.443 41.5536 276.854 41.0085 276.854 40.2116C276.854 39.7462 276.65 39.386 276.242 39.131C275.834 38.8824 275.193 38.6624 274.32 38.4712L272.828 38.1365C271.361 37.8049 270.348 37.4447 269.787 37.0558C268.837 36.4056 268.362 35.3887 268.362 34.0053C268.362 32.743 268.821 31.6942 269.739 30.8591C270.657 30.0239 272.005 29.6063 273.784 29.6063C275.269 29.6063 276.535 30.0016 277.581 30.7921C278.632 31.5763 279.184 32.7175 279.235 34.2157H276.404C276.353 33.3678 275.984 32.7653 275.295 32.4083C274.836 32.1724 274.265 32.0544 273.583 32.0544C272.825 32.0544 272.219 32.2075 271.766 32.5135C271.314 32.8195 271.087 33.2466 271.087 33.7949C271.087 34.2985 271.31 34.6747 271.757 34.9233C272.044 35.0891 272.656 35.2835 273.593 35.5067L276.022 36.09C277.086 36.345 277.89 36.6861 278.432 37.1132C279.273 37.7763 279.694 38.7357 279.694 39.9917C279.694 41.2795 279.2 42.3505 278.212 43.2048C277.23 44.0527 275.84 44.4767 274.042 44.4767C272.206 44.4767 270.762 44.0591 269.71 43.2239C268.658 42.3824 268.132 41.2285 268.132 39.7622H270.944ZM285.728 38.7867H289.305L287.545 33.2402L285.728 38.7867ZM285.91 30.0175H289.238L294.23 44.1133H291.036L290.127 41.2157H284.934L283.959 44.1133H280.88L285.91 30.0175ZM295.415 37.1802C295.415 34.7193 296.075 32.8227 297.395 31.4902C298.542 30.3299 300.002 29.7498 301.775 29.7498C304.146 29.7498 305.88 30.5276 306.977 32.0831C307.583 32.9565 307.908 33.8331 307.952 34.7129H305.007C304.816 34.0372 304.57 33.5271 304.271 33.1829C303.735 32.5708 302.941 32.2648 301.889 32.2648C300.818 32.2648 299.974 32.6983 299.355 33.5654C298.737 34.426 298.428 35.6469 298.428 37.228C298.428 38.8091 298.753 39.9949 299.403 40.7854C300.06 41.5695 300.892 41.9616 301.899 41.9616C302.932 41.9616 303.719 41.6237 304.261 40.948C304.561 40.5846 304.809 40.0395 305.007 39.3127H307.924C307.669 40.8491 307.015 42.0987 305.963 43.0614C304.918 44.024 303.576 44.5054 301.937 44.5054C299.91 44.5054 298.316 43.8551 297.156 42.5545C295.996 41.2476 295.415 39.4561 295.415 37.1802ZM320.422 30.0175V32.5135H316.205V44.1133H313.241V32.5135H309.004V30.0175H320.422ZM324.85 44.1133H321.924V30.0175H324.85V44.1133ZM333.839 42.0094C335.006 42.0094 335.93 41.5791 336.612 40.7184C337.301 39.8578 337.645 38.6337 337.645 37.0463C337.645 35.4652 337.301 34.2444 336.612 33.3837C335.93 32.5167 335.006 32.0831 333.839 32.0831C332.672 32.0831 331.742 32.5135 331.047 33.3741C330.352 34.2348 330.004 35.4588 330.004 37.0463C330.004 38.6337 330.352 39.8578 331.047 40.7184C331.742 41.5791 332.672 42.0094 333.839 42.0094ZM340.591 37.0463C340.591 39.5773 339.88 41.5154 338.458 42.8605C337.393 43.9571 335.854 44.5054 333.839 44.5054C331.825 44.5054 330.285 43.9571 329.22 42.8605C327.792 41.5154 327.078 39.5773 327.078 37.0463C327.078 34.4643 327.792 32.5262 329.22 31.232C330.285 30.1355 331.825 29.5872 333.839 29.5872C335.854 29.5872 337.393 30.1355 338.458 31.232C339.88 32.5262 340.591 34.4643 340.591 37.0463ZM342.8 30.0175H345.888L351.502 39.8578V30.0175H354.246V44.1133H351.301L345.544 34.1009V44.1133H342.8V30.0175ZM362.432 44.1133V30.0175H365.349V35.3919H370.857V30.0175H373.783V44.1133H370.857V37.8209H365.349V44.1133H362.432ZM379.301 44.1133H376.375V30.0175H379.301V44.1133ZM384.188 39.7622C384.277 40.4061 384.453 40.8874 384.714 41.2062C385.192 41.7863 386.011 42.0764 387.172 42.0764C387.866 42.0764 388.431 41.9999 388.864 41.8469C389.687 41.5536 390.098 41.0085 390.098 40.2116C390.098 39.7462 389.894 39.386 389.486 39.131C389.078 38.8824 388.437 38.6624 387.564 38.4712L386.072 38.1365C384.606 37.8049 383.592 37.4447 383.031 37.0558C382.081 36.4056 381.606 35.3887 381.606 34.0053C381.606 32.743 382.065 31.6942 382.983 30.8591C383.901 30.0239 385.249 29.6063 387.028 29.6063C388.514 29.6063 389.779 30.0016 390.825 30.7921C391.877 31.5763 392.428 32.7175 392.479 34.2157H389.648C389.597 33.3678 389.228 32.7653 388.539 32.4083C388.08 32.1724 387.509 32.0544 386.827 32.0544C386.069 32.0544 385.463 32.2075 385.01 32.5135C384.558 32.8195 384.331 33.2466 384.331 33.7949C384.331 34.2985 384.555 34.6747 385.001 34.9233C385.288 35.0891 385.9 35.2835 386.837 35.5067L389.266 36.09C390.331 36.345 391.134 36.6861 391.676 37.1132C392.517 37.7763 392.938 38.7357 392.938 39.9917C392.938 41.2795 392.444 42.3505 391.456 43.2048C390.474 44.0527 389.084 44.4767 387.286 44.4767C385.45 44.4767 384.006 44.0591 382.954 43.2239C381.902 42.3824 381.376 41.2285 381.376 39.7622H384.188ZM405.36 30.0175V32.5135H401.143V44.1133H398.178V32.5135H393.942V30.0175H405.36ZM412.982 42.0094C414.149 42.0094 415.073 41.5791 415.755 40.7184C416.444 39.8578 416.788 38.6337 416.788 37.0463C416.788 35.4652 416.444 34.2444 415.755 33.3837C415.073 32.5167 414.149 32.0831 412.982 32.0831C411.815 32.0831 410.884 32.5135 410.19 33.3741C409.495 34.2348 409.147 35.4588 409.147 37.0463C409.147 38.6337 409.495 39.8578 410.19 40.7184C410.884 41.5791 411.815 42.0094 412.982 42.0094ZM419.733 37.0463C419.733 39.5773 419.022 41.5154 417.601 42.8605C416.536 43.9571 414.996 44.5054 412.982 44.5054C410.967 44.5054 409.428 43.9571 408.363 42.8605C406.935 41.5154 406.221 39.5773 406.221 37.0463C406.221 34.4643 406.935 32.5262 408.363 31.232C409.428 30.1355 410.967 29.5872 412.982 29.5872C414.996 29.5872 416.536 30.1355 417.601 31.232C419.022 32.5262 419.733 34.4643 419.733 37.0463ZM424.936 32.4656V36.2526H428.273C428.936 36.2526 429.433 36.1761 429.765 36.0231C430.351 35.7553 430.645 35.2261 430.645 34.4356C430.645 33.5813 430.361 33.0075 429.793 32.7143C429.475 32.5485 428.997 32.4656 428.359 32.4656H424.936ZM428.971 30.0175C429.959 30.0367 430.718 30.1578 431.247 30.3809C431.783 30.6041 432.235 30.9324 432.605 31.3659C432.911 31.7229 433.153 32.1182 433.332 32.5517C433.51 32.9852 433.6 33.4793 433.6 34.034C433.6 34.7034 433.431 35.3632 433.093 36.0135C432.755 36.6574 432.197 37.1132 431.419 37.381C432.069 37.6424 432.528 38.0153 432.796 38.4998C433.07 38.978 433.207 39.7112 433.207 40.6993V41.646C433.207 42.29 433.233 42.7267 433.284 42.9562C433.36 43.3196 433.539 43.5873 433.819 43.7595V44.1133H430.578C430.488 43.8009 430.425 43.5491 430.386 43.3578C430.31 42.9625 430.268 42.5577 430.262 42.1433L430.243 40.8332C430.23 39.9343 430.064 39.335 429.746 39.0354C429.433 38.7357 428.844 38.5859 427.977 38.5859H424.936V44.1133H422.057V30.0175H428.971ZM443.459 30.0175H446.796L442.082 38.8154V44.1133H439.136V38.8154L434.259 30.0175H437.731L440.657 36.1569L443.459 30.0175Z" fill="black"/>
</g>
<g filter="url(#filter3_i_70_6857)">
<rect x="476.453" y="11.606" width="116.015" height="52.0146" rx="26.0073" fill="#F5F5F5"/>
<path d="M495.808 32.4656V41.6652H498.523C499.913 41.6652 500.882 40.9798 501.431 39.6091C501.73 38.8569 501.88 37.9611 501.88 36.922C501.88 35.4875 501.654 34.3878 501.201 33.6228C500.755 32.8514 499.862 32.4656 498.523 32.4656H495.808ZM499.021 30.0175C499.894 30.0303 500.621 30.1323 501.201 30.3236C502.189 30.6487 502.989 31.2448 503.601 32.1118C504.092 32.8131 504.427 33.5718 504.606 34.3878C504.784 35.2038 504.873 35.9816 504.873 36.7211C504.873 38.5955 504.497 40.1829 503.745 41.4835C502.725 43.2367 501.15 44.1133 499.021 44.1133H492.948V30.0175H499.021ZM517.525 32.5135H510.066V35.5067H516.913V37.9548H510.066V41.5791H517.869V44.1133H507.188V30.0175H517.525V32.5135ZM528.102 34.5026C528.102 33.7694 527.907 33.2466 527.518 32.9342C527.136 32.6218 526.597 32.4656 525.902 32.4656H523.158V36.616H525.902C526.597 36.616 527.136 36.447 527.518 36.1091C527.907 35.7712 528.102 35.2357 528.102 34.5026ZM531.018 34.4834C531.018 36.1474 530.598 37.3236 529.756 38.0121C528.914 38.7007 527.713 39.0449 526.151 39.0449H523.158V44.1133H520.231V30.0175H526.371C527.786 30.0175 528.914 30.3809 529.756 31.1077C530.598 31.8345 531.018 32.9597 531.018 34.4834ZM539.462 42.0094C540.629 42.0094 541.553 41.5791 542.236 40.7184C542.924 39.8578 543.268 38.6337 543.268 37.0463C543.268 35.4652 542.924 34.2444 542.236 33.3837C541.553 32.5167 540.629 32.0831 539.462 32.0831C538.296 32.0831 537.365 32.5135 536.67 33.3741C535.975 34.2348 535.628 35.4588 535.628 37.0463C535.628 38.6337 535.975 39.8578 536.67 40.7184C537.365 41.5791 538.296 42.0094 539.462 42.0094ZM546.214 37.0463C546.214 39.5773 545.503 41.5154 544.081 42.8605C543.017 43.9571 541.477 44.5054 539.462 44.5054C537.448 44.5054 535.908 43.9571 534.843 42.8605C533.415 41.5154 532.701 39.5773 532.701 37.0463C532.701 34.4643 533.415 32.5262 534.843 31.232C535.908 30.1355 537.448 29.5872 539.462 29.5872C541.477 29.5872 543.017 30.1355 544.081 31.232C545.503 32.5262 546.214 34.4643 546.214 37.0463ZM550.603 39.7622C550.692 40.4061 550.868 40.8874 551.129 41.2062C551.607 41.7863 552.426 42.0764 553.587 42.0764C554.282 42.0764 554.846 41.9999 555.279 41.8469C556.102 41.5536 556.513 41.0085 556.513 40.2116C556.513 39.7462 556.309 39.386 555.901 39.131C555.493 38.8824 554.852 38.6624 553.979 38.4712L552.487 38.1365C551.021 37.8049 550.007 37.4447 549.446 37.0558C548.496 36.4056 548.021 35.3887 548.021 34.0053C548.021 32.743 548.48 31.6942 549.398 30.8591C550.316 30.0239 551.665 29.6063 553.443 29.6063C554.929 29.6063 556.194 30.0016 557.24 30.7921C558.292 31.5763 558.843 32.7175 558.894 34.2157H556.064C556.013 33.3678 555.643 32.7653 554.954 32.4083C554.495 32.1724 553.925 32.0544 553.243 32.0544C552.484 32.0544 551.878 32.2075 551.426 32.5135C550.973 32.8195 550.747 33.2466 550.747 33.7949C550.747 34.2985 550.97 34.6747 551.416 34.9233C551.703 35.0891 552.315 35.2835 553.252 35.5067L555.681 36.09C556.746 36.345 557.549 36.6861 558.091 37.1132C558.932 37.7763 559.353 38.7357 559.353 39.9917C559.353 41.2795 558.859 42.3505 557.871 43.2048C556.889 44.0527 555.499 44.4767 553.702 44.4767C551.865 44.4767 550.421 44.0591 549.37 43.2239C548.318 42.3824 547.792 41.2285 547.792 39.7622H550.603ZM564.23 44.1133H561.304V30.0175H564.23V44.1133ZM577.226 30.0175V32.5135H573.009V44.1133H570.045V32.5135H565.808V30.0175H577.226Z" fill="black"/>
</g>
<g filter="url(#filter4_i_70_6857)">
<rect x="606.975" y="11.606" width="164.015" height="52.0146" rx="26.0073" fill="#F5F5F5"/>
<path d="M625.064 30.0175L626.929 38.0886L627.33 40.3359L627.742 38.1365L629.329 30.0175H632.437L634.11 38.0886L634.541 40.3359L634.971 38.1747L636.855 30.0175H639.848L635.88 44.1133H633.068L631.366 35.87L630.869 33.1446L630.371 35.87L628.669 44.1133H625.934L621.937 30.0175H625.064ZM644.333 44.1133H641.407V30.0175H644.333V44.1133ZM657.329 30.0175V32.5135H653.112V44.1133H650.147V32.5135H645.911V30.0175H657.329ZM659.041 44.1133V30.0175H661.958V35.3919H667.466V30.0175H670.392V44.1133H667.466V37.8209H661.958V44.1133H659.041ZM676.072 32.4656V41.6652H678.788C680.178 41.6652 681.147 40.9798 681.695 39.6091C681.995 38.8569 682.145 37.9611 682.145 36.922C682.145 35.4875 681.919 34.3878 681.466 33.6228C681.02 32.8514 680.127 32.4656 678.788 32.4656H676.072ZM679.286 30.0175C680.159 30.0303 680.886 30.1323 681.466 30.3236C682.454 30.6487 683.254 31.2448 683.866 32.1118C684.357 32.8131 684.692 33.5718 684.87 34.3878C685.049 35.2038 685.138 35.9816 685.138 36.7211C685.138 38.5955 684.762 40.1829 684.01 41.4835C682.99 43.2367 681.415 44.1133 679.286 44.1133H673.213V30.0175H679.286ZM690.312 32.4656V36.2526H693.649C694.312 36.2526 694.809 36.1761 695.141 36.0231C695.727 35.7553 696.021 35.2261 696.021 34.4356C696.021 33.5813 695.737 33.0075 695.17 32.7143C694.851 32.5485 694.373 32.4656 693.735 32.4656H690.312ZM694.347 30.0175C695.335 30.0367 696.094 30.1578 696.623 30.3809C697.159 30.6041 697.611 30.9324 697.981 31.3659C698.287 31.7229 698.529 32.1182 698.708 32.5517C698.886 32.9852 698.976 33.4793 698.976 34.034C698.976 34.7034 698.807 35.3632 698.469 36.0135C698.131 36.6574 697.573 37.1132 696.795 37.381C697.446 37.6424 697.905 38.0153 698.172 38.4998C698.447 38.978 698.584 39.7112 698.584 40.6993V41.646C698.584 42.29 698.609 42.7267 698.66 42.9562C698.737 43.3196 698.915 43.5873 699.196 43.7595V44.1133H695.954C695.865 43.8009 695.801 43.5491 695.763 43.3578C695.686 42.9625 695.645 42.5577 695.638 42.1433L695.619 40.8332C695.606 39.9343 695.441 39.335 695.122 39.0354C694.809 38.7357 694.22 38.5859 693.353 38.5859H690.312V44.1133H687.433V30.0175H694.347ZM705.373 38.7867H708.95L707.19 33.2402L705.373 38.7867ZM705.555 30.0175H708.883L713.875 44.1133H710.681L709.772 41.2157H704.58L703.604 44.1133H700.525L705.555 30.0175ZM716.524 30.0175L718.388 38.0886L718.79 40.3359L719.201 38.1365L720.789 30.0175H723.897L725.57 38.0886L726 40.3359L726.431 38.1747L728.315 30.0175H731.308L727.339 44.1133H724.528L722.826 35.87L722.328 33.1446L721.831 35.87L720.129 44.1133H717.394L713.397 30.0175H716.524ZM735.879 38.7867H739.455L737.696 33.2402L735.879 38.7867ZM736.061 30.0175H739.389L744.38 44.1133H741.186L740.278 41.2157H735.085L734.11 44.1133H731.031L736.061 30.0175ZM746.178 30.0175H749.124V41.5791H756.105V44.1133H746.178V30.0175Z" fill="black"/>
</g>
<g filter="url(#filter5_i_70_6857)">
<rect x="785.496" y="11.606" width="127.015" height="52.0146" rx="26.0073" fill="#F5F5F5"/>
<path d="M803.637 39.7622C803.727 40.4061 803.902 40.8874 804.163 41.2062C804.642 41.7863 805.461 42.0764 806.621 42.0764C807.316 42.0764 807.88 41.9999 808.314 41.8469C809.136 41.5536 809.547 41.0085 809.547 40.2116C809.547 39.7462 809.343 39.386 808.935 39.131C808.527 38.8824 807.887 38.6624 807.013 38.4712L805.521 38.1365C804.055 37.8049 803.041 37.4447 802.48 37.0558C801.53 36.4056 801.055 35.3887 801.055 34.0053C801.055 32.743 801.514 31.6942 802.433 30.8591C803.351 30.0239 804.699 29.6063 806.478 29.6063C807.963 29.6063 809.229 30.0016 810.274 30.7921C811.326 31.5763 811.877 32.7175 811.928 34.2157H809.098C809.047 33.3678 808.677 32.7653 807.989 32.4083C807.53 32.1724 806.959 32.0544 806.277 32.0544C805.518 32.0544 804.912 32.2075 804.46 32.5135C804.007 32.8195 803.781 33.2466 803.781 33.7949C803.781 34.2985 804.004 34.6747 804.45 34.9233C804.737 35.0891 805.349 35.2835 806.286 35.5067L808.715 36.09C809.78 36.345 810.583 36.6861 811.125 37.1132C811.967 37.7763 812.388 38.7357 812.388 39.9917C812.388 41.2795 811.893 42.3505 810.905 43.2048C809.923 44.0527 808.534 44.4767 806.736 44.4767C804.9 44.4767 803.456 44.0591 802.404 43.2239C801.352 42.3824 800.826 41.2285 800.826 39.7622H803.637ZM824.991 32.5135H817.532V35.5067H824.379V37.9548H817.532V41.5791H825.336V44.1133H814.654V30.0175H824.991V32.5135ZM837.873 30.0175V32.5135H833.655V44.1133H830.691V32.5135H826.455V30.0175H837.873ZM849.845 30.0175V32.5135H845.628V44.1133H842.664V32.5135H838.427V30.0175H849.845ZM854.273 44.1133H851.347V30.0175H854.273V44.1133ZM856.979 30.0175H860.068L865.682 39.8578V30.0175H868.426V44.1133H865.481L859.724 34.1009V44.1133H856.979V30.0175ZM880.657 34.4165C880.434 33.4538 879.889 32.7812 879.022 32.3987C878.537 32.1883 877.999 32.0831 877.406 32.0831C876.271 32.0831 875.337 32.5135 874.604 33.3741C873.877 34.2284 873.514 35.5162 873.514 37.2375C873.514 38.9716 873.909 40.1989 874.699 40.9193C875.49 41.6397 876.389 41.9999 877.396 41.9999C878.384 41.9999 879.194 41.7162 879.825 41.1488C880.456 40.575 880.845 39.8259 880.992 38.9015H877.731V36.549H883.603V44.1133H881.652L881.355 42.3537C880.788 43.0231 880.278 43.4949 879.825 43.769C879.047 44.2472 878.091 44.4862 876.956 44.4862C875.088 44.4862 873.558 43.8391 872.366 42.545C871.123 41.2444 870.501 39.4657 870.501 37.2089C870.501 34.9265 871.129 33.0968 872.385 31.7197C873.641 30.3427 875.302 29.6542 877.368 29.6542C879.159 29.6542 880.597 30.11 881.68 31.0216C882.771 31.9269 883.395 33.0586 883.555 34.4165H880.657ZM888.556 39.7622C888.645 40.4061 888.821 40.8874 889.082 41.2062C889.56 41.7863 890.379 42.0764 891.54 42.0764C892.235 42.0764 892.799 41.9999 893.232 41.8469C894.055 41.5536 894.466 41.0085 894.466 40.2116C894.466 39.7462 894.262 39.386 893.854 39.131C893.446 38.8824 892.805 38.6624 891.932 38.4712L890.44 38.1365C888.974 37.8049 887.96 37.4447 887.399 37.0558C886.449 36.4056 885.974 35.3887 885.974 34.0053C885.974 32.743 886.433 31.6942 887.351 30.8591C888.269 30.0239 889.618 29.6063 891.396 29.6063C892.882 29.6063 894.147 30.0016 895.193 30.7921C896.245 31.5763 896.796 32.7175 896.847 34.2157H894.017C893.966 33.3678 893.596 32.7653 892.907 32.4083C892.448 32.1724 891.878 32.0544 891.195 32.0544C890.437 32.0544 889.831 32.2075 889.379 32.5135C888.926 32.8195 888.7 33.2466 888.7 33.7949C888.7 34.2985 888.923 34.6747 889.369 34.9233C889.656 35.0891 890.268 35.2835 891.205 35.5067L893.634 36.09C894.699 36.345 895.502 36.6861 896.044 37.1132C896.885 37.7763 897.306 38.7357 897.306 39.9917C897.306 41.2795 896.812 42.3505 895.824 43.2048C894.842 44.0527 893.452 44.4767 891.655 44.4767C889.818 44.4767 888.374 44.0591 887.323 43.2239C886.271 42.3824 885.745 41.2285 885.745 39.7622H888.556Z" fill="black"/>
</g>
</g>
<defs>
<filter id="filter0_d_70_6857" x="0.197081" y="0" width="935.526" height="92.6348" filterUnits="userSpaceOnUse" color-interpolation-filters="sRGB">
<feFlood flood-opacity="0" result="BackgroundImageFix"/>
<feColorMatrix in="SourceAlpha" type="matrix" values="0 0 0 0 0 0 0 0 0 0 0 0 0 0 0 0 0 0 127 0" result="hardAlpha"/>
<feOffset dy="11.6058"/>
<feGaussianBlur stdDeviation="2.90146"/>
<feComposite in2="hardAlpha" operator="out"/>
<feColorMatrix type="matrix" values="0 0 0 0 0 0 0 0 0 0 0 0 0 0 0 0 0 0 0.25 0"/>
<feBlend mode="normal" in2="BackgroundImageFix" result="effect1_dropShadow_70_6857"/>
<feBlend mode="normal" in="SourceGraphic" in2="effect1_dropShadow_70_6857" result="shape"/>
</filter>
<filter id="filter1_i_70_6857" x="23.4082" y="11.606" width="160.014" height="57.8176" filterUnits="userSpaceOnUse" color-interpolation-filters="sRGB">
<feFlood flood-opacity="0" result="BackgroundImageFix"/>
<feBlend mode="normal" in="SourceGraphic" in2="BackgroundImageFix" result="shape"/>
<feColorMatrix in="SourceAlpha" type="matrix" values="0 0 0 0 0 0 0 0 0 0 0 0 0 0 0 0 0 0 127 0" result="hardAlpha"/>
<feOffset dy="5.80292"/>
<feGaussianBlur stdDeviation="2.90146"/>
<feComposite in2="hardAlpha" operator="arithmetic" k2="-1" k3="1"/>
<feColorMatrix type="matrix" values="0 0 0 0 0 0 0 0 0 0 0 0 0 0 0 0 0 0 0.25 0"/>
<feBlend mode="normal" in2="shape" result="effect1_innerShadow_70_6857"/>
</filter>
<filter id="filter2_i_70_6857" x="197.93" y="11.606" width="264.014" height="57.8176" filterUnits="userSpaceOnUse" color-interpolation-filters="sRGB">
<feFlood flood-opacity="0" result="BackgroundImageFix"/>
<feBlend mode="normal" in="SourceGraphic" in2="BackgroundImageFix" result="shape"/>
<feColorMatrix in="SourceAlpha" type="matrix" values="0 0 0 0 0 0 0 0 0 0 0 0 0 0 0 0 0 0 127 0" result="hardAlpha"/>
<feOffset dy="5.80292"/>
<feGaussianBlur stdDeviation="2.90146"/>
<feComposite in2="hardAlpha" operator="arithmetic" k2="-1" k3="1"/>
<feColorMatrix type="matrix" values="0 0 0 0 0 0 0 0 0 0 0 0 0 0 0 0 0 0 0.25 0"/>
<feBlend mode="normal" in2="shape" result="effect1_innerShadow_70_6857"/>
</filter>
<filter id="filter3_i_70_6857" x="476.453" y="11.606" width="116.014" height="57.8176" filterUnits="userSpaceOnUse" color-interpolation-filters="sRGB">
<feFlood flood-opacity="0" result="BackgroundImageFix"/>
<feBlend mode="normal" in="SourceGraphic" in2="BackgroundImageFix" result="shape"/>
<feColorMatrix in="SourceAlpha" type="matrix" values="0 0 0 0 0 0 0 0 0 0 0 0 0 0 0 0 0 0 127 0" result="hardAlpha"/>
<feOffset dy="5.80292"/>
<feGaussianBlur stdDeviation="2.90146"/>
<feComposite in2="hardAlpha" operator="arithmetic" k2="-1" k3="1"/>
<feColorMatrix type="matrix" values="0 0 0 0 0 0 0 0 0 0 0 0 0 0 0 0 0 0 0.25 0"/>
<feBlend mode="normal" in2="shape" result="effect1_innerShadow_70_6857"/>
</filter>
<filter id="filter4_i_70_6857" x="606.975" y="11.606" width="164.014" height="57.8176" filterUnits="userSpaceOnUse" color-interpolation-filters="sRGB">
<feFlood flood-opacity="0" result="BackgroundImageFix"/>
<feBlend mode="normal" in="SourceGraphic" in2="BackgroundImageFix" result="shape"/>
<feColorMatrix in="SourceAlpha" type="matrix" values="0 0 0 0 0 0 0 0 0 0 0 0 0 0 0 0 0 0 127 0" result="hardAlpha"/>
<feOffset dy="5.80292"/>
<feGaussianBlur stdDeviation="2.90146"/>
<feComposite in2="hardAlpha" operator="arithmetic" k2="-1" k3="1"/>
<feColorMatrix type="matrix" values="0 0 0 0 0 0 0 0 0 0 0 0 0 0 0 0 0 0 0.25 0"/>
<feBlend mode="normal" in2="shape" result="effect1_innerShadow_70_6857"/>
</filter>
<filter id="filter5_i_70_6857" x="785.496" y="11.606" width="127.014" height="57.8176" filterUnits="userSpaceOnUse" color-interpolation-filters="sRGB">
<feFlood flood-opacity="0" result="BackgroundImageFix"/>
<feBlend mode="normal" in="SourceGraphic" in2="BackgroundImageFix" result="shape"/>
<feColorMatrix in="SourceAlpha" type="matrix" values="0 0 0 0 0 0 0 0 0 0 0 0 0 0 0 0 0 0 127 0" result="hardAlpha"/>
<feOffset dy="5.80292"/>
<feGaussianBlur stdDeviation="2.90146"/>
<feComposite in2="hardAlpha" operator="arithmetic" k2="-1" k3="1"/>
<feColorMatrix type="matrix" values="0 0 0 0 0 0 0 0 0 0 0 0 0 0 0 0 0 0 0.25 0"/>
<feBlend mode="normal" in2="shape" result="effect1_innerShadow_70_6857"/>
</filter>
</defs>
</svg>
