<svg width="1065" height="178" viewBox="0 0 1065 178" fill="none" xmlns="http://www.w3.org/2000/svg">
<g filter="url(#filter0_d_365_12475)">
<mask id="path-1-outside-1_365_12475" maskUnits="userSpaceOnUse" x="4" y="0" width="1057" height="166" fill="black">
<rect fill="white" x="4" width="1057" height="166"/>
<path fill-rule="evenodd" clip-rule="evenodd" d="M85.985 11.3504C86.5216 10.5368 87.4437 10 88.4912 10H978.455C979.556 10 980.518 10.5928 981.04 11.4765C983.021 11.8085 984.921 12.7387 986.45 14.2672L1047.84 75.6533C1051.74 79.5585 1051.74 85.8902 1047.84 89.7954L986.345 151.287C984.828 152.804 982.945 153.731 980.98 154.07C980.446 154.899 979.515 155.449 978.455 155.449H88.4912C87.4852 155.449 86.5948 154.954 86.0505 154.194C83.2746 154.377 80.4367 153.408 78.315 151.287L16.9289 89.9005C13.0237 85.9953 13.0237 79.6637 16.9289 75.7584L78.4201 14.2672C80.4984 12.1889 83.2638 11.2167 85.985 11.3504Z"/>
</mask>
<path fill-rule="evenodd" clip-rule="evenodd" d="M85.985 11.3504C86.5216 10.5368 87.4437 10 88.4912 10H978.455C979.556 10 980.518 10.5928 981.04 11.4765C983.021 11.8085 984.921 12.7387 986.45 14.2672L1047.84 75.6533C1051.74 79.5585 1051.74 85.8902 1047.84 89.7954L986.345 151.287C984.828 152.804 982.945 153.731 980.98 154.07C980.446 154.899 979.515 155.449 978.455 155.449H88.4912C87.4852 155.449 86.5948 154.954 86.0505 154.194C83.2746 154.377 80.4367 153.408 78.315 151.287L16.9289 89.9005C13.0237 85.9953 13.0237 79.6637 16.9289 75.7584L78.4201 14.2672C80.4984 12.1889 83.2638 11.2167 85.985 11.3504Z" fill="#208C53"/>
<path d="M85.985 11.3504L85.4942 21.3383L91.192 21.6183L94.3329 16.8562L85.985 11.3504ZM981.04 11.4765L972.43 16.5622L974.797 20.5695L979.387 21.3389L981.04 11.4765ZM986.45 14.2672L979.379 21.3382L979.379 21.3383L986.45 14.2672ZM1047.84 75.6533L1040.76 82.7243V82.7244L1047.84 75.6533ZM1047.84 89.7954L1040.76 82.7243V82.7244L1047.84 89.7954ZM986.345 151.287L979.274 144.216L979.273 144.216L986.345 151.287ZM980.98 154.07L979.282 144.215L974.949 144.961L972.57 148.659L980.98 154.07ZM86.0505 154.194L94.1805 148.371L90.9412 143.848L85.3901 144.215L86.0505 154.194ZM78.315 151.287L71.2439 158.358H71.244L78.315 151.287ZM16.9289 89.9005L9.85786 96.9716H9.85787L16.9289 89.9005ZM16.9289 75.7584L9.85786 68.6873L16.9289 75.7584ZM78.4201 14.2672L71.3491 7.19613L71.3491 7.19614L78.4201 14.2672ZM88.4912 0C83.9422 0 79.9457 2.34458 77.6372 5.84458L94.3329 16.8562C93.0976 18.7291 90.9452 20 88.4912 20V0ZM978.455 0H88.4912V20H978.455V0ZM989.65 6.3908C987.404 2.58748 983.237 0 978.455 0V20C975.875 20 973.633 18.598 972.43 16.5622L989.65 6.3908ZM993.521 7.19618C990.473 4.14824 986.659 2.27873 982.693 1.61406L979.387 21.3389C979.39 21.3394 979.386 21.3392 979.378 21.335C979.374 21.3329 979.371 21.3309 979.37 21.3299C979.368 21.3287 979.371 21.3306 979.379 21.3382L993.521 7.19618ZM1054.91 68.5822L993.521 7.19613L979.379 21.3383L1040.76 82.7243L1054.91 68.5822ZM1054.91 96.8665C1062.72 89.056 1062.72 76.3927 1054.91 68.5822L1040.76 82.7244V82.7243L1054.91 96.8665ZM993.416 158.358L1054.91 96.8665L1040.76 82.7244L979.274 144.216L993.416 158.358ZM982.678 163.924C986.612 163.247 990.391 161.382 993.416 158.358L979.273 144.216C979.266 144.223 979.263 144.225 979.264 144.224C979.266 144.223 979.269 144.221 979.273 144.219C979.281 144.215 979.285 144.214 979.282 144.215L982.678 163.924ZM978.455 165.449C983.058 165.449 987.094 163.049 989.39 159.48L972.57 148.659C973.799 146.749 975.972 145.449 978.455 145.449V165.449ZM88.4912 165.449H978.455V145.449H88.4912V165.449ZM77.9205 160.016C80.2619 163.285 84.124 165.449 88.4912 165.449V145.449C90.8464 145.449 92.9277 146.622 94.1805 148.371L77.9205 160.016ZM85.3901 144.215C85.3857 144.216 85.3815 144.215 85.3784 144.215C85.3756 144.215 85.3759 144.214 85.3792 144.216C85.3831 144.217 85.3882 144.219 85.3928 144.222C85.3949 144.224 85.3957 144.224 85.3952 144.224C85.3946 144.224 85.3916 144.221 85.3861 144.216L71.244 158.358C75.4885 162.602 81.1816 164.538 86.711 164.172L85.3901 144.215ZM85.3861 144.216L24 82.8295L9.85787 96.9716L71.2439 158.358L85.3861 144.216ZM24 82.8295H24L9.85786 68.6873C2.04738 76.4978 2.04738 89.1611 9.85786 96.9716L24 82.8295ZM24 82.8295L85.4912 21.3383L71.3491 7.19614L9.85786 68.6873L24 82.8295ZM85.4912 21.3383C85.4966 21.3329 85.4996 21.3304 85.5002 21.3299C85.5009 21.3294 85.5002 21.33 85.4982 21.3313C85.4938 21.3341 85.4888 21.3366 85.4848 21.3381C85.4813 21.3394 85.4806 21.3392 85.4831 21.3388C85.4857 21.3384 85.4897 21.3381 85.4942 21.3383L86.4759 1.36245C81.0542 1.09603 75.506 3.03925 71.3491 7.19613L85.4912 21.3383Z" fill="#F6F7F9" mask="url(#path-1-outside-1_365_12475)"/>
</g>
<defs>
<filter id="filter0_d_365_12475" x="0" y="0" width="1064.77" height="177.449" filterUnits="userSpaceOnUse" color-interpolation-filters="sRGB">
<feFlood flood-opacity="0" result="BackgroundImageFix"/>
<feColorMatrix in="SourceAlpha" type="matrix" values="0 0 0 0 0 0 0 0 0 0 0 0 0 0 0 0 0 0 127 0" result="hardAlpha"/>
<feOffset dy="8"/>
<feGaussianBlur stdDeviation="2"/>
<feComposite in2="hardAlpha" operator="out"/>
<feColorMatrix type="matrix" values="0 0 0 0 0 0 0 0 0 0 0 0 0 0 0 0 0 0 0.25 0"/>
<feBlend mode="normal" in2="BackgroundImageFix" result="effect1_dropShadow_365_12475"/>
<feBlend mode="normal" in="SourceGraphic" in2="effect1_dropShadow_365_12475" result="shape"/>
</filter>
</defs>
</svg>
