<svg width="112" height="50" viewBox="0 0 112 50" fill="none" xmlns="http://www.w3.org/2000/svg">
<g filter="url(#filter0_di_36_1628)">
<rect x="2" width="104" height="42" rx="4" fill="url(#paint0_linear_36_1628)"/>
<path d="M32.0195 24.2793C32.0195 24.0254 31.9805 23.7975 31.9023 23.5957C31.8307 23.3874 31.694 23.1986 31.4922 23.0293C31.2904 22.8535 31.0072 22.681 30.6426 22.5117C30.278 22.3424 29.806 22.1667 29.2266 21.9844C28.582 21.776 27.9701 21.5417 27.3906 21.2812C26.8177 21.0208 26.3099 20.7181 25.8672 20.373C25.431 20.0215 25.0859 19.6146 24.832 19.1523C24.5846 18.6901 24.4609 18.153 24.4609 17.541C24.4609 16.9486 24.5911 16.4115 24.8516 15.9297C25.112 15.4414 25.4766 15.0247 25.9453 14.6797C26.4141 14.3281 26.9674 14.0579 27.6055 13.8691C28.25 13.6803 28.9564 13.5859 29.7246 13.5859C30.7728 13.5859 31.6875 13.7747 32.4688 14.1523C33.25 14.5299 33.8555 15.0475 34.2852 15.7051C34.7214 16.3626 34.9395 17.1146 34.9395 17.9609H32.0293C32.0293 17.5443 31.9414 17.1797 31.7656 16.8672C31.5964 16.5482 31.3359 16.2975 30.9844 16.1152C30.6393 15.9329 30.2031 15.8418 29.6758 15.8418C29.168 15.8418 28.7448 15.9199 28.4062 16.0762C28.0677 16.2259 27.8138 16.431 27.6445 16.6914C27.4753 16.9453 27.3906 17.2318 27.3906 17.5508C27.3906 17.7917 27.4492 18.0098 27.5664 18.2051C27.6901 18.4004 27.8724 18.5827 28.1133 18.752C28.3542 18.9212 28.6504 19.0807 29.002 19.2305C29.3535 19.3802 29.7604 19.5267 30.2227 19.6699C30.9974 19.9043 31.6777 20.168 32.2637 20.4609C32.8561 20.7539 33.3509 21.0827 33.748 21.4473C34.1452 21.8118 34.4447 22.2253 34.6465 22.6875C34.8483 23.1497 34.9492 23.6738 34.9492 24.2598C34.9492 24.8783 34.8288 25.4316 34.5879 25.9199C34.347 26.4082 33.9987 26.8216 33.543 27.1602C33.0872 27.4987 32.5436 27.7559 31.9121 27.9316C31.2806 28.1074 30.5742 28.1953 29.793 28.1953C29.0898 28.1953 28.3965 28.1042 27.7129 27.9219C27.0293 27.7331 26.4076 27.4499 25.8477 27.0723C25.2943 26.6947 24.8516 26.2129 24.5195 25.627C24.1875 25.041 24.0215 24.3477 24.0215 23.5469H26.9609C26.9609 23.9896 27.0293 24.3639 27.166 24.6699C27.3027 24.9759 27.4948 25.2233 27.7422 25.4121C27.9961 25.6009 28.2956 25.7376 28.6406 25.8223C28.9922 25.9069 29.3763 25.9492 29.793 25.9492C30.3008 25.9492 30.7174 25.8776 31.043 25.7344C31.375 25.5911 31.6191 25.3926 31.7754 25.1387C31.9382 24.8848 32.0195 24.5983 32.0195 24.2793ZM39.7344 17.4336V28H36.9121V17.4336H39.7344ZM36.7363 14.6797C36.7363 14.2695 36.8796 13.931 37.166 13.6641C37.4525 13.3971 37.8366 13.2637 38.3184 13.2637C38.7936 13.2637 39.1745 13.3971 39.4609 13.6641C39.7539 13.931 39.9004 14.2695 39.9004 14.6797C39.9004 15.0898 39.7539 15.4284 39.4609 15.6953C39.1745 15.9622 38.7936 16.0957 38.3184 16.0957C37.8366 16.0957 37.4525 15.9622 37.166 15.6953C36.8796 15.4284 36.7363 15.0898 36.7363 14.6797ZM48.748 17.4336H51.2969V27.6484C51.2969 28.612 51.082 29.429 50.6523 30.0996C50.2292 30.7767 49.6367 31.2878 48.875 31.6328C48.1133 31.9844 47.2279 32.1602 46.2188 32.1602C45.776 32.1602 45.3073 32.1016 44.8125 31.9844C44.3242 31.8672 43.8555 31.6849 43.4062 31.4375C42.9635 31.1901 42.5924 30.8776 42.293 30.5L43.5332 28.8398C43.8587 29.2174 44.2363 29.5104 44.666 29.7188C45.0957 29.9336 45.571 30.041 46.0918 30.041C46.5996 30.041 47.0293 29.9466 47.3809 29.7578C47.7324 29.5755 48.0026 29.3053 48.1914 28.9473C48.3802 28.5957 48.4746 28.1693 48.4746 27.668V19.875L48.748 17.4336ZM41.6387 22.8438V22.6387C41.6387 21.8314 41.7363 21.099 41.9316 20.4414C42.1335 19.7773 42.4167 19.2077 42.7812 18.7324C43.1523 18.2572 43.6016 17.8893 44.1289 17.6289C44.6562 17.3685 45.252 17.2383 45.916 17.2383C46.6191 17.2383 47.2083 17.3685 47.6836 17.6289C48.1589 17.8893 48.5495 18.2604 48.8555 18.7422C49.1615 19.2174 49.3991 19.7806 49.5684 20.4316C49.7441 21.0762 49.8809 21.7826 49.9785 22.5508V23C49.8809 23.7357 49.7344 24.4193 49.5391 25.0508C49.3438 25.6823 49.0866 26.2357 48.7676 26.7109C48.4486 27.1797 48.0514 27.5443 47.5762 27.8047C47.1074 28.0651 46.5475 28.1953 45.8965 28.1953C45.2454 28.1953 44.6562 28.0618 44.1289 27.7949C43.6081 27.528 43.1621 27.1536 42.791 26.6719C42.4199 26.1901 42.1335 25.6237 41.9316 24.9727C41.7363 24.3216 41.6387 23.612 41.6387 22.8438ZM44.4512 22.6387V22.8438C44.4512 23.2799 44.4935 23.6868 44.5781 24.0645C44.6628 24.4421 44.793 24.7773 44.9688 25.0703C45.151 25.3568 45.3757 25.5814 45.6426 25.7441C45.916 25.9004 46.2383 25.9785 46.6094 25.9785C47.1237 25.9785 47.5436 25.8711 47.8691 25.6562C48.1947 25.4349 48.4388 25.1322 48.6016 24.748C48.7643 24.3639 48.8587 23.9212 48.8848 23.4199V22.1406C48.8717 21.7305 48.8164 21.3626 48.7188 21.0371C48.6211 20.7051 48.4844 20.4219 48.3086 20.1875C48.1328 19.9531 47.9049 19.7708 47.625 19.6406C47.3451 19.5104 47.013 19.4453 46.6289 19.4453C46.2578 19.4453 45.9355 19.5299 45.6621 19.6992C45.3952 19.862 45.1706 20.0866 44.9883 20.373C44.8125 20.6595 44.679 20.998 44.5879 21.3887C44.4967 21.7728 44.4512 22.1895 44.4512 22.6387ZM56.2383 19.6895V28H53.4258V17.4336H56.0625L56.2383 19.6895ZM55.8281 22.3457H55.0664C55.0664 21.5645 55.1673 20.8613 55.3691 20.2363C55.571 19.6048 55.8542 19.0677 56.2188 18.625C56.5833 18.1758 57.0163 17.834 57.5176 17.5996C58.0254 17.3587 58.5918 17.2383 59.2168 17.2383C59.7116 17.2383 60.1641 17.3099 60.5742 17.4531C60.9844 17.5964 61.3359 17.8242 61.6289 18.1367C61.9284 18.4492 62.1562 18.8626 62.3125 19.377C62.4753 19.8913 62.5566 20.5195 62.5566 21.2617V28H59.7246V21.252C59.7246 20.7832 59.6595 20.4186 59.5293 20.1582C59.3991 19.8978 59.207 19.7155 58.9531 19.6113C58.7057 19.5007 58.3997 19.4453 58.0352 19.4453C57.6576 19.4453 57.3288 19.5202 57.0488 19.6699C56.7754 19.8197 56.5475 20.028 56.3652 20.2949C56.1895 20.5553 56.056 20.8613 55.9648 21.2129C55.8737 21.5645 55.8281 21.9421 55.8281 22.3457ZM72.9668 13.7812V28H70.0469V13.7812H72.9668ZM78.2891 19.6895V28H75.4766V17.4336H78.1133L78.2891 19.6895ZM77.8789 22.3457H77.1172C77.1172 21.5645 77.2181 20.8613 77.4199 20.2363C77.6217 19.6048 77.9049 19.0677 78.2695 18.625C78.6341 18.1758 79.0671 17.834 79.5684 17.5996C80.0762 17.3587 80.6426 17.2383 81.2676 17.2383C81.7624 17.2383 82.2148 17.3099 82.625 17.4531C83.0352 17.5964 83.3867 17.8242 83.6797 18.1367C83.9792 18.4492 84.207 18.8626 84.3633 19.377C84.526 19.8913 84.6074 20.5195 84.6074 21.2617V28H81.7754V21.252C81.7754 20.7832 81.7103 20.4186 81.5801 20.1582C81.4499 19.8978 81.2578 19.7155 81.0039 19.6113C80.7565 19.5007 80.4505 19.4453 80.0859 19.4453C79.7083 19.4453 79.3796 19.5202 79.0996 19.6699C78.8262 19.8197 78.5983 20.028 78.416 20.2949C78.2402 20.5553 78.1068 20.8613 78.0156 21.2129C77.9245 21.5645 77.8789 21.9421 77.8789 22.3457Z" fill="white"/>
</g>
<defs>
<filter id="filter0_di_36_1628" x="0" y="0" width="112" height="50" filterUnits="userSpaceOnUse" color-interpolation-filters="sRGB">
<feFlood flood-opacity="0" result="BackgroundImageFix"/>
<feColorMatrix in="SourceAlpha" type="matrix" values="0 0 0 0 0 0 0 0 0 0 0 0 0 0 0 0 0 0 127 0" result="hardAlpha"/>
<feOffset dx="2" dy="4"/>
<feGaussianBlur stdDeviation="2"/>
<feComposite in2="hardAlpha" operator="out"/>
<feColorMatrix type="matrix" values="0 0 0 0 0 0 0 0 0 0 0 0 0 0 0 0 0 0 0.25 0"/>
<feBlend mode="normal" in2="BackgroundImageFix" result="effect1_dropShadow_36_1628"/>
<feBlend mode="normal" in="SourceGraphic" in2="effect1_dropShadow_36_1628" result="shape"/>
<feColorMatrix in="SourceAlpha" type="matrix" values="0 0 0 0 0 0 0 0 0 0 0 0 0 0 0 0 0 0 127 0" result="hardAlpha"/>
<feOffset dx="2" dy="4"/>
<feGaussianBlur stdDeviation="2"/>
<feComposite in2="hardAlpha" operator="arithmetic" k2="-1" k3="1"/>
<feColorMatrix type="matrix" values="0 0 0 0 0 0 0 0 0 0 0 0 0 0 0 0 0 0 0.25 0"/>
<feBlend mode="normal" in2="shape" result="effect2_innerShadow_36_1628"/>
</filter>
<linearGradient id="paint0_linear_36_1628" x1="54" y1="0" x2="54" y2="42" gradientUnits="userSpaceOnUse">
<stop stop-color="#208C53"/>
<stop offset="1" stop-color="#47B67C"/>
</linearGradient>
</defs>
</svg>
