<svg width="39" height="46" viewBox="0 0 39 46" fill="none" xmlns="http://www.w3.org/2000/svg">
<mask id="mask0_70_5268" style="mask-type:luminance" maskUnits="userSpaceOnUse" x="0" y="6" width="39" height="33">
<path d="M38.5 6.44287H0V38.6572H38.5V6.44287Z" fill="white"/>
</mask>
<g mask="url(#mask0_70_5268)">
<path d="M5.775 15.1884C5.775 13.7203 6.11589 12.378 6.79766 11.1616C7.47942 9.94521 8.42187 8.95945 9.625 8.20445C10.8281 7.49133 12.1115 7.13483 13.475 7.13483C14.8385 7.13483 16.1218 7.49133 17.325 8.20445C18.5282 8.95945 19.4706 9.94521 20.1523 11.1616C20.8341 12.378 21.175 13.7203 21.175 15.1884C21.175 16.6565 20.8341 17.9988 20.1523 19.2152C19.4706 20.4316 18.5282 21.4174 17.325 22.1724C16.1218 22.8855 14.8385 23.242 13.475 23.242C12.1115 23.242 10.8281 22.8855 9.625 22.1724C8.42187 21.4174 7.47942 20.4316 6.79766 19.2152C6.11589 17.9988 5.775 16.6565 5.775 15.1884ZM0 37.4616C0.0802083 34.3156 1.12292 31.6731 3.12812 29.5338C5.17344 27.4365 7.7 26.346 10.7078 26.2621H16.2422C19.25 26.346 21.7766 27.4365 23.822 29.5338C25.8271 31.6731 26.8698 34.3156 26.95 37.4616C26.95 38.0069 26.7695 38.4473 26.4085 38.7829C26.0877 39.1604 25.6666 39.3491 25.1453 39.3491H1.8047C1.28334 39.3491 0.86224 39.1604 0.541406 38.7829C0.180469 38.4473 0 38.0069 0 37.4616ZM30.3187 26.7654V22.7386H26.4688C25.5864 22.6548 25.1052 22.1514 25.025 21.2286C25.1052 20.3058 25.5864 19.8024 26.4688 19.7185H30.3187V15.6918C30.3989 14.7689 30.8802 14.2656 31.7625 14.1817C32.6448 14.2656 33.1261 14.7689 33.2062 15.6918V19.7185H37.0562C37.9386 19.8024 38.4198 20.3058 38.5 21.2286C38.4198 22.1514 37.9386 22.6548 37.0562 22.7386H33.2062V26.7654C33.1261 27.6882 32.6448 28.1916 31.7625 28.2755C30.8802 28.1916 30.3989 27.6882 30.3187 26.7654Z" fill="#208C53"/>
</g>
</svg>
