<svg width="43" height="40" viewBox="0 0 43 40" fill="none" xmlns="http://www.w3.org/2000/svg">
<mask id="mask0_70_5261" style="mask-type:luminance" maskUnits="userSpaceOnUse" x="0" y="0" width="43" height="40">
<path d="M42.25 0H0V39.28H42.25V0Z" fill="white"/>
</mask>
<g mask="url(#mask0_70_5261)">
<path d="M0 9.51365V33.2198C0.0489005 34.7541 0.709054 35.8282 1.98047 36.442C5.159 37.5672 8.36197 37.9252 11.5894 37.516C14.7679 37.1069 17.9465 36.442 21.125 35.5213C24.0591 34.6519 26.9931 33.987 29.9271 33.5266C32.861 33.1175 35.7707 33.2965 38.6558 34.0637C39.5361 34.2683 40.3429 34.1148 41.0764 33.6034C41.8098 33.1431 42.2011 32.427 42.25 31.4552V7.74887C42.2011 6.21446 41.5409 5.14061 40.2695 4.52692C37.091 3.40168 33.9124 3.04345 30.7339 3.45262C27.5065 3.86179 24.3036 4.52671 21.125 5.44731C18.191 6.31684 15.2569 6.95635 12.3229 7.36552C9.38889 7.82588 6.47931 7.67224 3.59418 6.90497C2.66508 6.70045 1.85822 6.82833 1.17361 7.28856C0.440104 7.80012 0.0489005 8.54186 0 9.51365ZM21.125 27.8494C19.4624 27.7983 18.0687 27.0823 16.944 25.7013C15.8682 24.3204 15.3058 22.5814 15.2569 20.4844C15.3058 18.3874 15.8682 16.6483 16.944 15.2673C18.0687 13.8865 19.4624 13.1706 21.125 13.1194C22.7876 13.1706 24.1812 13.8865 25.306 15.2673C26.3817 16.6483 26.9441 18.3874 26.9931 20.4844C26.9441 22.5814 26.3817 24.3204 25.306 25.7013C24.1812 27.0823 22.7876 27.7983 21.125 27.8494ZM4.69444 27.8494C6.01476 27.9006 7.11502 28.3865 7.99523 29.3071C8.87544 30.2277 9.33999 31.3785 9.38889 32.7595H4.69444V27.8494ZM9.38889 11.8919C9.33999 13.2729 8.87544 14.4237 7.99523 15.3443C7.11502 16.2649 6.01476 16.7507 4.69444 16.8019V11.8919H9.38889ZM37.5556 24.1669V29.0769H32.8611C32.9101 27.696 33.3746 26.5452 34.2548 25.6246C35.135 24.704 36.2352 24.2181 37.5556 24.1669ZM32.8611 8.20943H37.5556V13.1194C36.2352 13.0682 35.135 12.5824 34.2548 11.6618C33.3746 10.7412 32.9101 9.59038 32.8611 8.20943Z" fill="#208C53"/>
</g>
</svg>
