<svg width="345" height="345" viewBox="0 0 345 345" fill="none" xmlns="http://www.w3.org/2000/svg">
<circle cx="172.502" cy="172.5" r="172.5" fill="white"/>
<path d="M173.002 173C207.721 173 235.859 143.231 235.859 106.5C235.859 69.7691 207.721 40 173.002 40C138.283 40 110.145 69.7691 110.145 106.5C110.145 143.231 138.283 173 173.002 173ZM217.002 189.625H208.801C197.899 194.924 185.77 197.938 173.002 197.938C160.234 197.938 148.154 194.924 137.203 189.625H129.002C92.5645 189.625 63.002 220.901 63.002 259.45V281.062C63.002 294.83 73.56 306 86.5734 306H259.431C272.444 306 283.002 294.83 283.002 281.062V259.45C283.002 220.901 253.439 189.625 217.002 189.625Z" fill="#208C53"/>
</svg>
