<svg width="44" height="47" viewBox="0 0 44 47" fill="none" xmlns="http://www.w3.org/2000/svg">
<mask id="mask0_70_5244" style="mask-type:luminance" maskUnits="userSpaceOnUse" x="0" y="0" width="44" height="47">
<path d="M44 0H0V46.0204H44V0Z" fill="white"/>
</mask>
<g mask="url(#mask0_70_5244)">
<path d="M5.5 3.86496C3.95312 3.92493 2.66406 4.49418 1.63281 5.57274C0.601562 6.65131 0.0572917 7.99958 0 9.61751V38.3803C0.0572917 39.9982 0.601562 41.3464 1.63281 42.425C2.66406 43.5036 3.95312 44.0729 5.5 44.1328H38.5C40.0469 44.0729 41.336 43.5036 42.3672 42.425C43.3984 41.3464 43.9427 39.9982 44 38.3803V18.2463C43.9427 16.6284 43.3984 15.2801 42.3672 14.2016C41.336 13.123 40.0469 12.5538 38.5 12.4938H6.875C6.01562 12.4338 5.55729 11.9544 5.5 11.0556C5.55729 10.1569 6.01562 9.67749 6.875 9.61751H38.5C39.3021 9.61751 39.961 9.34791 40.4765 8.80856C40.9922 8.26935 41.25 7.58018 41.25 6.74123C41.25 5.90228 40.9922 5.21312 40.4765 4.67391C39.961 4.13455 39.3021 3.86496 38.5 3.86496H5.5ZM35.75 25.437C36.5521 25.437 37.211 25.7067 37.7265 26.246C38.2422 26.7853 38.5 27.4744 38.5 28.3133C38.5 29.1522 38.2422 29.8413 37.7265 30.3806C37.211 30.9199 36.5521 31.1896 35.75 31.1896C34.9479 31.1896 34.289 30.9199 33.7735 30.3806C33.2578 29.8413 33 29.1522 33 28.3133C33 27.4744 33.2578 26.7853 33.7735 26.246C34.289 25.7067 34.9479 25.437 35.75 25.437Z" fill="#208C53"/>
</g>
</svg>
