<svg width="800" height="97" viewBox="0 0 800 97" fill="none" xmlns="http://www.w3.org/2000/svg">
<rect x="220" y="20" width="160" height="3" fill="#D9D9D9"/>
<rect x="420" y="20" width="160" height="3" fill="#CFD6DC"/>
<rect x="181" y="1" width="38" height="38" rx="19" stroke="white" stroke-width="2"/>
<path fill-rule="evenodd" clip-rule="evenodd" d="M198 12H202C205.771 12 207.657 12 208.828 13.1716C210 14.3431 210 16.2288 210 20C210 23.7712 210 25.6569 208.828 26.8284C207.657 28 205.771 28 202 28H198C194.229 28 192.343 28 191.172 26.8284C190 25.6569 190 23.7712 190 20C190 16.2288 190 14.3431 191.172 13.1716C192.343 12 194.229 12 198 12ZM201.25 17C201.25 16.5858 201.586 16.25 202 16.25H207C207.414 16.25 207.75 16.5858 207.75 17C207.75 17.4142 207.414 17.75 207 17.75H202C201.586 17.75 201.25 17.4142 201.25 17ZM202.25 20C202.25 19.5858 202.586 19.25 203 19.25H207C207.414 19.25 207.75 19.5858 207.75 20C207.75 20.4142 207.414 20.75 207 20.75H203C202.586 20.75 202.25 20.4142 202.25 20ZM203.25 23C203.25 22.5858 203.586 22.25 204 22.25H207C207.414 22.25 207.75 22.5858 207.75 23C207.75 23.4142 207.414 23.75 207 23.75H204C203.586 23.75 203.25 23.4142 203.25 23ZM199 17C199 18.1046 198.105 19 197 19C195.895 19 195 18.1046 195 17C195 15.8954 195.895 15 197 15C198.105 15 199 15.8954 199 17ZM197 25C201 25 201 24.1046 201 23C201 21.8954 199.209 21 197 21C194.791 21 193 21.8954 193 23C193 24.1046 193 25 197 25Z" fill="white"/>
<path d="M141.014 60.2881H138.423V58.9277H141.014C141.465 58.9277 141.829 58.8548 142.107 58.709C142.385 58.5632 142.588 58.3626 142.716 58.1074C142.848 57.8477 142.914 57.5514 142.914 57.2188C142.914 56.9043 142.848 56.6104 142.716 56.3369C142.588 56.0589 142.385 55.8356 142.107 55.667C141.829 55.4984 141.465 55.4141 141.014 55.4141H138.949V64H137.233V54.0469H141.014C141.784 54.0469 142.438 54.1836 142.976 54.457C143.518 54.7259 143.93 55.0996 144.213 55.5781C144.495 56.0521 144.637 56.5944 144.637 57.2051C144.637 57.8477 144.495 58.3991 144.213 58.8594C143.93 59.3197 143.518 59.6729 142.976 59.9189C142.438 60.165 141.784 60.2881 141.014 60.2881ZM152.689 62.6396V64H147.405V62.6396H152.689ZM147.891 54.0469V64H146.175V54.0469H147.891ZM151.999 58.2031V59.543H147.405V58.2031H151.999ZM152.655 54.0469V55.4141H147.405V54.0469H152.655ZM154.091 54.0469H157.611C158.368 54.0469 159.013 54.1608 159.546 54.3887C160.079 54.6165 160.487 54.9538 160.77 55.4004C161.057 55.8424 161.2 56.3893 161.2 57.041C161.2 57.5378 161.109 57.9753 160.927 58.3535C160.744 58.7318 160.487 59.0508 160.154 59.3105C159.822 59.5658 159.425 59.764 158.965 59.9053L158.445 60.1582H155.28L155.267 58.7979H157.639C158.049 58.7979 158.391 58.7249 158.664 58.5791C158.938 58.4333 159.143 58.235 159.279 57.9844C159.421 57.7292 159.491 57.4421 159.491 57.123C159.491 56.7767 159.423 56.4759 159.286 56.2207C159.154 55.9609 158.949 55.7627 158.671 55.626C158.393 55.4847 158.04 55.4141 157.611 55.4141H155.807V64H154.091V54.0469ZM159.771 64L157.434 59.5293L159.231 59.5225L161.604 63.9111V64H159.771ZM168.146 61.4365C168.146 61.2314 168.114 61.0492 168.05 60.8896C167.991 60.7301 167.883 60.5843 167.729 60.4521C167.574 60.32 167.355 60.1924 167.072 60.0693C166.794 59.9417 166.439 59.8118 166.006 59.6797C165.532 59.5339 165.094 59.3721 164.693 59.1943C164.297 59.012 163.951 58.8024 163.654 58.5654C163.358 58.3239 163.128 58.0482 162.964 57.7383C162.8 57.4238 162.718 57.0615 162.718 56.6514C162.718 56.2458 162.802 55.8766 162.971 55.5439C163.144 55.2113 163.388 54.9242 163.702 54.6826C164.021 54.4365 164.397 54.2474 164.83 54.1152C165.263 53.9785 165.742 53.9102 166.266 53.9102C167.004 53.9102 167.64 54.0469 168.173 54.3203C168.711 54.5938 169.123 54.9606 169.41 55.4209C169.702 55.8812 169.848 56.3893 169.848 56.9453H168.146C168.146 56.6172 168.075 56.3278 167.934 56.0771C167.797 55.8219 167.587 55.6214 167.305 55.4756C167.027 55.3298 166.674 55.2568 166.245 55.2568C165.84 55.2568 165.502 55.3184 165.233 55.4414C164.965 55.5645 164.764 55.7308 164.632 55.9404C164.5 56.1501 164.434 56.387 164.434 56.6514C164.434 56.8382 164.477 57.0091 164.563 57.1641C164.65 57.3145 164.782 57.4557 164.96 57.5879C165.138 57.7155 165.361 57.8363 165.63 57.9502C165.899 58.0641 166.215 58.1735 166.58 58.2783C167.132 58.4424 167.612 58.6247 168.022 58.8252C168.433 59.0212 168.774 59.2445 169.048 59.4951C169.321 59.7458 169.526 60.0306 169.663 60.3496C169.8 60.6641 169.868 61.0218 169.868 61.4229C169.868 61.8421 169.784 62.2204 169.615 62.5576C169.447 62.8903 169.205 63.1751 168.891 63.4121C168.581 63.6445 168.207 63.8245 167.77 63.9521C167.337 64.0752 166.854 64.1367 166.32 64.1367C165.842 64.1367 165.37 64.0729 164.905 63.9453C164.445 63.8177 164.026 63.624 163.647 63.3643C163.269 63.0999 162.968 62.7718 162.745 62.3799C162.522 61.9834 162.41 61.5208 162.41 60.9922H164.126C164.126 61.3158 164.181 61.5915 164.29 61.8193C164.404 62.0472 164.561 62.234 164.762 62.3799C164.962 62.5212 165.195 62.626 165.459 62.6943C165.728 62.7627 166.015 62.7969 166.32 62.7969C166.721 62.7969 167.056 62.7399 167.325 62.626C167.599 62.512 167.804 62.3525 167.94 62.1475C168.077 61.9424 168.146 61.7054 168.146 61.4365ZM179.322 58.75V59.2969C179.322 60.0488 179.224 60.7233 179.028 61.3203C178.832 61.9173 178.552 62.4255 178.188 62.8447C177.827 63.264 177.395 63.5853 176.889 63.8086C176.383 64.0273 175.822 64.1367 175.207 64.1367C174.596 64.1367 174.038 64.0273 173.532 63.8086C173.031 63.5853 172.596 63.264 172.227 62.8447C171.857 62.4255 171.57 61.9173 171.365 61.3203C171.165 60.7233 171.064 60.0488 171.064 59.2969V58.75C171.064 57.998 171.165 57.3258 171.365 56.7334C171.566 56.1364 171.848 55.6283 172.213 55.209C172.582 54.7852 173.017 54.4639 173.519 54.2451C174.024 54.0218 174.583 53.9102 175.193 53.9102C175.809 53.9102 176.369 54.0218 176.875 54.2451C177.381 54.4639 177.816 54.7852 178.181 55.209C178.545 55.6283 178.826 56.1364 179.021 56.7334C179.222 57.3258 179.322 57.998 179.322 58.75ZM177.606 59.2969V58.7363C177.606 58.1803 177.552 57.6904 177.442 57.2666C177.338 56.8382 177.18 56.4805 176.971 56.1934C176.766 55.9017 176.513 55.6829 176.212 55.5371C175.911 55.3867 175.572 55.3115 175.193 55.3115C174.815 55.3115 174.478 55.3867 174.182 55.5371C173.885 55.6829 173.632 55.9017 173.423 56.1934C173.218 56.4805 173.061 56.8382 172.951 57.2666C172.842 57.6904 172.787 58.1803 172.787 58.7363V59.2969C172.787 59.8529 172.842 60.3451 172.951 60.7734C173.061 61.2018 173.22 61.5641 173.43 61.8604C173.644 62.152 173.899 62.373 174.195 62.5234C174.492 62.6693 174.829 62.7422 175.207 62.7422C175.59 62.7422 175.929 62.6693 176.226 62.5234C176.522 62.373 176.772 62.152 176.978 61.8604C177.183 61.5641 177.338 61.2018 177.442 60.7734C177.552 60.3451 177.606 59.8529 177.606 59.2969ZM188.934 54.0469V64H187.218L182.754 56.8701V64H181.038V54.0469H182.754L187.231 61.1904V54.0469H188.934ZM194.977 55.373L192.003 64H190.205L193.951 54.0469H195.1L194.977 55.373ZM197.465 64L194.484 55.373L194.354 54.0469H195.51L199.27 64H197.465ZM197.321 60.3086V61.6689H191.907V60.3086H197.321ZM206.618 62.6396V64H201.621V62.6396H206.618ZM202.1 54.0469V64H200.384V54.0469H202.1ZM214.322 64H212.196L212.21 62.6396H214.322C214.938 62.6396 215.452 62.5052 215.867 62.2363C216.286 61.9674 216.601 61.5824 216.811 61.0811C217.025 60.5798 217.132 59.9827 217.132 59.29V58.75C217.132 58.2122 217.07 57.736 216.947 57.3213C216.829 56.9066 216.651 56.5579 216.414 56.2754C216.182 55.9928 215.895 55.7786 215.553 55.6328C215.215 55.487 214.826 55.4141 214.384 55.4141H212.155V54.0469H214.384C215.045 54.0469 215.648 54.1585 216.195 54.3818C216.742 54.6006 217.214 54.9173 217.61 55.332C218.011 55.7467 218.319 56.2435 218.533 56.8223C218.747 57.401 218.854 58.0482 218.854 58.7637V59.29C218.854 60.0055 218.747 60.6527 218.533 61.2314C218.319 61.8102 218.011 62.307 217.61 62.7217C217.209 63.1318 216.731 63.4486 216.175 63.6719C215.623 63.8906 215.006 64 214.322 64ZM213.146 54.0469V64H211.431V54.0469H213.146ZM227.092 62.6396V64H221.808V62.6396H227.092ZM222.293 54.0469V64H220.577V54.0469H222.293ZM226.401 58.2031V59.543H221.808V58.2031H226.401ZM227.058 54.0469V55.4141H221.808V54.0469H227.058ZM232.725 54.0469V64H231.022V54.0469H232.725ZM235.849 54.0469V55.4141H227.926V54.0469H235.849ZM240.381 55.373L237.407 64H235.609L239.355 54.0469H240.504L240.381 55.373ZM242.869 64L239.889 55.373L239.759 54.0469H240.914L244.674 64H242.869ZM242.726 60.3086V61.6689H237.312V60.3086H242.726ZM247.62 54.0469V64H245.904V54.0469H247.62ZM255.987 62.6396V64H250.99V62.6396H255.987ZM251.469 54.0469V64H249.753V54.0469H251.469ZM262.55 61.4365C262.55 61.2314 262.518 61.0492 262.454 60.8896C262.395 60.7301 262.288 60.5843 262.133 60.4521C261.978 60.32 261.759 60.1924 261.477 60.0693C261.199 59.9417 260.843 59.8118 260.41 59.6797C259.936 59.5339 259.499 59.3721 259.098 59.1943C258.701 59.012 258.355 58.8024 258.059 58.5654C257.762 58.3239 257.532 58.0482 257.368 57.7383C257.204 57.4238 257.122 57.0615 257.122 56.6514C257.122 56.2458 257.206 55.8766 257.375 55.5439C257.548 55.2113 257.792 54.9242 258.106 54.6826C258.425 54.4365 258.801 54.2474 259.234 54.1152C259.667 53.9785 260.146 53.9102 260.67 53.9102C261.408 53.9102 262.044 54.0469 262.577 54.3203C263.115 54.5938 263.527 54.9606 263.814 55.4209C264.106 55.8812 264.252 56.3893 264.252 56.9453H262.55C262.55 56.6172 262.479 56.3278 262.338 56.0771C262.201 55.8219 261.992 55.6214 261.709 55.4756C261.431 55.3298 261.078 55.2568 260.649 55.2568C260.244 55.2568 259.907 55.3184 259.638 55.4414C259.369 55.5645 259.168 55.7308 259.036 55.9404C258.904 56.1501 258.838 56.387 258.838 56.6514C258.838 56.8382 258.881 57.0091 258.968 57.1641C259.054 57.3145 259.187 57.4557 259.364 57.5879C259.542 57.7155 259.765 57.8363 260.034 57.9502C260.303 58.0641 260.62 58.1735 260.984 58.2783C261.536 58.4424 262.017 58.6247 262.427 58.8252C262.837 59.0212 263.179 59.2445 263.452 59.4951C263.726 59.7458 263.931 60.0306 264.067 60.3496C264.204 60.6641 264.272 61.0218 264.272 61.4229C264.272 61.8421 264.188 62.2204 264.02 62.5576C263.851 62.8903 263.609 63.1751 263.295 63.4121C262.985 63.6445 262.611 63.8245 262.174 63.9521C261.741 64.0752 261.258 64.1367 260.725 64.1367C260.246 64.1367 259.774 64.0729 259.31 63.9453C258.849 63.8177 258.43 63.624 258.052 63.3643C257.674 63.0999 257.373 62.7718 257.149 62.3799C256.926 61.9834 256.814 61.5208 256.814 60.9922H258.53C258.53 61.3158 258.585 61.5915 258.694 61.8193C258.808 62.0472 258.965 62.234 259.166 62.3799C259.367 62.5212 259.599 62.626 259.863 62.6943C260.132 62.7627 260.419 62.7969 260.725 62.7969C261.126 62.7969 261.461 62.7399 261.729 62.626C262.003 62.512 262.208 62.3525 262.345 62.1475C262.481 61.9424 262.55 61.7054 262.55 61.4365Z" fill="white"/>
<path d="M136.884 82.9268V84H131.907V82.9268H136.884ZM132.167 74.0469V84H130.848V74.0469H132.167ZM137.868 80.3838V80.2266C137.868 79.6934 137.946 79.1989 138.101 78.7432C138.256 78.2829 138.479 77.8841 138.771 77.5469C139.062 77.2051 139.415 76.9408 139.83 76.7539C140.245 76.5625 140.71 76.4668 141.225 76.4668C141.744 76.4668 142.211 76.5625 142.626 76.7539C143.045 76.9408 143.401 77.2051 143.692 77.5469C143.989 77.8841 144.214 78.2829 144.369 78.7432C144.524 79.1989 144.602 79.6934 144.602 80.2266V80.3838C144.602 80.917 144.524 81.4115 144.369 81.8672C144.214 82.3229 143.989 82.7217 143.692 83.0635C143.401 83.4007 143.048 83.665 142.633 83.8564C142.223 84.0433 141.758 84.1367 141.238 84.1367C140.719 84.1367 140.252 84.0433 139.837 83.8564C139.422 83.665 139.067 83.4007 138.771 83.0635C138.479 82.7217 138.256 82.3229 138.101 81.8672C137.946 81.4115 137.868 80.917 137.868 80.3838ZM139.133 80.2266V80.3838C139.133 80.7529 139.176 81.1016 139.263 81.4297C139.349 81.7533 139.479 82.0404 139.652 82.291C139.83 82.5417 140.051 82.7399 140.315 82.8857C140.58 83.027 140.887 83.0977 141.238 83.0977C141.585 83.0977 141.888 83.027 142.147 82.8857C142.412 82.7399 142.631 82.5417 142.804 82.291C142.977 82.0404 143.107 81.7533 143.193 81.4297C143.285 81.1016 143.33 80.7529 143.33 80.3838V80.2266C143.33 79.862 143.285 79.5179 143.193 79.1943C143.107 78.8662 142.975 78.5768 142.797 78.3262C142.624 78.071 142.405 77.8704 142.141 77.7246C141.881 77.5788 141.576 77.5059 141.225 77.5059C140.878 77.5059 140.573 77.5788 140.309 77.7246C140.049 77.8704 139.83 78.071 139.652 78.3262C139.479 78.5768 139.349 78.8662 139.263 79.1943C139.176 79.5179 139.133 79.862 139.133 80.2266ZM147.452 77.7656V84H146.188V76.6035H147.418L147.452 77.7656ZM149.763 76.5625L149.756 77.7383C149.651 77.7155 149.551 77.7018 149.455 77.6973C149.364 77.6882 149.259 77.6836 149.141 77.6836C148.849 77.6836 148.591 77.7292 148.368 77.8203C148.145 77.9115 147.956 78.0391 147.801 78.2031C147.646 78.3672 147.523 78.5632 147.432 78.791C147.345 79.0143 147.288 79.2604 147.261 79.5293L146.905 79.7344C146.905 79.2878 146.949 78.8685 147.035 78.4766C147.126 78.0846 147.265 77.7383 147.452 77.4375C147.639 77.1322 147.876 76.8952 148.163 76.7266C148.455 76.5534 148.801 76.4668 149.202 76.4668C149.293 76.4668 149.398 76.4782 149.517 76.501C149.635 76.5192 149.717 76.5397 149.763 76.5625ZM153.864 84.1367C153.349 84.1367 152.882 84.0501 152.463 83.877C152.048 83.6992 151.69 83.4508 151.39 83.1318C151.093 82.8128 150.866 82.4346 150.706 81.9971C150.547 81.5596 150.467 81.0811 150.467 80.5615V80.2744C150.467 79.6729 150.556 79.1374 150.733 78.668C150.911 78.194 151.153 77.793 151.458 77.4648C151.763 77.1367 152.11 76.8883 152.497 76.7197C152.884 76.5511 153.285 76.4668 153.7 76.4668C154.229 76.4668 154.685 76.5579 155.067 76.7402C155.455 76.9225 155.771 77.1777 156.018 77.5059C156.264 77.8294 156.446 78.2122 156.564 78.6543C156.683 79.0918 156.742 79.5703 156.742 80.0898V80.6572H151.219V79.625H155.478V79.5293C155.459 79.2012 155.391 78.8822 155.272 78.5723C155.159 78.2624 154.976 78.0072 154.726 77.8066C154.475 77.6061 154.133 77.5059 153.7 77.5059C153.413 77.5059 153.149 77.5674 152.907 77.6904C152.666 77.8089 152.458 77.9867 152.285 78.2236C152.112 78.4606 151.978 78.75 151.882 79.0918C151.786 79.4336 151.738 79.8278 151.738 80.2744V80.5615C151.738 80.9124 151.786 81.2428 151.882 81.5527C151.982 81.8581 152.126 82.127 152.312 82.3594C152.504 82.5918 152.734 82.7741 153.003 82.9062C153.276 83.0384 153.586 83.1045 153.933 83.1045C154.379 83.1045 154.757 83.0133 155.067 82.8311C155.377 82.6488 155.648 82.4049 155.881 82.0996L156.646 82.708C156.487 82.9495 156.284 83.1797 156.038 83.3984C155.792 83.6172 155.489 83.7949 155.129 83.9316C154.773 84.0684 154.352 84.1367 153.864 84.1367ZM159.477 78.0732V84H158.205V76.6035H159.408L159.477 78.0732ZM159.217 80.0215L158.629 80.001C158.633 79.4951 158.7 79.028 158.827 78.5996C158.955 78.1667 159.144 77.7907 159.395 77.4717C159.645 77.1527 159.957 76.9066 160.331 76.7334C160.705 76.5557 161.138 76.4668 161.63 76.4668C161.976 76.4668 162.295 76.5169 162.587 76.6172C162.879 76.7129 163.132 76.8656 163.346 77.0752C163.56 77.2848 163.726 77.5537 163.845 77.8818C163.963 78.21 164.022 78.6064 164.022 79.0713V84H162.758V79.1328C162.758 78.7454 162.692 78.4355 162.56 78.2031C162.432 77.9707 162.25 77.8021 162.013 77.6973C161.776 77.5879 161.498 77.5332 161.179 77.5332C160.805 77.5332 160.493 77.5993 160.242 77.7314C159.992 77.8636 159.791 78.0459 159.641 78.2783C159.49 78.5107 159.381 78.7773 159.312 79.0781C159.249 79.3743 159.217 79.6888 159.217 80.0215ZM164.009 79.3242L163.161 79.584C163.166 79.1784 163.232 78.7887 163.359 78.415C163.492 78.0413 163.681 77.7087 163.927 77.417C164.177 77.1253 164.485 76.8952 164.85 76.7266C165.214 76.5534 165.631 76.4668 166.101 76.4668C166.497 76.4668 166.848 76.5192 167.153 76.624C167.463 76.7288 167.723 76.8906 167.933 77.1094C168.147 77.3236 168.309 77.5993 168.418 77.9365C168.527 78.2738 168.582 78.6748 168.582 79.1396V84H167.311V79.126C167.311 78.7113 167.244 78.39 167.112 78.1621C166.985 77.9297 166.802 77.7679 166.565 77.6768C166.333 77.5811 166.055 77.5332 165.731 77.5332C165.453 77.5332 165.207 77.5811 164.993 77.6768C164.779 77.7725 164.599 77.9046 164.453 78.0732C164.307 78.2373 164.196 78.4264 164.118 78.6406C164.045 78.8548 164.009 79.0827 164.009 79.3242ZM175.575 74.0469V84H174.256V74.0469H175.575ZM179.048 78.0254V86.8438H177.776V76.6035H178.938L179.048 78.0254ZM184.031 80.2402V80.3838C184.031 80.9215 183.967 81.4206 183.84 81.8809C183.712 82.3366 183.525 82.7331 183.279 83.0703C183.038 83.4076 182.739 83.6696 182.384 83.8564C182.028 84.0433 181.62 84.1367 181.16 84.1367C180.691 84.1367 180.276 84.0592 179.916 83.9043C179.556 83.7493 179.251 83.5238 179 83.2275C178.749 82.9313 178.549 82.5758 178.398 82.1611C178.253 81.7464 178.152 81.2793 178.098 80.7598V79.9941C178.152 79.4473 178.255 78.9574 178.405 78.5244C178.556 78.0915 178.754 77.7223 179 77.417C179.251 77.1071 179.554 76.8724 179.909 76.7129C180.265 76.5488 180.675 76.4668 181.14 76.4668C181.604 76.4668 182.017 76.5579 182.377 76.7402C182.737 76.918 183.04 77.1732 183.286 77.5059C183.532 77.8385 183.717 78.2373 183.84 78.7021C183.967 79.1624 184.031 79.6751 184.031 80.2402ZM182.76 80.3838V80.2402C182.76 79.8711 182.721 79.5247 182.644 79.2012C182.566 78.873 182.445 78.5859 182.281 78.3398C182.122 78.0892 181.917 77.8932 181.666 77.752C181.415 77.6061 181.117 77.5332 180.771 77.5332C180.451 77.5332 180.174 77.5879 179.937 77.6973C179.704 77.8066 179.506 77.9548 179.342 78.1416C179.178 78.3239 179.043 78.5335 178.938 78.7705C178.838 79.0029 178.763 79.2445 178.713 79.4951V81.2656C178.804 81.5846 178.932 81.8854 179.096 82.168C179.26 82.446 179.479 82.6715 179.752 82.8447C180.025 83.0133 180.369 83.0977 180.784 83.0977C181.126 83.0977 181.42 83.027 181.666 82.8857C181.917 82.7399 182.122 82.5417 182.281 82.291C182.445 82.0404 182.566 81.7533 182.644 81.4297C182.721 81.1016 182.76 80.7529 182.76 80.3838ZM189.951 82.0381C189.951 81.8558 189.91 81.6872 189.828 81.5322C189.751 81.3727 189.589 81.2292 189.343 81.1016C189.101 80.9694 188.737 80.8555 188.249 80.7598C187.839 80.6732 187.467 80.5706 187.135 80.4521C186.807 80.3337 186.526 80.1901 186.294 80.0215C186.066 79.8529 185.891 79.6546 185.768 79.4268C185.645 79.1989 185.583 78.9323 185.583 78.627C185.583 78.3353 185.647 78.0596 185.774 77.7998C185.907 77.54 186.091 77.3099 186.328 77.1094C186.57 76.9089 186.859 76.7516 187.196 76.6377C187.534 76.5238 187.91 76.4668 188.324 76.4668C188.917 76.4668 189.423 76.5716 189.842 76.7812C190.261 76.9909 190.582 77.2712 190.806 77.6221C191.029 77.9684 191.141 78.3535 191.141 78.7773H189.876C189.876 78.5723 189.814 78.374 189.691 78.1826C189.573 77.9867 189.397 77.8249 189.165 77.6973C188.937 77.5697 188.657 77.5059 188.324 77.5059C187.973 77.5059 187.688 77.5605 187.47 77.6699C187.256 77.7747 187.098 77.9092 186.998 78.0732C186.902 78.2373 186.854 78.4105 186.854 78.5928C186.854 78.7295 186.877 78.8525 186.923 78.9619C186.973 79.0667 187.06 79.1647 187.183 79.2559C187.306 79.3424 187.479 79.4245 187.702 79.502C187.925 79.5794 188.21 79.6569 188.557 79.7344C189.163 79.8711 189.662 80.0352 190.054 80.2266C190.446 80.418 190.737 80.6527 190.929 80.9307C191.12 81.2087 191.216 81.5459 191.216 81.9424C191.216 82.266 191.147 82.5622 191.011 82.8311C190.879 83.0999 190.685 83.3324 190.43 83.5283C190.179 83.7197 189.878 83.8701 189.527 83.9795C189.181 84.0843 188.791 84.1367 188.358 84.1367C187.707 84.1367 187.155 84.0205 186.704 83.7881C186.253 83.5557 185.911 83.2549 185.679 82.8857C185.446 82.5166 185.33 82.127 185.33 81.7168H186.602C186.62 82.0632 186.72 82.3389 186.902 82.5439C187.085 82.7445 187.308 82.888 187.572 82.9746C187.837 83.0566 188.099 83.0977 188.358 83.0977C188.705 83.0977 188.994 83.0521 189.227 82.9609C189.464 82.8698 189.644 82.7445 189.767 82.585C189.89 82.4255 189.951 82.2432 189.951 82.0381ZM197.402 82.291V76.6035H198.674V84H197.464L197.402 82.291ZM197.642 80.7324L198.168 80.7188C198.168 81.2109 198.116 81.6667 198.011 82.0859C197.91 82.5007 197.746 82.8607 197.519 83.166C197.291 83.4714 196.992 83.7106 196.623 83.8838C196.254 84.0524 195.805 84.1367 195.276 84.1367C194.916 84.1367 194.586 84.0843 194.285 83.9795C193.989 83.8747 193.734 83.7129 193.52 83.4941C193.305 83.2754 193.139 82.9906 193.021 82.6396C192.907 82.2887 192.85 81.8672 192.85 81.375V76.6035H194.114V81.3887C194.114 81.7214 194.151 81.9971 194.224 82.2158C194.301 82.43 194.404 82.6009 194.531 82.7285C194.663 82.8516 194.809 82.9382 194.969 82.9883C195.133 83.0384 195.301 83.0635 195.475 83.0635C196.012 83.0635 196.438 82.9609 196.753 82.7559C197.067 82.5462 197.293 82.266 197.43 81.915C197.571 81.5596 197.642 81.1654 197.642 80.7324ZM201.859 78.0732V84H200.588V76.6035H201.791L201.859 78.0732ZM201.6 80.0215L201.012 80.001C201.016 79.4951 201.082 79.028 201.21 78.5996C201.338 78.1667 201.527 77.7907 201.777 77.4717C202.028 77.1527 202.34 76.9066 202.714 76.7334C203.088 76.5557 203.521 76.4668 204.013 76.4668C204.359 76.4668 204.678 76.5169 204.97 76.6172C205.261 76.7129 205.514 76.8656 205.729 77.0752C205.943 77.2848 206.109 77.5537 206.228 77.8818C206.346 78.21 206.405 78.6064 206.405 79.0713V84H205.141V79.1328C205.141 78.7454 205.075 78.4355 204.942 78.2031C204.815 77.9707 204.632 77.8021 204.396 77.6973C204.159 77.5879 203.881 77.5332 203.562 77.5332C203.188 77.5332 202.876 77.5993 202.625 77.7314C202.374 77.8636 202.174 78.0459 202.023 78.2783C201.873 78.5107 201.764 78.7773 201.695 79.0781C201.632 79.3743 201.6 79.6888 201.6 80.0215ZM206.392 79.3242L205.544 79.584C205.549 79.1784 205.615 78.7887 205.742 78.415C205.874 78.0413 206.063 77.7087 206.31 77.417C206.56 77.1253 206.868 76.8952 207.232 76.7266C207.597 76.5534 208.014 76.4668 208.483 76.4668C208.88 76.4668 209.231 76.5192 209.536 76.624C209.846 76.7288 210.106 76.8906 210.315 77.1094C210.53 77.3236 210.691 77.5993 210.801 77.9365C210.91 78.2738 210.965 78.6748 210.965 79.1396V84H209.693V79.126C209.693 78.7113 209.627 78.39 209.495 78.1621C209.368 77.9297 209.185 77.7679 208.948 77.6768C208.716 77.5811 208.438 77.5332 208.114 77.5332C207.836 77.5332 207.59 77.5811 207.376 77.6768C207.162 77.7725 206.982 77.9046 206.836 78.0732C206.69 78.2373 206.578 78.4264 206.501 78.6406C206.428 78.8548 206.392 79.0827 206.392 79.3242ZM217.726 76.6035V84H216.454V76.6035H217.726ZM216.358 74.6416C216.358 74.4365 216.42 74.2633 216.543 74.1221C216.671 73.9808 216.857 73.9102 217.104 73.9102C217.345 73.9102 217.53 73.9808 217.657 74.1221C217.789 74.2633 217.855 74.4365 217.855 74.6416C217.855 74.8376 217.789 75.0062 217.657 75.1475C217.53 75.2842 217.345 75.3525 217.104 75.3525C216.857 75.3525 216.671 75.2842 216.543 75.1475C216.42 75.0062 216.358 74.8376 216.358 74.6416ZM224.062 82.0381C224.062 81.8558 224.021 81.6872 223.939 81.5322C223.862 81.3727 223.7 81.2292 223.454 81.1016C223.213 80.9694 222.848 80.8555 222.36 80.7598C221.95 80.6732 221.579 80.5706 221.246 80.4521C220.918 80.3337 220.638 80.1901 220.405 80.0215C220.177 79.8529 220.002 79.6546 219.879 79.4268C219.756 79.1989 219.694 78.9323 219.694 78.627C219.694 78.3353 219.758 78.0596 219.886 77.7998C220.018 77.54 220.202 77.3099 220.439 77.1094C220.681 76.9089 220.97 76.7516 221.308 76.6377C221.645 76.5238 222.021 76.4668 222.436 76.4668C223.028 76.4668 223.534 76.5716 223.953 76.7812C224.372 76.9909 224.694 77.2712 224.917 77.6221C225.14 77.9684 225.252 78.3535 225.252 78.7773H223.987C223.987 78.5723 223.926 78.374 223.803 78.1826C223.684 77.9867 223.509 77.8249 223.276 77.6973C223.049 77.5697 222.768 77.5059 222.436 77.5059C222.085 77.5059 221.8 77.5605 221.581 77.6699C221.367 77.7747 221.21 77.9092 221.109 78.0732C221.014 78.2373 220.966 78.4105 220.966 78.5928C220.966 78.7295 220.989 78.8525 221.034 78.9619C221.084 79.0667 221.171 79.1647 221.294 79.2559C221.417 79.3424 221.59 79.4245 221.813 79.502C222.037 79.5794 222.322 79.6569 222.668 79.7344C223.274 79.8711 223.773 80.0352 224.165 80.2266C224.557 80.418 224.849 80.6527 225.04 80.9307C225.231 81.2087 225.327 81.5459 225.327 81.9424C225.327 82.266 225.259 82.5622 225.122 82.8311C224.99 83.0999 224.796 83.3324 224.541 83.5283C224.29 83.7197 223.99 83.8701 223.639 83.9795C223.292 84.0843 222.903 84.1367 222.47 84.1367C221.818 84.1367 221.267 84.0205 220.815 83.7881C220.364 83.5557 220.022 83.2549 219.79 82.8857C219.558 82.5166 219.441 82.127 219.441 81.7168H220.713C220.731 82.0632 220.831 82.3389 221.014 82.5439C221.196 82.7445 221.419 82.888 221.684 82.9746C221.948 83.0566 222.21 83.0977 222.47 83.0977C222.816 83.0977 223.105 83.0521 223.338 82.9609C223.575 82.8698 223.755 82.7445 223.878 82.585C224.001 82.4255 224.062 82.2432 224.062 82.0381ZM234.768 82.0381C234.768 81.8558 234.727 81.6872 234.645 81.5322C234.567 81.3727 234.405 81.2292 234.159 81.1016C233.918 80.9694 233.553 80.8555 233.065 80.7598C232.655 80.6732 232.284 80.5706 231.951 80.4521C231.623 80.3337 231.343 80.1901 231.11 80.0215C230.882 79.8529 230.707 79.6546 230.584 79.4268C230.461 79.1989 230.399 78.9323 230.399 78.627C230.399 78.3353 230.463 78.0596 230.591 77.7998C230.723 77.54 230.908 77.3099 231.145 77.1094C231.386 76.9089 231.675 76.7516 232.013 76.6377C232.35 76.5238 232.726 76.4668 233.141 76.4668C233.733 76.4668 234.239 76.5716 234.658 76.7812C235.077 76.9909 235.399 77.2712 235.622 77.6221C235.845 77.9684 235.957 78.3535 235.957 78.7773H234.692C234.692 78.5723 234.631 78.374 234.508 78.1826C234.389 77.9867 234.214 77.8249 233.981 77.6973C233.754 77.5697 233.473 77.5059 233.141 77.5059C232.79 77.5059 232.505 77.5605 232.286 77.6699C232.072 77.7747 231.915 77.9092 231.814 78.0732C231.719 78.2373 231.671 78.4105 231.671 78.5928C231.671 78.7295 231.694 78.8525 231.739 78.9619C231.789 79.0667 231.876 79.1647 231.999 79.2559C232.122 79.3424 232.295 79.4245 232.519 79.502C232.742 79.5794 233.027 79.6569 233.373 79.7344C233.979 79.8711 234.478 80.0352 234.87 80.2266C235.262 80.418 235.554 80.6527 235.745 80.9307C235.937 81.2087 236.032 81.5459 236.032 81.9424C236.032 82.266 235.964 82.5622 235.827 82.8311C235.695 83.0999 235.501 83.3324 235.246 83.5283C234.995 83.7197 234.695 83.8701 234.344 83.9795C233.997 84.0843 233.608 84.1367 233.175 84.1367C232.523 84.1367 231.972 84.0205 231.521 83.7881C231.069 83.5557 230.728 83.2549 230.495 82.8857C230.263 82.5166 230.146 82.127 230.146 81.7168H231.418C231.436 82.0632 231.536 82.3389 231.719 82.5439C231.901 82.7445 232.124 82.888 232.389 82.9746C232.653 83.0566 232.915 83.0977 233.175 83.0977C233.521 83.0977 233.811 83.0521 234.043 82.9609C234.28 82.8698 234.46 82.7445 234.583 82.585C234.706 82.4255 234.768 82.2432 234.768 82.0381ZM239.067 76.6035V84H237.796V76.6035H239.067ZM237.7 74.6416C237.7 74.4365 237.762 74.2633 237.885 74.1221C238.012 73.9808 238.199 73.9102 238.445 73.9102C238.687 73.9102 238.871 73.9808 238.999 74.1221C239.131 74.2633 239.197 74.4365 239.197 74.6416C239.197 74.8376 239.131 75.0062 238.999 75.1475C238.871 75.2842 238.687 75.3525 238.445 75.3525C238.199 75.3525 238.012 75.2842 237.885 75.1475C237.762 75.0062 237.7 74.8376 237.7 74.6416ZM242.355 78.0732V84H241.084V76.6035H242.287L242.355 78.0732ZM242.096 80.0215L241.508 80.001C241.512 79.4951 241.578 79.028 241.706 78.5996C241.834 78.1667 242.023 77.7907 242.273 77.4717C242.524 77.1527 242.836 76.9066 243.21 76.7334C243.584 76.5557 244.017 76.4668 244.509 76.4668C244.855 76.4668 245.174 76.5169 245.466 76.6172C245.757 76.7129 246.01 76.8656 246.225 77.0752C246.439 77.2848 246.605 77.5537 246.724 77.8818C246.842 78.21 246.901 78.6064 246.901 79.0713V84H245.637V79.1328C245.637 78.7454 245.571 78.4355 245.438 78.2031C245.311 77.9707 245.129 77.8021 244.892 77.6973C244.655 77.5879 244.377 77.5332 244.058 77.5332C243.684 77.5332 243.372 77.5993 243.121 77.7314C242.87 77.8636 242.67 78.0459 242.52 78.2783C242.369 78.5107 242.26 78.7773 242.191 79.0781C242.128 79.3743 242.096 79.6888 242.096 80.0215ZM246.888 79.3242L246.04 79.584C246.045 79.1784 246.111 78.7887 246.238 78.415C246.37 78.0413 246.56 77.7087 246.806 77.417C247.056 77.1253 247.364 76.8952 247.729 76.7266C248.093 76.5534 248.51 76.4668 248.979 76.4668C249.376 76.4668 249.727 76.5192 250.032 76.624C250.342 76.7288 250.602 76.8906 250.812 77.1094C251.026 77.3236 251.188 77.5993 251.297 77.9365C251.406 78.2738 251.461 78.6748 251.461 79.1396V84H250.189V79.126C250.189 78.7113 250.123 78.39 249.991 78.1621C249.864 77.9297 249.681 77.7679 249.444 77.6768C249.212 77.5811 248.934 77.5332 248.61 77.5332C248.332 77.5332 248.086 77.5811 247.872 77.6768C247.658 77.7725 247.478 77.9046 247.332 78.0732C247.186 78.2373 247.075 78.4264 246.997 78.6406C246.924 78.8548 246.888 79.0827 246.888 79.3242ZM254.64 78.0254V86.8438H253.368V76.6035H254.53L254.64 78.0254ZM259.623 80.2402V80.3838C259.623 80.9215 259.559 81.4206 259.432 81.8809C259.304 82.3366 259.117 82.7331 258.871 83.0703C258.63 83.4076 258.331 83.6696 257.976 83.8564C257.62 84.0433 257.212 84.1367 256.752 84.1367C256.283 84.1367 255.868 84.0592 255.508 83.9043C255.148 83.7493 254.842 83.5238 254.592 83.2275C254.341 82.9313 254.141 82.5758 253.99 82.1611C253.844 81.7464 253.744 81.2793 253.689 80.7598V79.9941C253.744 79.4473 253.847 78.9574 253.997 78.5244C254.147 78.0915 254.346 77.7223 254.592 77.417C254.842 77.1071 255.146 76.8724 255.501 76.7129C255.856 76.5488 256.267 76.4668 256.731 76.4668C257.196 76.4668 257.609 76.5579 257.969 76.7402C258.329 76.918 258.632 77.1732 258.878 77.5059C259.124 77.8385 259.309 78.2373 259.432 78.7021C259.559 79.1624 259.623 79.6751 259.623 80.2402ZM258.352 80.3838V80.2402C258.352 79.8711 258.313 79.5247 258.235 79.2012C258.158 78.873 258.037 78.5859 257.873 78.3398C257.714 78.0892 257.508 77.8932 257.258 77.752C257.007 77.6061 256.709 77.5332 256.362 77.5332C256.043 77.5332 255.765 77.5879 255.528 77.6973C255.296 77.8066 255.098 77.9548 254.934 78.1416C254.77 78.3239 254.635 78.5335 254.53 78.7705C254.43 79.0029 254.355 79.2445 254.305 79.4951V81.2656C254.396 81.5846 254.523 81.8854 254.688 82.168C254.852 82.446 255.07 82.6715 255.344 82.8447C255.617 83.0133 255.961 83.0977 256.376 83.0977C256.718 83.0977 257.012 83.027 257.258 82.8857C257.508 82.7399 257.714 82.5417 257.873 82.291C258.037 82.0404 258.158 81.7533 258.235 81.4297C258.313 81.1016 258.352 80.7529 258.352 80.3838ZM262.61 73.5V84H261.339V73.5H262.61ZM266.719 83.2344L268.776 76.6035H270.13L267.163 85.1416C267.095 85.3239 267.004 85.5199 266.89 85.7295C266.78 85.9437 266.639 86.1465 266.466 86.3379C266.293 86.5293 266.083 86.6842 265.837 86.8027C265.595 86.9258 265.306 86.9873 264.969 86.9873C264.868 86.9873 264.741 86.9736 264.586 86.9463C264.431 86.9189 264.322 86.8962 264.258 86.8779L264.251 85.8525C264.287 85.8571 264.344 85.8617 264.422 85.8662C264.504 85.8753 264.561 85.8799 264.593 85.8799C264.88 85.8799 265.124 85.8411 265.324 85.7637C265.525 85.6908 265.693 85.5654 265.83 85.3877C265.971 85.2145 266.092 84.9753 266.192 84.6699L266.719 83.2344ZM265.208 76.6035L267.129 82.3457L267.457 83.6787L266.548 84.1436L263.827 76.6035H265.208Z" fill="black"/>
<rect x="381" y="2" width="38" height="38" rx="19" stroke="white" stroke-width="2"/>
<path fill-rule="evenodd" clip-rule="evenodd" d="M401.803 14.3333C401.803 12.4924 403.302 11 405.152 11C407.001 11 408.5 12.4924 408.5 14.3333C408.5 16.1743 407.001 17.6667 405.152 17.6667C404.218 17.6667 403.374 17.286 402.767 16.6735L398.132 19.8295C398.175 20.0425 398.197 20.2625 398.197 20.4872C398.197 20.9322 398.109 21.3576 397.95 21.7464L403.032 25.0858C403.609 24.6161 404.347 24.3333 405.152 24.3333C407.001 24.3333 408.5 25.8257 408.5 27.6667C408.5 29.5076 407.001 31 405.152 31C403.302 31 401.803 29.5076 401.803 27.6667C401.803 27.1845 401.906 26.7255 402.092 26.3111L397.05 22.9987C396.462 23.5098 395.692 23.8205 394.848 23.8205C392.999 23.8205 391.5 22.3281 391.5 20.4872C391.5 18.6462 392.999 17.1538 394.848 17.1538C395.912 17.1538 396.859 17.6473 397.471 18.4152L401.964 15.3564C401.859 15.0336 401.803 14.6896 401.803 14.3333Z" fill="white"/>
<path d="M345.587 61.4365C345.587 61.2314 345.555 61.0492 345.491 60.8896C345.432 60.7301 345.325 60.5843 345.17 60.4521C345.015 60.32 344.796 60.1924 344.514 60.0693C344.236 59.9417 343.88 59.8118 343.447 59.6797C342.973 59.5339 342.536 59.3721 342.135 59.1943C341.738 59.012 341.392 58.8024 341.096 58.5654C340.799 58.3239 340.569 58.0482 340.405 57.7383C340.241 57.4238 340.159 57.0615 340.159 56.6514C340.159 56.2458 340.243 55.8766 340.412 55.5439C340.585 55.2113 340.829 54.9242 341.144 54.6826C341.463 54.4365 341.839 54.2474 342.271 54.1152C342.704 53.9785 343.183 53.9102 343.707 53.9102C344.445 53.9102 345.081 54.0469 345.614 54.3203C346.152 54.5938 346.564 54.9606 346.852 55.4209C347.143 55.8812 347.289 56.3893 347.289 56.9453H345.587C345.587 56.6172 345.516 56.3278 345.375 56.0771C345.238 55.8219 345.029 55.6214 344.746 55.4756C344.468 55.3298 344.115 55.2568 343.687 55.2568C343.281 55.2568 342.944 55.3184 342.675 55.4414C342.406 55.5645 342.205 55.7308 342.073 55.9404C341.941 56.1501 341.875 56.387 341.875 56.6514C341.875 56.8382 341.918 57.0091 342.005 57.1641C342.091 57.3145 342.224 57.4557 342.401 57.5879C342.579 57.7155 342.802 57.8363 343.071 57.9502C343.34 58.0641 343.657 58.1735 344.021 58.2783C344.573 58.4424 345.054 58.6247 345.464 58.8252C345.874 59.0212 346.216 59.2445 346.489 59.4951C346.763 59.7458 346.968 60.0306 347.104 60.3496C347.241 60.6641 347.31 61.0218 347.31 61.4229C347.31 61.8421 347.225 62.2204 347.057 62.5576C346.888 62.8903 346.646 63.1751 346.332 63.4121C346.022 63.6445 345.648 63.8245 345.211 63.9521C344.778 64.0752 344.295 64.1367 343.762 64.1367C343.283 64.1367 342.812 64.0729 342.347 63.9453C341.886 63.8177 341.467 63.624 341.089 63.3643C340.711 63.0999 340.41 62.7718 340.187 62.3799C339.963 61.9834 339.852 61.5208 339.852 60.9922H341.567C341.567 61.3158 341.622 61.5915 341.731 61.8193C341.845 62.0472 342.003 62.234 342.203 62.3799C342.404 62.5212 342.636 62.626 342.9 62.6943C343.169 62.7627 343.456 62.7969 343.762 62.7969C344.163 62.7969 344.498 62.7399 344.767 62.626C345.04 62.512 345.245 62.3525 345.382 62.1475C345.519 61.9424 345.587 61.7054 345.587 61.4365ZM355.342 62.6396V64H350.058V62.6396H355.342ZM350.543 54.0469V64H348.827V54.0469H350.543ZM354.651 58.2031V59.543H350.058V58.2031H354.651ZM355.308 54.0469V55.4141H350.058V54.0469H355.308ZM362.622 60.7598H364.331C364.276 61.4115 364.094 61.9925 363.784 62.5029C363.474 63.0088 363.039 63.4076 362.479 63.6992C361.918 63.9909 361.237 64.1367 360.435 64.1367C359.819 64.1367 359.266 64.0273 358.773 63.8086C358.281 63.5853 357.86 63.2708 357.509 62.8652C357.158 62.4551 356.889 61.9606 356.702 61.3818C356.52 60.8031 356.429 60.1559 356.429 59.4404V58.6133C356.429 57.8978 356.522 57.2507 356.709 56.6719C356.9 56.0931 357.174 55.5986 357.529 55.1885C357.885 54.7738 358.311 54.457 358.808 54.2383C359.309 54.0195 359.872 53.9102 360.496 53.9102C361.289 53.9102 361.959 54.056 362.506 54.3477C363.053 54.6393 363.477 55.0426 363.777 55.5576C364.083 56.0726 364.27 56.6628 364.338 57.3281H362.629C362.583 56.8997 362.483 56.5329 362.328 56.2275C362.178 55.9222 361.954 55.6898 361.658 55.5303C361.362 55.3662 360.975 55.2842 360.496 55.2842C360.104 55.2842 359.762 55.3571 359.471 55.5029C359.179 55.6488 358.935 55.863 358.739 56.1455C358.543 56.4281 358.395 56.7767 358.295 57.1914C358.199 57.6016 358.151 58.071 358.151 58.5996V59.4404C358.151 59.9417 358.195 60.3975 358.281 60.8076C358.372 61.2132 358.509 61.5618 358.691 61.8535C358.878 62.1452 359.115 62.3708 359.402 62.5303C359.689 62.6898 360.034 62.7695 360.435 62.7695C360.922 62.7695 361.316 62.6921 361.617 62.5371C361.923 62.3822 362.153 62.1566 362.308 61.8604C362.467 61.5596 362.572 61.1927 362.622 60.7598ZM371.475 54.0469H373.184V60.6982C373.184 61.4548 373.02 62.0882 372.691 62.5986C372.363 63.109 371.917 63.4941 371.352 63.7539C370.791 64.0091 370.164 64.1367 369.472 64.1367C368.756 64.1367 368.118 64.0091 367.558 63.7539C366.997 63.4941 366.555 63.109 366.231 62.5986C365.912 62.0882 365.753 61.4548 365.753 60.6982V54.0469H367.462V60.6982C367.462 61.1768 367.544 61.571 367.708 61.8809C367.872 62.1862 368.104 62.4118 368.405 62.5576C368.706 62.7035 369.062 62.7764 369.472 62.7764C369.882 62.7764 370.235 62.7035 370.531 62.5576C370.832 62.4118 371.064 62.1862 371.229 61.8809C371.393 61.571 371.475 61.1768 371.475 60.6982V54.0469ZM375.05 54.0469H378.57C379.327 54.0469 379.972 54.1608 380.505 54.3887C381.038 54.6165 381.446 54.9538 381.729 55.4004C382.016 55.8424 382.159 56.3893 382.159 57.041C382.159 57.5378 382.068 57.9753 381.886 58.3535C381.703 58.7318 381.446 59.0508 381.113 59.3105C380.781 59.5658 380.384 59.764 379.924 59.9053L379.404 60.1582H376.239L376.226 58.7979H378.598C379.008 58.7979 379.35 58.7249 379.623 58.5791C379.896 58.4333 380.102 58.235 380.238 57.9844C380.38 57.7292 380.45 57.4421 380.45 57.123C380.45 56.7767 380.382 56.4759 380.245 56.2207C380.113 55.9609 379.908 55.7627 379.63 55.626C379.352 55.4847 378.999 55.4141 378.57 55.4141H376.766V64H375.05V54.0469ZM380.73 64L378.393 59.5293L380.19 59.5225L382.562 63.9111V64H380.73ZM385.7 54.0469V64H383.984V54.0469H385.7ZM391.723 54.0469V64H390.021V54.0469H391.723ZM394.847 54.0469V55.4141H386.924V54.0469H394.847ZM397.219 54.0469L399.529 58.7979L401.84 54.0469H403.74L400.391 60.3359V64H398.661V60.3359L395.312 54.0469H397.219ZM411.205 64H409.079L409.093 62.6396H411.205C411.82 62.6396 412.335 62.5052 412.75 62.2363C413.169 61.9674 413.484 61.5824 413.693 61.0811C413.908 60.5798 414.015 59.9827 414.015 59.29V58.75C414.015 58.2122 413.953 57.736 413.83 57.3213C413.712 56.9066 413.534 56.5579 413.297 56.2754C413.064 55.9928 412.777 55.7786 412.436 55.6328C412.098 55.487 411.709 55.4141 411.267 55.4141H409.038V54.0469H411.267C411.927 54.0469 412.531 54.1585 413.078 54.3818C413.625 54.6006 414.097 54.9173 414.493 55.332C414.894 55.7467 415.202 56.2435 415.416 56.8223C415.63 57.401 415.737 58.0482 415.737 58.7637V59.29C415.737 60.0055 415.63 60.6527 415.416 61.2314C415.202 61.8102 414.894 62.307 414.493 62.7217C414.092 63.1318 413.614 63.4486 413.058 63.6719C412.506 63.8906 411.889 64 411.205 64ZM410.029 54.0469V64H408.313V54.0469H410.029ZM423.975 62.6396V64H418.69V62.6396H423.975ZM419.176 54.0469V64H417.46V54.0469H419.176ZM423.284 58.2031V59.543H418.69V58.2031H423.284ZM423.94 54.0469V55.4141H418.69V54.0469H423.94ZM429.607 54.0469V64H427.905V54.0469H429.607ZM432.731 54.0469V55.4141H424.809V54.0469H432.731ZM437.264 55.373L434.29 64H432.492L436.238 54.0469H437.387L437.264 55.373ZM439.752 64L436.771 55.373L436.642 54.0469H437.797L441.557 64H439.752ZM439.608 60.3086V61.6689H434.194V60.3086H439.608ZM444.503 54.0469V64H442.787V54.0469H444.503ZM452.87 62.6396V64H447.873V62.6396H452.87ZM448.352 54.0469V64H446.636V54.0469H448.352ZM459.433 61.4365C459.433 61.2314 459.401 61.0492 459.337 60.8896C459.278 60.7301 459.171 60.5843 459.016 60.4521C458.861 60.32 458.642 60.1924 458.359 60.0693C458.081 59.9417 457.726 59.8118 457.293 59.6797C456.819 59.5339 456.382 59.3721 455.98 59.1943C455.584 59.012 455.238 58.8024 454.941 58.5654C454.645 58.3239 454.415 58.0482 454.251 57.7383C454.087 57.4238 454.005 57.0615 454.005 56.6514C454.005 56.2458 454.089 55.8766 454.258 55.5439C454.431 55.2113 454.675 54.9242 454.989 54.6826C455.308 54.4365 455.684 54.2474 456.117 54.1152C456.55 53.9785 457.029 53.9102 457.553 53.9102C458.291 53.9102 458.927 54.0469 459.46 54.3203C459.998 54.5938 460.41 54.9606 460.697 55.4209C460.989 55.8812 461.135 56.3893 461.135 56.9453H459.433C459.433 56.6172 459.362 56.3278 459.221 56.0771C459.084 55.8219 458.874 55.6214 458.592 55.4756C458.314 55.3298 457.961 55.2568 457.532 55.2568C457.127 55.2568 456.789 55.3184 456.521 55.4414C456.252 55.5645 456.051 55.7308 455.919 55.9404C455.787 56.1501 455.721 56.387 455.721 56.6514C455.721 56.8382 455.764 57.0091 455.851 57.1641C455.937 57.3145 456.069 57.4557 456.247 57.5879C456.425 57.7155 456.648 57.8363 456.917 57.9502C457.186 58.0641 457.503 58.1735 457.867 58.2783C458.419 58.4424 458.899 58.6247 459.31 58.8252C459.72 59.0212 460.062 59.2445 460.335 59.4951C460.608 59.7458 460.813 60.0306 460.95 60.3496C461.087 60.6641 461.155 61.0218 461.155 61.4229C461.155 61.8421 461.071 62.2204 460.902 62.5576C460.734 62.8903 460.492 63.1751 460.178 63.4121C459.868 63.6445 459.494 63.8245 459.057 63.9521C458.624 64.0752 458.141 64.1367 457.607 64.1367C457.129 64.1367 456.657 64.0729 456.192 63.9453C455.732 63.8177 455.313 63.624 454.935 63.3643C454.556 63.0999 454.256 62.7718 454.032 62.3799C453.809 61.9834 453.697 61.5208 453.697 60.9922H455.413C455.413 61.3158 455.468 61.5915 455.577 61.8193C455.691 62.0472 455.848 62.234 456.049 62.3799C456.249 62.5212 456.482 62.626 456.746 62.6943C457.015 62.7627 457.302 62.7969 457.607 62.7969C458.008 62.7969 458.343 62.7399 458.612 62.626C458.886 62.512 459.091 62.3525 459.228 62.1475C459.364 61.9424 459.433 61.7054 459.433 61.4365Z" fill="white"/>
<path d="M336.884 82.9268V84H331.907V82.9268H336.884ZM332.167 74.0469V84H330.848V74.0469H332.167ZM337.868 80.3838V80.2266C337.868 79.6934 337.946 79.1989 338.101 78.7432C338.256 78.2829 338.479 77.8841 338.771 77.5469C339.062 77.2051 339.415 76.9408 339.83 76.7539C340.245 76.5625 340.71 76.4668 341.225 76.4668C341.744 76.4668 342.211 76.5625 342.626 76.7539C343.045 76.9408 343.401 77.2051 343.692 77.5469C343.989 77.8841 344.214 78.2829 344.369 78.7432C344.524 79.1989 344.602 79.6934 344.602 80.2266V80.3838C344.602 80.917 344.524 81.4115 344.369 81.8672C344.214 82.3229 343.989 82.7217 343.692 83.0635C343.401 83.4007 343.048 83.665 342.633 83.8564C342.223 84.0433 341.758 84.1367 341.238 84.1367C340.719 84.1367 340.252 84.0433 339.837 83.8564C339.422 83.665 339.067 83.4007 338.771 83.0635C338.479 82.7217 338.256 82.3229 338.101 81.8672C337.946 81.4115 337.868 80.917 337.868 80.3838ZM339.133 80.2266V80.3838C339.133 80.7529 339.176 81.1016 339.263 81.4297C339.349 81.7533 339.479 82.0404 339.652 82.291C339.83 82.5417 340.051 82.7399 340.315 82.8857C340.58 83.027 340.887 83.0977 341.238 83.0977C341.585 83.0977 341.888 83.027 342.147 82.8857C342.412 82.7399 342.631 82.5417 342.804 82.291C342.977 82.0404 343.107 81.7533 343.193 81.4297C343.285 81.1016 343.33 80.7529 343.33 80.3838V80.2266C343.33 79.862 343.285 79.5179 343.193 79.1943C343.107 78.8662 342.975 78.5768 342.797 78.3262C342.624 78.071 342.405 77.8704 342.141 77.7246C341.881 77.5788 341.576 77.5059 341.225 77.5059C340.878 77.5059 340.573 77.5788 340.309 77.7246C340.049 77.8704 339.83 78.071 339.652 78.3262C339.479 78.5768 339.349 78.8662 339.263 79.1943C339.176 79.5179 339.133 79.862 339.133 80.2266ZM347.452 77.7656V84H346.188V76.6035H347.418L347.452 77.7656ZM349.763 76.5625L349.756 77.7383C349.651 77.7155 349.551 77.7018 349.455 77.6973C349.364 77.6882 349.259 77.6836 349.141 77.6836C348.849 77.6836 348.591 77.7292 348.368 77.8203C348.145 77.9115 347.956 78.0391 347.801 78.2031C347.646 78.3672 347.523 78.5632 347.432 78.791C347.345 79.0143 347.288 79.2604 347.261 79.5293L346.905 79.7344C346.905 79.2878 346.949 78.8685 347.035 78.4766C347.126 78.0846 347.265 77.7383 347.452 77.4375C347.639 77.1322 347.876 76.8952 348.163 76.7266C348.455 76.5534 348.801 76.4668 349.202 76.4668C349.293 76.4668 349.398 76.4782 349.517 76.501C349.635 76.5192 349.717 76.5397 349.763 76.5625ZM353.864 84.1367C353.349 84.1367 352.882 84.0501 352.463 83.877C352.048 83.6992 351.69 83.4508 351.39 83.1318C351.093 82.8128 350.866 82.4346 350.706 81.9971C350.547 81.5596 350.467 81.0811 350.467 80.5615V80.2744C350.467 79.6729 350.556 79.1374 350.733 78.668C350.911 78.194 351.153 77.793 351.458 77.4648C351.763 77.1367 352.11 76.8883 352.497 76.7197C352.884 76.5511 353.285 76.4668 353.7 76.4668C354.229 76.4668 354.685 76.5579 355.067 76.7402C355.455 76.9225 355.771 77.1777 356.018 77.5059C356.264 77.8294 356.446 78.2122 356.564 78.6543C356.683 79.0918 356.742 79.5703 356.742 80.0898V80.6572H351.219V79.625H355.478V79.5293C355.459 79.2012 355.391 78.8822 355.272 78.5723C355.159 78.2624 354.976 78.0072 354.726 77.8066C354.475 77.6061 354.133 77.5059 353.7 77.5059C353.413 77.5059 353.149 77.5674 352.907 77.6904C352.666 77.8089 352.458 77.9867 352.285 78.2236C352.112 78.4606 351.978 78.75 351.882 79.0918C351.786 79.4336 351.738 79.8278 351.738 80.2744V80.5615C351.738 80.9124 351.786 81.2428 351.882 81.5527C351.982 81.8581 352.126 82.127 352.312 82.3594C352.504 82.5918 352.734 82.7741 353.003 82.9062C353.276 83.0384 353.586 83.1045 353.933 83.1045C354.379 83.1045 354.757 83.0133 355.067 82.8311C355.377 82.6488 355.648 82.4049 355.881 82.0996L356.646 82.708C356.487 82.9495 356.284 83.1797 356.038 83.3984C355.792 83.6172 355.489 83.7949 355.129 83.9316C354.773 84.0684 354.352 84.1367 353.864 84.1367ZM359.477 78.0732V84H358.205V76.6035H359.408L359.477 78.0732ZM359.217 80.0215L358.629 80.001C358.633 79.4951 358.7 79.028 358.827 78.5996C358.955 78.1667 359.144 77.7907 359.395 77.4717C359.645 77.1527 359.957 76.9066 360.331 76.7334C360.705 76.5557 361.138 76.4668 361.63 76.4668C361.976 76.4668 362.295 76.5169 362.587 76.6172C362.879 76.7129 363.132 76.8656 363.346 77.0752C363.56 77.2848 363.726 77.5537 363.845 77.8818C363.963 78.21 364.022 78.6064 364.022 79.0713V84H362.758V79.1328C362.758 78.7454 362.692 78.4355 362.56 78.2031C362.432 77.9707 362.25 77.8021 362.013 77.6973C361.776 77.5879 361.498 77.5332 361.179 77.5332C360.805 77.5332 360.493 77.5993 360.242 77.7314C359.992 77.8636 359.791 78.0459 359.641 78.2783C359.49 78.5107 359.381 78.7773 359.312 79.0781C359.249 79.3743 359.217 79.6888 359.217 80.0215ZM364.009 79.3242L363.161 79.584C363.166 79.1784 363.232 78.7887 363.359 78.415C363.492 78.0413 363.681 77.7087 363.927 77.417C364.177 77.1253 364.485 76.8952 364.85 76.7266C365.214 76.5534 365.631 76.4668 366.101 76.4668C366.497 76.4668 366.848 76.5192 367.153 76.624C367.463 76.7288 367.723 76.8906 367.933 77.1094C368.147 77.3236 368.309 77.5993 368.418 77.9365C368.527 78.2738 368.582 78.6748 368.582 79.1396V84H367.311V79.126C367.311 78.7113 367.244 78.39 367.112 78.1621C366.985 77.9297 366.802 77.7679 366.565 77.6768C366.333 77.5811 366.055 77.5332 365.731 77.5332C365.453 77.5332 365.207 77.5811 364.993 77.6768C364.779 77.7725 364.599 77.9046 364.453 78.0732C364.307 78.2373 364.196 78.4264 364.118 78.6406C364.045 78.8548 364.009 79.0827 364.009 79.3242ZM375.575 74.0469V84H374.256V74.0469H375.575ZM379.048 78.0254V86.8438H377.776V76.6035H378.938L379.048 78.0254ZM384.031 80.2402V80.3838C384.031 80.9215 383.967 81.4206 383.84 81.8809C383.712 82.3366 383.525 82.7331 383.279 83.0703C383.038 83.4076 382.739 83.6696 382.384 83.8564C382.028 84.0433 381.62 84.1367 381.16 84.1367C380.691 84.1367 380.276 84.0592 379.916 83.9043C379.556 83.7493 379.251 83.5238 379 83.2275C378.749 82.9313 378.549 82.5758 378.398 82.1611C378.253 81.7464 378.152 81.2793 378.098 80.7598V79.9941C378.152 79.4473 378.255 78.9574 378.405 78.5244C378.556 78.0915 378.754 77.7223 379 77.417C379.251 77.1071 379.554 76.8724 379.909 76.7129C380.265 76.5488 380.675 76.4668 381.14 76.4668C381.604 76.4668 382.017 76.5579 382.377 76.7402C382.737 76.918 383.04 77.1732 383.286 77.5059C383.532 77.8385 383.717 78.2373 383.84 78.7021C383.967 79.1624 384.031 79.6751 384.031 80.2402ZM382.76 80.3838V80.2402C382.76 79.8711 382.721 79.5247 382.644 79.2012C382.566 78.873 382.445 78.5859 382.281 78.3398C382.122 78.0892 381.917 77.8932 381.666 77.752C381.415 77.6061 381.117 77.5332 380.771 77.5332C380.451 77.5332 380.174 77.5879 379.937 77.6973C379.704 77.8066 379.506 77.9548 379.342 78.1416C379.178 78.3239 379.043 78.5335 378.938 78.7705C378.838 79.0029 378.763 79.2445 378.713 79.4951V81.2656C378.804 81.5846 378.932 81.8854 379.096 82.168C379.26 82.446 379.479 82.6715 379.752 82.8447C380.025 83.0133 380.369 83.0977 380.784 83.0977C381.126 83.0977 381.42 83.027 381.666 82.8857C381.917 82.7399 382.122 82.5417 382.281 82.291C382.445 82.0404 382.566 81.7533 382.644 81.4297C382.721 81.1016 382.76 80.7529 382.76 80.3838ZM389.951 82.0381C389.951 81.8558 389.91 81.6872 389.828 81.5322C389.751 81.3727 389.589 81.2292 389.343 81.1016C389.101 80.9694 388.737 80.8555 388.249 80.7598C387.839 80.6732 387.467 80.5706 387.135 80.4521C386.807 80.3337 386.526 80.1901 386.294 80.0215C386.066 79.8529 385.891 79.6546 385.768 79.4268C385.645 79.1989 385.583 78.9323 385.583 78.627C385.583 78.3353 385.647 78.0596 385.774 77.7998C385.907 77.54 386.091 77.3099 386.328 77.1094C386.57 76.9089 386.859 76.7516 387.196 76.6377C387.534 76.5238 387.91 76.4668 388.324 76.4668C388.917 76.4668 389.423 76.5716 389.842 76.7812C390.261 76.9909 390.582 77.2712 390.806 77.6221C391.029 77.9684 391.141 78.3535 391.141 78.7773H389.876C389.876 78.5723 389.814 78.374 389.691 78.1826C389.573 77.9867 389.397 77.8249 389.165 77.6973C388.937 77.5697 388.657 77.5059 388.324 77.5059C387.973 77.5059 387.688 77.5605 387.47 77.6699C387.256 77.7747 387.098 77.9092 386.998 78.0732C386.902 78.2373 386.854 78.4105 386.854 78.5928C386.854 78.7295 386.877 78.8525 386.923 78.9619C386.973 79.0667 387.06 79.1647 387.183 79.2559C387.306 79.3424 387.479 79.4245 387.702 79.502C387.925 79.5794 388.21 79.6569 388.557 79.7344C389.163 79.8711 389.662 80.0352 390.054 80.2266C390.446 80.418 390.737 80.6527 390.929 80.9307C391.12 81.2087 391.216 81.5459 391.216 81.9424C391.216 82.266 391.147 82.5622 391.011 82.8311C390.879 83.0999 390.685 83.3324 390.43 83.5283C390.179 83.7197 389.878 83.8701 389.527 83.9795C389.181 84.0843 388.791 84.1367 388.358 84.1367C387.707 84.1367 387.155 84.0205 386.704 83.7881C386.253 83.5557 385.911 83.2549 385.679 82.8857C385.446 82.5166 385.33 82.127 385.33 81.7168H386.602C386.62 82.0632 386.72 82.3389 386.902 82.5439C387.085 82.7445 387.308 82.888 387.572 82.9746C387.837 83.0566 388.099 83.0977 388.358 83.0977C388.705 83.0977 388.994 83.0521 389.227 82.9609C389.464 82.8698 389.644 82.7445 389.767 82.585C389.89 82.4255 389.951 82.2432 389.951 82.0381ZM397.402 82.291V76.6035H398.674V84H397.464L397.402 82.291ZM397.642 80.7324L398.168 80.7188C398.168 81.2109 398.116 81.6667 398.011 82.0859C397.91 82.5007 397.746 82.8607 397.519 83.166C397.291 83.4714 396.992 83.7106 396.623 83.8838C396.254 84.0524 395.805 84.1367 395.276 84.1367C394.916 84.1367 394.586 84.0843 394.285 83.9795C393.989 83.8747 393.734 83.7129 393.52 83.4941C393.305 83.2754 393.139 82.9906 393.021 82.6396C392.907 82.2887 392.85 81.8672 392.85 81.375V76.6035H394.114V81.3887C394.114 81.7214 394.151 81.9971 394.224 82.2158C394.301 82.43 394.404 82.6009 394.531 82.7285C394.663 82.8516 394.809 82.9382 394.969 82.9883C395.133 83.0384 395.301 83.0635 395.475 83.0635C396.012 83.0635 396.438 82.9609 396.753 82.7559C397.067 82.5462 397.293 82.266 397.43 81.915C397.571 81.5596 397.642 81.1654 397.642 80.7324ZM401.859 78.0732V84H400.588V76.6035H401.791L401.859 78.0732ZM401.6 80.0215L401.012 80.001C401.016 79.4951 401.082 79.028 401.21 78.5996C401.338 78.1667 401.527 77.7907 401.777 77.4717C402.028 77.1527 402.34 76.9066 402.714 76.7334C403.088 76.5557 403.521 76.4668 404.013 76.4668C404.359 76.4668 404.678 76.5169 404.97 76.6172C405.261 76.7129 405.514 76.8656 405.729 77.0752C405.943 77.2848 406.109 77.5537 406.228 77.8818C406.346 78.21 406.405 78.6064 406.405 79.0713V84H405.141V79.1328C405.141 78.7454 405.075 78.4355 404.942 78.2031C404.815 77.9707 404.632 77.8021 404.396 77.6973C404.159 77.5879 403.881 77.5332 403.562 77.5332C403.188 77.5332 402.876 77.5993 402.625 77.7314C402.374 77.8636 402.174 78.0459 402.023 78.2783C401.873 78.5107 401.764 78.7773 401.695 79.0781C401.632 79.3743 401.6 79.6888 401.6 80.0215ZM406.392 79.3242L405.544 79.584C405.549 79.1784 405.615 78.7887 405.742 78.415C405.874 78.0413 406.063 77.7087 406.31 77.417C406.56 77.1253 406.868 76.8952 407.232 76.7266C407.597 76.5534 408.014 76.4668 408.483 76.4668C408.88 76.4668 409.231 76.5192 409.536 76.624C409.846 76.7288 410.106 76.8906 410.315 77.1094C410.53 77.3236 410.691 77.5993 410.801 77.9365C410.91 78.2738 410.965 78.6748 410.965 79.1396V84H409.693V79.126C409.693 78.7113 409.627 78.39 409.495 78.1621C409.368 77.9297 409.185 77.7679 408.948 77.6768C408.716 77.5811 408.438 77.5332 408.114 77.5332C407.836 77.5332 407.59 77.5811 407.376 77.6768C407.162 77.7725 406.982 77.9046 406.836 78.0732C406.69 78.2373 406.578 78.4264 406.501 78.6406C406.428 78.8548 406.392 79.0827 406.392 79.3242ZM417.726 76.6035V84H416.454V76.6035H417.726ZM416.358 74.6416C416.358 74.4365 416.42 74.2633 416.543 74.1221C416.671 73.9808 416.857 73.9102 417.104 73.9102C417.345 73.9102 417.53 73.9808 417.657 74.1221C417.789 74.2633 417.855 74.4365 417.855 74.6416C417.855 74.8376 417.789 75.0062 417.657 75.1475C417.53 75.2842 417.345 75.3525 417.104 75.3525C416.857 75.3525 416.671 75.2842 416.543 75.1475C416.42 75.0062 416.358 74.8376 416.358 74.6416ZM424.062 82.0381C424.062 81.8558 424.021 81.6872 423.939 81.5322C423.862 81.3727 423.7 81.2292 423.454 81.1016C423.213 80.9694 422.848 80.8555 422.36 80.7598C421.95 80.6732 421.579 80.5706 421.246 80.4521C420.918 80.3337 420.638 80.1901 420.405 80.0215C420.177 79.8529 420.002 79.6546 419.879 79.4268C419.756 79.1989 419.694 78.9323 419.694 78.627C419.694 78.3353 419.758 78.0596 419.886 77.7998C420.018 77.54 420.202 77.3099 420.439 77.1094C420.681 76.9089 420.97 76.7516 421.308 76.6377C421.645 76.5238 422.021 76.4668 422.436 76.4668C423.028 76.4668 423.534 76.5716 423.953 76.7812C424.372 76.9909 424.694 77.2712 424.917 77.6221C425.14 77.9684 425.252 78.3535 425.252 78.7773H423.987C423.987 78.5723 423.926 78.374 423.803 78.1826C423.684 77.9867 423.509 77.8249 423.276 77.6973C423.049 77.5697 422.768 77.5059 422.436 77.5059C422.085 77.5059 421.8 77.5605 421.581 77.6699C421.367 77.7747 421.21 77.9092 421.109 78.0732C421.014 78.2373 420.966 78.4105 420.966 78.5928C420.966 78.7295 420.989 78.8525 421.034 78.9619C421.084 79.0667 421.171 79.1647 421.294 79.2559C421.417 79.3424 421.59 79.4245 421.813 79.502C422.037 79.5794 422.322 79.6569 422.668 79.7344C423.274 79.8711 423.773 80.0352 424.165 80.2266C424.557 80.418 424.849 80.6527 425.04 80.9307C425.231 81.2087 425.327 81.5459 425.327 81.9424C425.327 82.266 425.259 82.5622 425.122 82.8311C424.99 83.0999 424.796 83.3324 424.541 83.5283C424.29 83.7197 423.99 83.8701 423.639 83.9795C423.292 84.0843 422.903 84.1367 422.47 84.1367C421.818 84.1367 421.267 84.0205 420.815 83.7881C420.364 83.5557 420.022 83.2549 419.79 82.8857C419.558 82.5166 419.441 82.127 419.441 81.7168H420.713C420.731 82.0632 420.831 82.3389 421.014 82.5439C421.196 82.7445 421.419 82.888 421.684 82.9746C421.948 83.0566 422.21 83.0977 422.47 83.0977C422.816 83.0977 423.105 83.0521 423.338 82.9609C423.575 82.8698 423.755 82.7445 423.878 82.585C424.001 82.4255 424.062 82.2432 424.062 82.0381ZM434.768 82.0381C434.768 81.8558 434.727 81.6872 434.645 81.5322C434.567 81.3727 434.405 81.2292 434.159 81.1016C433.918 80.9694 433.553 80.8555 433.065 80.7598C432.655 80.6732 432.284 80.5706 431.951 80.4521C431.623 80.3337 431.343 80.1901 431.11 80.0215C430.882 79.8529 430.707 79.6546 430.584 79.4268C430.461 79.1989 430.399 78.9323 430.399 78.627C430.399 78.3353 430.463 78.0596 430.591 77.7998C430.723 77.54 430.908 77.3099 431.145 77.1094C431.386 76.9089 431.675 76.7516 432.013 76.6377C432.35 76.5238 432.726 76.4668 433.141 76.4668C433.733 76.4668 434.239 76.5716 434.658 76.7812C435.077 76.9909 435.399 77.2712 435.622 77.6221C435.845 77.9684 435.957 78.3535 435.957 78.7773H434.692C434.692 78.5723 434.631 78.374 434.508 78.1826C434.389 77.9867 434.214 77.8249 433.981 77.6973C433.754 77.5697 433.473 77.5059 433.141 77.5059C432.79 77.5059 432.505 77.5605 432.286 77.6699C432.072 77.7747 431.915 77.9092 431.814 78.0732C431.719 78.2373 431.671 78.4105 431.671 78.5928C431.671 78.7295 431.694 78.8525 431.739 78.9619C431.789 79.0667 431.876 79.1647 431.999 79.2559C432.122 79.3424 432.295 79.4245 432.519 79.502C432.742 79.5794 433.027 79.6569 433.373 79.7344C433.979 79.8711 434.478 80.0352 434.87 80.2266C435.262 80.418 435.554 80.6527 435.745 80.9307C435.937 81.2087 436.032 81.5459 436.032 81.9424C436.032 82.266 435.964 82.5622 435.827 82.8311C435.695 83.0999 435.501 83.3324 435.246 83.5283C434.995 83.7197 434.695 83.8701 434.344 83.9795C433.997 84.0843 433.608 84.1367 433.175 84.1367C432.523 84.1367 431.972 84.0205 431.521 83.7881C431.069 83.5557 430.728 83.2549 430.495 82.8857C430.263 82.5166 430.146 82.127 430.146 81.7168H431.418C431.436 82.0632 431.536 82.3389 431.719 82.5439C431.901 82.7445 432.124 82.888 432.389 82.9746C432.653 83.0566 432.915 83.0977 433.175 83.0977C433.521 83.0977 433.811 83.0521 434.043 82.9609C434.28 82.8698 434.46 82.7445 434.583 82.585C434.706 82.4255 434.768 82.2432 434.768 82.0381ZM439.067 76.6035V84H437.796V76.6035H439.067ZM437.7 74.6416C437.7 74.4365 437.762 74.2633 437.885 74.1221C438.012 73.9808 438.199 73.9102 438.445 73.9102C438.687 73.9102 438.871 73.9808 438.999 74.1221C439.131 74.2633 439.197 74.4365 439.197 74.6416C439.197 74.8376 439.131 75.0062 438.999 75.1475C438.871 75.2842 438.687 75.3525 438.445 75.3525C438.199 75.3525 438.012 75.2842 437.885 75.1475C437.762 75.0062 437.7 74.8376 437.7 74.6416ZM442.355 78.0732V84H441.084V76.6035H442.287L442.355 78.0732ZM442.096 80.0215L441.508 80.001C441.512 79.4951 441.578 79.028 441.706 78.5996C441.834 78.1667 442.023 77.7907 442.273 77.4717C442.524 77.1527 442.836 76.9066 443.21 76.7334C443.584 76.5557 444.017 76.4668 444.509 76.4668C444.855 76.4668 445.174 76.5169 445.466 76.6172C445.757 76.7129 446.01 76.8656 446.225 77.0752C446.439 77.2848 446.605 77.5537 446.724 77.8818C446.842 78.21 446.901 78.6064 446.901 79.0713V84H445.637V79.1328C445.637 78.7454 445.571 78.4355 445.438 78.2031C445.311 77.9707 445.129 77.8021 444.892 77.6973C444.655 77.5879 444.377 77.5332 444.058 77.5332C443.684 77.5332 443.372 77.5993 443.121 77.7314C442.87 77.8636 442.67 78.0459 442.52 78.2783C442.369 78.5107 442.26 78.7773 442.191 79.0781C442.128 79.3743 442.096 79.6888 442.096 80.0215ZM446.888 79.3242L446.04 79.584C446.045 79.1784 446.111 78.7887 446.238 78.415C446.37 78.0413 446.56 77.7087 446.806 77.417C447.056 77.1253 447.364 76.8952 447.729 76.7266C448.093 76.5534 448.51 76.4668 448.979 76.4668C449.376 76.4668 449.727 76.5192 450.032 76.624C450.342 76.7288 450.602 76.8906 450.812 77.1094C451.026 77.3236 451.188 77.5993 451.297 77.9365C451.406 78.2738 451.461 78.6748 451.461 79.1396V84H450.189V79.126C450.189 78.7113 450.123 78.39 449.991 78.1621C449.864 77.9297 449.681 77.7679 449.444 77.6768C449.212 77.5811 448.934 77.5332 448.61 77.5332C448.332 77.5332 448.086 77.5811 447.872 77.6768C447.658 77.7725 447.478 77.9046 447.332 78.0732C447.186 78.2373 447.075 78.4264 446.997 78.6406C446.924 78.8548 446.888 79.0827 446.888 79.3242ZM454.64 78.0254V86.8438H453.368V76.6035H454.53L454.64 78.0254ZM459.623 80.2402V80.3838C459.623 80.9215 459.559 81.4206 459.432 81.8809C459.304 82.3366 459.117 82.7331 458.871 83.0703C458.63 83.4076 458.331 83.6696 457.976 83.8564C457.62 84.0433 457.212 84.1367 456.752 84.1367C456.283 84.1367 455.868 84.0592 455.508 83.9043C455.148 83.7493 454.842 83.5238 454.592 83.2275C454.341 82.9313 454.141 82.5758 453.99 82.1611C453.844 81.7464 453.744 81.2793 453.689 80.7598V79.9941C453.744 79.4473 453.847 78.9574 453.997 78.5244C454.147 78.0915 454.346 77.7223 454.592 77.417C454.842 77.1071 455.146 76.8724 455.501 76.7129C455.856 76.5488 456.267 76.4668 456.731 76.4668C457.196 76.4668 457.609 76.5579 457.969 76.7402C458.329 76.918 458.632 77.1732 458.878 77.5059C459.124 77.8385 459.309 78.2373 459.432 78.7021C459.559 79.1624 459.623 79.6751 459.623 80.2402ZM458.352 80.3838V80.2402C458.352 79.8711 458.313 79.5247 458.235 79.2012C458.158 78.873 458.037 78.5859 457.873 78.3398C457.714 78.0892 457.508 77.8932 457.258 77.752C457.007 77.6061 456.709 77.5332 456.362 77.5332C456.043 77.5332 455.765 77.5879 455.528 77.6973C455.296 77.8066 455.098 77.9548 454.934 78.1416C454.77 78.3239 454.635 78.5335 454.53 78.7705C454.43 79.0029 454.355 79.2445 454.305 79.4951V81.2656C454.396 81.5846 454.523 81.8854 454.688 82.168C454.852 82.446 455.07 82.6715 455.344 82.8447C455.617 83.0133 455.961 83.0977 456.376 83.0977C456.718 83.0977 457.012 83.027 457.258 82.8857C457.508 82.7399 457.714 82.5417 457.873 82.291C458.037 82.0404 458.158 81.7533 458.235 81.4297C458.313 81.1016 458.352 80.7529 458.352 80.3838ZM462.61 73.5V84H461.339V73.5H462.61ZM466.719 83.2344L468.776 76.6035H470.13L467.163 85.1416C467.095 85.3239 467.004 85.5199 466.89 85.7295C466.78 85.9437 466.639 86.1465 466.466 86.3379C466.293 86.5293 466.083 86.6842 465.837 86.8027C465.595 86.9258 465.306 86.9873 464.969 86.9873C464.868 86.9873 464.741 86.9736 464.586 86.9463C464.431 86.9189 464.322 86.8962 464.258 86.8779L464.251 85.8525C464.287 85.8571 464.344 85.8617 464.422 85.8662C464.504 85.8753 464.561 85.8799 464.593 85.8799C464.88 85.8799 465.124 85.8411 465.324 85.7637C465.525 85.6908 465.693 85.5654 465.83 85.3877C465.971 85.2145 466.092 84.9753 466.192 84.6699L466.719 83.2344ZM465.208 76.6035L467.129 82.3457L467.457 83.6787L466.548 84.1436L463.827 76.6035H465.208Z" fill="black"/>
<rect x="581" y="2" width="38" height="38" rx="19" stroke="black" stroke-width="2"/>
<path d="M602 13H598C594.229 13 592.343 13 591.172 14.1716C590.328 15.0151 590.092 16.2288 590.026 18.25H609.974C609.908 16.2288 609.672 15.0151 608.828 14.1716C607.657 13 605.771 13 602 13Z" fill="black"/>
<path fill-rule="evenodd" clip-rule="evenodd" d="M602 29H598C594.229 29 592.343 29 591.172 27.8284C590 26.6569 590 24.7712 590 21C590 20.5581 590 20.142 590.002 19.75H609.998C610 20.142 610 20.5581 610 21C610 24.7712 610 26.6569 608.828 27.8284C607.657 29 605.771 29 602 29ZM604.045 21.25C604.478 21.2499 604.874 21.2499 605.197 21.2933C605.553 21.3411 605.928 21.4535 606.237 21.7626C606.546 22.0716 606.659 22.4473 606.707 22.8028C606.75 23.1256 606.75 23.5224 606.75 23.9553V24.0447C606.75 24.4776 606.75 24.8744 606.707 25.1972C606.659 25.5527 606.546 25.9284 606.237 26.2374C605.928 26.5465 605.553 26.6589 605.197 26.7067C604.874 26.7501 604.478 26.7501 604.045 26.75L604 26.75L603.955 26.75C603.522 26.7501 603.126 26.7501 602.803 26.7067C602.447 26.6589 602.072 26.5465 601.763 26.2374C601.454 25.9284 601.341 25.5527 601.293 25.1972C601.25 24.8744 601.25 24.4776 601.25 24.0447L601.25 24L601.25 23.9553C601.25 23.5224 601.25 23.1256 601.293 22.8028C601.341 22.4473 601.454 22.0716 601.763 21.7626C602.072 21.4535 602.447 21.3411 602.803 21.2933C603.126 21.2499 603.522 21.2499 603.955 21.25H604.045ZM593.25 22.5C593.25 22.0858 593.586 21.75 594 21.75H596C596.414 21.75 596.75 22.0858 596.75 22.5C596.75 22.9142 596.414 23.25 596 23.25H594C593.586 23.25 593.25 22.9142 593.25 22.5ZM593.25 25.5C593.25 25.0858 593.586 24.75 594 24.75H598C598.414 24.75 598.75 25.0858 598.75 25.5C598.75 25.9142 598.414 26.25 598 26.25H594C593.586 26.25 593.25 25.9142 593.25 25.5Z" fill="black"/>
<path d="M602.823 22.8232L602.826 22.8219C602.828 22.8209 602.831 22.8192 602.836 22.8172C602.858 22.8082 602.906 22.7929 603.003 22.7799C603.213 22.7516 603.507 22.75 604 22.75C604.493 22.75 604.787 22.7516 604.997 22.7799C605.094 22.7929 605.142 22.8082 605.164 22.8172C605.169 22.8192 605.172 22.8209 605.174 22.8219L605.177 22.8232L605.178 22.8257C605.179 22.8276 605.181 22.8309 605.183 22.836C605.192 22.8577 605.207 22.9061 605.22 23.0027C605.248 23.2134 605.25 23.5074 605.25 24C605.25 24.4926 605.248 24.7866 605.22 24.9973C605.207 25.0939 605.192 25.1423 605.183 25.164C605.181 25.1691 605.179 25.1724 605.178 25.1743L605.177 25.1768L605.174 25.1781C605.172 25.1791 605.169 25.1808 605.164 25.1828C605.142 25.1918 605.094 25.2071 604.997 25.2201C604.787 25.2484 604.493 25.25 604 25.25C603.507 25.25 603.213 25.2484 603.003 25.2201C602.906 25.2071 602.858 25.1918 602.836 25.1828C602.831 25.1808 602.828 25.1791 602.826 25.1781L602.823 25.1768L602.822 25.1743C602.821 25.1724 602.819 25.1691 602.817 25.164C602.808 25.1423 602.793 25.0939 602.78 24.9973C602.752 24.7866 602.75 24.4926 602.75 24C602.75 23.5074 602.752 23.2134 602.78 23.0027C602.793 22.9061 602.808 22.8577 602.817 22.836C602.819 22.8309 602.821 22.8276 602.822 22.8257L602.823 22.8232Z" fill="black"/>
<path d="M557.104 55.373L554.131 64H552.333L556.079 54.0469H557.228L557.104 55.373ZM559.593 64L556.612 55.373L556.482 54.0469H557.638L561.397 64H559.593ZM559.449 60.3086V61.6689H554.035V60.3086H559.449ZM568.746 62.6396V64H563.749V62.6396H568.746ZM564.228 54.0469V64H562.512V54.0469H564.228ZM570.77 54.0469H572.301L575.179 61.7236L578.05 54.0469H579.581L575.78 64H574.563L570.77 54.0469ZM570.072 54.0469H571.528L571.781 60.6914V64H570.072V54.0469ZM578.822 54.0469H580.285V64H578.569V60.6914L578.822 54.0469ZM590.259 58.75V59.2969C590.259 60.0488 590.161 60.7233 589.965 61.3203C589.769 61.9173 589.489 62.4255 589.124 62.8447C588.764 63.264 588.331 63.5853 587.825 63.8086C587.319 64.0273 586.759 64.1367 586.144 64.1367C585.533 64.1367 584.975 64.0273 584.469 63.8086C583.967 63.5853 583.532 63.264 583.163 62.8447C582.794 62.4255 582.507 61.9173 582.302 61.3203C582.101 60.7233 582.001 60.0488 582.001 59.2969V58.75C582.001 57.998 582.101 57.3258 582.302 56.7334C582.502 56.1364 582.785 55.6283 583.149 55.209C583.519 54.7852 583.954 54.4639 584.455 54.2451C584.961 54.0218 585.519 53.9102 586.13 53.9102C586.745 53.9102 587.306 54.0218 587.812 54.2451C588.317 54.4639 588.753 54.7852 589.117 55.209C589.482 55.6283 589.762 56.1364 589.958 56.7334C590.159 57.3258 590.259 57.998 590.259 58.75ZM588.543 59.2969V58.7363C588.543 58.1803 588.488 57.6904 588.379 57.2666C588.274 56.8382 588.117 56.4805 587.907 56.1934C587.702 55.9017 587.449 55.6829 587.148 55.5371C586.848 55.3867 586.508 55.3115 586.13 55.3115C585.752 55.3115 585.414 55.3867 585.118 55.5371C584.822 55.6829 584.569 55.9017 584.359 56.1934C584.154 56.4805 583.997 56.8382 583.888 57.2666C583.778 57.6904 583.724 58.1803 583.724 58.7363V59.2969C583.724 59.8529 583.778 60.3451 583.888 60.7734C583.997 61.2018 584.157 61.5641 584.366 61.8604C584.58 62.152 584.836 62.373 585.132 62.5234C585.428 62.6693 585.765 62.7422 586.144 62.7422C586.526 62.7422 586.866 62.6693 587.162 62.5234C587.458 62.373 587.709 62.152 587.914 61.8604C588.119 61.5641 588.274 61.2018 588.379 60.7734C588.488 60.3451 588.543 59.8529 588.543 59.2969ZM597.211 61.4365C597.211 61.2314 597.179 61.0492 597.115 60.8896C597.056 60.7301 596.949 60.5843 596.794 60.4521C596.639 60.32 596.42 60.1924 596.138 60.0693C595.86 59.9417 595.504 59.8118 595.071 59.6797C594.597 59.5339 594.16 59.3721 593.759 59.1943C593.362 59.012 593.016 58.8024 592.72 58.5654C592.424 58.3239 592.193 58.0482 592.029 57.7383C591.865 57.4238 591.783 57.0615 591.783 56.6514C591.783 56.2458 591.868 55.8766 592.036 55.5439C592.209 55.2113 592.453 54.9242 592.768 54.6826C593.087 54.4365 593.463 54.2474 593.896 54.1152C594.328 53.9785 594.807 53.9102 595.331 53.9102C596.069 53.9102 596.705 54.0469 597.238 54.3203C597.776 54.5938 598.188 54.9606 598.476 55.4209C598.767 55.8812 598.913 56.3893 598.913 56.9453H597.211C597.211 56.6172 597.14 56.3278 596.999 56.0771C596.862 55.8219 596.653 55.6214 596.37 55.4756C596.092 55.3298 595.739 55.2568 595.311 55.2568C594.905 55.2568 594.568 55.3184 594.299 55.4414C594.03 55.5645 593.829 55.7308 593.697 55.9404C593.565 56.1501 593.499 56.387 593.499 56.6514C593.499 56.8382 593.542 57.0091 593.629 57.1641C593.715 57.3145 593.848 57.4557 594.025 57.5879C594.203 57.7155 594.426 57.8363 594.695 57.9502C594.964 58.0641 595.281 58.1735 595.646 58.2783C596.197 58.4424 596.678 58.6247 597.088 58.8252C597.498 59.0212 597.84 59.2445 598.113 59.4951C598.387 59.7458 598.592 60.0306 598.729 60.3496C598.865 60.6641 598.934 61.0218 598.934 61.4229C598.934 61.8421 598.849 62.2204 598.681 62.5576C598.512 62.8903 598.271 63.1751 597.956 63.4121C597.646 63.6445 597.272 63.8245 596.835 63.9521C596.402 64.0752 595.919 64.1367 595.386 64.1367C594.907 64.1367 594.436 64.0729 593.971 63.9453C593.51 63.8177 593.091 63.624 592.713 63.3643C592.335 63.0999 592.034 62.7718 591.811 62.3799C591.587 61.9834 591.476 61.5208 591.476 60.9922H593.191C593.191 61.3158 593.246 61.5915 593.355 61.8193C593.469 62.0472 593.627 62.234 593.827 62.3799C594.028 62.5212 594.26 62.626 594.524 62.6943C594.793 62.7627 595.08 62.7969 595.386 62.7969C595.787 62.7969 596.122 62.7399 596.391 62.626C596.664 62.512 596.869 62.3525 597.006 62.1475C597.143 61.9424 597.211 61.7054 597.211 61.4365ZM604.546 54.0469V64H602.844V54.0469H604.546ZM607.67 54.0469V55.4141H599.747V54.0469H607.67ZM615.032 64H612.906L612.92 62.6396H615.032C615.647 62.6396 616.162 62.5052 616.577 62.2363C616.996 61.9674 617.311 61.5824 617.521 61.0811C617.735 60.5798 617.842 59.9827 617.842 59.29V58.75C617.842 58.2122 617.78 57.736 617.657 57.3213C617.539 56.9066 617.361 56.5579 617.124 56.2754C616.892 55.9928 616.604 55.7786 616.263 55.6328C615.925 55.487 615.536 55.4141 615.094 55.4141H612.865V54.0469H615.094C615.755 54.0469 616.358 54.1585 616.905 54.3818C617.452 54.6006 617.924 54.9173 618.32 55.332C618.721 55.7467 619.029 56.2435 619.243 56.8223C619.457 57.401 619.564 58.0482 619.564 58.7637V59.29C619.564 60.0055 619.457 60.6527 619.243 61.2314C619.029 61.8102 618.721 62.307 618.32 62.7217C617.919 63.1318 617.441 63.4486 616.885 63.6719C616.333 63.8906 615.716 64 615.032 64ZM613.856 54.0469V64H612.141V54.0469H613.856ZM629.224 58.75V59.2969C629.224 60.0488 629.126 60.7233 628.93 61.3203C628.734 61.9173 628.453 62.4255 628.089 62.8447C627.729 63.264 627.296 63.5853 626.79 63.8086C626.284 64.0273 625.724 64.1367 625.108 64.1367C624.498 64.1367 623.939 64.0273 623.434 63.8086C622.932 63.5853 622.497 63.264 622.128 62.8447C621.759 62.4255 621.472 61.9173 621.267 61.3203C621.066 60.7233 620.966 60.0488 620.966 59.2969V58.75C620.966 57.998 621.066 57.3258 621.267 56.7334C621.467 56.1364 621.75 55.6283 622.114 55.209C622.483 54.7852 622.919 54.4639 623.42 54.2451C623.926 54.0218 624.484 53.9102 625.095 53.9102C625.71 53.9102 626.271 54.0218 626.776 54.2451C627.282 54.4639 627.717 54.7852 628.082 55.209C628.447 55.6283 628.727 56.1364 628.923 56.7334C629.123 57.3258 629.224 57.998 629.224 58.75ZM627.508 59.2969V58.7363C627.508 58.1803 627.453 57.6904 627.344 57.2666C627.239 56.8382 627.082 56.4805 626.872 56.1934C626.667 55.9017 626.414 55.6829 626.113 55.5371C625.812 55.3867 625.473 55.3115 625.095 55.3115C624.716 55.3115 624.379 55.3867 624.083 55.5371C623.787 55.6829 623.534 55.9017 623.324 56.1934C623.119 56.4805 622.962 56.8382 622.853 57.2666C622.743 57.6904 622.688 58.1803 622.688 58.7363V59.2969C622.688 59.8529 622.743 60.3451 622.853 60.7734C622.962 61.2018 623.121 61.5641 623.331 61.8604C623.545 62.152 623.8 62.373 624.097 62.5234C624.393 62.6693 624.73 62.7422 625.108 62.7422C625.491 62.7422 625.831 62.6693 626.127 62.5234C626.423 62.373 626.674 62.152 626.879 61.8604C627.084 61.5641 627.239 61.2018 627.344 60.7734C627.453 60.3451 627.508 59.8529 627.508 59.2969ZM638.835 54.0469V64H637.119L632.655 56.8701V64H630.939V54.0469H632.655L637.133 61.1904V54.0469H638.835ZM647.394 62.6396V64H642.109V62.6396H647.394ZM642.595 54.0469V64H640.879V54.0469H642.595ZM646.703 58.2031V59.543H642.109V58.2031H646.703ZM647.359 54.0469V55.4141H642.109V54.0469H647.359Z" fill="black"/>
<path d="M536.884 82.9268V84H531.907V82.9268H536.884ZM532.167 74.0469V84H530.848V74.0469H532.167ZM537.868 80.3838V80.2266C537.868 79.6934 537.946 79.1989 538.101 78.7432C538.256 78.2829 538.479 77.8841 538.771 77.5469C539.062 77.2051 539.415 76.9408 539.83 76.7539C540.245 76.5625 540.71 76.4668 541.225 76.4668C541.744 76.4668 542.211 76.5625 542.626 76.7539C543.045 76.9408 543.401 77.2051 543.692 77.5469C543.989 77.8841 544.214 78.2829 544.369 78.7432C544.524 79.1989 544.602 79.6934 544.602 80.2266V80.3838C544.602 80.917 544.524 81.4115 544.369 81.8672C544.214 82.3229 543.989 82.7217 543.692 83.0635C543.401 83.4007 543.048 83.665 542.633 83.8564C542.223 84.0433 541.758 84.1367 541.238 84.1367C540.719 84.1367 540.252 84.0433 539.837 83.8564C539.422 83.665 539.067 83.4007 538.771 83.0635C538.479 82.7217 538.256 82.3229 538.101 81.8672C537.946 81.4115 537.868 80.917 537.868 80.3838ZM539.133 80.2266V80.3838C539.133 80.7529 539.176 81.1016 539.263 81.4297C539.349 81.7533 539.479 82.0404 539.652 82.291C539.83 82.5417 540.051 82.7399 540.315 82.8857C540.58 83.027 540.887 83.0977 541.238 83.0977C541.585 83.0977 541.888 83.027 542.147 82.8857C542.412 82.7399 542.631 82.5417 542.804 82.291C542.977 82.0404 543.107 81.7533 543.193 81.4297C543.285 81.1016 543.33 80.7529 543.33 80.3838V80.2266C543.33 79.862 543.285 79.5179 543.193 79.1943C543.107 78.8662 542.975 78.5768 542.797 78.3262C542.624 78.071 542.405 77.8704 542.141 77.7246C541.881 77.5788 541.576 77.5059 541.225 77.5059C540.878 77.5059 540.573 77.5788 540.309 77.7246C540.049 77.8704 539.83 78.071 539.652 78.3262C539.479 78.5768 539.349 78.8662 539.263 79.1943C539.176 79.5179 539.133 79.862 539.133 80.2266ZM547.452 77.7656V84H546.188V76.6035H547.418L547.452 77.7656ZM549.763 76.5625L549.756 77.7383C549.651 77.7155 549.551 77.7018 549.455 77.6973C549.364 77.6882 549.259 77.6836 549.141 77.6836C548.849 77.6836 548.591 77.7292 548.368 77.8203C548.145 77.9115 547.956 78.0391 547.801 78.2031C547.646 78.3672 547.523 78.5632 547.432 78.791C547.345 79.0143 547.288 79.2604 547.261 79.5293L546.905 79.7344C546.905 79.2878 546.949 78.8685 547.035 78.4766C547.126 78.0846 547.265 77.7383 547.452 77.4375C547.639 77.1322 547.876 76.8952 548.163 76.7266C548.455 76.5534 548.801 76.4668 549.202 76.4668C549.293 76.4668 549.398 76.4782 549.517 76.501C549.635 76.5192 549.717 76.5397 549.763 76.5625ZM553.864 84.1367C553.349 84.1367 552.882 84.0501 552.463 83.877C552.048 83.6992 551.69 83.4508 551.39 83.1318C551.093 82.8128 550.866 82.4346 550.706 81.9971C550.547 81.5596 550.467 81.0811 550.467 80.5615V80.2744C550.467 79.6729 550.556 79.1374 550.733 78.668C550.911 78.194 551.153 77.793 551.458 77.4648C551.763 77.1367 552.11 76.8883 552.497 76.7197C552.884 76.5511 553.285 76.4668 553.7 76.4668C554.229 76.4668 554.685 76.5579 555.067 76.7402C555.455 76.9225 555.771 77.1777 556.018 77.5059C556.264 77.8294 556.446 78.2122 556.564 78.6543C556.683 79.0918 556.742 79.5703 556.742 80.0898V80.6572H551.219V79.625H555.478V79.5293C555.459 79.2012 555.391 78.8822 555.272 78.5723C555.159 78.2624 554.976 78.0072 554.726 77.8066C554.475 77.6061 554.133 77.5059 553.7 77.5059C553.413 77.5059 553.149 77.5674 552.907 77.6904C552.666 77.8089 552.458 77.9867 552.285 78.2236C552.112 78.4606 551.978 78.75 551.882 79.0918C551.786 79.4336 551.738 79.8278 551.738 80.2744V80.5615C551.738 80.9124 551.786 81.2428 551.882 81.5527C551.982 81.8581 552.126 82.127 552.312 82.3594C552.504 82.5918 552.734 82.7741 553.003 82.9062C553.276 83.0384 553.586 83.1045 553.933 83.1045C554.379 83.1045 554.757 83.0133 555.067 82.8311C555.377 82.6488 555.648 82.4049 555.881 82.0996L556.646 82.708C556.487 82.9495 556.284 83.1797 556.038 83.3984C555.792 83.6172 555.489 83.7949 555.129 83.9316C554.773 84.0684 554.352 84.1367 553.864 84.1367ZM559.477 78.0732V84H558.205V76.6035H559.408L559.477 78.0732ZM559.217 80.0215L558.629 80.001C558.633 79.4951 558.7 79.028 558.827 78.5996C558.955 78.1667 559.144 77.7907 559.395 77.4717C559.645 77.1527 559.957 76.9066 560.331 76.7334C560.705 76.5557 561.138 76.4668 561.63 76.4668C561.976 76.4668 562.295 76.5169 562.587 76.6172C562.879 76.7129 563.132 76.8656 563.346 77.0752C563.56 77.2848 563.726 77.5537 563.845 77.8818C563.963 78.21 564.022 78.6064 564.022 79.0713V84H562.758V79.1328C562.758 78.7454 562.692 78.4355 562.56 78.2031C562.432 77.9707 562.25 77.8021 562.013 77.6973C561.776 77.5879 561.498 77.5332 561.179 77.5332C560.805 77.5332 560.493 77.5993 560.242 77.7314C559.992 77.8636 559.791 78.0459 559.641 78.2783C559.49 78.5107 559.381 78.7773 559.312 79.0781C559.249 79.3743 559.217 79.6888 559.217 80.0215ZM564.009 79.3242L563.161 79.584C563.166 79.1784 563.232 78.7887 563.359 78.415C563.492 78.0413 563.681 77.7087 563.927 77.417C564.177 77.1253 564.485 76.8952 564.85 76.7266C565.214 76.5534 565.631 76.4668 566.101 76.4668C566.497 76.4668 566.848 76.5192 567.153 76.624C567.463 76.7288 567.723 76.8906 567.933 77.1094C568.147 77.3236 568.309 77.5993 568.418 77.9365C568.527 78.2738 568.582 78.6748 568.582 79.1396V84H567.311V79.126C567.311 78.7113 567.244 78.39 567.112 78.1621C566.985 77.9297 566.802 77.7679 566.565 77.6768C566.333 77.5811 566.055 77.5332 565.731 77.5332C565.453 77.5332 565.207 77.5811 564.993 77.6768C564.779 77.7725 564.599 77.9046 564.453 78.0732C564.307 78.2373 564.196 78.4264 564.118 78.6406C564.045 78.8548 564.009 79.0827 564.009 79.3242ZM575.575 74.0469V84H574.256V74.0469H575.575ZM579.048 78.0254V86.8438H577.776V76.6035H578.938L579.048 78.0254ZM584.031 80.2402V80.3838C584.031 80.9215 583.967 81.4206 583.84 81.8809C583.712 82.3366 583.525 82.7331 583.279 83.0703C583.038 83.4076 582.739 83.6696 582.384 83.8564C582.028 84.0433 581.62 84.1367 581.16 84.1367C580.691 84.1367 580.276 84.0592 579.916 83.9043C579.556 83.7493 579.251 83.5238 579 83.2275C578.749 82.9313 578.549 82.5758 578.398 82.1611C578.253 81.7464 578.152 81.2793 578.098 80.7598V79.9941C578.152 79.4473 578.255 78.9574 578.405 78.5244C578.556 78.0915 578.754 77.7223 579 77.417C579.251 77.1071 579.554 76.8724 579.909 76.7129C580.265 76.5488 580.675 76.4668 581.14 76.4668C581.604 76.4668 582.017 76.5579 582.377 76.7402C582.737 76.918 583.04 77.1732 583.286 77.5059C583.532 77.8385 583.717 78.2373 583.84 78.7021C583.967 79.1624 584.031 79.6751 584.031 80.2402ZM582.76 80.3838V80.2402C582.76 79.8711 582.721 79.5247 582.644 79.2012C582.566 78.873 582.445 78.5859 582.281 78.3398C582.122 78.0892 581.917 77.8932 581.666 77.752C581.415 77.6061 581.117 77.5332 580.771 77.5332C580.451 77.5332 580.174 77.5879 579.937 77.6973C579.704 77.8066 579.506 77.9548 579.342 78.1416C579.178 78.3239 579.043 78.5335 578.938 78.7705C578.838 79.0029 578.763 79.2445 578.713 79.4951V81.2656C578.804 81.5846 578.932 81.8854 579.096 82.168C579.26 82.446 579.479 82.6715 579.752 82.8447C580.025 83.0133 580.369 83.0977 580.784 83.0977C581.126 83.0977 581.42 83.027 581.666 82.8857C581.917 82.7399 582.122 82.5417 582.281 82.291C582.445 82.0404 582.566 81.7533 582.644 81.4297C582.721 81.1016 582.76 80.7529 582.76 80.3838ZM589.951 82.0381C589.951 81.8558 589.91 81.6872 589.828 81.5322C589.751 81.3727 589.589 81.2292 589.343 81.1016C589.101 80.9694 588.737 80.8555 588.249 80.7598C587.839 80.6732 587.467 80.5706 587.135 80.4521C586.807 80.3337 586.526 80.1901 586.294 80.0215C586.066 79.8529 585.891 79.6546 585.768 79.4268C585.645 79.1989 585.583 78.9323 585.583 78.627C585.583 78.3353 585.647 78.0596 585.774 77.7998C585.907 77.54 586.091 77.3099 586.328 77.1094C586.57 76.9089 586.859 76.7516 587.196 76.6377C587.534 76.5238 587.91 76.4668 588.324 76.4668C588.917 76.4668 589.423 76.5716 589.842 76.7812C590.261 76.9909 590.582 77.2712 590.806 77.6221C591.029 77.9684 591.141 78.3535 591.141 78.7773H589.876C589.876 78.5723 589.814 78.374 589.691 78.1826C589.573 77.9867 589.397 77.8249 589.165 77.6973C588.937 77.5697 588.657 77.5059 588.324 77.5059C587.973 77.5059 587.688 77.5605 587.47 77.6699C587.256 77.7747 587.098 77.9092 586.998 78.0732C586.902 78.2373 586.854 78.4105 586.854 78.5928C586.854 78.7295 586.877 78.8525 586.923 78.9619C586.973 79.0667 587.06 79.1647 587.183 79.2559C587.306 79.3424 587.479 79.4245 587.702 79.502C587.925 79.5794 588.21 79.6569 588.557 79.7344C589.163 79.8711 589.662 80.0352 590.054 80.2266C590.446 80.418 590.737 80.6527 590.929 80.9307C591.12 81.2087 591.216 81.5459 591.216 81.9424C591.216 82.266 591.147 82.5622 591.011 82.8311C590.879 83.0999 590.685 83.3324 590.43 83.5283C590.179 83.7197 589.878 83.8701 589.527 83.9795C589.181 84.0843 588.791 84.1367 588.358 84.1367C587.707 84.1367 587.155 84.0205 586.704 83.7881C586.253 83.5557 585.911 83.2549 585.679 82.8857C585.446 82.5166 585.33 82.127 585.33 81.7168H586.602C586.62 82.0632 586.72 82.3389 586.902 82.5439C587.085 82.7445 587.308 82.888 587.572 82.9746C587.837 83.0566 588.099 83.0977 588.358 83.0977C588.705 83.0977 588.994 83.0521 589.227 82.9609C589.464 82.8698 589.644 82.7445 589.767 82.585C589.89 82.4255 589.951 82.2432 589.951 82.0381ZM597.402 82.291V76.6035H598.674V84H597.464L597.402 82.291ZM597.642 80.7324L598.168 80.7188C598.168 81.2109 598.116 81.6667 598.011 82.0859C597.91 82.5007 597.746 82.8607 597.519 83.166C597.291 83.4714 596.992 83.7106 596.623 83.8838C596.254 84.0524 595.805 84.1367 595.276 84.1367C594.916 84.1367 594.586 84.0843 594.285 83.9795C593.989 83.8747 593.734 83.7129 593.52 83.4941C593.305 83.2754 593.139 82.9906 593.021 82.6396C592.907 82.2887 592.85 81.8672 592.85 81.375V76.6035H594.114V81.3887C594.114 81.7214 594.151 81.9971 594.224 82.2158C594.301 82.43 594.404 82.6009 594.531 82.7285C594.663 82.8516 594.809 82.9382 594.969 82.9883C595.133 83.0384 595.301 83.0635 595.475 83.0635C596.012 83.0635 596.438 82.9609 596.753 82.7559C597.067 82.5462 597.293 82.266 597.43 81.915C597.571 81.5596 597.642 81.1654 597.642 80.7324ZM601.859 78.0732V84H600.588V76.6035H601.791L601.859 78.0732ZM601.6 80.0215L601.012 80.001C601.016 79.4951 601.082 79.028 601.21 78.5996C601.338 78.1667 601.527 77.7907 601.777 77.4717C602.028 77.1527 602.34 76.9066 602.714 76.7334C603.088 76.5557 603.521 76.4668 604.013 76.4668C604.359 76.4668 604.678 76.5169 604.97 76.6172C605.261 76.7129 605.514 76.8656 605.729 77.0752C605.943 77.2848 606.109 77.5537 606.228 77.8818C606.346 78.21 606.405 78.6064 606.405 79.0713V84H605.141V79.1328C605.141 78.7454 605.075 78.4355 604.942 78.2031C604.815 77.9707 604.632 77.8021 604.396 77.6973C604.159 77.5879 603.881 77.5332 603.562 77.5332C603.188 77.5332 602.876 77.5993 602.625 77.7314C602.374 77.8636 602.174 78.0459 602.023 78.2783C601.873 78.5107 601.764 78.7773 601.695 79.0781C601.632 79.3743 601.6 79.6888 601.6 80.0215ZM606.392 79.3242L605.544 79.584C605.549 79.1784 605.615 78.7887 605.742 78.415C605.874 78.0413 606.063 77.7087 606.31 77.417C606.56 77.1253 606.868 76.8952 607.232 76.7266C607.597 76.5534 608.014 76.4668 608.483 76.4668C608.88 76.4668 609.231 76.5192 609.536 76.624C609.846 76.7288 610.106 76.8906 610.315 77.1094C610.53 77.3236 610.691 77.5993 610.801 77.9365C610.91 78.2738 610.965 78.6748 610.965 79.1396V84H609.693V79.126C609.693 78.7113 609.627 78.39 609.495 78.1621C609.368 77.9297 609.185 77.7679 608.948 77.6768C608.716 77.5811 608.438 77.5332 608.114 77.5332C607.836 77.5332 607.59 77.5811 607.376 77.6768C607.162 77.7725 606.982 77.9046 606.836 78.0732C606.69 78.2373 606.578 78.4264 606.501 78.6406C606.428 78.8548 606.392 79.0827 606.392 79.3242ZM617.726 76.6035V84H616.454V76.6035H617.726ZM616.358 74.6416C616.358 74.4365 616.42 74.2633 616.543 74.1221C616.671 73.9808 616.857 73.9102 617.104 73.9102C617.345 73.9102 617.53 73.9808 617.657 74.1221C617.789 74.2633 617.855 74.4365 617.855 74.6416C617.855 74.8376 617.789 75.0062 617.657 75.1475C617.53 75.2842 617.345 75.3525 617.104 75.3525C616.857 75.3525 616.671 75.2842 616.543 75.1475C616.42 75.0062 616.358 74.8376 616.358 74.6416ZM624.062 82.0381C624.062 81.8558 624.021 81.6872 623.939 81.5322C623.862 81.3727 623.7 81.2292 623.454 81.1016C623.213 80.9694 622.848 80.8555 622.36 80.7598C621.95 80.6732 621.579 80.5706 621.246 80.4521C620.918 80.3337 620.638 80.1901 620.405 80.0215C620.177 79.8529 620.002 79.6546 619.879 79.4268C619.756 79.1989 619.694 78.9323 619.694 78.627C619.694 78.3353 619.758 78.0596 619.886 77.7998C620.018 77.54 620.202 77.3099 620.439 77.1094C620.681 76.9089 620.97 76.7516 621.308 76.6377C621.645 76.5238 622.021 76.4668 622.436 76.4668C623.028 76.4668 623.534 76.5716 623.953 76.7812C624.372 76.9909 624.694 77.2712 624.917 77.6221C625.14 77.9684 625.252 78.3535 625.252 78.7773H623.987C623.987 78.5723 623.926 78.374 623.803 78.1826C623.684 77.9867 623.509 77.8249 623.276 77.6973C623.049 77.5697 622.768 77.5059 622.436 77.5059C622.085 77.5059 621.8 77.5605 621.581 77.6699C621.367 77.7747 621.21 77.9092 621.109 78.0732C621.014 78.2373 620.966 78.4105 620.966 78.5928C620.966 78.7295 620.989 78.8525 621.034 78.9619C621.084 79.0667 621.171 79.1647 621.294 79.2559C621.417 79.3424 621.59 79.4245 621.813 79.502C622.037 79.5794 622.322 79.6569 622.668 79.7344C623.274 79.8711 623.773 80.0352 624.165 80.2266C624.557 80.418 624.849 80.6527 625.04 80.9307C625.231 81.2087 625.327 81.5459 625.327 81.9424C625.327 82.266 625.259 82.5622 625.122 82.8311C624.99 83.0999 624.796 83.3324 624.541 83.5283C624.29 83.7197 623.99 83.8701 623.639 83.9795C623.292 84.0843 622.903 84.1367 622.47 84.1367C621.818 84.1367 621.267 84.0205 620.815 83.7881C620.364 83.5557 620.022 83.2549 619.79 82.8857C619.558 82.5166 619.441 82.127 619.441 81.7168H620.713C620.731 82.0632 620.831 82.3389 621.014 82.5439C621.196 82.7445 621.419 82.888 621.684 82.9746C621.948 83.0566 622.21 83.0977 622.47 83.0977C622.816 83.0977 623.105 83.0521 623.338 82.9609C623.575 82.8698 623.755 82.7445 623.878 82.585C624.001 82.4255 624.062 82.2432 624.062 82.0381ZM634.768 82.0381C634.768 81.8558 634.727 81.6872 634.645 81.5322C634.567 81.3727 634.405 81.2292 634.159 81.1016C633.918 80.9694 633.553 80.8555 633.065 80.7598C632.655 80.6732 632.284 80.5706 631.951 80.4521C631.623 80.3337 631.343 80.1901 631.11 80.0215C630.882 79.8529 630.707 79.6546 630.584 79.4268C630.461 79.1989 630.399 78.9323 630.399 78.627C630.399 78.3353 630.463 78.0596 630.591 77.7998C630.723 77.54 630.908 77.3099 631.145 77.1094C631.386 76.9089 631.675 76.7516 632.013 76.6377C632.35 76.5238 632.726 76.4668 633.141 76.4668C633.733 76.4668 634.239 76.5716 634.658 76.7812C635.077 76.9909 635.399 77.2712 635.622 77.6221C635.845 77.9684 635.957 78.3535 635.957 78.7773H634.692C634.692 78.5723 634.631 78.374 634.508 78.1826C634.389 77.9867 634.214 77.8249 633.981 77.6973C633.754 77.5697 633.473 77.5059 633.141 77.5059C632.79 77.5059 632.505 77.5605 632.286 77.6699C632.072 77.7747 631.915 77.9092 631.814 78.0732C631.719 78.2373 631.671 78.4105 631.671 78.5928C631.671 78.7295 631.694 78.8525 631.739 78.9619C631.789 79.0667 631.876 79.1647 631.999 79.2559C632.122 79.3424 632.295 79.4245 632.519 79.502C632.742 79.5794 633.027 79.6569 633.373 79.7344C633.979 79.8711 634.478 80.0352 634.87 80.2266C635.262 80.418 635.554 80.6527 635.745 80.9307C635.937 81.2087 636.032 81.5459 636.032 81.9424C636.032 82.266 635.964 82.5622 635.827 82.8311C635.695 83.0999 635.501 83.3324 635.246 83.5283C634.995 83.7197 634.695 83.8701 634.344 83.9795C633.997 84.0843 633.608 84.1367 633.175 84.1367C632.523 84.1367 631.972 84.0205 631.521 83.7881C631.069 83.5557 630.728 83.2549 630.495 82.8857C630.263 82.5166 630.146 82.127 630.146 81.7168H631.418C631.436 82.0632 631.536 82.3389 631.719 82.5439C631.901 82.7445 632.124 82.888 632.389 82.9746C632.653 83.0566 632.915 83.0977 633.175 83.0977C633.521 83.0977 633.811 83.0521 634.043 82.9609C634.28 82.8698 634.46 82.7445 634.583 82.585C634.706 82.4255 634.768 82.2432 634.768 82.0381ZM639.067 76.6035V84H637.796V76.6035H639.067ZM637.7 74.6416C637.7 74.4365 637.762 74.2633 637.885 74.1221C638.012 73.9808 638.199 73.9102 638.445 73.9102C638.687 73.9102 638.871 73.9808 638.999 74.1221C639.131 74.2633 639.197 74.4365 639.197 74.6416C639.197 74.8376 639.131 75.0062 638.999 75.1475C638.871 75.2842 638.687 75.3525 638.445 75.3525C638.199 75.3525 638.012 75.2842 637.885 75.1475C637.762 75.0062 637.7 74.8376 637.7 74.6416ZM642.355 78.0732V84H641.084V76.6035H642.287L642.355 78.0732ZM642.096 80.0215L641.508 80.001C641.512 79.4951 641.578 79.028 641.706 78.5996C641.834 78.1667 642.023 77.7907 642.273 77.4717C642.524 77.1527 642.836 76.9066 643.21 76.7334C643.584 76.5557 644.017 76.4668 644.509 76.4668C644.855 76.4668 645.174 76.5169 645.466 76.6172C645.757 76.7129 646.01 76.8656 646.225 77.0752C646.439 77.2848 646.605 77.5537 646.724 77.8818C646.842 78.21 646.901 78.6064 646.901 79.0713V84H645.637V79.1328C645.637 78.7454 645.571 78.4355 645.438 78.2031C645.311 77.9707 645.129 77.8021 644.892 77.6973C644.655 77.5879 644.377 77.5332 644.058 77.5332C643.684 77.5332 643.372 77.5993 643.121 77.7314C642.87 77.8636 642.67 78.0459 642.52 78.2783C642.369 78.5107 642.26 78.7773 642.191 79.0781C642.128 79.3743 642.096 79.6888 642.096 80.0215ZM646.888 79.3242L646.04 79.584C646.045 79.1784 646.111 78.7887 646.238 78.415C646.37 78.0413 646.56 77.7087 646.806 77.417C647.056 77.1253 647.364 76.8952 647.729 76.7266C648.093 76.5534 648.51 76.4668 648.979 76.4668C649.376 76.4668 649.727 76.5192 650.032 76.624C650.342 76.7288 650.602 76.8906 650.812 77.1094C651.026 77.3236 651.188 77.5993 651.297 77.9365C651.406 78.2738 651.461 78.6748 651.461 79.1396V84H650.189V79.126C650.189 78.7113 650.123 78.39 649.991 78.1621C649.864 77.9297 649.681 77.7679 649.444 77.6768C649.212 77.5811 648.934 77.5332 648.61 77.5332C648.332 77.5332 648.086 77.5811 647.872 77.6768C647.658 77.7725 647.478 77.9046 647.332 78.0732C647.186 78.2373 647.075 78.4264 646.997 78.6406C646.924 78.8548 646.888 79.0827 646.888 79.3242ZM654.64 78.0254V86.8438H653.368V76.6035H654.53L654.64 78.0254ZM659.623 80.2402V80.3838C659.623 80.9215 659.559 81.4206 659.432 81.8809C659.304 82.3366 659.117 82.7331 658.871 83.0703C658.63 83.4076 658.331 83.6696 657.976 83.8564C657.62 84.0433 657.212 84.1367 656.752 84.1367C656.283 84.1367 655.868 84.0592 655.508 83.9043C655.148 83.7493 654.842 83.5238 654.592 83.2275C654.341 82.9313 654.141 82.5758 653.99 82.1611C653.844 81.7464 653.744 81.2793 653.689 80.7598V79.9941C653.744 79.4473 653.847 78.9574 653.997 78.5244C654.147 78.0915 654.346 77.7223 654.592 77.417C654.842 77.1071 655.146 76.8724 655.501 76.7129C655.856 76.5488 656.267 76.4668 656.731 76.4668C657.196 76.4668 657.609 76.5579 657.969 76.7402C658.329 76.918 658.632 77.1732 658.878 77.5059C659.124 77.8385 659.309 78.2373 659.432 78.7021C659.559 79.1624 659.623 79.6751 659.623 80.2402ZM658.352 80.3838V80.2402C658.352 79.8711 658.313 79.5247 658.235 79.2012C658.158 78.873 658.037 78.5859 657.873 78.3398C657.714 78.0892 657.508 77.8932 657.258 77.752C657.007 77.6061 656.709 77.5332 656.362 77.5332C656.043 77.5332 655.765 77.5879 655.528 77.6973C655.296 77.8066 655.098 77.9548 654.934 78.1416C654.77 78.3239 654.635 78.5335 654.53 78.7705C654.43 79.0029 654.355 79.2445 654.305 79.4951V81.2656C654.396 81.5846 654.523 81.8854 654.688 82.168C654.852 82.446 655.07 82.6715 655.344 82.8447C655.617 83.0133 655.961 83.0977 656.376 83.0977C656.718 83.0977 657.012 83.027 657.258 82.8857C657.508 82.7399 657.714 82.5417 657.873 82.291C658.037 82.0404 658.158 81.7533 658.235 81.4297C658.313 81.1016 658.352 80.7529 658.352 80.3838ZM662.61 73.5V84H661.339V73.5H662.61ZM666.719 83.2344L668.776 76.6035H670.13L667.163 85.1416C667.095 85.3239 667.004 85.5199 666.89 85.7295C666.78 85.9437 666.639 86.1465 666.466 86.3379C666.293 86.5293 666.083 86.6842 665.837 86.8027C665.595 86.9258 665.306 86.9873 664.969 86.9873C664.868 86.9873 664.741 86.9736 664.586 86.9463C664.431 86.9189 664.322 86.8962 664.258 86.8779L664.251 85.8525C664.287 85.8571 664.344 85.8617 664.422 85.8662C664.504 85.8753 664.561 85.8799 664.593 85.8799C664.88 85.8799 665.124 85.8411 665.324 85.7637C665.525 85.6908 665.693 85.5654 665.83 85.3877C665.971 85.2145 666.092 84.9753 666.192 84.6699L666.719 83.2344ZM665.208 76.6035L667.129 82.3457L667.457 83.6787L666.548 84.1436L663.827 76.6035H665.208Z" fill="black"/>
</svg>
