<svg width="800" height="97" viewBox="0 0 800 97" fill="none" xmlns="http://www.w3.org/2000/svg">
<rect x="220" y="20" width="160" height="3" fill="#D9D9D9"/>
<rect x="420" y="20" width="160" height="3" fill="#CFD6DC"/>
<rect x="181" y="1" width="38" height="38" rx="19" stroke="white" stroke-width="2"/>
<path fill-rule="evenodd" clip-rule="evenodd" d="M198 12H202C205.771 12 207.657 12 208.828 13.1716C210 14.3431 210 16.2288 210 20C210 23.7712 210 25.6569 208.828 26.8284C207.657 28 205.771 28 202 28H198C194.229 28 192.343 28 191.172 26.8284C190 25.6569 190 23.7712 190 20C190 16.2288 190 14.3431 191.172 13.1716C192.343 12 194.229 12 198 12ZM201.25 17C201.25 16.5858 201.586 16.25 202 16.25H207C207.414 16.25 207.75 16.5858 207.75 17C207.75 17.4142 207.414 17.75 207 17.75H202C201.586 17.75 201.25 17.4142 201.25 17ZM202.25 20C202.25 19.5858 202.586 19.25 203 19.25H207C207.414 19.25 207.75 19.5858 207.75 20C207.75 20.4142 207.414 20.75 207 20.75H203C202.586 20.75 202.25 20.4142 202.25 20ZM203.25 23C203.25 22.5858 203.586 22.25 204 22.25H207C207.414 22.25 207.75 22.5858 207.75 23C207.75 23.4142 207.414 23.75 207 23.75H204C203.586 23.75 203.25 23.4142 203.25 23ZM199 17C199 18.1046 198.105 19 197 19C195.895 19 195 18.1046 195 17C195 15.8954 195.895 15 197 15C198.105 15 199 15.8954 199 17ZM197 25C201 25 201 24.1046 201 23C201 21.8954 199.209 21 197 21C194.791 21 193 21.8954 193 23C193 24.1046 193 25 197 25Z" fill="white"/>
<path d="M141.014 60.2881H138.423V58.9277H141.014C141.465 58.9277 141.829 58.8548 142.107 58.709C142.385 58.5632 142.588 58.3626 142.716 58.1074C142.848 57.8477 142.914 57.5514 142.914 57.2188C142.914 56.9043 142.848 56.6104 142.716 56.3369C142.588 56.0589 142.385 55.8356 142.107 55.667C141.829 55.4984 141.465 55.4141 141.014 55.4141H138.949V64H137.233V54.0469H141.014C141.784 54.0469 142.438 54.1836 142.976 54.457C143.518 54.7259 143.93 55.0996 144.213 55.5781C144.495 56.0521 144.637 56.5944 144.637 57.2051C144.637 57.8477 144.495 58.3991 144.213 58.8594C143.93 59.3197 143.518 59.6729 142.976 59.9189C142.438 60.165 141.784 60.2881 141.014 60.2881ZM152.689 62.6396V64H147.405V62.6396H152.689ZM147.891 54.0469V64H146.175V54.0469H147.891ZM151.999 58.2031V59.543H147.405V58.2031H151.999ZM152.655 54.0469V55.4141H147.405V54.0469H152.655ZM154.091 54.0469H157.611C158.368 54.0469 159.013 54.1608 159.546 54.3887C160.079 54.6165 160.487 54.9538 160.77 55.4004C161.057 55.8424 161.2 56.3893 161.2 57.041C161.2 57.5378 161.109 57.9753 160.927 58.3535C160.744 58.7318 160.487 59.0508 160.154 59.3105C159.822 59.5658 159.425 59.764 158.965 59.9053L158.445 60.1582H155.28L155.267 58.7979H157.639C158.049 58.7979 158.391 58.7249 158.664 58.5791C158.938 58.4333 159.143 58.235 159.279 57.9844C159.421 57.7292 159.491 57.4421 159.491 57.123C159.491 56.7767 159.423 56.4759 159.286 56.2207C159.154 55.9609 158.949 55.7627 158.671 55.626C158.393 55.4847 158.04 55.4141 157.611 55.4141H155.807V64H154.091V54.0469ZM159.771 64L157.434 59.5293L159.231 59.5225L161.604 63.9111V64H159.771ZM168.146 61.4365C168.146 61.2314 168.114 61.0492 168.05 60.8896C167.991 60.7301 167.883 60.5843 167.729 60.4521C167.574 60.32 167.355 60.1924 167.072 60.0693C166.794 59.9417 166.439 59.8118 166.006 59.6797C165.532 59.5339 165.094 59.3721 164.693 59.1943C164.297 59.012 163.951 58.8024 163.654 58.5654C163.358 58.3239 163.128 58.0482 162.964 57.7383C162.8 57.4238 162.718 57.0615 162.718 56.6514C162.718 56.2458 162.802 55.8766 162.971 55.5439C163.144 55.2113 163.388 54.9242 163.702 54.6826C164.021 54.4365 164.397 54.2474 164.83 54.1152C165.263 53.9785 165.742 53.9102 166.266 53.9102C167.004 53.9102 167.64 54.0469 168.173 54.3203C168.711 54.5938 169.123 54.9606 169.41 55.4209C169.702 55.8812 169.848 56.3893 169.848 56.9453H168.146C168.146 56.6172 168.075 56.3278 167.934 56.0771C167.797 55.8219 167.587 55.6214 167.305 55.4756C167.027 55.3298 166.674 55.2568 166.245 55.2568C165.84 55.2568 165.502 55.3184 165.233 55.4414C164.965 55.5645 164.764 55.7308 164.632 55.9404C164.5 56.1501 164.434 56.387 164.434 56.6514C164.434 56.8382 164.477 57.0091 164.563 57.1641C164.65 57.3145 164.782 57.4557 164.96 57.5879C165.138 57.7155 165.361 57.8363 165.63 57.9502C165.899 58.0641 166.215 58.1735 166.58 58.2783C167.132 58.4424 167.612 58.6247 168.022 58.8252C168.433 59.0212 168.774 59.2445 169.048 59.4951C169.321 59.7458 169.526 60.0306 169.663 60.3496C169.8 60.6641 169.868 61.0218 169.868 61.4229C169.868 61.8421 169.784 62.2204 169.615 62.5576C169.447 62.8903 169.205 63.1751 168.891 63.4121C168.581 63.6445 168.207 63.8245 167.77 63.9521C167.337 64.0752 166.854 64.1367 166.32 64.1367C165.842 64.1367 165.37 64.0729 164.905 63.9453C164.445 63.8177 164.026 63.624 163.647 63.3643C163.269 63.0999 162.968 62.7718 162.745 62.3799C162.522 61.9834 162.41 61.5208 162.41 60.9922H164.126C164.126 61.3158 164.181 61.5915 164.29 61.8193C164.404 62.0472 164.561 62.234 164.762 62.3799C164.962 62.5212 165.195 62.626 165.459 62.6943C165.728 62.7627 166.015 62.7969 166.32 62.7969C166.721 62.7969 167.056 62.7399 167.325 62.626C167.599 62.512 167.804 62.3525 167.94 62.1475C168.077 61.9424 168.146 61.7054 168.146 61.4365ZM179.322 58.75V59.2969C179.322 60.0488 179.224 60.7233 179.028 61.3203C178.832 61.9173 178.552 62.4255 178.188 62.8447C177.827 63.264 177.395 63.5853 176.889 63.8086C176.383 64.0273 175.822 64.1367 175.207 64.1367C174.596 64.1367 174.038 64.0273 173.532 63.8086C173.031 63.5853 172.596 63.264 172.227 62.8447C171.857 62.4255 171.57 61.9173 171.365 61.3203C171.165 60.7233 171.064 60.0488 171.064 59.2969V58.75C171.064 57.998 171.165 57.3258 171.365 56.7334C171.566 56.1364 171.848 55.6283 172.213 55.209C172.582 54.7852 173.017 54.4639 173.519 54.2451C174.024 54.0218 174.583 53.9102 175.193 53.9102C175.809 53.9102 176.369 54.0218 176.875 54.2451C177.381 54.4639 177.816 54.7852 178.181 55.209C178.545 55.6283 178.826 56.1364 179.021 56.7334C179.222 57.3258 179.322 57.998 179.322 58.75ZM177.606 59.2969V58.7363C177.606 58.1803 177.552 57.6904 177.442 57.2666C177.338 56.8382 177.18 56.4805 176.971 56.1934C176.766 55.9017 176.513 55.6829 176.212 55.5371C175.911 55.3867 175.572 55.3115 175.193 55.3115C174.815 55.3115 174.478 55.3867 174.182 55.5371C173.885 55.6829 173.632 55.9017 173.423 56.1934C173.218 56.4805 173.061 56.8382 172.951 57.2666C172.842 57.6904 172.787 58.1803 172.787 58.7363V59.2969C172.787 59.8529 172.842 60.3451 172.951 60.7734C173.061 61.2018 173.22 61.5641 173.43 61.8604C173.644 62.152 173.899 62.373 174.195 62.5234C174.492 62.6693 174.829 62.7422 175.207 62.7422C175.59 62.7422 175.929 62.6693 176.226 62.5234C176.522 62.373 176.772 62.152 176.978 61.8604C177.183 61.5641 177.338 61.2018 177.442 60.7734C177.552 60.3451 177.606 59.8529 177.606 59.2969ZM188.934 54.0469V64H187.218L182.754 56.8701V64H181.038V54.0469H182.754L187.231 61.1904V54.0469H188.934ZM194.977 55.373L192.003 64H190.205L193.951 54.0469H195.1L194.977 55.373ZM197.465 64L194.484 55.373L194.354 54.0469H195.51L199.27 64H197.465ZM197.321 60.3086V61.6689H191.907V60.3086H197.321ZM206.618 62.6396V64H201.621V62.6396H206.618ZM202.1 54.0469V64H200.384V54.0469H202.1ZM214.322 64H212.196L212.21 62.6396H214.322C214.938 62.6396 215.452 62.5052 215.867 62.2363C216.286 61.9674 216.601 61.5824 216.811 61.0811C217.025 60.5798 217.132 59.9827 217.132 59.29V58.75C217.132 58.2122 217.07 57.736 216.947 57.3213C216.829 56.9066 216.651 56.5579 216.414 56.2754C216.182 55.9928 215.895 55.7786 215.553 55.6328C215.215 55.487 214.826 55.4141 214.384 55.4141H212.155V54.0469H214.384C215.045 54.0469 215.648 54.1585 216.195 54.3818C216.742 54.6006 217.214 54.9173 217.61 55.332C218.011 55.7467 218.319 56.2435 218.533 56.8223C218.747 57.401 218.854 58.0482 218.854 58.7637V59.29C218.854 60.0055 218.747 60.6527 218.533 61.2314C218.319 61.8102 218.011 62.307 217.61 62.7217C217.209 63.1318 216.731 63.4486 216.175 63.6719C215.623 63.8906 215.006 64 214.322 64ZM213.146 54.0469V64H211.431V54.0469H213.146ZM227.092 62.6396V64H221.808V62.6396H227.092ZM222.293 54.0469V64H220.577V54.0469H222.293ZM226.401 58.2031V59.543H221.808V58.2031H226.401ZM227.058 54.0469V55.4141H221.808V54.0469H227.058ZM232.725 54.0469V64H231.022V54.0469H232.725ZM235.849 54.0469V55.4141H227.926V54.0469H235.849ZM240.381 55.373L237.407 64H235.609L239.355 54.0469H240.504L240.381 55.373ZM242.869 64L239.889 55.373L239.759 54.0469H240.914L244.674 64H242.869ZM242.726 60.3086V61.6689H237.312V60.3086H242.726ZM247.62 54.0469V64H245.904V54.0469H247.62ZM255.987 62.6396V64H250.99V62.6396H255.987ZM251.469 54.0469V64H249.753V54.0469H251.469ZM262.55 61.4365C262.55 61.2314 262.518 61.0492 262.454 60.8896C262.395 60.7301 262.288 60.5843 262.133 60.4521C261.978 60.32 261.759 60.1924 261.477 60.0693C261.199 59.9417 260.843 59.8118 260.41 59.6797C259.936 59.5339 259.499 59.3721 259.098 59.1943C258.701 59.012 258.355 58.8024 258.059 58.5654C257.762 58.3239 257.532 58.0482 257.368 57.7383C257.204 57.4238 257.122 57.0615 257.122 56.6514C257.122 56.2458 257.206 55.8766 257.375 55.5439C257.548 55.2113 257.792 54.9242 258.106 54.6826C258.425 54.4365 258.801 54.2474 259.234 54.1152C259.667 53.9785 260.146 53.9102 260.67 53.9102C261.408 53.9102 262.044 54.0469 262.577 54.3203C263.115 54.5938 263.527 54.9606 263.814 55.4209C264.106 55.8812 264.252 56.3893 264.252 56.9453H262.55C262.55 56.6172 262.479 56.3278 262.338 56.0771C262.201 55.8219 261.992 55.6214 261.709 55.4756C261.431 55.3298 261.078 55.2568 260.649 55.2568C260.244 55.2568 259.907 55.3184 259.638 55.4414C259.369 55.5645 259.168 55.7308 259.036 55.9404C258.904 56.1501 258.838 56.387 258.838 56.6514C258.838 56.8382 258.881 57.0091 258.968 57.1641C259.054 57.3145 259.187 57.4557 259.364 57.5879C259.542 57.7155 259.765 57.8363 260.034 57.9502C260.303 58.0641 260.62 58.1735 260.984 58.2783C261.536 58.4424 262.017 58.6247 262.427 58.8252C262.837 59.0212 263.179 59.2445 263.452 59.4951C263.726 59.7458 263.931 60.0306 264.067 60.3496C264.204 60.6641 264.272 61.0218 264.272 61.4229C264.272 61.8421 264.188 62.2204 264.02 62.5576C263.851 62.8903 263.609 63.1751 263.295 63.4121C262.985 63.6445 262.611 63.8245 262.174 63.9521C261.741 64.0752 261.258 64.1367 260.725 64.1367C260.246 64.1367 259.774 64.0729 259.31 63.9453C258.849 63.8177 258.43 63.624 258.052 63.3643C257.674 63.0999 257.373 62.7718 257.149 62.3799C256.926 61.9834 256.814 61.5208 256.814 60.9922H258.53C258.53 61.3158 258.585 61.5915 258.694 61.8193C258.808 62.0472 258.965 62.234 259.166 62.3799C259.367 62.5212 259.599 62.626 259.863 62.6943C260.132 62.7627 260.419 62.7969 260.725 62.7969C261.126 62.7969 261.461 62.7399 261.729 62.626C262.003 62.512 262.208 62.3525 262.345 62.1475C262.481 61.9424 262.55 61.7054 262.55 61.4365Z" fill="white"/>
<rect x="381" y="2" width="38" height="38" rx="19" stroke="white" stroke-width="2"/>
<path fill-rule="evenodd" clip-rule="evenodd" d="M401.803 14.3333C401.803 12.4924 403.302 11 405.152 11C407.001 11 408.5 12.4924 408.5 14.3333C408.5 16.1743 407.001 17.6667 405.152 17.6667C404.218 17.6667 403.374 17.286 402.767 16.6735L398.132 19.8295C398.175 20.0425 398.197 20.2625 398.197 20.4872C398.197 20.9322 398.109 21.3576 397.95 21.7464L403.032 25.0858C403.609 24.6161 404.347 24.3333 405.152 24.3333C407.001 24.3333 408.5 25.8257 408.5 27.6667C408.5 29.5076 407.001 31 405.152 31C403.302 31 401.803 29.5076 401.803 27.6667C401.803 27.1845 401.906 26.7255 402.092 26.3111L397.05 22.9987C396.462 23.5098 395.692 23.8205 394.848 23.8205C392.999 23.8205 391.5 22.3281 391.5 20.4872C391.5 18.6462 392.999 17.1538 394.848 17.1538C395.912 17.1538 396.859 17.6473 397.471 18.4152L401.964 15.3564C401.859 15.0336 401.803 14.6896 401.803 14.3333Z" fill="white"/>
<path d="M345.587 61.4365C345.587 61.2314 345.555 61.0492 345.491 60.8896C345.432 60.7301 345.325 60.5843 345.17 60.4521C345.015 60.32 344.796 60.1924 344.514 60.0693C344.236 59.9417 343.88 59.8118 343.447 59.6797C342.973 59.5339 342.536 59.3721 342.135 59.1943C341.738 59.012 341.392 58.8024 341.096 58.5654C340.799 58.3239 340.569 58.0482 340.405 57.7383C340.241 57.4238 340.159 57.0615 340.159 56.6514C340.159 56.2458 340.243 55.8766 340.412 55.5439C340.585 55.2113 340.829 54.9242 341.144 54.6826C341.463 54.4365 341.839 54.2474 342.271 54.1152C342.704 53.9785 343.183 53.9102 343.707 53.9102C344.445 53.9102 345.081 54.0469 345.614 54.3203C346.152 54.5938 346.564 54.9606 346.852 55.4209C347.143 55.8812 347.289 56.3893 347.289 56.9453H345.587C345.587 56.6172 345.516 56.3278 345.375 56.0771C345.238 55.8219 345.029 55.6214 344.746 55.4756C344.468 55.3298 344.115 55.2568 343.687 55.2568C343.281 55.2568 342.944 55.3184 342.675 55.4414C342.406 55.5645 342.205 55.7308 342.073 55.9404C341.941 56.1501 341.875 56.387 341.875 56.6514C341.875 56.8382 341.918 57.0091 342.005 57.1641C342.091 57.3145 342.224 57.4557 342.401 57.5879C342.579 57.7155 342.802 57.8363 343.071 57.9502C343.34 58.0641 343.657 58.1735 344.021 58.2783C344.573 58.4424 345.054 58.6247 345.464 58.8252C345.874 59.0212 346.216 59.2445 346.489 59.4951C346.763 59.7458 346.968 60.0306 347.104 60.3496C347.241 60.6641 347.31 61.0218 347.31 61.4229C347.31 61.8421 347.225 62.2204 347.057 62.5576C346.888 62.8903 346.646 63.1751 346.332 63.4121C346.022 63.6445 345.648 63.8245 345.211 63.9521C344.778 64.0752 344.295 64.1367 343.762 64.1367C343.283 64.1367 342.812 64.0729 342.347 63.9453C341.886 63.8177 341.467 63.624 341.089 63.3643C340.711 63.0999 340.41 62.7718 340.187 62.3799C339.963 61.9834 339.852 61.5208 339.852 60.9922H341.567C341.567 61.3158 341.622 61.5915 341.731 61.8193C341.845 62.0472 342.003 62.234 342.203 62.3799C342.404 62.5212 342.636 62.626 342.9 62.6943C343.169 62.7627 343.456 62.7969 343.762 62.7969C344.163 62.7969 344.498 62.7399 344.767 62.626C345.04 62.512 345.245 62.3525 345.382 62.1475C345.519 61.9424 345.587 61.7054 345.587 61.4365ZM355.342 62.6396V64H350.058V62.6396H355.342ZM350.543 54.0469V64H348.827V54.0469H350.543ZM354.651 58.2031V59.543H350.058V58.2031H354.651ZM355.308 54.0469V55.4141H350.058V54.0469H355.308ZM362.622 60.7598H364.331C364.276 61.4115 364.094 61.9925 363.784 62.5029C363.474 63.0088 363.039 63.4076 362.479 63.6992C361.918 63.9909 361.237 64.1367 360.435 64.1367C359.819 64.1367 359.266 64.0273 358.773 63.8086C358.281 63.5853 357.86 63.2708 357.509 62.8652C357.158 62.4551 356.889 61.9606 356.702 61.3818C356.52 60.8031 356.429 60.1559 356.429 59.4404V58.6133C356.429 57.8978 356.522 57.2507 356.709 56.6719C356.9 56.0931 357.174 55.5986 357.529 55.1885C357.885 54.7738 358.311 54.457 358.808 54.2383C359.309 54.0195 359.872 53.9102 360.496 53.9102C361.289 53.9102 361.959 54.056 362.506 54.3477C363.053 54.6393 363.477 55.0426 363.777 55.5576C364.083 56.0726 364.27 56.6628 364.338 57.3281H362.629C362.583 56.8997 362.483 56.5329 362.328 56.2275C362.178 55.9222 361.954 55.6898 361.658 55.5303C361.362 55.3662 360.975 55.2842 360.496 55.2842C360.104 55.2842 359.762 55.3571 359.471 55.5029C359.179 55.6488 358.935 55.863 358.739 56.1455C358.543 56.4281 358.395 56.7767 358.295 57.1914C358.199 57.6016 358.151 58.071 358.151 58.5996V59.4404C358.151 59.9417 358.195 60.3975 358.281 60.8076C358.372 61.2132 358.509 61.5618 358.691 61.8535C358.878 62.1452 359.115 62.3708 359.402 62.5303C359.689 62.6898 360.034 62.7695 360.435 62.7695C360.922 62.7695 361.316 62.6921 361.617 62.5371C361.923 62.3822 362.153 62.1566 362.308 61.8604C362.467 61.5596 362.572 61.1927 362.622 60.7598ZM371.475 54.0469H373.184V60.6982C373.184 61.4548 373.02 62.0882 372.691 62.5986C372.363 63.109 371.917 63.4941 371.352 63.7539C370.791 64.0091 370.164 64.1367 369.472 64.1367C368.756 64.1367 368.118 64.0091 367.558 63.7539C366.997 63.4941 366.555 63.109 366.231 62.5986C365.912 62.0882 365.753 61.4548 365.753 60.6982V54.0469H367.462V60.6982C367.462 61.1768 367.544 61.571 367.708 61.8809C367.872 62.1862 368.104 62.4118 368.405 62.5576C368.706 62.7035 369.062 62.7764 369.472 62.7764C369.882 62.7764 370.235 62.7035 370.531 62.5576C370.832 62.4118 371.064 62.1862 371.229 61.8809C371.393 61.571 371.475 61.1768 371.475 60.6982V54.0469ZM375.05 54.0469H378.57C379.327 54.0469 379.972 54.1608 380.505 54.3887C381.038 54.6165 381.446 54.9538 381.729 55.4004C382.016 55.8424 382.159 56.3893 382.159 57.041C382.159 57.5378 382.068 57.9753 381.886 58.3535C381.703 58.7318 381.446 59.0508 381.113 59.3105C380.781 59.5658 380.384 59.764 379.924 59.9053L379.404 60.1582H376.239L376.226 58.7979H378.598C379.008 58.7979 379.35 58.7249 379.623 58.5791C379.896 58.4333 380.102 58.235 380.238 57.9844C380.38 57.7292 380.45 57.4421 380.45 57.123C380.45 56.7767 380.382 56.4759 380.245 56.2207C380.113 55.9609 379.908 55.7627 379.63 55.626C379.352 55.4847 378.999 55.4141 378.57 55.4141H376.766V64H375.05V54.0469ZM380.73 64L378.393 59.5293L380.19 59.5225L382.562 63.9111V64H380.73ZM385.7 54.0469V64H383.984V54.0469H385.7ZM391.723 54.0469V64H390.021V54.0469H391.723ZM394.847 54.0469V55.4141H386.924V54.0469H394.847ZM397.219 54.0469L399.529 58.7979L401.84 54.0469H403.74L400.391 60.3359V64H398.661V60.3359L395.312 54.0469H397.219ZM411.205 64H409.079L409.093 62.6396H411.205C411.82 62.6396 412.335 62.5052 412.75 62.2363C413.169 61.9674 413.484 61.5824 413.693 61.0811C413.908 60.5798 414.015 59.9827 414.015 59.29V58.75C414.015 58.2122 413.953 57.736 413.83 57.3213C413.712 56.9066 413.534 56.5579 413.297 56.2754C413.064 55.9928 412.777 55.7786 412.436 55.6328C412.098 55.487 411.709 55.4141 411.267 55.4141H409.038V54.0469H411.267C411.927 54.0469 412.531 54.1585 413.078 54.3818C413.625 54.6006 414.097 54.9173 414.493 55.332C414.894 55.7467 415.202 56.2435 415.416 56.8223C415.63 57.401 415.737 58.0482 415.737 58.7637V59.29C415.737 60.0055 415.63 60.6527 415.416 61.2314C415.202 61.8102 414.894 62.307 414.493 62.7217C414.092 63.1318 413.614 63.4486 413.058 63.6719C412.506 63.8906 411.889 64 411.205 64ZM410.029 54.0469V64H408.313V54.0469H410.029ZM423.975 62.6396V64H418.69V62.6396H423.975ZM419.176 54.0469V64H417.46V54.0469H419.176ZM423.284 58.2031V59.543H418.69V58.2031H423.284ZM423.94 54.0469V55.4141H418.69V54.0469H423.94ZM429.607 54.0469V64H427.905V54.0469H429.607ZM432.731 54.0469V55.4141H424.809V54.0469H432.731ZM437.264 55.373L434.29 64H432.492L436.238 54.0469H437.387L437.264 55.373ZM439.752 64L436.771 55.373L436.642 54.0469H437.797L441.557 64H439.752ZM439.608 60.3086V61.6689H434.194V60.3086H439.608ZM444.503 54.0469V64H442.787V54.0469H444.503ZM452.87 62.6396V64H447.873V62.6396H452.87ZM448.352 54.0469V64H446.636V54.0469H448.352ZM459.433 61.4365C459.433 61.2314 459.401 61.0492 459.337 60.8896C459.278 60.7301 459.171 60.5843 459.016 60.4521C458.861 60.32 458.642 60.1924 458.359 60.0693C458.081 59.9417 457.726 59.8118 457.293 59.6797C456.819 59.5339 456.382 59.3721 455.98 59.1943C455.584 59.012 455.238 58.8024 454.941 58.5654C454.645 58.3239 454.415 58.0482 454.251 57.7383C454.087 57.4238 454.005 57.0615 454.005 56.6514C454.005 56.2458 454.089 55.8766 454.258 55.5439C454.431 55.2113 454.675 54.9242 454.989 54.6826C455.308 54.4365 455.684 54.2474 456.117 54.1152C456.55 53.9785 457.029 53.9102 457.553 53.9102C458.291 53.9102 458.927 54.0469 459.46 54.3203C459.998 54.5938 460.41 54.9606 460.697 55.4209C460.989 55.8812 461.135 56.3893 461.135 56.9453H459.433C459.433 56.6172 459.362 56.3278 459.221 56.0771C459.084 55.8219 458.874 55.6214 458.592 55.4756C458.314 55.3298 457.961 55.2568 457.532 55.2568C457.127 55.2568 456.789 55.3184 456.521 55.4414C456.252 55.5645 456.051 55.7308 455.919 55.9404C455.787 56.1501 455.721 56.387 455.721 56.6514C455.721 56.8382 455.764 57.0091 455.851 57.1641C455.937 57.3145 456.069 57.4557 456.247 57.5879C456.425 57.7155 456.648 57.8363 456.917 57.9502C457.186 58.0641 457.503 58.1735 457.867 58.2783C458.419 58.4424 458.899 58.6247 459.31 58.8252C459.72 59.0212 460.062 59.2445 460.335 59.4951C460.608 59.7458 460.813 60.0306 460.95 60.3496C461.087 60.6641 461.155 61.0218 461.155 61.4229C461.155 61.8421 461.071 62.2204 460.902 62.5576C460.734 62.8903 460.492 63.1751 460.178 63.4121C459.868 63.6445 459.494 63.8245 459.057 63.9521C458.624 64.0752 458.141 64.1367 457.607 64.1367C457.129 64.1367 456.657 64.0729 456.192 63.9453C455.732 63.8177 455.313 63.624 454.935 63.3643C454.556 63.0999 454.256 62.7718 454.032 62.3799C453.809 61.9834 453.697 61.5208 453.697 60.9922H455.413C455.413 61.3158 455.468 61.5915 455.577 61.8193C455.691 62.0472 455.848 62.234 456.049 62.3799C456.249 62.5212 456.482 62.626 456.746 62.6943C457.015 62.7627 457.302 62.7969 457.607 62.7969C458.008 62.7969 458.343 62.7399 458.612 62.626C458.886 62.512 459.091 62.3525 459.228 62.1475C459.364 61.9424 459.433 61.7054 459.433 61.4365Z" fill="white"/>
<rect x="581" y="2" width="38" height="38" rx="19" stroke="white" stroke-width="2"/>
<path d="M602 13H598C594.229 13 592.343 13 591.172 14.1716C590.328 15.0151 590.092 16.2288 590.026 18.25H609.974C609.908 16.2288 609.672 15.0151 608.828 14.1716C607.657 13 605.771 13 602 13Z" fill="white"/>
<path fill-rule="evenodd" clip-rule="evenodd" d="M602 29H598C594.229 29 592.343 29 591.172 27.8284C590 26.6569 590 24.7712 590 21C590 20.5581 590 20.142 590.002 19.75H609.998C610 20.142 610 20.5581 610 21C610 24.7712 610 26.6569 608.828 27.8284C607.657 29 605.771 29 602 29ZM604.045 21.25C604.478 21.2499 604.874 21.2499 605.197 21.2933C605.553 21.3411 605.928 21.4535 606.237 21.7626C606.546 22.0716 606.659 22.4473 606.707 22.8028C606.75 23.1256 606.75 23.5224 606.75 23.9553V24.0447C606.75 24.4776 606.75 24.8744 606.707 25.1972C606.659 25.5527 606.546 25.9284 606.237 26.2374C605.928 26.5465 605.553 26.6589 605.197 26.7067C604.874 26.7501 604.478 26.7501 604.045 26.75L604 26.75L603.955 26.75C603.522 26.7501 603.126 26.7501 602.803 26.7067C602.447 26.6589 602.072 26.5465 601.763 26.2374C601.454 25.9284 601.341 25.5527 601.293 25.1972C601.25 24.8744 601.25 24.4776 601.25 24.0447L601.25 24L601.25 23.9553C601.25 23.5224 601.25 23.1256 601.293 22.8028C601.341 22.4473 601.454 22.0716 601.763 21.7626C602.072 21.4535 602.447 21.3411 602.803 21.2933C603.126 21.2499 603.522 21.2499 603.955 21.25H604.045ZM593.25 22.5C593.25 22.0858 593.586 21.75 594 21.75H596C596.414 21.75 596.75 22.0858 596.75 22.5C596.75 22.9142 596.414 23.25 596 23.25H594C593.586 23.25 593.25 22.9142 593.25 22.5ZM593.25 25.5C593.25 25.0858 593.586 24.75 594 24.75H598C598.414 24.75 598.75 25.0858 598.75 25.5C598.75 25.9142 598.414 26.25 598 26.25H594C593.586 26.25 593.25 25.9142 593.25 25.5Z" fill="white"/>
<path d="M602.823 22.8232L602.826 22.8219C602.828 22.8209 602.831 22.8192 602.836 22.8172C602.858 22.8082 602.906 22.7929 603.003 22.7799C603.213 22.7516 603.507 22.75 604 22.75C604.493 22.75 604.787 22.7516 604.997 22.7799C605.094 22.7929 605.142 22.8082 605.164 22.8172C605.169 22.8192 605.172 22.8209 605.174 22.8219L605.177 22.8232L605.178 22.8257C605.179 22.8276 605.181 22.8309 605.183 22.836C605.192 22.8577 605.207 22.9061 605.22 23.0027C605.248 23.2134 605.25 23.5074 605.25 24C605.25 24.4926 605.248 24.7866 605.22 24.9973C605.207 25.0939 605.192 25.1423 605.183 25.164C605.181 25.1691 605.179 25.1724 605.178 25.1743L605.177 25.1768L605.174 25.1781C605.172 25.1791 605.169 25.1808 605.164 25.1828C605.142 25.1918 605.094 25.2071 604.997 25.2201C604.787 25.2484 604.493 25.25 604 25.25C603.507 25.25 603.213 25.2484 603.003 25.2201C602.906 25.2071 602.858 25.1918 602.836 25.1828C602.831 25.1808 602.828 25.1791 602.826 25.1781L602.823 25.1768L602.822 25.1743C602.821 25.1724 602.819 25.1691 602.817 25.164C602.808 25.1423 602.793 25.0939 602.78 24.9973C602.752 24.7866 602.75 24.4926 602.75 24C602.75 23.5074 602.752 23.2134 602.78 23.0027C602.793 22.9061 602.808 22.8577 602.817 22.836C602.819 22.8309 602.821 22.8276 602.822 22.8257L602.823 22.8232Z" fill="white"/>
<path d="M557.104 55.373L554.131 64H552.333L556.079 54.0469H557.228L557.104 55.373ZM559.593 64L556.612 55.373L556.482 54.0469H557.638L561.397 64H559.593ZM559.449 60.3086V61.6689H554.035V60.3086H559.449ZM568.746 62.6396V64H563.749V62.6396H568.746ZM564.228 54.0469V64H562.512V54.0469H564.228ZM570.77 54.0469H572.301L575.179 61.7236L578.05 54.0469H579.581L575.78 64H574.563L570.77 54.0469ZM570.072 54.0469H571.528L571.781 60.6914V64H570.072V54.0469ZM578.822 54.0469H580.285V64H578.569V60.6914L578.822 54.0469ZM590.259 58.75V59.2969C590.259 60.0488 590.161 60.7233 589.965 61.3203C589.769 61.9173 589.489 62.4255 589.124 62.8447C588.764 63.264 588.331 63.5853 587.825 63.8086C587.319 64.0273 586.759 64.1367 586.144 64.1367C585.533 64.1367 584.975 64.0273 584.469 63.8086C583.967 63.5853 583.532 63.264 583.163 62.8447C582.794 62.4255 582.507 61.9173 582.302 61.3203C582.101 60.7233 582.001 60.0488 582.001 59.2969V58.75C582.001 57.998 582.101 57.3258 582.302 56.7334C582.502 56.1364 582.785 55.6283 583.149 55.209C583.519 54.7852 583.954 54.4639 584.455 54.2451C584.961 54.0218 585.519 53.9102 586.13 53.9102C586.745 53.9102 587.306 54.0218 587.812 54.2451C588.317 54.4639 588.753 54.7852 589.117 55.209C589.482 55.6283 589.762 56.1364 589.958 56.7334C590.159 57.3258 590.259 57.998 590.259 58.75ZM588.543 59.2969V58.7363C588.543 58.1803 588.488 57.6904 588.379 57.2666C588.274 56.8382 588.117 56.4805 587.907 56.1934C587.702 55.9017 587.449 55.6829 587.148 55.5371C586.848 55.3867 586.508 55.3115 586.13 55.3115C585.752 55.3115 585.414 55.3867 585.118 55.5371C584.822 55.6829 584.569 55.9017 584.359 56.1934C584.154 56.4805 583.997 56.8382 583.888 57.2666C583.778 57.6904 583.724 58.1803 583.724 58.7363V59.2969C583.724 59.8529 583.778 60.3451 583.888 60.7734C583.997 61.2018 584.157 61.5641 584.366 61.8604C584.58 62.152 584.836 62.373 585.132 62.5234C585.428 62.6693 585.765 62.7422 586.144 62.7422C586.526 62.7422 586.866 62.6693 587.162 62.5234C587.458 62.373 587.709 62.152 587.914 61.8604C588.119 61.5641 588.274 61.2018 588.379 60.7734C588.488 60.3451 588.543 59.8529 588.543 59.2969ZM597.211 61.4365C597.211 61.2314 597.179 61.0492 597.115 60.8896C597.056 60.7301 596.949 60.5843 596.794 60.4521C596.639 60.32 596.42 60.1924 596.138 60.0693C595.86 59.9417 595.504 59.8118 595.071 59.6797C594.597 59.5339 594.16 59.3721 593.759 59.1943C593.362 59.012 593.016 58.8024 592.72 58.5654C592.424 58.3239 592.193 58.0482 592.029 57.7383C591.865 57.4238 591.783 57.0615 591.783 56.6514C591.783 56.2458 591.868 55.8766 592.036 55.5439C592.209 55.2113 592.453 54.9242 592.768 54.6826C593.087 54.4365 593.463 54.2474 593.896 54.1152C594.328 53.9785 594.807 53.9102 595.331 53.9102C596.069 53.9102 596.705 54.0469 597.238 54.3203C597.776 54.5938 598.188 54.9606 598.476 55.4209C598.767 55.8812 598.913 56.3893 598.913 56.9453H597.211C597.211 56.6172 597.14 56.3278 596.999 56.0771C596.862 55.8219 596.653 55.6214 596.37 55.4756C596.092 55.3298 595.739 55.2568 595.311 55.2568C594.905 55.2568 594.568 55.3184 594.299 55.4414C594.03 55.5645 593.829 55.7308 593.697 55.9404C593.565 56.1501 593.499 56.387 593.499 56.6514C593.499 56.8382 593.542 57.0091 593.629 57.1641C593.715 57.3145 593.848 57.4557 594.025 57.5879C594.203 57.7155 594.426 57.8363 594.695 57.9502C594.964 58.0641 595.281 58.1735 595.646 58.2783C596.197 58.4424 596.678 58.6247 597.088 58.8252C597.498 59.0212 597.84 59.2445 598.113 59.4951C598.387 59.7458 598.592 60.0306 598.729 60.3496C598.865 60.6641 598.934 61.0218 598.934 61.4229C598.934 61.8421 598.849 62.2204 598.681 62.5576C598.512 62.8903 598.271 63.1751 597.956 63.4121C597.646 63.6445 597.272 63.8245 596.835 63.9521C596.402 64.0752 595.919 64.1367 595.386 64.1367C594.907 64.1367 594.436 64.0729 593.971 63.9453C593.51 63.8177 593.091 63.624 592.713 63.3643C592.335 63.0999 592.034 62.7718 591.811 62.3799C591.587 61.9834 591.476 61.5208 591.476 60.9922H593.191C593.191 61.3158 593.246 61.5915 593.355 61.8193C593.469 62.0472 593.627 62.234 593.827 62.3799C594.028 62.5212 594.26 62.626 594.524 62.6943C594.793 62.7627 595.08 62.7969 595.386 62.7969C595.787 62.7969 596.122 62.7399 596.391 62.626C596.664 62.512 596.869 62.3525 597.006 62.1475C597.143 61.9424 597.211 61.7054 597.211 61.4365ZM604.546 54.0469V64H602.844V54.0469H604.546ZM607.67 54.0469V55.4141H599.747V54.0469H607.67ZM615.032 64H612.906L612.92 62.6396H615.032C615.647 62.6396 616.162 62.5052 616.577 62.2363C616.996 61.9674 617.311 61.5824 617.521 61.0811C617.735 60.5798 617.842 59.9827 617.842 59.29V58.75C617.842 58.2122 617.78 57.736 617.657 57.3213C617.539 56.9066 617.361 56.5579 617.124 56.2754C616.892 55.9928 616.604 55.7786 616.263 55.6328C615.925 55.487 615.536 55.4141 615.094 55.4141H612.865V54.0469H615.094C615.755 54.0469 616.358 54.1585 616.905 54.3818C617.452 54.6006 617.924 54.9173 618.32 55.332C618.721 55.7467 619.029 56.2435 619.243 56.8223C619.457 57.401 619.564 58.0482 619.564 58.7637V59.29C619.564 60.0055 619.457 60.6527 619.243 61.2314C619.029 61.8102 618.721 62.307 618.32 62.7217C617.919 63.1318 617.441 63.4486 616.885 63.6719C616.333 63.8906 615.716 64 615.032 64ZM613.856 54.0469V64H612.141V54.0469H613.856ZM629.224 58.75V59.2969C629.224 60.0488 629.126 60.7233 628.93 61.3203C628.734 61.9173 628.453 62.4255 628.089 62.8447C627.729 63.264 627.296 63.5853 626.79 63.8086C626.284 64.0273 625.724 64.1367 625.108 64.1367C624.498 64.1367 623.939 64.0273 623.434 63.8086C622.932 63.5853 622.497 63.264 622.128 62.8447C621.759 62.4255 621.472 61.9173 621.267 61.3203C621.066 60.7233 620.966 60.0488 620.966 59.2969V58.75C620.966 57.998 621.066 57.3258 621.267 56.7334C621.467 56.1364 621.75 55.6283 622.114 55.209C622.483 54.7852 622.919 54.4639 623.42 54.2451C623.926 54.0218 624.484 53.9102 625.095 53.9102C625.71 53.9102 626.271 54.0218 626.776 54.2451C627.282 54.4639 627.717 54.7852 628.082 55.209C628.447 55.6283 628.727 56.1364 628.923 56.7334C629.123 57.3258 629.224 57.998 629.224 58.75ZM627.508 59.2969V58.7363C627.508 58.1803 627.453 57.6904 627.344 57.2666C627.239 56.8382 627.082 56.4805 626.872 56.1934C626.667 55.9017 626.414 55.6829 626.113 55.5371C625.812 55.3867 625.473 55.3115 625.095 55.3115C624.716 55.3115 624.379 55.3867 624.083 55.5371C623.787 55.6829 623.534 55.9017 623.324 56.1934C623.119 56.4805 622.962 56.8382 622.853 57.2666C622.743 57.6904 622.688 58.1803 622.688 58.7363V59.2969C622.688 59.8529 622.743 60.3451 622.853 60.7734C622.962 61.2018 623.121 61.5641 623.331 61.8604C623.545 62.152 623.8 62.373 624.097 62.5234C624.393 62.6693 624.73 62.7422 625.108 62.7422C625.491 62.7422 625.831 62.6693 626.127 62.5234C626.423 62.373 626.674 62.152 626.879 61.8604C627.084 61.5641 627.239 61.2018 627.344 60.7734C627.453 60.3451 627.508 59.8529 627.508 59.2969ZM638.835 54.0469V64H637.119L632.655 56.8701V64H630.939V54.0469H632.655L637.133 61.1904V54.0469H638.835ZM647.394 62.6396V64H642.109V62.6396H647.394ZM642.595 54.0469V64H640.879V54.0469H642.595ZM646.703 58.2031V59.543H642.109V58.2031H646.703ZM647.359 54.0469V55.4141H642.109V54.0469H647.359Z" fill="white"/>
</svg>
