<svg width="114" height="52" viewBox="0 0 114 52" fill="none" xmlns="http://www.w3.org/2000/svg">
<g filter="url(#filter0_di_36_1639)">
<rect x="2.5" y="0.5" width="105" height="43" rx="4.5" stroke="black" shape-rendering="crispEdges"/>
<rect x="3" y="1" width="104" height="42" rx="4" fill="white"/>
<path d="M33.0195 25.2793C33.0195 25.0254 32.9805 24.7975 32.9023 24.5957C32.8307 24.3874 32.694 24.1986 32.4922 24.0293C32.2904 23.8535 32.0072 23.681 31.6426 23.5117C31.278 23.3424 30.806 23.1667 30.2266 22.9844C29.582 22.776 28.9701 22.5417 28.3906 22.2812C27.8177 22.0208 27.3099 21.7181 26.8672 21.373C26.431 21.0215 26.0859 20.6146 25.832 20.1523C25.5846 19.6901 25.4609 19.153 25.4609 18.541C25.4609 17.9486 25.5911 17.4115 25.8516 16.9297C26.112 16.4414 26.4766 16.0247 26.9453 15.6797C27.4141 15.3281 27.9674 15.0579 28.6055 14.8691C29.25 14.6803 29.9564 14.5859 30.7246 14.5859C31.7728 14.5859 32.6875 14.7747 33.4688 15.1523C34.25 15.5299 34.8555 16.0475 35.2852 16.7051C35.7214 17.3626 35.9395 18.1146 35.9395 18.9609H33.0293C33.0293 18.5443 32.9414 18.1797 32.7656 17.8672C32.5964 17.5482 32.3359 17.2975 31.9844 17.1152C31.6393 16.9329 31.2031 16.8418 30.6758 16.8418C30.168 16.8418 29.7448 16.9199 29.4062 17.0762C29.0677 17.2259 28.8138 17.431 28.6445 17.6914C28.4753 17.9453 28.3906 18.2318 28.3906 18.5508C28.3906 18.7917 28.4492 19.0098 28.5664 19.2051C28.6901 19.4004 28.8724 19.5827 29.1133 19.752C29.3542 19.9212 29.6504 20.0807 30.002 20.2305C30.3535 20.3802 30.7604 20.5267 31.2227 20.6699C31.9974 20.9043 32.6777 21.168 33.2637 21.4609C33.8561 21.7539 34.3509 22.0827 34.748 22.4473C35.1452 22.8118 35.4447 23.2253 35.6465 23.6875C35.8483 24.1497 35.9492 24.6738 35.9492 25.2598C35.9492 25.8783 35.8288 26.4316 35.5879 26.9199C35.347 27.4082 34.9987 27.8216 34.543 28.1602C34.0872 28.4987 33.5436 28.7559 32.9121 28.9316C32.2806 29.1074 31.5742 29.1953 30.793 29.1953C30.0898 29.1953 29.3965 29.1042 28.7129 28.9219C28.0293 28.7331 27.4076 28.4499 26.8477 28.0723C26.2943 27.6947 25.8516 27.2129 25.5195 26.627C25.1875 26.041 25.0215 25.3477 25.0215 24.5469H27.9609C27.9609 24.9896 28.0293 25.3639 28.166 25.6699C28.3027 25.9759 28.4948 26.2233 28.7422 26.4121C28.9961 26.6009 29.2956 26.7376 29.6406 26.8223C29.9922 26.9069 30.3763 26.9492 30.793 26.9492C31.3008 26.9492 31.7174 26.8776 32.043 26.7344C32.375 26.5911 32.6191 26.3926 32.7754 26.1387C32.9382 25.8848 33.0195 25.5983 33.0195 25.2793ZM40.7344 18.4336V29H37.9121V18.4336H40.7344ZM37.7363 15.6797C37.7363 15.2695 37.8796 14.931 38.166 14.6641C38.4525 14.3971 38.8366 14.2637 39.3184 14.2637C39.7936 14.2637 40.1745 14.3971 40.4609 14.6641C40.7539 14.931 40.9004 15.2695 40.9004 15.6797C40.9004 16.0898 40.7539 16.4284 40.4609 16.6953C40.1745 16.9622 39.7936 17.0957 39.3184 17.0957C38.8366 17.0957 38.4525 16.9622 38.166 16.6953C37.8796 16.4284 37.7363 16.0898 37.7363 15.6797ZM49.748 18.4336H52.2969V28.6484C52.2969 29.612 52.082 30.429 51.6523 31.0996C51.2292 31.7767 50.6367 32.2878 49.875 32.6328C49.1133 32.9844 48.2279 33.1602 47.2188 33.1602C46.776 33.1602 46.3073 33.1016 45.8125 32.9844C45.3242 32.8672 44.8555 32.6849 44.4062 32.4375C43.9635 32.1901 43.5924 31.8776 43.293 31.5L44.5332 29.8398C44.8587 30.2174 45.2363 30.5104 45.666 30.7188C46.0957 30.9336 46.571 31.041 47.0918 31.041C47.5996 31.041 48.0293 30.9466 48.3809 30.7578C48.7324 30.5755 49.0026 30.3053 49.1914 29.9473C49.3802 29.5957 49.4746 29.1693 49.4746 28.668V20.875L49.748 18.4336ZM42.6387 23.8438V23.6387C42.6387 22.8314 42.7363 22.099 42.9316 21.4414C43.1335 20.7773 43.4167 20.2077 43.7812 19.7324C44.1523 19.2572 44.6016 18.8893 45.1289 18.6289C45.6562 18.3685 46.252 18.2383 46.916 18.2383C47.6191 18.2383 48.2083 18.3685 48.6836 18.6289C49.1589 18.8893 49.5495 19.2604 49.8555 19.7422C50.1615 20.2174 50.3991 20.7806 50.5684 21.4316C50.7441 22.0762 50.8809 22.7826 50.9785 23.5508V24C50.8809 24.7357 50.7344 25.4193 50.5391 26.0508C50.3438 26.6823 50.0866 27.2357 49.7676 27.7109C49.4486 28.1797 49.0514 28.5443 48.5762 28.8047C48.1074 29.0651 47.5475 29.1953 46.8965 29.1953C46.2454 29.1953 45.6562 29.0618 45.1289 28.7949C44.6081 28.528 44.1621 28.1536 43.791 27.6719C43.4199 27.1901 43.1335 26.6237 42.9316 25.9727C42.7363 25.3216 42.6387 24.612 42.6387 23.8438ZM45.4512 23.6387V23.8438C45.4512 24.2799 45.4935 24.6868 45.5781 25.0645C45.6628 25.4421 45.793 25.7773 45.9688 26.0703C46.151 26.3568 46.3757 26.5814 46.6426 26.7441C46.916 26.9004 47.2383 26.9785 47.6094 26.9785C48.1237 26.9785 48.5436 26.8711 48.8691 26.6562C49.1947 26.4349 49.4388 26.1322 49.6016 25.748C49.7643 25.3639 49.8587 24.9212 49.8848 24.4199V23.1406C49.8717 22.7305 49.8164 22.3626 49.7188 22.0371C49.6211 21.7051 49.4844 21.4219 49.3086 21.1875C49.1328 20.9531 48.9049 20.7708 48.625 20.6406C48.3451 20.5104 48.013 20.4453 47.6289 20.4453C47.2578 20.4453 46.9355 20.5299 46.6621 20.6992C46.3952 20.862 46.1706 21.0866 45.9883 21.373C45.8125 21.6595 45.679 21.998 45.5879 22.3887C45.4967 22.7728 45.4512 23.1895 45.4512 23.6387ZM57.2383 20.6895V29H54.4258V18.4336H57.0625L57.2383 20.6895ZM56.8281 23.3457H56.0664C56.0664 22.5645 56.1673 21.8613 56.3691 21.2363C56.571 20.6048 56.8542 20.0677 57.2188 19.625C57.5833 19.1758 58.0163 18.834 58.5176 18.5996C59.0254 18.3587 59.5918 18.2383 60.2168 18.2383C60.7116 18.2383 61.1641 18.3099 61.5742 18.4531C61.9844 18.5964 62.3359 18.8242 62.6289 19.1367C62.9284 19.4492 63.1562 19.8626 63.3125 20.377C63.4753 20.8913 63.5566 21.5195 63.5566 22.2617V29H60.7246V22.252C60.7246 21.7832 60.6595 21.4186 60.5293 21.1582C60.3991 20.8978 60.207 20.7155 59.9531 20.6113C59.7057 20.5007 59.3997 20.4453 59.0352 20.4453C58.6576 20.4453 58.3288 20.5202 58.0488 20.6699C57.7754 20.8197 57.5475 21.028 57.3652 21.2949C57.1895 21.5553 57.056 21.8613 56.9648 22.2129C56.8737 22.5645 56.8281 22.9421 56.8281 23.3457ZM73.9668 14.7812V29H71.0469V14.7812H73.9668ZM79.2891 20.6895V29H76.4766V18.4336H79.1133L79.2891 20.6895ZM78.8789 23.3457H78.1172C78.1172 22.5645 78.2181 21.8613 78.4199 21.2363C78.6217 20.6048 78.9049 20.0677 79.2695 19.625C79.6341 19.1758 80.0671 18.834 80.5684 18.5996C81.0762 18.3587 81.6426 18.2383 82.2676 18.2383C82.7624 18.2383 83.2148 18.3099 83.625 18.4531C84.0352 18.5964 84.3867 18.8242 84.6797 19.1367C84.9792 19.4492 85.207 19.8626 85.3633 20.377C85.526 20.8913 85.6074 21.5195 85.6074 22.2617V29H82.7754V22.252C82.7754 21.7832 82.7103 21.4186 82.5801 21.1582C82.4499 20.8978 82.2578 20.7155 82.0039 20.6113C81.7565 20.5007 81.4505 20.4453 81.0859 20.4453C80.7083 20.4453 80.3796 20.5202 80.0996 20.6699C79.8262 20.8197 79.5983 21.028 79.416 21.2949C79.2402 21.5553 79.1068 21.8613 79.0156 22.2129C78.9245 22.5645 78.8789 22.9421 78.8789 23.3457Z" fill="black"/>
</g>
<defs>
<filter id="filter0_di_36_1639" x="0" y="0" width="114" height="52" filterUnits="userSpaceOnUse" color-interpolation-filters="sRGB">
<feFlood flood-opacity="0" result="BackgroundImageFix"/>
<feColorMatrix in="SourceAlpha" type="matrix" values="0 0 0 0 0 0 0 0 0 0 0 0 0 0 0 0 0 0 127 0" result="hardAlpha"/>
<feOffset dx="2" dy="4"/>
<feGaussianBlur stdDeviation="2"/>
<feComposite in2="hardAlpha" operator="out"/>
<feColorMatrix type="matrix" values="0 0 0 0 0 0 0 0 0 0 0 0 0 0 0 0 0 0 0.25 0"/>
<feBlend mode="normal" in2="BackgroundImageFix" result="effect1_dropShadow_36_1639"/>
<feBlend mode="normal" in="SourceGraphic" in2="effect1_dropShadow_36_1639" result="shape"/>
<feColorMatrix in="SourceAlpha" type="matrix" values="0 0 0 0 0 0 0 0 0 0 0 0 0 0 0 0 0 0 127 0" result="hardAlpha"/>
<feOffset dx="2" dy="4"/>
<feGaussianBlur stdDeviation="2"/>
<feComposite in2="hardAlpha" operator="arithmetic" k2="-1" k3="1"/>
<feColorMatrix type="matrix" values="0 0 0 0 0 0 0 0 0 0 0 0 0 0 0 0 0 0 0.25 0"/>
<feBlend mode="normal" in2="shape" result="effect2_innerShadow_36_1639"/>
</filter>
</defs>
</svg>
