<svg width="49" height="58" viewBox="0 0 49 58" fill="none" xmlns="http://www.w3.org/2000/svg">
<mask id="mask0_70_5251" style="mask-type:luminance" maskUnits="userSpaceOnUse" x="0" y="8" width="48" height="42">
<path d="M47.9894 8.2002H0V49.2002H47.9894V8.2002Z" fill="white"/>
</mask>
<g mask="url(#mask0_70_5251)">
<path d="M20.0529 11.8037C18.9304 10.6826 17.6293 10.1221 16.1495 10.1221C14.6698 10.1221 13.3686 10.6826 12.2461 11.8037L1.60733 22.9346C0.535801 24.1091 0 25.4704 0 27.0186C0 28.5667 0.535801 29.928 1.60733 31.1025L12.2461 42.2334C13.3686 43.3545 14.6698 43.915 16.1495 43.915C17.6293 43.915 18.9304 43.3545 20.0529 42.2334L30.6919 31.1025C31.7633 29.928 32.2991 28.5667 32.2991 27.0186C32.2991 25.4704 31.7633 24.1091 30.6919 22.9346L20.0529 11.8037ZM14.3126 27.0186C14.4147 25.844 15.027 25.2034 16.1495 25.0967C17.2721 25.2034 17.8844 25.844 17.9864 27.0186C17.8844 28.1931 17.2721 28.8337 16.1495 28.9404C15.027 28.8337 14.4147 28.1931 14.3126 27.0186ZM6.35265 25.0967C7.47521 25.2034 8.08751 25.844 8.18956 27.0186C8.08751 28.1931 7.47521 28.8337 6.35265 28.9404C5.2301 28.8337 4.6178 28.1931 4.51575 27.0186C4.6178 25.844 5.2301 25.2034 6.35265 25.0967ZM16.1495 39.1904C15.027 39.0837 14.4147 38.443 14.3126 37.2686C14.4147 36.0941 15.027 35.4534 16.1495 35.3467C17.2721 35.4534 17.8844 36.0941 17.9864 37.2686C17.8844 38.443 17.2721 39.0837 16.1495 39.1904ZM25.9464 25.0967C27.069 25.2034 27.6813 25.844 27.7833 27.0186C27.6813 28.1931 27.069 28.8337 25.9464 28.9404C24.8239 28.8337 24.2116 28.1931 24.1095 27.0186C24.2116 25.844 24.8239 25.2034 25.9464 25.0967ZM16.1495 18.6904C15.027 18.5837 14.4147 17.9431 14.3126 16.7686C14.4147 15.594 15.027 14.9534 16.1495 14.8467C17.2721 14.9534 17.8844 15.594 17.9864 16.7686C17.8844 17.9431 17.2721 18.5837 16.1495 18.6904ZM23.4973 44.9561C23.5482 46.3975 24.0329 47.5986 24.9514 48.5596C25.8698 49.5205 27.018 50.0277 28.3957 50.0811H43.091C44.4687 50.0277 45.6166 49.5205 46.535 48.5596C47.4535 47.5986 47.9383 46.3975 47.9894 44.9561V29.5811C47.9383 28.1396 47.4535 26.9384 46.535 25.9775C45.6166 25.0166 44.4687 24.5095 43.091 24.4561H34.3657C34.7739 25.9508 34.8248 27.4456 34.5187 28.9404C34.2125 30.4352 33.4982 31.7699 32.3756 32.9443L23.4973 42.2334V44.9561ZM35.7433 35.3467C36.8659 35.4534 37.4782 36.0941 37.5802 37.2686C37.4782 38.443 36.8659 39.0837 35.7433 39.1904C34.6208 39.0837 34.0085 38.443 33.9064 37.2686C34.0085 36.0941 34.6208 35.4534 35.7433 35.3467Z" fill="#208C53"/>
</g>
</svg>
