<svg width="770" height="223" viewBox="0 0 770 223" fill="none" xmlns="http://www.w3.org/2000/svg">
<path d="M117.572 66.6543H119.535V72.582H126.996V66.6543H128.959V81H126.996V74.291H119.535V81H117.572V66.6543ZM135.893 79.8672C137.058 79.8672 137.855 79.4277 138.285 78.5488C138.721 77.6634 138.939 76.6803 138.939 75.5996C138.939 74.623 138.783 73.8288 138.471 73.2168C137.976 72.2533 137.123 71.7715 135.912 71.7715C134.838 71.7715 134.057 72.1816 133.568 73.002C133.08 73.8223 132.836 74.8118 132.836 75.9707C132.836 77.084 133.08 78.0117 133.568 78.7539C134.057 79.4961 134.831 79.8672 135.893 79.8672ZM135.961 70.2383C137.309 70.2383 138.448 70.6875 139.379 71.5859C140.31 72.4844 140.775 73.806 140.775 75.5508C140.775 77.237 140.365 78.6302 139.545 79.7305C138.725 80.8307 137.452 81.3809 135.727 81.3809C134.288 81.3809 133.145 80.8958 132.299 79.9258C131.452 78.9492 131.029 77.6406 131.029 76C131.029 74.2422 131.475 72.8424 132.367 71.8008C133.259 70.7591 134.457 70.2383 135.961 70.2383ZM142.875 70.541H144.613V72.0254C145.03 71.5111 145.408 71.1367 145.746 70.9023C146.326 70.5052 146.983 70.3066 147.719 70.3066C148.552 70.3066 149.223 70.5117 149.73 70.9219C150.017 71.1562 150.277 71.5013 150.512 71.957C150.902 71.3971 151.361 70.9837 151.889 70.7168C152.416 70.4434 153.008 70.3066 153.666 70.3066C155.072 70.3066 156.029 70.8145 156.537 71.8301C156.811 72.377 156.947 73.1126 156.947 74.0371V81H155.121V73.7344C155.121 73.0378 154.945 72.5592 154.594 72.2988C154.249 72.0384 153.826 71.9082 153.324 71.9082C152.634 71.9082 152.038 72.1393 151.537 72.6016C151.042 73.0638 150.795 73.8353 150.795 74.916V81H149.008V74.1738C149.008 73.4642 148.923 72.9466 148.754 72.6211C148.487 72.1328 147.989 71.8887 147.26 71.8887C146.596 71.8887 145.99 72.1458 145.443 72.6602C144.903 73.1745 144.633 74.1055 144.633 75.4531V81H142.875V70.541ZM163.891 70.3066C164.633 70.3066 165.352 70.4824 166.049 70.834C166.745 71.179 167.276 71.6283 167.641 72.1816C167.992 72.709 168.227 73.3242 168.344 74.0273C168.448 74.5091 168.5 75.2773 168.5 76.332H160.834C160.867 77.3932 161.117 78.2461 161.586 78.8906C162.055 79.5286 162.781 79.8477 163.764 79.8477C164.682 79.8477 165.414 79.5449 165.961 78.9395C166.273 78.5879 166.495 78.181 166.625 77.7188H168.354C168.308 78.1029 168.155 78.5326 167.895 79.0078C167.641 79.4766 167.354 79.8607 167.035 80.1602C166.501 80.681 165.84 81.0326 165.053 81.2148C164.63 81.319 164.151 81.3711 163.617 81.3711C162.315 81.3711 161.212 80.8991 160.307 79.9551C159.402 79.0046 158.949 77.6764 158.949 75.9707C158.949 74.291 159.405 72.9271 160.316 71.8789C161.228 70.8307 162.419 70.3066 163.891 70.3066ZM166.693 74.9355C166.622 74.1738 166.456 73.5651 166.195 73.1094C165.714 72.263 164.91 71.8398 163.783 71.8398C162.976 71.8398 162.299 72.1328 161.752 72.7188C161.205 73.2982 160.915 74.0371 160.883 74.9355H166.693Z" fill="black"/>
<path d="M124.887 117.121L122.709 110.783L120.395 117.121H124.887ZM121.693 108.654H123.891L129.096 123H126.967L125.512 118.703H119.838L118.285 123H116.293L121.693 108.654ZM130.492 108.605H132.201V113.811C132.585 113.309 133.044 112.928 133.578 112.668C134.112 112.401 134.691 112.268 135.316 112.268C136.618 112.268 137.673 112.717 138.48 113.615C139.294 114.507 139.701 115.826 139.701 117.57C139.701 119.224 139.301 120.598 138.5 121.691C137.699 122.785 136.589 123.332 135.17 123.332C134.376 123.332 133.705 123.14 133.158 122.756C132.833 122.528 132.484 122.163 132.113 121.662V123H130.492V108.605ZM135.062 121.779C136.013 121.779 136.723 121.402 137.191 120.646C137.667 119.891 137.904 118.895 137.904 117.658C137.904 116.558 137.667 115.646 137.191 114.924C136.723 114.201 136.029 113.84 135.111 113.84C134.311 113.84 133.607 114.136 133.002 114.729C132.403 115.321 132.104 116.298 132.104 117.658C132.104 118.641 132.227 119.439 132.475 120.051C132.937 121.203 133.799 121.779 135.062 121.779ZM145.912 121.867C147.077 121.867 147.875 121.428 148.305 120.549C148.741 119.663 148.959 118.68 148.959 117.6C148.959 116.623 148.803 115.829 148.49 115.217C147.995 114.253 147.143 113.771 145.932 113.771C144.857 113.771 144.076 114.182 143.588 115.002C143.1 115.822 142.855 116.812 142.855 117.971C142.855 119.084 143.1 120.012 143.588 120.754C144.076 121.496 144.851 121.867 145.912 121.867ZM145.98 112.238C147.328 112.238 148.467 112.688 149.398 113.586C150.329 114.484 150.795 115.806 150.795 117.551C150.795 119.237 150.385 120.63 149.564 121.73C148.744 122.831 147.471 123.381 145.746 123.381C144.307 123.381 143.165 122.896 142.318 121.926C141.472 120.949 141.049 119.641 141.049 118C141.049 116.242 141.495 114.842 142.387 113.801C143.279 112.759 144.477 112.238 145.98 112.238ZM154.652 112.541V119.484C154.652 120.018 154.737 120.454 154.906 120.793C155.219 121.418 155.801 121.73 156.654 121.73C157.878 121.73 158.712 121.184 159.154 120.09C159.395 119.504 159.516 118.7 159.516 117.678V112.541H161.273V123H159.613L159.633 121.457C159.405 121.854 159.122 122.189 158.783 122.463C158.113 123.01 157.299 123.283 156.342 123.283C154.851 123.283 153.835 122.785 153.295 121.789C153.002 121.255 152.855 120.542 152.855 119.65V112.541H154.652ZM164.379 109.621H166.156V112.541H167.826V113.977H166.156V120.803C166.156 121.167 166.28 121.411 166.527 121.535C166.664 121.607 166.892 121.643 167.211 121.643C167.296 121.643 167.387 121.643 167.484 121.643C167.582 121.636 167.696 121.626 167.826 121.613V123C167.624 123.059 167.413 123.101 167.191 123.127C166.977 123.153 166.742 123.166 166.488 123.166C165.668 123.166 165.111 122.958 164.818 122.541C164.525 122.118 164.379 121.571 164.379 120.9V113.977H162.963V112.541H164.379V109.621ZM177.504 108.654V117.521C177.504 118.563 177.699 119.429 178.09 120.119C178.669 121.161 179.646 121.682 181.02 121.682C182.667 121.682 183.786 121.118 184.379 119.992C184.698 119.38 184.857 118.557 184.857 117.521V108.654H186.83V116.711C186.83 118.475 186.592 119.833 186.117 120.783C185.245 122.515 183.598 123.381 181.176 123.381C178.754 123.381 177.11 122.515 176.244 120.783C175.769 119.833 175.531 118.475 175.531 116.711V108.654H177.504ZM190.658 119.719C190.71 120.305 190.857 120.754 191.098 121.066C191.54 121.633 192.309 121.916 193.402 121.916C194.053 121.916 194.626 121.776 195.121 121.496C195.616 121.21 195.863 120.77 195.863 120.178C195.863 119.729 195.665 119.387 195.268 119.152C195.014 119.009 194.512 118.843 193.764 118.654L192.367 118.303C191.475 118.081 190.818 117.834 190.395 117.561C189.639 117.085 189.262 116.428 189.262 115.588C189.262 114.598 189.617 113.798 190.326 113.186C191.042 112.574 192.003 112.268 193.207 112.268C194.783 112.268 195.919 112.73 196.615 113.654C197.051 114.24 197.263 114.872 197.25 115.549H195.59C195.557 115.152 195.417 114.79 195.17 114.465C194.766 114.003 194.066 113.771 193.07 113.771C192.406 113.771 191.902 113.898 191.557 114.152C191.218 114.406 191.049 114.742 191.049 115.158C191.049 115.614 191.273 115.979 191.723 116.252C191.983 116.415 192.367 116.558 192.875 116.682L194.037 116.965C195.3 117.271 196.146 117.567 196.576 117.854C197.26 118.303 197.602 119.009 197.602 119.973C197.602 120.904 197.247 121.708 196.537 122.385C195.834 123.062 194.76 123.4 193.314 123.4C191.758 123.4 190.655 123.049 190.004 122.346C189.359 121.636 189.014 120.76 188.969 119.719H190.658Z" fill="black"/>
<path d="M124.887 159.121L122.709 152.783L120.395 159.121H124.887ZM121.693 150.654H123.891L129.096 165H126.967L125.512 160.703H119.838L118.285 165H116.293L121.693 150.654ZM130.678 150.654H132.436V165H130.678V150.654ZM135.131 150.654H136.889V165H135.131V150.654ZM150.727 156.719C151.547 156.719 152.185 156.605 152.641 156.377C153.357 156.019 153.715 155.374 153.715 154.443C153.715 153.506 153.334 152.874 152.572 152.549C152.143 152.367 151.505 152.275 150.658 152.275H147.191V156.719H150.727ZM151.381 163.34C152.572 163.34 153.422 162.995 153.93 162.305C154.249 161.868 154.408 161.341 154.408 160.723C154.408 159.681 153.943 158.971 153.012 158.594C152.517 158.392 151.863 158.291 151.049 158.291H147.191V163.34H151.381ZM145.287 150.654H151.449C153.129 150.654 154.324 151.156 155.033 152.158C155.45 152.751 155.658 153.434 155.658 154.209C155.658 155.114 155.401 155.856 154.887 156.436C154.62 156.742 154.236 157.021 153.734 157.275C154.47 157.555 155.02 157.871 155.385 158.223C156.029 158.848 156.352 159.71 156.352 160.811C156.352 161.735 156.062 162.572 155.482 163.32C154.617 164.44 153.24 165 151.352 165H145.287V150.654ZM162.797 154.307C163.539 154.307 164.258 154.482 164.955 154.834C165.652 155.179 166.182 155.628 166.547 156.182C166.898 156.709 167.133 157.324 167.25 158.027C167.354 158.509 167.406 159.277 167.406 160.332H159.74C159.773 161.393 160.023 162.246 160.492 162.891C160.961 163.529 161.687 163.848 162.67 163.848C163.588 163.848 164.32 163.545 164.867 162.939C165.18 162.588 165.401 162.181 165.531 161.719H167.26C167.214 162.103 167.061 162.533 166.801 163.008C166.547 163.477 166.26 163.861 165.941 164.16C165.408 164.681 164.747 165.033 163.959 165.215C163.536 165.319 163.057 165.371 162.523 165.371C161.221 165.371 160.118 164.899 159.213 163.955C158.308 163.005 157.855 161.676 157.855 159.971C157.855 158.291 158.311 156.927 159.223 155.879C160.134 154.831 161.326 154.307 162.797 154.307ZM165.6 158.936C165.528 158.174 165.362 157.565 165.102 157.109C164.62 156.263 163.816 155.84 162.689 155.84C161.882 155.84 161.205 156.133 160.658 156.719C160.111 157.298 159.822 158.037 159.789 158.936H165.6ZM169.926 151.621H171.703V154.541H173.373V155.977H171.703V162.803C171.703 163.167 171.827 163.411 172.074 163.535C172.211 163.607 172.439 163.643 172.758 163.643C172.842 163.643 172.934 163.643 173.031 163.643C173.129 163.636 173.243 163.626 173.373 163.613V165C173.171 165.059 172.96 165.101 172.738 165.127C172.523 165.153 172.289 165.166 172.035 165.166C171.215 165.166 170.658 164.958 170.365 164.541C170.072 164.118 169.926 163.571 169.926 162.9V155.977H168.51V154.541H169.926V151.621ZM176.186 161.719C176.238 162.305 176.384 162.754 176.625 163.066C177.068 163.633 177.836 163.916 178.93 163.916C179.581 163.916 180.154 163.776 180.648 163.496C181.143 163.21 181.391 162.77 181.391 162.178C181.391 161.729 181.192 161.387 180.795 161.152C180.541 161.009 180.04 160.843 179.291 160.654L177.895 160.303C177.003 160.081 176.345 159.834 175.922 159.561C175.167 159.085 174.789 158.428 174.789 157.588C174.789 156.598 175.144 155.798 175.854 155.186C176.57 154.574 177.53 154.268 178.734 154.268C180.31 154.268 181.446 154.73 182.143 155.654C182.579 156.24 182.79 156.872 182.777 157.549H181.117C181.085 157.152 180.945 156.79 180.697 156.465C180.294 156.003 179.594 155.771 178.598 155.771C177.934 155.771 177.429 155.898 177.084 156.152C176.745 156.406 176.576 156.742 176.576 157.158C176.576 157.614 176.801 157.979 177.25 158.252C177.51 158.415 177.895 158.558 178.402 158.682L179.564 158.965C180.827 159.271 181.674 159.567 182.104 159.854C182.787 160.303 183.129 161.009 183.129 161.973C183.129 162.904 182.774 163.708 182.064 164.385C181.361 165.062 180.287 165.4 178.842 165.4C177.286 165.4 176.182 165.049 175.531 164.346C174.887 163.636 174.542 162.76 174.496 161.719H176.186Z" fill="black"/>
<path d="M125.004 21.7734L128.91 24.8691L126.918 26.5684L123.08 23.4727L125.004 21.7734ZM129.047 16.5781V17.2129C129.047 18.2936 128.897 19.2637 128.598 20.123C128.298 20.9824 127.875 21.7148 127.328 22.3203C126.781 22.9258 126.133 23.3913 125.385 23.7168C124.643 24.0358 123.819 24.1953 122.914 24.1953C122.009 24.1953 121.182 24.0358 120.434 23.7168C119.685 23.3913 119.034 22.9258 118.48 22.3203C117.934 21.7148 117.51 20.9824 117.211 20.123C116.911 19.2637 116.762 18.2936 116.762 17.2129V16.5781C116.762 15.4974 116.911 14.5273 117.211 13.668C117.51 12.8021 117.93 12.0664 118.471 11.4609C119.018 10.8555 119.665 10.3932 120.414 10.0742C121.163 9.7487 121.99 9.58594 122.895 9.58594C123.799 9.58594 124.626 9.7487 125.375 10.0742C126.124 10.3932 126.771 10.8555 127.318 11.4609C127.865 12.0664 128.288 12.8021 128.588 13.668C128.894 14.5273 129.047 15.4974 129.047 16.5781ZM125.814 17.2129V16.5586C125.814 15.8359 125.749 15.1979 125.619 14.6445C125.495 14.0846 125.307 13.6159 125.053 13.2383C124.805 12.8607 124.499 12.5775 124.135 12.3887C123.77 12.1934 123.357 12.0957 122.895 12.0957C122.419 12.0957 121.999 12.1934 121.635 12.3887C121.277 12.5775 120.974 12.8607 120.727 13.2383C120.486 13.6159 120.3 14.0846 120.17 14.6445C120.046 15.1979 119.984 15.8359 119.984 16.5586V17.2129C119.984 17.929 120.046 18.5671 120.17 19.127C120.3 19.6803 120.489 20.1491 120.736 20.5332C120.984 20.9173 121.29 21.207 121.654 21.4023C122.019 21.5977 122.439 21.6953 122.914 21.6953C123.376 21.6953 123.786 21.5977 124.145 21.4023C124.509 21.207 124.815 20.9173 125.062 20.5332C125.31 20.1491 125.495 19.6803 125.619 19.127C125.749 18.5671 125.814 17.929 125.814 17.2129ZM137.025 21.4512V13.4336H140.092V24H137.221L137.025 21.4512ZM137.348 19.293L138.188 19.2734C138.188 19.9831 138.103 20.6374 137.934 21.2363C137.771 21.8353 137.523 22.3561 137.191 22.7988C136.866 23.2415 136.459 23.5866 135.971 23.834C135.489 24.0749 134.926 24.1953 134.281 24.1953C133.76 24.1953 133.282 24.1237 132.846 23.9805C132.416 23.8307 132.045 23.5996 131.732 23.2871C131.42 22.9681 131.179 22.5612 131.01 22.0664C130.84 21.5651 130.756 20.9661 130.756 20.2695V13.4336H133.803V20.2891C133.803 20.5625 133.835 20.7969 133.9 20.9922C133.972 21.181 134.066 21.3372 134.184 21.4609C134.307 21.5846 134.457 21.6758 134.633 21.7344C134.815 21.793 135.014 21.8223 135.229 21.8223C135.769 21.8223 136.192 21.7116 136.498 21.4902C136.811 21.2624 137.029 20.9596 137.152 20.582C137.283 20.1979 137.348 19.7682 137.348 19.293ZM145.287 13.4336V24H142.23V13.4336H145.287ZM142.045 10.6992C142.045 10.2565 142.201 9.89518 142.514 9.61523C142.826 9.32878 143.236 9.18555 143.744 9.18555C144.252 9.18555 144.662 9.32878 144.975 9.61523C145.294 9.89518 145.453 10.2565 145.453 10.6992C145.453 11.1354 145.294 11.4967 144.975 11.7832C144.662 12.0632 144.252 12.2031 143.744 12.2031C143.236 12.2031 142.826 12.0632 142.514 11.7832C142.201 11.4967 142.045 11.1354 142.045 10.6992ZM151.898 21.8223C152.224 21.8223 152.507 21.7604 152.748 21.6367C152.989 21.513 153.174 21.3405 153.305 21.1191C153.441 20.8913 153.51 20.6178 153.51 20.2988H156.381C156.381 21.0671 156.182 21.7441 155.785 22.3301C155.395 22.916 154.867 23.375 154.203 23.707C153.539 24.0326 152.79 24.1953 151.957 24.1953C151.137 24.1953 150.421 24.0618 149.809 23.7949C149.197 23.5215 148.686 23.1406 148.275 22.6523C147.865 22.1641 147.556 21.5977 147.348 20.9531C147.146 20.3021 147.045 19.599 147.045 18.8438V18.5898C147.045 17.8411 147.146 17.1413 147.348 16.4902C147.556 15.8392 147.865 15.2695 148.275 14.7812C148.686 14.293 149.193 13.9154 149.799 13.6484C150.411 13.375 151.127 13.2383 151.947 13.2383C152.813 13.2383 153.578 13.4043 154.242 13.7363C154.913 14.0684 155.437 14.5469 155.814 15.1719C156.192 15.7904 156.381 16.5358 156.381 17.4082H153.51C153.51 17.0697 153.448 16.7669 153.324 16.5C153.207 16.2266 153.025 16.0117 152.777 15.8555C152.536 15.6927 152.237 15.6113 151.879 15.6113C151.508 15.6113 151.202 15.6927 150.961 15.8555C150.727 16.0117 150.548 16.2298 150.424 16.5098C150.3 16.7897 150.215 17.1087 150.17 17.4668C150.124 17.8184 150.102 18.1927 150.102 18.5898V18.8438C150.102 19.2474 150.124 19.6315 150.17 19.9961C150.215 20.3542 150.3 20.6699 150.424 20.9434C150.554 21.2168 150.736 21.4316 150.971 21.5879C151.205 21.7441 151.514 21.8223 151.898 21.8223ZM160.961 8.99023V24H157.904V8.99023H160.961ZM167.67 13.4336L163.07 18.7461L160.639 21.1875L159.418 19.127L161.391 16.5781L163.998 13.4336H167.67ZM164.447 24L161.469 19.1465L163.656 17.4375L167.943 24H164.447ZM183.129 21.5391V24H175.951V21.5391H183.129ZM177.035 9.78125V24H173.852V9.78125H177.035ZM187.748 13.4336V24H184.691V13.4336H187.748ZM184.506 10.6992C184.506 10.2565 184.662 9.89518 184.975 9.61523C185.287 9.32878 185.697 9.18555 186.205 9.18555C186.713 9.18555 187.123 9.32878 187.436 9.61523C187.755 9.89518 187.914 10.2565 187.914 10.6992C187.914 11.1354 187.755 11.4967 187.436 11.7832C187.123 12.0632 186.713 12.2031 186.205 12.2031C185.697 12.2031 185.287 12.0632 184.975 11.7832C184.662 11.4967 184.506 11.1354 184.506 10.6992ZM192.934 15.6895V24H189.877V13.4336H192.748L192.934 15.6895ZM192.533 18.3457L191.771 18.3652C191.771 17.571 191.869 16.8581 192.064 16.2266C192.26 15.5951 192.536 15.0579 192.895 14.6152C193.259 14.166 193.692 13.8242 194.193 13.5898C194.701 13.3555 195.261 13.2383 195.873 13.2383C196.368 13.2383 196.82 13.3099 197.23 13.4531C197.641 13.5964 197.992 13.8275 198.285 14.1465C198.585 14.459 198.812 14.8757 198.969 15.3965C199.125 15.9108 199.203 16.5456 199.203 17.3008V24H196.137V17.291C196.137 16.8483 196.075 16.5065 195.951 16.2656C195.827 16.0247 195.645 15.8555 195.404 15.7578C195.17 15.6602 194.883 15.6113 194.545 15.6113C194.187 15.6113 193.881 15.6829 193.627 15.8262C193.373 15.9629 193.165 16.1549 193.002 16.4023C192.839 16.6497 192.719 16.9395 192.641 17.2715C192.569 17.6035 192.533 17.9616 192.533 18.3457ZM204.262 8.99023V24H201.205V8.99023H204.262ZM210.971 13.4336L206.371 18.7461L203.939 21.1875L202.719 19.127L204.691 16.5781L207.299 13.4336H210.971ZM207.748 24L204.77 19.1465L206.957 17.4375L211.244 24H207.748ZM217.641 21.0605C217.641 20.8652 217.579 20.6927 217.455 20.543C217.338 20.3932 217.123 20.2565 216.811 20.1328C216.505 20.0091 216.072 19.8854 215.512 19.7617C214.984 19.651 214.493 19.5078 214.037 19.332C213.581 19.1497 213.184 18.9316 212.846 18.6777C212.507 18.4173 212.243 18.1113 212.055 17.7598C211.866 17.4017 211.771 16.9948 211.771 16.5391C211.771 16.0964 211.866 15.6764 212.055 15.2793C212.25 14.8822 212.53 14.5306 212.895 14.2246C213.266 13.9186 213.715 13.6777 214.242 13.502C214.776 13.3262 215.382 13.2383 216.059 13.2383C216.99 13.2383 217.794 13.3848 218.471 13.6777C219.148 13.9642 219.669 14.3678 220.033 14.8887C220.398 15.403 220.58 15.9922 220.58 16.6562H217.533C217.533 16.3828 217.481 16.1452 217.377 15.9434C217.273 15.7415 217.113 15.5853 216.898 15.4746C216.684 15.3574 216.4 15.2988 216.049 15.2988C215.775 15.2988 215.535 15.3477 215.326 15.4453C215.124 15.5365 214.965 15.6634 214.848 15.8262C214.737 15.9889 214.682 16.1777 214.682 16.3926C214.682 16.5423 214.714 16.679 214.779 16.8027C214.851 16.9199 214.958 17.0306 215.102 17.1348C215.251 17.2324 215.443 17.3203 215.678 17.3984C215.919 17.4766 216.212 17.5514 216.557 17.623C217.292 17.7598 217.963 17.9518 218.568 18.1992C219.18 18.4466 219.669 18.7884 220.033 19.2246C220.404 19.6608 220.59 20.237 220.59 20.9531C220.59 21.4219 220.482 21.8516 220.268 22.2422C220.059 22.6328 219.757 22.9746 219.359 23.2676C218.962 23.5605 218.487 23.7884 217.934 23.9512C217.38 24.1139 216.755 24.1953 216.059 24.1953C215.062 24.1953 214.219 24.0163 213.529 23.6582C212.839 23.3001 212.318 22.8509 211.967 22.3105C211.622 21.7637 211.449 21.2038 211.449 20.6309H214.311C214.324 20.9824 214.411 21.2689 214.574 21.4902C214.743 21.7116 214.962 21.8743 215.229 21.9785C215.495 22.0762 215.795 22.125 216.127 22.125C216.459 22.125 216.736 22.0794 216.957 21.9883C217.178 21.8971 217.348 21.7734 217.465 21.6172C217.582 21.4544 217.641 21.2689 217.641 21.0605Z" fill="black"/>
<path d="M337.709 150.654H344.164C345.44 150.654 346.469 151.016 347.25 151.738C348.031 152.454 348.422 153.464 348.422 154.766C348.422 155.885 348.074 156.862 347.377 157.695C346.68 158.522 345.609 158.936 344.164 158.936H339.652V165H337.709V150.654ZM346.459 154.775C346.459 153.721 346.068 153.005 345.287 152.627C344.857 152.425 344.268 152.324 343.52 152.324H339.652V157.295H343.52C344.392 157.295 345.098 157.109 345.639 156.738C346.186 156.367 346.459 155.713 346.459 154.775ZM350.678 154.541H352.348V156.348C352.484 155.996 352.82 155.57 353.354 155.068C353.887 154.561 354.503 154.307 355.199 154.307C355.232 154.307 355.287 154.31 355.365 154.316C355.443 154.323 355.577 154.336 355.766 154.355V156.211C355.661 156.191 355.564 156.178 355.473 156.172C355.388 156.165 355.294 156.162 355.189 156.162C354.304 156.162 353.624 156.449 353.148 157.021C352.673 157.588 352.436 158.242 352.436 158.984V165H350.678V154.541ZM357.289 154.59H359.076V165H357.289V154.59ZM357.289 150.654H359.076V152.646H357.289V150.654ZM362.602 154.541L365.395 163.057L368.314 154.541H370.238L366.293 165H364.418L360.561 154.541H362.602ZM373.09 162.217C373.09 162.725 373.275 163.125 373.646 163.418C374.018 163.711 374.457 163.857 374.965 163.857C375.583 163.857 376.182 163.714 376.762 163.428C377.738 162.952 378.227 162.174 378.227 161.094V159.678C378.012 159.814 377.735 159.928 377.396 160.02C377.058 160.111 376.726 160.176 376.4 160.215L375.336 160.352C374.698 160.436 374.219 160.57 373.9 160.752C373.36 161.058 373.09 161.546 373.09 162.217ZM377.348 158.662C377.751 158.61 378.021 158.441 378.158 158.154C378.236 157.998 378.275 157.773 378.275 157.48C378.275 156.882 378.061 156.449 377.631 156.182C377.208 155.908 376.599 155.771 375.805 155.771C374.887 155.771 374.236 156.019 373.852 156.514C373.637 156.787 373.497 157.194 373.432 157.734H371.791C371.824 156.445 372.24 155.55 373.041 155.049C373.848 154.541 374.783 154.287 375.844 154.287C377.074 154.287 378.074 154.521 378.842 154.99C379.604 155.459 379.984 156.188 379.984 157.178V163.203C379.984 163.385 380.02 163.532 380.092 163.643C380.17 163.753 380.329 163.809 380.57 163.809C380.648 163.809 380.736 163.805 380.834 163.799C380.932 163.786 381.036 163.77 381.146 163.75V165.049C380.873 165.127 380.665 165.176 380.521 165.195C380.378 165.215 380.183 165.225 379.936 165.225C379.33 165.225 378.891 165.01 378.617 164.58C378.474 164.352 378.373 164.03 378.314 163.613C377.956 164.082 377.442 164.489 376.771 164.834C376.101 165.179 375.362 165.352 374.555 165.352C373.585 165.352 372.79 165.059 372.172 164.473C371.56 163.88 371.254 163.141 371.254 162.256C371.254 161.286 371.557 160.534 372.162 160C372.768 159.466 373.562 159.137 374.545 159.014L377.348 158.662ZM386.908 154.238C388.087 154.238 389.044 154.525 389.779 155.098C390.521 155.671 390.967 156.657 391.117 158.057H389.408C389.304 157.412 389.066 156.878 388.695 156.455C388.324 156.025 387.729 155.811 386.908 155.811C385.788 155.811 384.988 156.357 384.506 157.451C384.193 158.161 384.037 159.036 384.037 160.078C384.037 161.126 384.258 162.008 384.701 162.725C385.144 163.441 385.84 163.799 386.791 163.799C387.52 163.799 388.096 163.577 388.52 163.135C388.949 162.686 389.245 162.074 389.408 161.299H391.117C390.922 162.686 390.434 163.701 389.652 164.346C388.871 164.984 387.872 165.303 386.654 165.303C385.287 165.303 384.197 164.805 383.383 163.809C382.569 162.806 382.162 161.556 382.162 160.059C382.162 158.223 382.608 156.794 383.5 155.771C384.392 154.749 385.528 154.238 386.908 154.238ZM399.408 154.541H401.352C401.104 155.212 400.554 156.742 399.701 159.131C399.063 160.928 398.529 162.393 398.1 163.525C397.084 166.195 396.368 167.822 395.951 168.408C395.535 168.994 394.818 169.287 393.803 169.287C393.555 169.287 393.363 169.277 393.227 169.258C393.096 169.238 392.934 169.202 392.738 169.15V167.549C393.044 167.633 393.266 167.686 393.402 167.705C393.539 167.725 393.66 167.734 393.764 167.734C394.089 167.734 394.327 167.679 394.477 167.568C394.633 167.464 394.763 167.334 394.867 167.178C394.9 167.126 395.017 166.859 395.219 166.377C395.421 165.895 395.567 165.537 395.658 165.303L391.791 154.541H393.783L396.586 163.057L399.408 154.541ZM408.861 150.654H415.316C416.592 150.654 417.621 151.016 418.402 151.738C419.184 152.454 419.574 153.464 419.574 154.766C419.574 155.885 419.226 156.862 418.529 157.695C417.833 158.522 416.762 158.936 415.316 158.936H410.805V165H408.861V150.654ZM417.611 154.775C417.611 153.721 417.221 153.005 416.439 152.627C416.01 152.425 415.421 152.324 414.672 152.324H410.805V157.295H414.672C415.544 157.295 416.251 157.109 416.791 156.738C417.338 156.367 417.611 155.713 417.611 154.775ZM425.932 163.867C427.097 163.867 427.895 163.428 428.324 162.549C428.76 161.663 428.979 160.68 428.979 159.6C428.979 158.623 428.822 157.829 428.51 157.217C428.015 156.253 427.162 155.771 425.951 155.771C424.877 155.771 424.096 156.182 423.607 157.002C423.119 157.822 422.875 158.812 422.875 159.971C422.875 161.084 423.119 162.012 423.607 162.754C424.096 163.496 424.87 163.867 425.932 163.867ZM426 154.238C427.348 154.238 428.487 154.688 429.418 155.586C430.349 156.484 430.814 157.806 430.814 159.551C430.814 161.237 430.404 162.63 429.584 163.73C428.764 164.831 427.491 165.381 425.766 165.381C424.327 165.381 423.184 164.896 422.338 163.926C421.492 162.949 421.068 161.641 421.068 160C421.068 158.242 421.514 156.842 422.406 155.801C423.298 154.759 424.496 154.238 426 154.238ZM432.963 150.654H434.721V165H432.963V150.654ZM437.367 154.59H439.154V165H437.367V154.59ZM437.367 150.654H439.154V152.646H437.367V150.654ZM445.854 154.238C447.032 154.238 447.989 154.525 448.725 155.098C449.467 155.671 449.913 156.657 450.062 158.057H448.354C448.249 157.412 448.012 156.878 447.641 156.455C447.27 156.025 446.674 155.811 445.854 155.811C444.734 155.811 443.933 156.357 443.451 157.451C443.139 158.161 442.982 159.036 442.982 160.078C442.982 161.126 443.204 162.008 443.646 162.725C444.089 163.441 444.786 163.799 445.736 163.799C446.465 163.799 447.042 163.577 447.465 163.135C447.895 162.686 448.191 162.074 448.354 161.299H450.062C449.867 162.686 449.379 163.701 448.598 164.346C447.816 164.984 446.817 165.303 445.6 165.303C444.232 165.303 443.142 164.805 442.328 163.809C441.514 162.806 441.107 161.556 441.107 160.059C441.107 158.223 441.553 156.794 442.445 155.771C443.337 154.749 444.473 154.238 445.854 154.238ZM458.354 154.541H460.297C460.049 155.212 459.499 156.742 458.646 159.131C458.008 160.928 457.475 162.393 457.045 163.525C456.029 166.195 455.313 167.822 454.896 168.408C454.48 168.994 453.764 169.287 452.748 169.287C452.501 169.287 452.309 169.277 452.172 169.258C452.042 169.238 451.879 169.202 451.684 169.15V167.549C451.99 167.633 452.211 167.686 452.348 167.705C452.484 167.725 452.605 167.734 452.709 167.734C453.035 167.734 453.272 167.679 453.422 167.568C453.578 167.464 453.708 167.334 453.812 167.178C453.845 167.126 453.962 166.859 454.164 166.377C454.366 165.895 454.512 165.537 454.604 165.303L450.736 154.541H452.729L455.531 163.057L458.354 154.541Z" fill="black"/>
<path d="M347.963 108.654V110.363H343.129V123H341.156V110.363H336.322V108.654H347.963ZM351.645 112.307C352.387 112.307 353.106 112.482 353.803 112.834C354.499 113.179 355.03 113.628 355.395 114.182C355.746 114.709 355.98 115.324 356.098 116.027C356.202 116.509 356.254 117.277 356.254 118.332H348.588C348.62 119.393 348.871 120.246 349.34 120.891C349.809 121.529 350.535 121.848 351.518 121.848C352.436 121.848 353.168 121.545 353.715 120.939C354.027 120.588 354.249 120.181 354.379 119.719H356.107C356.062 120.103 355.909 120.533 355.648 121.008C355.395 121.477 355.108 121.861 354.789 122.16C354.255 122.681 353.594 123.033 352.807 123.215C352.383 123.319 351.905 123.371 351.371 123.371C350.069 123.371 348.965 122.899 348.061 121.955C347.156 121.005 346.703 119.676 346.703 117.971C346.703 116.291 347.159 114.927 348.07 113.879C348.982 112.831 350.173 112.307 351.645 112.307ZM354.447 116.936C354.376 116.174 354.21 115.565 353.949 115.109C353.467 114.263 352.663 113.84 351.537 113.84C350.73 113.84 350.053 114.133 349.506 114.719C348.959 115.298 348.669 116.037 348.637 116.936H354.447ZM358.471 112.541H360.141V114.348C360.277 113.996 360.613 113.57 361.146 113.068C361.68 112.561 362.296 112.307 362.992 112.307C363.025 112.307 363.08 112.31 363.158 112.316C363.236 112.323 363.37 112.336 363.559 112.355V114.211C363.454 114.191 363.357 114.178 363.266 114.172C363.181 114.165 363.087 114.162 362.982 114.162C362.097 114.162 361.417 114.449 360.941 115.021C360.466 115.588 360.229 116.242 360.229 116.984V123H358.471V112.541ZM365.082 112.541H366.82V114.025C367.237 113.511 367.615 113.137 367.953 112.902C368.533 112.505 369.19 112.307 369.926 112.307C370.759 112.307 371.43 112.512 371.938 112.922C372.224 113.156 372.484 113.501 372.719 113.957C373.109 113.397 373.568 112.984 374.096 112.717C374.623 112.443 375.215 112.307 375.873 112.307C377.279 112.307 378.236 112.814 378.744 113.83C379.018 114.377 379.154 115.113 379.154 116.037V123H377.328V115.734C377.328 115.038 377.152 114.559 376.801 114.299C376.456 114.038 376.033 113.908 375.531 113.908C374.841 113.908 374.245 114.139 373.744 114.602C373.249 115.064 373.002 115.835 373.002 116.916V123H371.215V116.174C371.215 115.464 371.13 114.947 370.961 114.621C370.694 114.133 370.196 113.889 369.467 113.889C368.803 113.889 368.197 114.146 367.65 114.66C367.11 115.174 366.84 116.105 366.84 117.453V123H365.082V112.541ZM382.787 119.719C382.839 120.305 382.986 120.754 383.227 121.066C383.669 121.633 384.438 121.916 385.531 121.916C386.182 121.916 386.755 121.776 387.25 121.496C387.745 121.21 387.992 120.77 387.992 120.178C387.992 119.729 387.794 119.387 387.396 119.152C387.143 119.009 386.641 118.843 385.893 118.654L384.496 118.303C383.604 118.081 382.947 117.834 382.523 117.561C381.768 117.085 381.391 116.428 381.391 115.588C381.391 114.598 381.745 113.798 382.455 113.186C383.171 112.574 384.132 112.268 385.336 112.268C386.911 112.268 388.048 112.73 388.744 113.654C389.18 114.24 389.392 114.872 389.379 115.549H387.719C387.686 115.152 387.546 114.79 387.299 114.465C386.895 114.003 386.195 113.771 385.199 113.771C384.535 113.771 384.031 113.898 383.686 114.152C383.347 114.406 383.178 114.742 383.178 115.158C383.178 115.614 383.402 115.979 383.852 116.252C384.112 116.415 384.496 116.558 385.004 116.682L386.166 116.965C387.429 117.271 388.275 117.567 388.705 117.854C389.389 118.303 389.73 119.009 389.73 119.973C389.73 120.904 389.376 121.708 388.666 122.385C387.963 123.062 386.889 123.4 385.443 123.4C383.887 123.4 382.784 123.049 382.133 122.346C381.488 121.636 381.143 120.76 381.098 119.719H382.787ZM401.459 121.867C402.624 121.867 403.422 121.428 403.852 120.549C404.288 119.663 404.506 118.68 404.506 117.6C404.506 116.623 404.35 115.829 404.037 115.217C403.542 114.253 402.689 113.771 401.479 113.771C400.404 113.771 399.623 114.182 399.135 115.002C398.646 115.822 398.402 116.812 398.402 117.971C398.402 119.084 398.646 120.012 399.135 120.754C399.623 121.496 400.398 121.867 401.459 121.867ZM401.527 112.238C402.875 112.238 404.014 112.688 404.945 113.586C405.876 114.484 406.342 115.806 406.342 117.551C406.342 119.237 405.932 120.63 405.111 121.73C404.291 122.831 403.018 123.381 401.293 123.381C399.854 123.381 398.712 122.896 397.865 121.926C397.019 120.949 396.596 119.641 396.596 118C396.596 116.242 397.042 114.842 397.934 113.801C398.826 112.759 400.023 112.238 401.527 112.238ZM408.881 110.949C408.907 110.22 409.034 109.686 409.262 109.348C409.672 108.749 410.463 108.449 411.635 108.449C411.745 108.449 411.859 108.452 411.977 108.459C412.094 108.465 412.227 108.475 412.377 108.488V110.09C412.195 110.077 412.061 110.07 411.977 110.07C411.898 110.064 411.824 110.061 411.752 110.061C411.218 110.061 410.899 110.201 410.795 110.48C410.691 110.754 410.639 111.457 410.639 112.59H412.377V113.977H410.619V123H408.881V113.977H407.426V112.59H408.881V110.949ZM421.078 118.371C421.124 119.185 421.316 119.846 421.654 120.354C422.299 121.304 423.435 121.779 425.062 121.779C425.792 121.779 426.456 121.675 427.055 121.467C428.214 121.063 428.793 120.34 428.793 119.299C428.793 118.518 428.549 117.961 428.061 117.629C427.566 117.303 426.791 117.02 425.736 116.779L423.793 116.34C422.523 116.053 421.625 115.738 421.098 115.393C420.186 114.794 419.73 113.898 419.73 112.707C419.73 111.418 420.176 110.36 421.068 109.533C421.96 108.706 423.223 108.293 424.857 108.293C426.361 108.293 427.637 108.658 428.686 109.387C429.74 110.109 430.268 111.268 430.268 112.863H428.441C428.344 112.095 428.135 111.506 427.816 111.096C427.224 110.347 426.218 109.973 424.799 109.973C423.653 109.973 422.829 110.214 422.328 110.695C421.827 111.177 421.576 111.737 421.576 112.375C421.576 113.078 421.869 113.592 422.455 113.918C422.839 114.126 423.708 114.387 425.062 114.699L427.074 115.158C428.044 115.38 428.793 115.682 429.32 116.066C430.232 116.737 430.688 117.71 430.688 118.986C430.688 120.575 430.108 121.711 428.949 122.395C427.797 123.078 426.456 123.42 424.926 123.42C423.142 123.42 421.745 122.964 420.736 122.053C419.727 121.148 419.232 119.921 419.252 118.371H421.078ZM437.27 112.307C438.012 112.307 438.731 112.482 439.428 112.834C440.124 113.179 440.655 113.628 441.02 114.182C441.371 114.709 441.605 115.324 441.723 116.027C441.827 116.509 441.879 117.277 441.879 118.332H434.213C434.245 119.393 434.496 120.246 434.965 120.891C435.434 121.529 436.16 121.848 437.143 121.848C438.061 121.848 438.793 121.545 439.34 120.939C439.652 120.588 439.874 120.181 440.004 119.719H441.732C441.687 120.103 441.534 120.533 441.273 121.008C441.02 121.477 440.733 121.861 440.414 122.16C439.88 122.681 439.219 123.033 438.432 123.215C438.008 123.319 437.53 123.371 436.996 123.371C435.694 123.371 434.59 122.899 433.686 121.955C432.781 121.005 432.328 119.676 432.328 117.971C432.328 116.291 432.784 114.927 433.695 113.879C434.607 112.831 435.798 112.307 437.27 112.307ZM440.072 116.936C440.001 116.174 439.835 115.565 439.574 115.109C439.092 114.263 438.288 113.84 437.162 113.84C436.355 113.84 435.678 114.133 435.131 114.719C434.584 115.298 434.294 116.037 434.262 116.936H440.072ZM444.096 112.541H445.766V114.348C445.902 113.996 446.238 113.57 446.771 113.068C447.305 112.561 447.921 112.307 448.617 112.307C448.65 112.307 448.705 112.31 448.783 112.316C448.861 112.323 448.995 112.336 449.184 112.355V114.211C449.079 114.191 448.982 114.178 448.891 114.172C448.806 114.165 448.712 114.162 448.607 114.162C447.722 114.162 447.042 114.449 446.566 115.021C446.091 115.588 445.854 116.242 445.854 116.984V123H444.096V112.541ZM451.566 112.541L454.359 121.057L457.279 112.541H459.203L455.258 123H453.383L449.525 112.541H451.566ZM460.707 112.59H462.494V123H460.707V112.59ZM460.707 108.654H462.494V110.646H460.707V108.654ZM469.193 112.238C470.372 112.238 471.329 112.525 472.064 113.098C472.807 113.671 473.253 114.657 473.402 116.057H471.693C471.589 115.412 471.352 114.878 470.98 114.455C470.609 114.025 470.014 113.811 469.193 113.811C468.074 113.811 467.273 114.357 466.791 115.451C466.479 116.161 466.322 117.036 466.322 118.078C466.322 119.126 466.544 120.008 466.986 120.725C467.429 121.441 468.126 121.799 469.076 121.799C469.805 121.799 470.382 121.577 470.805 121.135C471.234 120.686 471.531 120.074 471.693 119.299H473.402C473.207 120.686 472.719 121.701 471.938 122.346C471.156 122.984 470.157 123.303 468.939 123.303C467.572 123.303 466.482 122.805 465.668 121.809C464.854 120.806 464.447 119.556 464.447 118.059C464.447 116.223 464.893 114.794 465.785 113.771C466.677 112.749 467.813 112.238 469.193 112.238ZM479.516 112.307C480.258 112.307 480.977 112.482 481.674 112.834C482.37 113.179 482.901 113.628 483.266 114.182C483.617 114.709 483.852 115.324 483.969 116.027C484.073 116.509 484.125 117.277 484.125 118.332H476.459C476.492 119.393 476.742 120.246 477.211 120.891C477.68 121.529 478.406 121.848 479.389 121.848C480.307 121.848 481.039 121.545 481.586 120.939C481.898 120.588 482.12 120.181 482.25 119.719H483.979C483.933 120.103 483.78 120.533 483.52 121.008C483.266 121.477 482.979 121.861 482.66 122.16C482.126 122.681 481.465 123.033 480.678 123.215C480.255 123.319 479.776 123.371 479.242 123.371C477.94 123.371 476.837 122.899 475.932 121.955C475.027 121.005 474.574 119.676 474.574 117.971C474.574 116.291 475.03 114.927 475.941 113.879C476.853 112.831 478.044 112.307 479.516 112.307ZM482.318 116.936C482.247 116.174 482.081 115.565 481.82 115.109C481.339 114.263 480.535 113.84 479.408 113.84C478.601 113.84 477.924 114.133 477.377 114.719C476.83 115.298 476.54 116.037 476.508 116.936H482.318Z" fill="black"/>
<path d="M337.709 66.6543H347.66V68.4121H339.652V72.7676H346.693V74.4766H339.652V81H337.709V66.6543ZM356.02 75.1211L353.842 68.7832L351.527 75.1211H356.02ZM352.826 66.6543H355.023L360.229 81H358.1L356.645 76.7031H350.971L349.418 81H347.426L352.826 66.6543ZM375.121 80.9609L374.145 82.1426L371.928 80.4531C371.394 80.7461 370.814 80.9805 370.189 81.1562C369.571 81.332 368.894 81.4199 368.158 81.4199C365.932 81.4199 364.187 80.6908 362.924 79.2324C361.811 77.8132 361.254 76.0358 361.254 73.9004C361.254 71.9603 361.736 70.3001 362.699 68.9199C363.936 67.1491 365.766 66.2637 368.188 66.2637C370.72 66.2637 372.595 67.0775 373.812 68.7051C374.763 69.9746 375.238 71.599 375.238 73.5781C375.238 74.5026 375.124 75.3913 374.896 76.2441C374.551 77.5462 373.969 78.6074 373.148 79.4277L375.121 80.9609ZM368.393 79.6816C368.796 79.6816 369.174 79.6556 369.525 79.6035C369.877 79.5449 370.183 79.4342 370.443 79.2715L368.871 78.041L369.848 76.8398L371.723 78.2949C372.315 77.6178 372.715 76.8594 372.924 76.0195C373.139 75.1797 373.246 74.3757 373.246 73.6074C373.246 71.9212 372.803 70.5638 371.918 69.5352C371.039 68.5065 369.835 67.9922 368.305 67.9922C366.755 67.9922 365.528 68.487 364.623 69.4766C363.718 70.4596 363.266 71.9766 363.266 74.0273C363.266 75.7526 363.699 77.1263 364.564 78.1484C365.437 79.1706 366.713 79.6816 368.393 79.6816Z" fill="black"/>
<path d="M344.545 20.25C344.545 20.0091 344.509 19.7943 344.438 19.6055C344.366 19.4102 344.236 19.2311 344.047 19.0684C343.858 18.9056 343.591 18.7428 343.246 18.5801C342.901 18.4108 342.449 18.2383 341.889 18.0625C341.251 17.8542 340.642 17.6198 340.062 17.3594C339.49 17.0924 338.979 16.7832 338.529 16.4316C338.08 16.0801 337.725 15.6699 337.465 15.2012C337.211 14.7324 337.084 14.1855 337.084 13.5605C337.084 12.9551 337.217 12.4082 337.484 11.9199C337.751 11.4316 338.126 11.015 338.607 10.6699C339.089 10.3184 339.656 10.0514 340.307 9.86914C340.958 9.68034 341.674 9.58594 342.455 9.58594C343.497 9.58594 344.411 9.77148 345.199 10.1426C345.993 10.5072 346.612 11.0215 347.055 11.6855C347.497 12.3431 347.719 13.1081 347.719 13.9805H344.555C344.555 13.5964 344.473 13.2578 344.311 12.9648C344.154 12.6654 343.913 12.431 343.588 12.2617C343.269 12.0924 342.868 12.0078 342.387 12.0078C341.918 12.0078 341.524 12.0794 341.205 12.2227C340.893 12.3594 340.655 12.5482 340.492 12.7891C340.336 13.0299 340.258 13.2936 340.258 13.5801C340.258 13.8079 340.316 14.0163 340.434 14.2051C340.557 14.3874 340.733 14.5599 340.961 14.7227C341.195 14.8789 341.482 15.0286 341.82 15.1719C342.159 15.3151 342.546 15.4518 342.982 15.582C343.744 15.8229 344.418 16.0898 345.004 16.3828C345.596 16.6758 346.094 17.0078 346.498 17.3789C346.902 17.75 347.204 18.1699 347.406 18.6387C347.615 19.1074 347.719 19.638 347.719 20.2305C347.719 20.862 347.595 21.4219 347.348 21.9102C347.107 22.3984 346.755 22.8151 346.293 23.1602C345.837 23.4987 345.29 23.7559 344.652 23.9316C344.014 24.1074 343.301 24.1953 342.514 24.1953C341.798 24.1953 341.091 24.1042 340.395 23.9219C339.698 23.7331 339.066 23.4466 338.5 23.0625C337.94 22.6784 337.491 22.1901 337.152 21.5977C336.82 20.9987 336.654 20.2891 336.654 19.4688H339.838C339.838 19.8984 339.9 20.263 340.023 20.5625C340.147 20.8555 340.323 21.0931 340.551 21.2754C340.785 21.4577 341.068 21.5879 341.4 21.666C341.732 21.7441 342.104 21.7832 342.514 21.7832C342.989 21.7832 343.373 21.7181 343.666 21.5879C343.965 21.4512 344.187 21.2656 344.33 21.0312C344.473 20.7969 344.545 20.5365 344.545 20.25ZM355.639 21.4512V13.4336H358.705V24H355.834L355.639 21.4512ZM355.961 19.293L356.801 19.2734C356.801 19.9831 356.716 20.6374 356.547 21.2363C356.384 21.8353 356.137 22.3561 355.805 22.7988C355.479 23.2415 355.072 23.5866 354.584 23.834C354.102 24.0749 353.539 24.1953 352.895 24.1953C352.374 24.1953 351.895 24.1237 351.459 23.9805C351.029 23.8307 350.658 23.5996 350.346 23.2871C350.033 22.9681 349.792 22.5612 349.623 22.0664C349.454 21.5651 349.369 20.9661 349.369 20.2695V13.4336H352.416V20.2891C352.416 20.5625 352.449 20.7969 352.514 20.9922C352.585 21.181 352.68 21.3372 352.797 21.4609C352.921 21.5846 353.07 21.6758 353.246 21.7344C353.428 21.793 353.627 21.8223 353.842 21.8223C354.382 21.8223 354.805 21.7116 355.111 21.4902C355.424 21.2624 355.642 20.9596 355.766 20.582C355.896 20.1979 355.961 19.7682 355.961 19.293ZM363.744 15.4648V28.0625H360.697V13.4336H363.539L363.744 15.4648ZM370.336 18.5996V18.8047C370.336 19.5729 370.248 20.2858 370.072 20.9434C369.896 21.5944 369.633 22.1641 369.281 22.6523C368.936 23.1406 368.51 23.5215 368.002 23.7949C367.494 24.0618 366.905 24.1953 366.234 24.1953C365.596 24.1953 365.043 24.0618 364.574 23.7949C364.112 23.5215 363.721 23.1439 363.402 22.6621C363.09 22.1738 362.836 21.6172 362.641 20.9922C362.452 20.3607 362.305 19.6868 362.201 18.9707V18.5703C362.305 17.8086 362.455 17.1022 362.65 16.4512C362.846 15.8001 363.1 15.237 363.412 14.7617C363.725 14.2799 364.112 13.9056 364.574 13.6387C365.036 13.3717 365.587 13.2383 366.225 13.2383C366.889 13.2383 367.478 13.3652 367.992 13.6191C368.507 13.873 368.936 14.2376 369.281 14.7129C369.633 15.1816 369.896 15.7448 370.072 16.4023C370.248 17.0599 370.336 17.7923 370.336 18.5996ZM367.279 18.8047V18.5996C367.279 18.1699 367.247 17.776 367.182 17.418C367.117 17.0534 367.012 16.7376 366.869 16.4707C366.726 16.1973 366.537 15.9857 366.303 15.8359C366.068 15.6862 365.782 15.6113 365.443 15.6113C365.079 15.6113 364.77 15.6699 364.516 15.7871C364.262 15.9043 364.057 16.0768 363.9 16.3047C363.744 16.526 363.63 16.7995 363.559 17.125C363.493 17.4505 363.458 17.8216 363.451 18.2383V19.3125C363.458 19.8008 363.526 20.237 363.656 20.6211C363.793 20.9987 364.005 21.2949 364.291 21.5098C364.584 21.7181 364.975 21.8223 365.463 21.8223C365.808 21.8223 366.094 21.7474 366.322 21.5977C366.557 21.4414 366.742 21.2233 366.879 20.9434C367.022 20.6634 367.123 20.3411 367.182 19.9766C367.247 19.612 367.279 19.2214 367.279 18.8047ZM375.014 15.4648V28.0625H371.967V13.4336H374.809L375.014 15.4648ZM381.605 18.5996V18.8047C381.605 19.5729 381.518 20.2858 381.342 20.9434C381.166 21.5944 380.902 22.1641 380.551 22.6523C380.206 23.1406 379.779 23.5215 379.271 23.7949C378.764 24.0618 378.174 24.1953 377.504 24.1953C376.866 24.1953 376.312 24.0618 375.844 23.7949C375.382 23.5215 374.991 23.1439 374.672 22.6621C374.359 22.1738 374.105 21.6172 373.91 20.9922C373.721 20.3607 373.575 19.6868 373.471 18.9707V18.5703C373.575 17.8086 373.725 17.1022 373.92 16.4512C374.115 15.8001 374.369 15.237 374.682 14.7617C374.994 14.2799 375.382 13.9056 375.844 13.6387C376.306 13.3717 376.856 13.2383 377.494 13.2383C378.158 13.2383 378.747 13.3652 379.262 13.6191C379.776 13.873 380.206 14.2376 380.551 14.7129C380.902 15.1816 381.166 15.7448 381.342 16.4023C381.518 17.0599 381.605 17.7923 381.605 18.5996ZM378.549 18.8047V18.5996C378.549 18.1699 378.516 17.776 378.451 17.418C378.386 17.0534 378.282 16.7376 378.139 16.4707C377.995 16.1973 377.807 15.9857 377.572 15.8359C377.338 15.6862 377.051 15.6113 376.713 15.6113C376.348 15.6113 376.039 15.6699 375.785 15.7871C375.531 15.9043 375.326 16.0768 375.17 16.3047C375.014 16.526 374.9 16.7995 374.828 17.125C374.763 17.4505 374.727 17.8216 374.721 18.2383V19.3125C374.727 19.8008 374.796 20.237 374.926 20.6211C375.062 20.9987 375.274 21.2949 375.561 21.5098C375.854 21.7181 376.244 21.8223 376.732 21.8223C377.077 21.8223 377.364 21.7474 377.592 21.5977C377.826 21.4414 378.012 21.2233 378.148 20.9434C378.292 20.6634 378.393 20.3411 378.451 19.9766C378.516 19.612 378.549 19.2214 378.549 18.8047ZM382.787 18.8242V18.6191C382.787 17.8444 382.898 17.1315 383.119 16.4805C383.34 15.8229 383.666 15.2533 384.096 14.7715C384.525 14.2897 385.053 13.9154 385.678 13.6484C386.303 13.375 387.019 13.2383 387.826 13.2383C388.646 13.2383 389.369 13.375 389.994 13.6484C390.626 13.9154 391.156 14.2897 391.586 14.7715C392.016 15.2533 392.341 15.8229 392.562 16.4805C392.784 17.1315 392.895 17.8444 392.895 18.6191V18.8242C392.895 19.5924 392.784 20.3053 392.562 20.9629C392.341 21.6139 392.016 22.1836 391.586 22.6719C391.156 23.1536 390.629 23.528 390.004 23.7949C389.379 24.0618 388.66 24.1953 387.846 24.1953C387.038 24.1953 386.319 24.0618 385.688 23.7949C385.056 23.528 384.525 23.1536 384.096 22.6719C383.666 22.1836 383.34 21.6139 383.119 20.9629C382.898 20.3053 382.787 19.5924 382.787 18.8242ZM385.844 18.6191V18.8242C385.844 19.2409 385.876 19.6315 385.941 19.9961C386.013 20.3607 386.127 20.6797 386.283 20.9531C386.439 21.2266 386.645 21.4414 386.898 21.5977C387.159 21.7474 387.475 21.8223 387.846 21.8223C388.217 21.8223 388.529 21.7474 388.783 21.5977C389.037 21.4414 389.242 21.2266 389.398 20.9531C389.555 20.6797 389.665 20.3607 389.73 19.9961C389.802 19.6315 389.838 19.2409 389.838 18.8242V18.6191C389.838 18.209 389.802 17.8249 389.73 17.4668C389.665 17.1022 389.555 16.7799 389.398 16.5C389.242 16.2201 389.034 16.002 388.773 15.8457C388.52 15.6895 388.204 15.6113 387.826 15.6113C387.462 15.6113 387.152 15.6895 386.898 15.8457C386.645 16.002 386.439 16.2201 386.283 16.5C386.127 16.7799 386.013 17.1022 385.941 17.4668C385.876 17.8249 385.844 18.209 385.844 18.6191ZM397.553 15.8945V24H394.506V13.4336H397.367L397.553 15.8945ZM400.707 13.3555L400.658 16.1973C400.528 16.1777 400.359 16.1615 400.15 16.1484C399.942 16.1289 399.763 16.1191 399.613 16.1191C399.223 16.1191 398.884 16.168 398.598 16.2656C398.318 16.3568 398.083 16.4935 397.895 16.6758C397.712 16.8581 397.576 17.0859 397.484 17.3594C397.393 17.6263 397.348 17.9355 397.348 18.2871L396.771 18.0039C396.771 17.3073 396.84 16.6693 396.977 16.0898C397.113 15.5104 397.312 15.0091 397.572 14.5859C397.833 14.1562 398.152 13.8242 398.529 13.5898C398.907 13.3555 399.337 13.2383 399.818 13.2383C399.975 13.2383 400.134 13.248 400.297 13.2676C400.46 13.2871 400.596 13.3164 400.707 13.3555ZM407.816 13.4336V15.5723H401.547V13.4336H407.816ZM402.982 10.8164H406.039V20.6895C406.039 20.9824 406.075 21.207 406.146 21.3633C406.218 21.5195 406.335 21.6302 406.498 21.6953C406.661 21.7539 406.869 21.7832 407.123 21.7832C407.305 21.7832 407.462 21.7767 407.592 21.7637C407.722 21.7507 407.842 21.7344 407.953 21.7148V23.9219C407.693 24.0065 407.416 24.0716 407.123 24.1172C406.83 24.1693 406.511 24.1953 406.166 24.1953C405.508 24.1953 404.939 24.0879 404.457 23.873C403.982 23.6582 403.617 23.3197 403.363 22.8574C403.109 22.3887 402.982 21.7799 402.982 21.0312V10.8164Z" fill="black"/>
<path d="M560.355 9.78125V24H557.172V9.78125H560.355ZM565.951 15.7773V18.2383H559.467V15.7773H565.951ZM566.576 9.78125V12.252H559.467V9.78125H566.576ZM567.318 18.8242V18.6191C567.318 17.8444 567.429 17.1315 567.65 16.4805C567.872 15.8229 568.197 15.2533 568.627 14.7715C569.057 14.2897 569.584 13.9154 570.209 13.6484C570.834 13.375 571.55 13.2383 572.357 13.2383C573.178 13.2383 573.9 13.375 574.525 13.6484C575.157 13.9154 575.688 14.2897 576.117 14.7715C576.547 15.2533 576.872 15.8229 577.094 16.4805C577.315 17.1315 577.426 17.8444 577.426 18.6191V18.8242C577.426 19.5924 577.315 20.3053 577.094 20.9629C576.872 21.6139 576.547 22.1836 576.117 22.6719C575.688 23.1536 575.16 23.528 574.535 23.7949C573.91 24.0618 573.191 24.1953 572.377 24.1953C571.57 24.1953 570.85 24.0618 570.219 23.7949C569.587 23.528 569.057 23.1536 568.627 22.6719C568.197 22.1836 567.872 21.6139 567.65 20.9629C567.429 20.3053 567.318 19.5924 567.318 18.8242ZM570.375 18.6191V18.8242C570.375 19.2409 570.408 19.6315 570.473 19.9961C570.544 20.3607 570.658 20.6797 570.814 20.9531C570.971 21.2266 571.176 21.4414 571.43 21.5977C571.69 21.7474 572.006 21.8223 572.377 21.8223C572.748 21.8223 573.061 21.7474 573.314 21.5977C573.568 21.4414 573.773 21.2266 573.93 20.9531C574.086 20.6797 574.197 20.3607 574.262 19.9961C574.333 19.6315 574.369 19.2409 574.369 18.8242V18.6191C574.369 18.209 574.333 17.8249 574.262 17.4668C574.197 17.1022 574.086 16.7799 573.93 16.5C573.773 16.2201 573.565 16.002 573.305 15.8457C573.051 15.6895 572.735 15.6113 572.357 15.6113C571.993 15.6113 571.684 15.6895 571.43 15.8457C571.176 16.002 570.971 16.2201 570.814 16.5C570.658 16.7799 570.544 17.1022 570.473 17.4668C570.408 17.8249 570.375 18.209 570.375 18.6191ZM582.24 9V24H579.184V9H582.24ZM587.65 9V24H584.594V9H587.65ZM589.408 18.8242V18.6191C589.408 17.8444 589.519 17.1315 589.74 16.4805C589.962 15.8229 590.287 15.2533 590.717 14.7715C591.146 14.2897 591.674 13.9154 592.299 13.6484C592.924 13.375 593.64 13.2383 594.447 13.2383C595.268 13.2383 595.99 13.375 596.615 13.6484C597.247 13.9154 597.777 14.2897 598.207 14.7715C598.637 15.2533 598.962 15.8229 599.184 16.4805C599.405 17.1315 599.516 17.8444 599.516 18.6191V18.8242C599.516 19.5924 599.405 20.3053 599.184 20.9629C598.962 21.6139 598.637 22.1836 598.207 22.6719C597.777 23.1536 597.25 23.528 596.625 23.7949C596 24.0618 595.281 24.1953 594.467 24.1953C593.66 24.1953 592.94 24.0618 592.309 23.7949C591.677 23.528 591.146 23.1536 590.717 22.6719C590.287 22.1836 589.962 21.6139 589.74 20.9629C589.519 20.3053 589.408 19.5924 589.408 18.8242ZM592.465 18.6191V18.8242C592.465 19.2409 592.497 19.6315 592.562 19.9961C592.634 20.3607 592.748 20.6797 592.904 20.9531C593.061 21.2266 593.266 21.4414 593.52 21.5977C593.78 21.7474 594.096 21.8223 594.467 21.8223C594.838 21.8223 595.15 21.7474 595.404 21.5977C595.658 21.4414 595.863 21.2266 596.02 20.9531C596.176 20.6797 596.286 20.3607 596.352 19.9961C596.423 19.6315 596.459 19.2409 596.459 18.8242V18.6191C596.459 18.209 596.423 17.8249 596.352 17.4668C596.286 17.1022 596.176 16.7799 596.02 16.5C595.863 16.2201 595.655 16.002 595.395 15.8457C595.141 15.6895 594.825 15.6113 594.447 15.6113C594.083 15.6113 593.773 15.6895 593.52 15.8457C593.266 16.002 593.061 16.2201 592.904 16.5C592.748 16.7799 592.634 17.1022 592.562 17.4668C592.497 17.8249 592.465 18.209 592.465 18.6191ZM604.232 21.0605L606.303 13.4336H608.227L607.572 16.832L605.502 24H603.93L604.232 21.0605ZM603.285 13.4336L604.672 21.0312L604.818 24H602.943L600.346 13.4336H603.285ZM610.102 20.8848L611.479 13.4336H614.418L611.84 24H609.965L610.102 20.8848ZM608.461 13.4336L610.551 21.0215L610.854 24H609.262L607.211 16.8418L606.586 13.4336H608.461ZM628.646 9.78125H631.83V19.1172C631.83 20.224 631.596 21.1549 631.127 21.9102C630.665 22.6654 630.02 23.235 629.193 23.6191C628.367 24.0033 627.41 24.1953 626.322 24.1953C625.229 24.1953 624.265 24.0033 623.432 23.6191C622.605 23.235 621.954 22.6654 621.479 21.9102C621.01 21.1549 620.775 20.224 620.775 19.1172V9.78125H623.969V19.1172C623.969 19.7292 624.06 20.2305 624.242 20.6211C624.431 21.0052 624.701 21.2884 625.053 21.4707C625.404 21.6465 625.827 21.7344 626.322 21.7344C626.817 21.7344 627.237 21.6465 627.582 21.4707C627.934 21.2884 628.197 21.0052 628.373 20.6211C628.555 20.2305 628.646 19.7292 628.646 19.1172V9.78125ZM639.574 21.0605C639.574 20.8652 639.512 20.6927 639.389 20.543C639.271 20.3932 639.057 20.2565 638.744 20.1328C638.438 20.0091 638.005 19.8854 637.445 19.7617C636.918 19.651 636.426 19.5078 635.971 19.332C635.515 19.1497 635.118 18.9316 634.779 18.6777C634.441 18.4173 634.177 18.1113 633.988 17.7598C633.799 17.4017 633.705 16.9948 633.705 16.5391C633.705 16.0964 633.799 15.6764 633.988 15.2793C634.184 14.8822 634.464 14.5306 634.828 14.2246C635.199 13.9186 635.648 13.6777 636.176 13.502C636.71 13.3262 637.315 13.2383 637.992 13.2383C638.923 13.2383 639.727 13.3848 640.404 13.6777C641.081 13.9642 641.602 14.3678 641.967 14.8887C642.331 15.403 642.514 15.9922 642.514 16.6562H639.467C639.467 16.3828 639.415 16.1452 639.311 15.9434C639.206 15.7415 639.047 15.5853 638.832 15.4746C638.617 15.3574 638.334 15.2988 637.982 15.2988C637.709 15.2988 637.468 15.3477 637.26 15.4453C637.058 15.5365 636.898 15.6634 636.781 15.8262C636.671 15.9889 636.615 16.1777 636.615 16.3926C636.615 16.5423 636.648 16.679 636.713 16.8027C636.785 16.9199 636.892 17.0306 637.035 17.1348C637.185 17.2324 637.377 17.3203 637.611 17.3984C637.852 17.4766 638.145 17.5514 638.49 17.623C639.226 17.7598 639.896 17.9518 640.502 18.1992C641.114 18.4466 641.602 18.7884 641.967 19.2246C642.338 19.6608 642.523 20.237 642.523 20.9531C642.523 21.4219 642.416 21.8516 642.201 22.2422C641.993 22.6328 641.69 22.9746 641.293 23.2676C640.896 23.5605 640.421 23.7884 639.867 23.9512C639.314 24.1139 638.689 24.1953 637.992 24.1953C636.996 24.1953 636.153 24.0163 635.463 23.6582C634.773 23.3001 634.252 22.8509 633.9 22.3105C633.555 21.7637 633.383 21.2038 633.383 20.6309H636.244C636.257 20.9824 636.345 21.2689 636.508 21.4902C636.677 21.7116 636.895 21.8743 637.162 21.9785C637.429 22.0762 637.729 22.125 638.061 22.125C638.393 22.125 638.669 22.0794 638.891 21.9883C639.112 21.8971 639.281 21.7734 639.398 21.6172C639.516 21.4544 639.574 21.2689 639.574 21.0605Z" fill="black"/>
<mask id="mask0_70_5082" style="mask-type:luminance" maskUnits="userSpaceOnUse" x="566" y="59" width="10" height="16">
<path d="M576 59H566V75H576V59Z" fill="white"/>
</mask>
<g mask="url(#mask0_70_5082)">
<path d="M568.26 68.7188V75.375H572.233V68.7188H575.212L575.829 65.6562H572.233V64.5938C572.233 63.8021 572.427 63.2291 572.815 62.875C573.203 62.5208 573.842 62.3438 574.733 62.3438C575.304 62.3438 575.726 62.3646 576 62.4062V59.625C575.726 59.5625 575.349 59.5 574.87 59.4375C574.39 59.3958 573.968 59.375 573.603 59.375C569.995 59.3333 568.215 60.9896 568.26 64.3438V65.6875H566V68.7188H568.26Z" fill="black"/>
</g>
<mask id="mask1_70_5082" style="mask-type:luminance" maskUnits="userSpaceOnUse" x="592" y="59" width="16" height="16">
<path d="M608 59H592V75H608V59Z" fill="white"/>
</mask>
<g mask="url(#mask1_70_5082)">
<path d="M606.344 64.125C606.365 64.2708 606.375 64.4062 606.375 64.5312C606.375 66.0104 606.01 67.4583 605.281 68.875C604.573 70.2917 603.521 71.4688 602.125 72.4062C600.75 73.3438 599.052 73.8333 597.031 73.875C595.156 73.8542 593.479 73.3646 592 72.4062C592.25 72.4271 592.51 72.4375 592.781 72.4375C594.344 72.4167 595.708 71.9479 596.875 71.0312C596.125 71.0104 595.479 70.7917 594.938 70.375C594.396 69.9583 594.021 69.4271 593.812 68.7812C594 68.8021 594.198 68.8125 594.406 68.8125C594.719 68.8125 595.01 68.7812 595.281 68.7188C594.51 68.5521 593.885 68.1771 593.406 67.5938C592.927 67.0104 592.677 66.3125 592.656 65.5V65.4375C593.094 65.6875 593.583 65.8333 594.125 65.875C593.208 65.2292 592.719 64.3125 592.656 63.125C592.677 62.5209 592.833 61.9688 593.125 61.4688C593.938 62.4688 594.927 63.2709 596.094 63.875C597.24 64.4792 598.5 64.8229 599.875 64.9062C599.833 64.6562 599.812 64.4062 599.812 64.1562C599.833 63.2395 600.146 62.4687 600.75 61.8438C601.375 61.2187 602.146 60.8958 603.062 60.875C604.042 60.8958 604.844 61.2396 605.469 61.9062C606.219 61.7605 606.917 61.5 607.562 61.125C607.292 61.8958 606.812 62.5 606.125 62.9375C606.771 62.8542 607.396 62.6771 608 62.4062C607.542 63.0729 606.99 63.6458 606.344 64.125Z" fill="black"/>
</g>
<mask id="mask2_70_5082" style="mask-type:luminance" maskUnits="userSpaceOnUse" x="624" y="59" width="14" height="16">
<path d="M638 59H624V75H638V59Z" fill="white"/>
</mask>
<g mask="url(#mask2_70_5082)">
<path d="M631 63.7812C629.979 63.8021 629.135 64.1562 628.469 64.8438C627.781 65.5104 627.427 66.3542 627.406 67.375C627.427 68.3958 627.781 69.2396 628.469 69.9062C629.135 70.5938 629.979 70.9479 631 70.9688C632.021 70.9479 632.865 70.5938 633.531 69.9062C634.219 69.2396 634.573 68.3958 634.594 67.375C634.573 66.3542 634.219 65.5104 633.531 64.8438C632.865 64.1562 632.021 63.8021 631 63.7812ZM631 69.7188C630.333 69.6979 629.781 69.4688 629.344 69.0312C628.906 68.5938 628.677 68.0417 628.656 67.375C628.677 66.7083 628.906 66.1562 629.344 65.7188C629.781 65.2812 630.333 65.0521 631 65.0312C631.667 65.0521 632.219 65.2812 632.656 65.7188C633.094 66.1562 633.323 66.7083 633.344 67.375C633.323 68.0417 633.094 68.5938 632.656 69.0312C632.219 69.4688 631.667 69.6979 631 69.7188ZM635.594 63.625C635.531 64.1458 635.25 64.4271 634.75 64.4688C634.229 64.4271 633.948 64.1458 633.906 63.625C633.906 63.3958 633.99 63.1979 634.156 63.0312C634.302 62.8855 634.5 62.8125 634.75 62.8125C634.979 62.8125 635.177 62.8855 635.344 63.0312C635.49 63.1979 635.573 63.3958 635.594 63.625ZM637.969 64.5C637.969 63.3541 637.583 62.375 636.812 61.5625C636 60.7916 635.031 60.4062 633.906 60.4062C633.49 60.3855 632.896 60.375 632.125 60.375C631.375 60.375 630.625 60.375 629.875 60.375C629.104 60.375 628.521 60.3855 628.125 60.4062C627 60.4062 626.021 60.7916 625.188 61.5625C624.417 62.375 624.042 63.3437 624.062 64.4688C624.021 64.8854 624 65.4792 624 66.25C624 67 624 67.75 624 68.5C624 69.25 624.021 69.8333 624.062 70.25C624.042 71.3958 624.417 72.375 625.188 73.1875C626 73.9583 626.979 74.3333 628.125 74.3125C628.521 74.3333 629.104 74.3542 629.875 74.375C630.625 74.375 631.375 74.375 632.125 74.375C632.896 74.3542 633.49 74.3333 633.906 74.3125C635.031 74.3333 636 73.9583 636.812 73.1875C637.583 72.375 637.969 71.3958 637.969 70.25C637.99 69.8333 638 69.25 638 68.5C638 67.75 638 67 638 66.25C638 65.4792 637.99 64.8854 637.969 64.4688V64.5ZM636.469 71.5C636.198 72.125 635.75 72.5729 635.125 72.8438C634.708 72.9896 634.146 73.0729 633.438 73.0938C632.729 73.1146 632.083 73.125 631.5 73.125C631.312 73.125 631.146 73.125 631 73.125C630.854 73.125 630.688 73.125 630.5 73.125C629.917 73.125 629.271 73.1146 628.562 73.0938C627.875 73.0729 627.312 72.9896 626.875 72.8438C626.25 72.5729 625.802 72.125 625.531 71.5C625.385 71.0625 625.302 70.5 625.281 69.8125C625.26 69.1042 625.25 68.4583 625.25 67.875C625.25 67.6875 625.25 67.5208 625.25 67.375C625.25 67.2292 625.25 67.0625 625.25 66.875C625.25 66.2917 625.26 65.6458 625.281 64.9375C625.302 64.2292 625.385 63.6667 625.531 63.25C625.802 62.625 626.25 62.1771 626.875 61.9062C627.312 61.7605 627.875 61.6771 628.562 61.6562C629.271 61.6146 629.917 61.6042 630.5 61.625C630.688 61.625 630.854 61.625 631 61.625C631.146 61.625 631.312 61.625 631.5 61.625C632.083 61.625 632.729 61.6355 633.438 61.6562C634.146 61.6771 634.708 61.7605 635.125 61.9062C635.75 62.1771 636.198 62.625 636.469 63.25C636.615 63.6667 636.698 64.2292 636.719 64.9375C636.76 65.6458 636.771 66.2917 636.75 66.875C636.75 67.0625 636.75 67.2292 636.75 67.375C636.75 67.5208 636.75 67.6875 636.75 67.875C636.771 68.4583 636.76 69.1042 636.719 69.8125C636.698 70.5208 636.615 71.0833 636.469 71.5Z" fill="black"/>
</g>
<path d="M282.735 214.114C282.735 213.841 282.643 213.597 282.458 213.382C282.278 213.162 282.027 213.052 281.707 213.052C281.206 213.052 280.771 213.349 280.401 213.942C280.037 214.531 279.854 215.118 279.854 215.702C279.854 216.133 279.949 216.462 280.138 216.691C280.327 216.915 280.564 217.027 280.85 217.027C281.443 217.027 281.904 216.682 282.234 215.992C282.568 215.298 282.735 214.672 282.735 214.114ZM281.423 220.283C279.586 220.283 278.171 219.71 277.178 218.563C276.383 217.645 275.985 216.583 275.985 215.379C275.985 213.947 276.468 212.729 277.435 211.727C278.507 210.611 279.947 210.053 281.753 210.053C283.317 210.053 284.548 210.448 285.444 211.24C286.283 211.987 286.703 212.956 286.703 214.146C286.703 215.148 286.402 216.005 285.8 216.717C285.202 217.425 284.532 217.779 283.79 217.779C283.354 217.779 283.034 217.675 282.827 217.469C282.621 217.258 282.517 217.005 282.517 216.711C282.517 216.662 282.522 216.612 282.531 216.559C282.539 216.506 282.55 216.451 282.563 216.394C282.331 216.9 282.036 217.258 281.68 217.469C281.324 217.675 280.957 217.779 280.579 217.779C280.039 217.779 279.599 217.583 279.261 217.192C278.927 216.801 278.76 216.298 278.76 215.682C278.76 214.808 279.046 214.037 279.617 213.369C280.193 212.701 280.81 212.367 281.469 212.367C281.917 212.367 282.287 212.496 282.577 212.756C282.871 213.015 283.027 213.327 283.045 213.692L283.374 212.584H284.343L283.467 215.471C283.401 215.696 283.352 215.876 283.322 216.012C283.291 216.148 283.275 216.269 283.275 216.375C283.275 216.572 283.335 216.717 283.453 216.81C283.576 216.897 283.715 216.941 283.869 216.941C284.37 216.941 284.818 216.68 285.213 216.157C285.613 215.634 285.813 214.951 285.813 214.107C285.813 213.087 285.457 212.288 284.745 211.708C284.033 211.123 283.075 210.831 281.871 210.831C280.201 210.831 278.925 211.319 278.042 212.294C277.286 213.125 276.908 214.168 276.908 215.425C276.908 216.524 277.268 217.447 277.989 218.194C278.833 219.077 280.034 219.519 281.594 219.519C282.324 219.519 283.003 219.405 283.631 219.176C284.26 218.943 284.835 218.631 285.358 218.24L285.793 218.833C285.398 219.185 284.807 219.514 284.02 219.822C283.234 220.13 282.368 220.283 281.423 220.283ZM288.635 220C288.678 219.187 288.845 218.479 289.135 217.877C289.43 217.275 290.001 216.728 290.849 216.236L292.115 215.504C292.682 215.175 293.08 214.894 293.308 214.661C293.668 214.296 293.849 213.878 293.849 213.408C293.849 212.859 293.684 212.424 293.354 212.103C293.025 211.778 292.585 211.615 292.036 211.615C291.223 211.615 290.66 211.923 290.348 212.538C290.181 212.868 290.089 213.325 290.072 213.909H288.865C288.878 213.087 289.03 212.417 289.32 211.899C289.834 210.985 290.742 210.528 292.042 210.528C293.124 210.528 293.912 210.82 294.409 211.404C294.91 211.989 295.16 212.639 295.16 213.355C295.16 214.111 294.895 214.757 294.363 215.293C294.055 215.605 293.504 215.983 292.708 216.427L291.805 216.928C291.375 217.166 291.036 217.392 290.79 217.607C290.351 217.99 290.074 218.414 289.959 218.879H295.114V220H288.635ZM299.379 210.561C300.601 210.561 301.484 211.064 302.029 212.07C302.451 212.848 302.662 213.914 302.662 215.267C302.662 216.55 302.471 217.612 302.088 218.451C301.535 219.655 300.629 220.257 299.373 220.257C298.239 220.257 297.395 219.765 296.841 218.781C296.38 217.959 296.149 216.856 296.149 215.471C296.149 214.399 296.288 213.479 296.564 212.709C297.083 211.277 298.021 210.561 299.379 210.561ZM299.366 219.176C299.981 219.176 300.471 218.904 300.836 218.359C301.201 217.814 301.383 216.799 301.383 215.313C301.383 214.241 301.251 213.36 300.988 212.67C300.724 211.976 300.212 211.628 299.452 211.628C298.753 211.628 298.241 211.958 297.916 212.617C297.595 213.272 297.435 214.239 297.435 215.518C297.435 216.48 297.538 217.253 297.744 217.838C298.061 218.73 298.601 219.176 299.366 219.176ZM303.664 220C303.708 219.187 303.875 218.479 304.165 217.877C304.459 217.275 305.031 216.728 305.879 216.236L307.144 215.504C307.711 215.175 308.109 214.894 308.337 214.661C308.698 214.296 308.878 213.878 308.878 213.408C308.878 212.859 308.713 212.424 308.384 212.103C308.054 211.778 307.615 211.615 307.065 211.615C306.252 211.615 305.69 211.923 305.378 212.538C305.211 212.868 305.118 213.325 305.101 213.909H303.895C303.908 213.087 304.059 212.417 304.349 211.899C304.864 210.985 305.771 210.528 307.072 210.528C308.153 210.528 308.942 210.82 309.438 211.404C309.939 211.989 310.19 212.639 310.19 213.355C310.19 214.111 309.924 214.757 309.392 215.293C309.084 215.605 308.533 215.983 307.738 216.427L306.834 216.928C306.404 217.166 306.065 217.392 305.819 217.607C305.38 217.99 305.103 218.414 304.989 218.879H310.144V220H303.664ZM312.424 217.594C312.503 218.271 312.818 218.739 313.367 218.998C313.648 219.13 313.973 219.196 314.343 219.196C315.046 219.196 315.566 218.972 315.905 218.523C316.243 218.075 316.412 217.579 316.412 217.034C316.412 216.375 316.21 215.865 315.806 215.504C315.406 215.144 314.925 214.964 314.362 214.964C313.954 214.964 313.602 215.043 313.308 215.201C313.018 215.359 312.769 215.579 312.563 215.86L311.534 215.801L312.253 210.719H317.157V211.866H313.143L312.741 214.489C312.96 214.322 313.169 214.197 313.367 214.114C313.719 213.969 314.125 213.896 314.586 213.896C315.452 213.896 316.186 214.175 316.788 214.733C317.39 215.291 317.691 215.999 317.691 216.856C317.691 217.748 317.414 218.534 316.861 219.216C316.311 219.897 315.432 220.237 314.224 220.237C313.455 220.237 312.774 220.022 312.18 219.591C311.592 219.156 311.262 218.49 311.192 217.594H312.424ZM327.137 210.053C328.363 210.053 329.315 210.376 329.991 211.022C330.668 211.668 331.044 212.402 331.119 213.224H329.84C329.695 212.6 329.405 212.105 328.97 211.74C328.539 211.376 327.933 211.193 327.15 211.193C326.197 211.193 325.426 211.53 324.837 212.202C324.252 212.87 323.96 213.896 323.96 215.28C323.96 216.414 324.224 217.335 324.751 218.042C325.283 218.745 326.074 219.097 327.124 219.097C328.091 219.097 328.827 218.726 329.332 217.983C329.6 217.592 329.8 217.078 329.932 216.44H331.211C331.097 217.46 330.719 218.315 330.077 219.005C329.308 219.835 328.271 220.25 326.966 220.25C325.841 220.25 324.896 219.91 324.131 219.229C323.125 218.328 322.622 216.937 322.622 215.056C322.622 213.628 323 212.457 323.756 211.543C324.573 210.55 325.7 210.053 327.137 210.053ZM335.456 219.235C336.243 219.235 336.781 218.939 337.071 218.345C337.365 217.748 337.513 217.084 337.513 216.355C337.513 215.696 337.407 215.159 337.196 214.746C336.862 214.096 336.287 213.771 335.469 213.771C334.744 213.771 334.217 214.048 333.887 214.601C333.558 215.155 333.393 215.823 333.393 216.605C333.393 217.357 333.558 217.983 333.887 218.484C334.217 218.985 334.74 219.235 335.456 219.235ZM335.502 212.736C336.412 212.736 337.181 213.039 337.809 213.646C338.438 214.252 338.752 215.144 338.752 216.322C338.752 217.46 338.475 218.4 337.921 219.143C337.368 219.886 336.509 220.257 335.344 220.257C334.373 220.257 333.602 219.93 333.03 219.275C332.459 218.616 332.173 217.732 332.173 216.625C332.173 215.438 332.474 214.494 333.076 213.791C333.678 213.087 334.487 212.736 335.502 212.736ZM343.149 219.202C343.702 219.202 344.162 218.972 344.526 218.51C344.896 218.044 345.08 217.35 345.08 216.427C345.08 215.865 344.999 215.381 344.836 214.977C344.529 214.199 343.966 213.81 343.149 213.81C342.327 213.81 341.764 214.221 341.461 215.043C341.299 215.482 341.217 216.041 341.217 216.717C341.217 217.262 341.299 217.726 341.461 218.108C341.769 218.838 342.331 219.202 343.149 219.202ZM340.077 212.973H341.23V213.909C341.468 213.588 341.727 213.34 342.008 213.164C342.408 212.901 342.878 212.769 343.419 212.769C344.219 212.769 344.898 213.076 345.456 213.692C346.014 214.302 346.293 215.177 346.293 216.315C346.293 217.853 345.891 218.952 345.087 219.611C344.577 220.029 343.984 220.237 343.307 220.237C342.775 220.237 342.329 220.121 341.969 219.888C341.758 219.756 341.523 219.53 341.263 219.209V222.815H340.077V212.973ZM352.094 212.94H353.406C353.239 213.393 352.867 214.426 352.292 216.038C351.861 217.251 351.5 218.24 351.21 219.005C350.525 220.806 350.042 221.905 349.76 222.301C349.479 222.696 348.996 222.894 348.31 222.894C348.143 222.894 348.013 222.887 347.921 222.874C347.833 222.861 347.723 222.837 347.592 222.802V221.72C347.798 221.778 347.948 221.813 348.04 221.826C348.132 221.839 348.213 221.846 348.284 221.846C348.503 221.846 348.664 221.808 348.765 221.734C348.87 221.663 348.958 221.575 349.029 221.47C349.051 221.435 349.13 221.255 349.266 220.929C349.402 220.604 349.501 220.363 349.562 220.204L346.952 212.94H348.297L350.189 218.688L352.094 212.94ZM354.467 212.94H355.594V214.16C355.686 213.922 355.913 213.635 356.273 213.296C356.633 212.953 357.049 212.782 357.519 212.782C357.541 212.782 357.578 212.784 357.631 212.789C357.684 212.793 357.774 212.802 357.901 212.815V214.067C357.831 214.054 357.765 214.045 357.703 214.041C357.646 214.037 357.583 214.034 357.512 214.034C356.915 214.034 356.455 214.228 356.135 214.615C355.814 214.997 355.653 215.438 355.653 215.939V220H354.467V212.94ZM358.929 212.973H360.136V220H358.929V212.973ZM358.929 210.317H360.136V211.661H358.929V210.317ZM364.427 212.815C364.981 212.815 365.464 212.951 365.877 213.224C366.101 213.377 366.33 213.602 366.563 213.896V213.006H367.657V219.427C367.657 220.323 367.525 221.031 367.261 221.549C366.769 222.507 365.84 222.986 364.473 222.986C363.713 222.986 363.073 222.815 362.555 222.472C362.036 222.134 361.746 221.602 361.685 220.877H362.891C362.948 221.193 363.062 221.437 363.234 221.608C363.502 221.872 363.924 222.004 364.5 222.004C365.409 222.004 366.005 221.683 366.286 221.042C366.453 220.664 366.53 219.989 366.517 219.018C366.279 219.378 365.994 219.646 365.66 219.822C365.326 219.998 364.884 220.086 364.335 220.086C363.57 220.086 362.9 219.815 362.324 219.275C361.753 218.73 361.467 217.831 361.467 216.579C361.467 215.397 361.755 214.474 362.331 213.81C362.911 213.147 363.61 212.815 364.427 212.815ZM366.563 216.44C366.563 215.566 366.383 214.918 366.022 214.496C365.662 214.074 365.203 213.863 364.645 213.863C363.81 213.863 363.238 214.254 362.931 215.036C362.768 215.454 362.687 216.001 362.687 216.678C362.687 217.473 362.847 218.08 363.168 218.497C363.493 218.91 363.928 219.117 364.473 219.117C365.326 219.117 365.926 218.732 366.273 217.963C366.466 217.528 366.563 217.021 366.563 216.44ZM369.45 210.284H370.636V213.896C370.918 213.54 371.17 213.29 371.395 213.145C371.777 212.894 372.254 212.769 372.825 212.769C373.849 212.769 374.543 213.127 374.908 213.843C375.106 214.234 375.205 214.777 375.205 215.471V220H373.985V215.551C373.985 215.032 373.919 214.652 373.787 214.41C373.572 214.023 373.168 213.83 372.574 213.83C372.082 213.83 371.636 213.999 371.236 214.338C370.836 214.676 370.636 215.315 370.636 216.256V220H369.45V210.284ZM377.202 210.969H378.402V212.94H379.529V213.909H378.402V218.517C378.402 218.763 378.485 218.928 378.652 219.011C378.744 219.06 378.898 219.084 379.114 219.084C379.171 219.084 379.232 219.084 379.298 219.084C379.364 219.079 379.441 219.073 379.529 219.064V220C379.393 220.04 379.25 220.068 379.1 220.086C378.955 220.103 378.797 220.112 378.626 220.112C378.072 220.112 377.696 219.971 377.499 219.69C377.301 219.405 377.202 219.035 377.202 218.583V213.909H376.246V212.94H377.202V210.969ZM381.005 218.563H382.383V220H381.005V218.563ZM392.627 216.032L391.157 211.754L389.594 216.032H392.627ZM390.471 210.317H391.954L395.468 220H394.031L393.049 217.1H389.219L388.171 220H386.826L390.471 210.317ZM396.536 210.317H397.722V220H396.536V210.317ZM399.542 210.317H400.728V220H399.542V210.317ZM406.305 212.94H407.432V214.16C407.524 213.922 407.75 213.635 408.111 213.296C408.471 212.953 408.886 212.782 409.357 212.782C409.379 212.782 409.416 212.784 409.469 212.789C409.521 212.793 409.612 212.802 409.739 212.815V214.067C409.669 214.054 409.603 214.045 409.541 214.041C409.484 214.037 409.42 214.034 409.35 214.034C408.752 214.034 408.293 214.228 407.972 214.615C407.652 214.997 407.491 215.438 407.491 215.939V220H406.305V212.94ZM413.259 212.815C413.813 212.815 414.296 212.951 414.709 213.224C414.933 213.377 415.162 213.602 415.395 213.896V213.006H416.489V219.427C416.489 220.323 416.357 221.031 416.094 221.549C415.601 222.507 414.672 222.986 413.305 222.986C412.545 222.986 411.906 222.815 411.387 222.472C410.868 222.134 410.578 221.602 410.517 220.877H411.723C411.78 221.193 411.895 221.437 412.066 221.608C412.334 221.872 412.756 222.004 413.332 222.004C414.241 222.004 414.837 221.683 415.118 221.042C415.285 220.664 415.362 219.989 415.349 219.018C415.111 219.378 414.826 219.646 414.492 219.822C414.158 219.998 413.716 220.086 413.167 220.086C412.402 220.086 411.732 219.815 411.156 219.275C410.585 218.73 410.299 217.831 410.299 216.579C410.299 215.397 410.587 214.474 411.163 213.81C411.743 213.147 412.442 212.815 413.259 212.815ZM415.395 216.44C415.395 215.566 415.215 214.918 414.854 214.496C414.494 214.074 414.035 213.863 413.477 213.863C412.642 213.863 412.07 214.254 411.763 215.036C411.6 215.454 411.519 216.001 411.519 216.678C411.519 217.473 411.679 218.08 412 218.497C412.325 218.91 412.76 219.117 413.305 219.117C414.158 219.117 414.758 218.732 415.105 217.963C415.298 217.528 415.395 217.021 415.395 216.44ZM418.282 210.284H419.469V213.896C419.75 213.54 420.002 213.29 420.227 213.145C420.609 212.894 421.086 212.769 421.657 212.769C422.681 212.769 423.375 213.127 423.74 213.843C423.938 214.234 424.037 214.777 424.037 215.471V220H422.817V215.551C422.817 215.032 422.751 214.652 422.619 214.41C422.404 214.023 422 213.83 421.406 213.83C420.914 213.83 420.468 213.999 420.068 214.338C419.668 214.676 419.469 215.315 419.469 216.256V220H418.282V210.284ZM426.034 210.969H427.234V212.94H428.361V213.909H427.234V218.517C427.234 218.763 427.317 218.928 427.484 219.011C427.576 219.06 427.73 219.084 427.946 219.084C428.003 219.084 428.064 219.084 428.13 219.084C428.196 219.079 428.273 219.073 428.361 219.064V220C428.225 220.04 428.082 220.068 427.932 220.086C427.787 220.103 427.629 220.112 427.458 220.112C426.904 220.112 426.528 219.971 426.331 219.69C426.133 219.405 426.034 219.035 426.034 218.583V213.909H425.078V212.94H426.034V210.969ZM430.259 217.785C430.294 218.181 430.393 218.484 430.556 218.695C430.855 219.077 431.373 219.268 432.112 219.268C432.551 219.268 432.938 219.174 433.272 218.985C433.606 218.792 433.773 218.495 433.773 218.095C433.773 217.792 433.639 217.561 433.371 217.403C433.199 217.306 432.861 217.194 432.355 217.067L431.413 216.829C430.811 216.68 430.367 216.513 430.081 216.328C429.572 216.008 429.317 215.564 429.317 214.997C429.317 214.329 429.556 213.788 430.035 213.375C430.519 212.962 431.167 212.756 431.98 212.756C433.043 212.756 433.81 213.068 434.28 213.692C434.575 214.087 434.718 214.513 434.709 214.97H433.588C433.566 214.702 433.472 214.458 433.305 214.239C433.032 213.927 432.56 213.771 431.887 213.771C431.439 213.771 431.099 213.856 430.866 214.028C430.637 214.199 430.523 214.426 430.523 214.707C430.523 215.014 430.675 215.26 430.978 215.445C431.154 215.555 431.413 215.652 431.756 215.735L432.54 215.926C433.393 216.133 433.964 216.333 434.254 216.526C434.715 216.829 434.946 217.306 434.946 217.957C434.946 218.585 434.707 219.128 434.228 219.585C433.753 220.042 433.028 220.27 432.052 220.27C431.002 220.27 430.257 220.033 429.818 219.558C429.383 219.079 429.15 218.488 429.119 217.785H430.259ZM440.094 212.94H441.221V214.16C441.314 213.922 441.54 213.635 441.9 213.296C442.261 212.953 442.676 212.782 443.146 212.782C443.168 212.782 443.206 212.784 443.258 212.789C443.311 212.793 443.401 212.802 443.529 212.815V214.067C443.458 214.054 443.392 214.045 443.331 214.041C443.274 214.037 443.21 214.034 443.14 214.034C442.542 214.034 442.083 214.228 441.762 214.615C441.441 214.997 441.281 215.438 441.281 215.939V220H440.094V212.94ZM447.497 212.782C447.998 212.782 448.483 212.901 448.954 213.138C449.424 213.371 449.782 213.674 450.028 214.048C450.265 214.404 450.424 214.819 450.503 215.293C450.573 215.619 450.608 216.137 450.608 216.849H445.434C445.456 217.565 445.625 218.141 445.941 218.576C446.258 219.007 446.748 219.222 447.411 219.222C448.031 219.222 448.525 219.018 448.894 218.609C449.105 218.372 449.255 218.097 449.343 217.785H450.509C450.479 218.044 450.375 218.334 450.199 218.655C450.028 218.972 449.835 219.231 449.619 219.433C449.259 219.785 448.813 220.022 448.281 220.145C447.996 220.215 447.673 220.25 447.312 220.25C446.433 220.25 445.688 219.932 445.078 219.295C444.467 218.653 444.161 217.757 444.161 216.605C444.161 215.471 444.469 214.551 445.084 213.843C445.699 213.136 446.504 212.782 447.497 212.782ZM449.389 215.906C449.34 215.392 449.228 214.981 449.052 214.674C448.727 214.103 448.185 213.817 447.424 213.817C446.879 213.817 446.422 214.015 446.053 214.41C445.684 214.801 445.489 215.3 445.467 215.906H449.389ZM452.777 217.785C452.812 218.181 452.911 218.484 453.073 218.695C453.372 219.077 453.891 219.268 454.629 219.268C455.069 219.268 455.455 219.174 455.789 218.985C456.123 218.792 456.29 218.495 456.29 218.095C456.29 217.792 456.156 217.561 455.888 217.403C455.717 217.306 455.378 217.194 454.873 217.067L453.93 216.829C453.328 216.68 452.885 216.513 452.599 216.328C452.089 216.008 451.834 215.564 451.834 214.997C451.834 214.329 452.074 213.788 452.553 213.375C453.036 212.962 453.684 212.756 454.497 212.756C455.561 212.756 456.328 213.068 456.798 213.692C457.092 214.087 457.235 214.513 457.226 214.97H456.106C456.084 214.702 455.989 214.458 455.822 214.239C455.55 213.927 455.077 213.771 454.405 213.771C453.957 213.771 453.616 213.856 453.383 214.028C453.155 214.199 453.041 214.426 453.041 214.707C453.041 215.014 453.192 215.26 453.495 215.445C453.671 215.555 453.93 215.652 454.273 215.735L455.058 215.926C455.91 216.133 456.481 216.333 456.771 216.526C457.233 216.829 457.464 217.306 457.464 217.957C457.464 218.585 457.224 219.128 456.745 219.585C456.271 220.042 455.545 220.27 454.57 220.27C453.52 220.27 452.775 220.033 452.335 219.558C451.9 219.079 451.667 218.488 451.636 217.785H452.777ZM461.761 212.782C462.262 212.782 462.748 212.901 463.218 213.138C463.688 213.371 464.047 213.674 464.293 214.048C464.53 214.404 464.688 214.819 464.767 215.293C464.838 215.619 464.873 216.137 464.873 216.849H459.698C459.72 217.565 459.889 218.141 460.206 218.576C460.522 219.007 461.012 219.222 461.676 219.222C462.295 219.222 462.79 219.018 463.159 218.609C463.37 218.372 463.519 218.097 463.607 217.785H464.774C464.743 218.044 464.64 218.334 464.464 218.655C464.293 218.972 464.099 219.231 463.884 219.433C463.524 219.785 463.078 220.022 462.546 220.145C462.26 220.215 461.937 220.25 461.577 220.25C460.698 220.25 459.953 219.932 459.342 219.295C458.731 218.653 458.426 217.757 458.426 216.605C458.426 215.471 458.734 214.551 459.349 213.843C459.964 213.136 460.768 212.782 461.761 212.782ZM463.653 215.906C463.605 215.392 463.493 214.981 463.317 214.674C462.992 214.103 462.449 213.817 461.689 213.817C461.144 213.817 460.687 214.015 460.318 214.41C459.949 214.801 459.753 215.3 459.731 215.906H463.653ZM466.369 212.94H467.496V214.16C467.589 213.922 467.815 213.635 468.175 213.296C468.536 212.953 468.951 212.782 469.421 212.782C469.443 212.782 469.48 212.784 469.533 212.789C469.586 212.793 469.676 212.802 469.803 212.815V214.067C469.733 214.054 469.667 214.045 469.606 214.041C469.549 214.037 469.485 214.034 469.415 214.034C468.817 214.034 468.358 214.228 468.037 214.615C467.716 214.997 467.556 215.438 467.556 215.939V220H466.369V212.94ZM471.412 212.94L473.297 218.688L475.268 212.94H476.567L473.904 220H472.638L470.034 212.94H471.412ZM480.522 212.782C481.023 212.782 481.508 212.901 481.979 213.138C482.449 213.371 482.807 213.674 483.053 214.048C483.29 214.404 483.448 214.819 483.528 215.293C483.598 215.619 483.633 216.137 483.633 216.849H478.458C478.48 217.565 478.65 218.141 478.966 218.576C479.282 219.007 479.772 219.222 480.436 219.222C481.056 219.222 481.55 219.018 481.919 218.609C482.13 218.372 482.28 218.097 482.367 217.785H483.534C483.503 218.044 483.4 218.334 483.224 218.655C483.053 218.972 482.86 219.231 482.644 219.433C482.284 219.785 481.838 220.022 481.306 220.145C481.021 220.215 480.698 220.25 480.337 220.25C479.458 220.25 478.713 219.932 478.103 219.295C477.492 218.653 477.186 217.757 477.186 216.605C477.186 215.471 477.494 214.551 478.109 213.843C478.724 213.136 479.529 212.782 480.522 212.782ZM482.414 215.906C482.365 215.392 482.253 214.981 482.077 214.674C481.752 214.103 481.209 213.817 480.449 213.817C479.904 213.817 479.447 214.015 479.078 214.41C478.709 214.801 478.513 215.3 478.491 215.906H482.414ZM485.848 216.552C485.848 217.308 486.008 217.941 486.329 218.451C486.65 218.961 487.164 219.216 487.872 219.216C488.421 219.216 488.871 218.98 489.223 218.51C489.579 218.036 489.757 217.357 489.757 216.473C489.757 215.581 489.574 214.922 489.21 214.496C488.845 214.065 488.395 213.85 487.858 213.85C487.261 213.85 486.775 214.078 486.402 214.535C486.032 214.992 485.848 215.665 485.848 216.552ZM487.634 212.815C488.175 212.815 488.627 212.929 488.992 213.158C489.203 213.29 489.443 213.52 489.711 213.85V210.284H490.851V220H489.783V219.018C489.506 219.453 489.179 219.767 488.801 219.96C488.423 220.154 487.99 220.25 487.502 220.25C486.716 220.25 486.035 219.921 485.459 219.262C484.883 218.598 484.595 217.717 484.595 216.618C484.595 215.59 484.857 214.7 485.38 213.949C485.907 213.193 486.659 212.815 487.634 212.815ZM492.895 218.563H494.272V220H492.895V218.563Z" fill="black"/>
</svg>
