<svg width="1440" height="184" viewBox="0 0 1440 184" fill="none" xmlns="http://www.w3.org/2000/svg">
<g filter="url(#filter0_d_70_5127)">
<rect width="1440" height="172" rx="25" fill="#208C53" shape-rendering="crispEdges"/>
<path d="M121.727 91.7656C121.867 91.0312 121.812 90.4062 121.562 89.8906C121.328 89.375 120.969 88.9375 120.484 88.5781C120.016 88.2188 119.477 87.9141 118.867 87.6641C118.273 87.3984 117.695 87.1562 117.133 86.9375C115.914 86.4531 114.711 85.9062 113.523 85.2969C112.336 84.6719 111.258 83.9375 110.289 83.0938C109.32 82.25 108.562 81.2656 108.016 80.1406C107.484 79.0156 107.258 77.6953 107.336 76.1797C107.445 74.4453 107.938 72.9531 108.812 71.7031C109.688 70.4531 110.805 69.4375 112.164 68.6562C113.539 67.8594 115.016 67.2812 116.594 66.9219C118.188 66.5469 119.742 66.375 121.258 66.4062C123.414 66.4375 125.336 66.875 127.023 67.7188C128.727 68.5625 130.062 69.7734 131.031 71.3516C132 72.9141 132.469 74.8047 132.438 77.0234H124.492C124.523 76.1484 124.406 75.3906 124.141 74.75C123.891 74.0938 123.477 73.5859 122.898 73.2266C122.32 72.8516 121.57 72.6562 120.648 72.6406C119.883 72.625 119.117 72.75 118.352 73.0156C117.586 73.2656 116.922 73.6562 116.359 74.1875C115.797 74.7188 115.438 75.4062 115.281 76.25C115.172 76.8906 115.273 77.4531 115.586 77.9375C115.898 78.4062 116.328 78.8125 116.875 79.1562C117.422 79.4844 117.992 79.7656 118.586 80C119.195 80.2344 119.727 80.4375 120.18 80.6094C121.461 81.0938 122.688 81.6641 123.859 82.3203C125.047 82.9609 126.094 83.7188 127 84.5938C127.922 85.4688 128.625 86.4922 129.109 87.6641C129.609 88.8203 129.812 90.1641 129.719 91.6953C129.594 93.4609 129.125 94.9688 128.312 96.2188C127.5 97.4688 126.453 98.4844 125.172 99.2656C123.891 100.047 122.484 100.617 120.953 100.977C119.422 101.336 117.867 101.508 116.289 101.492C114.523 101.461 112.875 101.195 111.344 100.695C109.812 100.18 108.477 99.4375 107.336 98.4688C106.195 97.4844 105.312 96.2812 104.688 94.8594C104.062 93.4219 103.766 91.7734 103.797 89.9141L111.836 89.9375C111.789 90.8125 111.844 91.5859 112 92.2578C112.172 92.9141 112.453 93.4688 112.844 93.9219C113.25 94.3594 113.773 94.6953 114.414 94.9297C115.055 95.1484 115.828 95.2578 116.734 95.2578C117.5 95.2578 118.234 95.1406 118.938 94.9062C119.656 94.6562 120.266 94.2734 120.766 93.7578C121.266 93.2422 121.586 92.5781 121.727 91.7656ZM149.266 75.6406L148.305 81.125H133.445L134.406 75.6406H149.266ZM138.602 69.3359H146.312L142.281 92.7734C142.219 93.3203 142.219 93.7734 142.281 94.1328C142.344 94.4766 142.508 94.7422 142.773 94.9297C143.055 95.1016 143.484 95.2031 144.062 95.2344C144.391 95.25 144.719 95.2422 145.047 95.2109C145.375 95.1797 145.703 95.1484 146.031 95.1172L145.492 100.836C144.82 101.055 144.133 101.211 143.43 101.305C142.742 101.398 142.039 101.445 141.32 101.445C139.727 101.414 138.391 101.094 137.312 100.484C136.25 99.8594 135.477 98.9766 134.992 97.8359C134.523 96.6797 134.359 95.3047 134.5 93.7109L138.602 69.3359ZM160.422 75.6406L156.039 101H148.305L152.711 75.6406H160.422ZM153.391 69.2422C153.359 68.0234 153.766 67.0547 154.609 66.3359C155.469 65.6172 156.477 65.25 157.633 65.2344C158.742 65.2188 159.727 65.5469 160.586 66.2188C161.445 66.875 161.883 67.7891 161.898 68.9609C161.93 70.1797 161.516 71.1484 160.656 71.8672C159.812 72.5859 158.812 72.9531 157.656 72.9688C156.547 72.9844 155.562 72.6641 154.703 72.0078C153.859 71.3359 153.422 70.4141 153.391 69.2422ZM175.07 65L168.836 101H161.102L167.336 65H175.07ZM187.867 65L181.633 101H173.898L180.133 65H187.867ZM232.117 66.875L226.188 101H218.406L210.273 79.4609L206.523 101H198.508L204.414 66.875H212.242L220.375 88.4141L224.102 66.875H232.117ZM243.414 101.469C241.664 101.438 240.07 101.117 238.633 100.508C237.195 99.8828 235.977 99.0234 234.977 97.9297C233.977 96.8359 233.234 95.5547 232.75 94.0859C232.281 92.6016 232.109 90.9844 232.234 89.2344L232.328 88.3203C232.516 86.4766 232.953 84.7578 233.641 83.1641C234.328 81.5547 235.25 80.1484 236.406 78.9453C237.562 77.7266 238.922 76.7812 240.484 76.1094C242.062 75.4375 243.828 75.125 245.781 75.1719C247.547 75.2031 249.07 75.5547 250.352 76.2266C251.648 76.8984 252.703 77.8125 253.516 78.9688C254.328 80.1094 254.891 81.4219 255.203 82.9062C255.531 84.375 255.609 85.9375 255.438 87.5938L254.992 90.8047H234.836L235.633 85.8594L248.055 85.8828L248.195 85.2031C248.305 84.4688 248.273 83.8047 248.102 83.2109C247.93 82.6172 247.609 82.1484 247.141 81.8047C246.672 81.4453 246.039 81.25 245.242 81.2188C244.273 81.2031 243.469 81.4141 242.828 81.8516C242.203 82.2891 241.695 82.8672 241.305 83.5859C240.93 84.3047 240.641 85.0859 240.438 85.9297C240.234 86.7578 240.086 87.5547 239.992 88.3203L239.898 89.2109C239.836 89.9766 239.859 90.7188 239.969 91.4375C240.078 92.1562 240.297 92.8047 240.625 93.3828C240.969 93.9609 241.43 94.4297 242.008 94.7891C242.586 95.1328 243.312 95.3203 244.188 95.3516C245.359 95.3828 246.453 95.1641 247.469 94.6953C248.484 94.2266 249.398 93.5859 250.211 92.7734L253.422 97.0391C252.719 98.1016 251.812 98.9609 250.703 99.6172C249.594 100.258 248.398 100.727 247.117 101.023C245.852 101.336 244.617 101.484 243.414 101.469ZM268.82 101.469C267.07 101.438 265.477 101.117 264.039 100.508C262.602 99.8828 261.383 99.0234 260.383 97.9297C259.383 96.8359 258.641 95.5547 258.156 94.0859C257.688 92.6016 257.516 90.9844 257.641 89.2344L257.734 88.3203C257.922 86.4766 258.359 84.7578 259.047 83.1641C259.734 81.5547 260.656 80.1484 261.812 78.9453C262.969 77.7266 264.328 76.7812 265.891 76.1094C267.469 75.4375 269.234 75.125 271.188 75.1719C272.953 75.2031 274.477 75.5547 275.758 76.2266C277.055 76.8984 278.109 77.8125 278.922 78.9688C279.734 80.1094 280.297 81.4219 280.609 82.9062C280.938 84.375 281.016 85.9375 280.844 87.5938L280.398 90.8047H260.242L261.039 85.8594L273.461 85.8828L273.602 85.2031C273.711 84.4688 273.68 83.8047 273.508 83.2109C273.336 82.6172 273.016 82.1484 272.547 81.8047C272.078 81.4453 271.445 81.25 270.648 81.2188C269.68 81.2031 268.875 81.4141 268.234 81.8516C267.609 82.2891 267.102 82.8672 266.711 83.5859C266.336 84.3047 266.047 85.0859 265.844 85.9297C265.641 86.7578 265.492 87.5547 265.398 88.3203L265.305 89.2109C265.242 89.9766 265.266 90.7188 265.375 91.4375C265.484 92.1562 265.703 92.8047 266.031 93.3828C266.375 93.9609 266.836 94.4297 267.414 94.7891C267.992 95.1328 268.719 95.3203 269.594 95.3516C270.766 95.3828 271.859 95.1641 272.875 94.6953C273.891 94.2266 274.805 93.5859 275.617 92.7734L278.828 97.0391C278.125 98.1016 277.219 98.9609 276.109 99.6172C275 100.258 273.805 100.727 272.523 101.023C271.258 101.336 270.023 101.484 268.82 101.469ZM296.898 94.7422L302.055 65H309.812L303.578 101H296.664L296.898 94.7422ZM282.883 88.8125L282.93 88.2969C283.117 86.75 283.469 85.1875 283.984 83.6094C284.5 82.0312 285.203 80.5938 286.094 79.2969C287 78 288.117 76.9688 289.445 76.2031C290.789 75.4375 292.383 75.0859 294.227 75.1484C295.789 75.2109 297.07 75.6797 298.07 76.5547C299.07 77.4297 299.844 78.5391 300.391 79.8828C300.938 81.2109 301.312 82.6094 301.516 84.0781C301.719 85.5469 301.805 86.8984 301.773 88.1328L301.703 88.7656C301.469 90.0938 301.062 91.5078 300.484 93.0078C299.922 94.4922 299.18 95.8906 298.258 97.2031C297.352 98.5 296.273 99.5547 295.023 100.367C293.773 101.164 292.359 101.539 290.781 101.492C289.062 101.445 287.656 101.031 286.562 100.25C285.469 99.4688 284.625 98.4531 284.031 97.2031C283.453 95.9531 283.078 94.5938 282.906 93.125C282.75 91.6562 282.742 90.2188 282.883 88.8125ZM290.664 88.2734L290.617 88.7656C290.57 89.3281 290.531 89.9766 290.5 90.7109C290.469 91.4453 290.508 92.1641 290.617 92.8672C290.742 93.5703 291 94.1641 291.391 94.6484C291.797 95.1172 292.398 95.375 293.195 95.4219C294.352 95.4688 295.297 95.1953 296.031 94.6016C296.781 94.0078 297.352 93.25 297.742 92.3281C298.148 91.3906 298.406 90.4297 298.516 89.4453L298.727 87.5703C298.805 86.9297 298.844 86.25 298.844 85.5312C298.859 84.8125 298.781 84.1328 298.609 83.4922C298.438 82.8516 298.125 82.3203 297.672 81.8984C297.219 81.4766 296.562 81.2578 295.703 81.2422C294.797 81.2109 294.031 81.4219 293.406 81.875C292.797 82.3281 292.305 82.9219 291.93 83.6562C291.57 84.375 291.289 85.1484 291.086 85.9766C290.898 86.7891 290.758 87.5547 290.664 88.2734ZM346.023 80.4219L344.922 86.75H327.883L328.984 80.4219H346.023ZM334.047 66.875L328.117 101H320.102L326.008 66.875H334.047ZM353.734 66.875L347.805 101H339.812L345.719 66.875H353.734ZM365.008 101.469C363.258 101.438 361.664 101.117 360.227 100.508C358.789 99.8828 357.57 99.0234 356.57 97.9297C355.57 96.8359 354.828 95.5547 354.344 94.0859C353.875 92.6016 353.703 90.9844 353.828 89.2344L353.922 88.3203C354.109 86.4766 354.547 84.7578 355.234 83.1641C355.922 81.5547 356.844 80.1484 358 78.9453C359.156 77.7266 360.516 76.7812 362.078 76.1094C363.656 75.4375 365.422 75.125 367.375 75.1719C369.141 75.2031 370.664 75.5547 371.945 76.2266C373.242 76.8984 374.297 77.8125 375.109 78.9688C375.922 80.1094 376.484 81.4219 376.797 82.9062C377.125 84.375 377.203 85.9375 377.031 87.5938L376.586 90.8047H356.43L357.227 85.8594L369.648 85.8828L369.789 85.2031C369.898 84.4688 369.867 83.8047 369.695 83.2109C369.523 82.6172 369.203 82.1484 368.734 81.8047C368.266 81.4453 367.633 81.25 366.836 81.2188C365.867 81.2031 365.062 81.4141 364.422 81.8516C363.797 82.2891 363.289 82.8672 362.898 83.5859C362.523 84.3047 362.234 85.0859 362.031 85.9297C361.828 86.7578 361.68 87.5547 361.586 88.3203L361.492 89.2109C361.43 89.9766 361.453 90.7188 361.562 91.4375C361.672 92.1562 361.891 92.8047 362.219 93.3828C362.562 93.9609 363.023 94.4297 363.602 94.7891C364.18 95.1328 364.906 95.3203 365.781 95.3516C366.953 95.3828 368.047 95.1641 369.062 94.6953C370.078 94.2266 370.992 93.5859 371.805 92.7734L375.016 97.0391C374.312 98.1016 373.406 98.9609 372.297 99.6172C371.188 100.258 369.992 100.727 368.711 101.023C367.445 101.336 366.211 101.484 365.008 101.469ZM392.242 65L386.008 101H378.273L384.508 65H392.242ZM401.922 80.9375L396.742 110.75H389.031L395.125 75.6406H402.273L401.922 80.9375ZM415.75 87.875L415.68 88.3672C415.508 89.8984 415.156 91.4453 414.625 93.0078C414.109 94.5703 413.398 96 412.492 97.2969C411.602 98.5938 410.492 99.6328 409.164 100.414C407.836 101.18 406.273 101.539 404.477 101.492C402.898 101.445 401.609 101.008 400.609 100.18C399.609 99.3359 398.828 98.2734 398.266 96.9922C397.719 95.6953 397.336 94.3281 397.117 92.8906C396.914 91.4375 396.828 90.0859 396.859 88.8359L396.93 88.1562C397.164 86.7812 397.555 85.3281 398.102 83.7969C398.648 82.2656 399.367 80.8438 400.258 79.5312C401.148 78.2031 402.219 77.1328 403.469 76.3203C404.719 75.4922 406.172 75.1016 407.828 75.1484C409.562 75.1953 410.984 75.6094 412.094 76.3906C413.203 77.1562 414.047 78.1641 414.625 79.4141C415.203 80.6484 415.57 82.0078 415.727 83.4922C415.883 84.9766 415.891 86.4375 415.75 87.875ZM407.992 88.3438L408.039 87.8516C408.086 87.2891 408.125 86.6406 408.156 85.9062C408.188 85.1719 408.141 84.4531 408.016 83.75C407.906 83.0469 407.648 82.4609 407.242 81.9922C406.852 81.5078 406.25 81.25 405.438 81.2188C404.484 81.1719 403.688 81.3203 403.047 81.6641C402.406 82.0078 401.883 82.4844 401.477 83.0938C401.086 83.7031 400.781 84.3906 400.562 85.1562C400.344 85.9062 400.188 86.6797 400.094 87.4766L399.883 89.3984C399.773 90.2891 399.75 91.1953 399.812 92.1172C399.875 93.0234 400.141 93.7891 400.609 94.4141C401.094 95.0391 401.906 95.3672 403.047 95.3984C403.953 95.4141 404.703 95.1953 405.297 94.7422C405.906 94.2891 406.391 93.6953 406.75 92.9609C407.125 92.2266 407.406 91.4531 407.594 90.6406C407.781 89.8125 407.914 89.0469 407.992 88.3438ZM429.977 88.7188L430.023 88.2266C430.227 86.3984 430.672 84.6875 431.359 83.0938C432.047 81.5 432.961 80.1016 434.102 78.8984C435.258 77.6953 436.617 76.7656 438.18 76.1094C439.742 75.4375 441.492 75.125 443.43 75.1719C445.289 75.2031 446.898 75.5625 448.258 76.25C449.617 76.9375 450.734 77.875 451.609 79.0625C452.484 80.2344 453.102 81.5938 453.461 83.1406C453.836 84.6719 453.945 86.3047 453.789 88.0391L453.742 88.5547C453.539 90.3672 453.086 92.0625 452.383 93.6406C451.68 95.2188 450.75 96.6016 449.594 97.7891C448.453 98.9766 447.102 99.8984 445.539 100.555C443.977 101.211 442.234 101.516 440.312 101.469C438.484 101.438 436.883 101.086 435.508 100.414C434.148 99.7266 433.031 98.8047 432.156 97.6484C431.281 96.4766 430.656 95.1328 430.281 93.6172C429.922 92.0859 429.82 90.4531 429.977 88.7188ZM437.734 88.2266L437.688 88.7188C437.641 89.3594 437.609 90.0625 437.594 90.8281C437.594 91.5781 437.68 92.3047 437.852 93.0078C438.023 93.6953 438.336 94.2656 438.789 94.7188C439.258 95.1562 439.93 95.3906 440.805 95.4219C441.742 95.4531 442.523 95.2578 443.148 94.8359C443.789 94.4141 444.305 93.8516 444.695 93.1484C445.086 92.4453 445.383 91.6875 445.586 90.875C445.805 90.0625 445.953 89.2812 446.031 88.5312L446.078 88.0391C446.125 87.4141 446.148 86.7188 446.148 85.9531C446.164 85.1719 446.086 84.4297 445.914 83.7266C445.742 83.0234 445.422 82.4453 444.953 81.9922C444.484 81.5234 443.812 81.2734 442.938 81.2422C442 81.2109 441.211 81.4141 440.57 81.8516C439.945 82.2891 439.438 82.8672 439.047 83.5859C438.656 84.2891 438.359 85.0547 438.156 85.8828C437.953 86.6953 437.812 87.4766 437.734 88.2266ZM465.883 82.3438L462.648 101H454.938L459.344 75.6406H466.516L465.883 82.3438ZM474.18 75.4297L473.172 82.7891C472.766 82.7266 472.359 82.6719 471.953 82.625C471.547 82.5781 471.133 82.5469 470.711 82.5312C469.852 82.5156 469.07 82.6172 468.367 82.8359C467.68 83.0391 467.078 83.3594 466.562 83.7969C466.062 84.2188 465.648 84.75 465.32 85.3906C464.992 86.0312 464.75 86.7734 464.594 87.6172L463.305 86.6797C463.461 85.4922 463.711 84.2344 464.055 82.9062C464.414 81.5625 464.914 80.2969 465.555 79.1094C466.195 77.9219 467.023 76.9609 468.039 76.2266C469.055 75.4766 470.305 75.1016 471.789 75.1016C472.195 75.1016 472.594 75.1328 472.984 75.1953C473.375 75.2578 473.773 75.3359 474.18 75.4297ZM505.422 89.4688L513.273 89.375C513.055 91.9688 512.219 94.1797 510.766 96.0078C509.328 97.8203 507.508 99.1953 505.305 100.133C503.117 101.07 500.781 101.516 498.297 101.469C495.938 101.422 493.953 100.938 492.344 100.016C490.734 99.0781 489.469 97.8281 488.547 96.2656C487.625 94.6875 487.016 92.9219 486.719 90.9688C486.422 89 486.406 86.9688 486.672 84.875L486.93 83.0234C487.242 80.8516 487.82 78.7656 488.664 76.7656C489.508 74.75 490.609 72.9531 491.969 71.375C493.344 69.7969 494.977 68.5625 496.867 67.6719C498.758 66.7656 500.898 66.3359 503.289 66.3828C505.836 66.4297 508 66.9609 509.781 67.9766C511.578 68.9922 512.969 70.4141 513.953 72.2422C514.953 74.0703 515.516 76.2266 515.641 78.7109L507.648 78.6875C507.695 77.4844 507.578 76.4531 507.297 75.5938C507.016 74.7344 506.516 74.0703 505.797 73.6016C505.094 73.1172 504.102 72.8516 502.82 72.8047C501.43 72.7578 500.266 73.0469 499.328 73.6719C498.406 74.2812 497.656 75.1016 497.078 76.1328C496.5 77.1641 496.055 78.2812 495.742 79.4844C495.445 80.6875 495.219 81.8516 495.062 82.9766L494.828 84.8984C494.719 85.8203 494.617 86.8594 494.523 88.0156C494.43 89.1562 494.469 90.2578 494.641 91.3203C494.812 92.3672 495.211 93.2422 495.836 93.9453C496.461 94.6484 497.438 95.0234 498.766 95.0703C500.016 95.1016 501.102 94.9062 502.023 94.4844C502.945 94.0469 503.688 93.4062 504.25 92.5625C504.828 91.7031 505.219 90.6719 505.422 89.4688ZM516.227 88.7188L516.273 88.2266C516.477 86.3984 516.922 84.6875 517.609 83.0938C518.297 81.5 519.211 80.1016 520.352 78.8984C521.508 77.6953 522.867 76.7656 524.43 76.1094C525.992 75.4375 527.742 75.125 529.68 75.1719C531.539 75.2031 533.148 75.5625 534.508 76.25C535.867 76.9375 536.984 77.875 537.859 79.0625C538.734 80.2344 539.352 81.5938 539.711 83.1406C540.086 84.6719 540.195 86.3047 540.039 88.0391L539.992 88.5547C539.789 90.3672 539.336 92.0625 538.633 93.6406C537.93 95.2188 537 96.6016 535.844 97.7891C534.703 98.9766 533.352 99.8984 531.789 100.555C530.227 101.211 528.484 101.516 526.562 101.469C524.734 101.438 523.133 101.086 521.758 100.414C520.398 99.7266 519.281 98.8047 518.406 97.6484C517.531 96.4766 516.906 95.1328 516.531 93.6172C516.172 92.0859 516.07 90.4531 516.227 88.7188ZM523.984 88.2266L523.938 88.7188C523.891 89.3594 523.859 90.0625 523.844 90.8281C523.844 91.5781 523.93 92.3047 524.102 93.0078C524.273 93.6953 524.586 94.2656 525.039 94.7188C525.508 95.1562 526.18 95.3906 527.055 95.4219C527.992 95.4531 528.773 95.2578 529.398 94.8359C530.039 94.4141 530.555 93.8516 530.945 93.1484C531.336 92.4453 531.633 91.6875 531.836 90.875C532.055 90.0625 532.203 89.2812 532.281 88.5312L532.328 88.0391C532.375 87.4141 532.398 86.7188 532.398 85.9531C532.414 85.1719 532.336 84.4297 532.164 83.7266C531.992 83.0234 531.672 82.4453 531.203 81.9922C530.734 81.5234 530.062 81.2734 529.188 81.2422C528.25 81.2109 527.461 81.4141 526.82 81.8516C526.195 82.2891 525.688 82.8672 525.297 83.5859C524.906 84.2891 524.609 85.0547 524.406 85.8828C524.203 86.6953 524.062 87.4766 523.984 88.2266ZM552.086 81.4766L548.688 101H540.977L545.383 75.6406H552.578L552.086 81.4766ZM550.164 87.4531L548.57 87.5469C548.711 86.0312 549.023 84.5312 549.508 83.0469C549.992 81.5469 550.664 80.1953 551.523 78.9922C552.398 77.7891 553.477 76.8438 554.758 76.1562C556.055 75.4531 557.578 75.1172 559.328 75.1484C560.75 75.1953 561.914 75.5 562.82 76.0625C563.742 76.625 564.445 77.375 564.93 78.3125C565.414 79.2344 565.719 80.2812 565.844 81.4531C565.984 82.6094 565.992 83.8047 565.867 85.0391L563.195 101H555.438L558.133 84.9688C558.211 84.2344 558.188 83.5859 558.062 83.0234C557.953 82.4609 557.688 82.0234 557.266 81.7109C556.859 81.3984 556.25 81.2344 555.438 81.2188C554.531 81.2031 553.766 81.375 553.141 81.7344C552.531 82.0938 552.023 82.5859 551.617 83.2109C551.227 83.8203 550.914 84.5 550.68 85.25C550.461 85.9844 550.289 86.7188 550.164 87.4531ZM576.859 101H569.102L573.766 73.5781C574.016 71.6562 574.609 70.0078 575.547 68.6328C576.484 67.2578 577.703 66.2109 579.203 65.4922C580.719 64.7578 582.453 64.4062 584.406 64.4375C585.062 64.4531 585.711 64.5156 586.352 64.625C586.992 64.7188 587.625 64.8359 588.25 64.9766L587.664 70.8125C587.367 70.7344 587.062 70.6719 586.75 70.625C586.438 70.5781 586.125 70.5469 585.812 70.5312C585.125 70.5312 584.484 70.6406 583.891 70.8594C583.312 71.0781 582.82 71.4141 582.414 71.8672C582.008 72.3047 581.734 72.875 581.594 73.5781L576.859 101ZM586.047 75.6406L585.062 81.125H569.008L569.969 75.6406H586.047ZM599.852 94.4375L603.109 75.6406H610.844L606.438 101H599.242L599.852 94.4375ZM601.305 89.6562L603.297 89.6094C603.141 91.0469 602.828 92.4766 602.359 93.8984C601.891 95.3203 601.242 96.6094 600.414 97.7656C599.586 98.9219 598.555 99.8438 597.32 100.531C596.102 101.203 594.656 101.523 592.984 101.492C591.594 101.461 590.414 101.195 589.445 100.695C588.492 100.195 587.727 99.5156 587.148 98.6562C586.57 97.7812 586.18 96.7812 585.977 95.6562C585.773 94.5312 585.734 93.3281 585.859 92.0469L588.602 75.6406H596.312L593.523 92.1406C593.477 92.5938 593.477 93.0156 593.523 93.4062C593.586 93.7969 593.703 94.1406 593.875 94.4375C594.062 94.7188 594.32 94.9453 594.648 95.1172C594.977 95.2891 595.398 95.3828 595.914 95.3984C597.086 95.4453 598.039 95.2031 598.773 94.6719C599.508 94.125 600.07 93.4062 600.461 92.5156C600.867 91.625 601.148 90.6719 601.305 89.6562ZM624.953 93.7344C625.078 93.0781 624.883 92.5781 624.367 92.2344C623.867 91.875 623.266 91.6094 622.562 91.4375C621.875 91.25 621.32 91.1016 620.898 90.9922C619.945 90.7422 619 90.4219 618.062 90.0312C617.125 89.625 616.273 89.125 615.508 88.5312C614.758 87.9219 614.156 87.1953 613.703 86.3516C613.266 85.4922 613.07 84.4922 613.117 83.3516C613.164 81.9453 613.516 80.7266 614.172 79.6953C614.844 78.6641 615.711 77.8125 616.773 77.1406C617.836 76.4531 618.992 75.9453 620.242 75.6172C621.508 75.2891 622.766 75.1406 624.016 75.1719C625.734 75.1875 627.352 75.4922 628.867 76.0859C630.398 76.6797 631.641 77.5859 632.594 78.8047C633.562 80.0234 634.055 81.5703 634.07 83.4453L626.406 83.4219C626.422 82.8125 626.344 82.2812 626.172 81.8281C626.016 81.375 625.742 81.0312 625.352 80.7969C624.961 80.5469 624.43 80.4219 623.758 80.4219C623.258 80.4219 622.766 80.5234 622.281 80.7266C621.797 80.9297 621.375 81.2188 621.016 81.5938C620.672 81.9688 620.453 82.4219 620.359 82.9531C620.266 83.4062 620.328 83.7891 620.547 84.1016C620.766 84.3984 621.062 84.6406 621.438 84.8281C621.812 85.0156 622.203 85.1719 622.609 85.2969C623.031 85.4062 623.406 85.4922 623.734 85.5547C625.156 85.8984 626.531 86.3594 627.859 86.9375C629.203 87.5 630.297 88.3047 631.141 89.3516C632 90.3828 632.406 91.7578 632.359 93.4766C632.312 94.9297 631.922 96.1719 631.188 97.2031C630.453 98.2188 629.508 99.0469 628.352 99.6875C627.211 100.312 625.977 100.766 624.648 101.047C623.336 101.344 622.062 101.484 620.828 101.469C619.109 101.438 617.484 101.094 615.953 100.438C614.422 99.7656 613.172 98.7969 612.203 97.5312C611.25 96.25 610.75 94.6797 610.703 92.8203L617.828 92.8438C617.844 93.5781 617.977 94.1953 618.227 94.6953C618.492 95.1797 618.875 95.5547 619.375 95.8203C619.875 96.0703 620.492 96.1953 621.227 96.1953C621.773 96.1953 622.305 96.1172 622.82 95.9609C623.352 95.7891 623.805 95.5234 624.18 95.1641C624.57 94.7891 624.828 94.3125 624.953 93.7344ZM647.102 101.469C645.352 101.438 643.758 101.117 642.32 100.508C640.883 99.8828 639.664 99.0234 638.664 97.9297C637.664 96.8359 636.922 95.5547 636.438 94.0859C635.969 92.6016 635.797 90.9844 635.922 89.2344L636.016 88.3203C636.203 86.4766 636.641 84.7578 637.328 83.1641C638.016 81.5547 638.938 80.1484 640.094 78.9453C641.25 77.7266 642.609 76.7812 644.172 76.1094C645.75 75.4375 647.516 75.125 649.469 75.1719C651.234 75.2031 652.758 75.5547 654.039 76.2266C655.336 76.8984 656.391 77.8125 657.203 78.9688C658.016 80.1094 658.578 81.4219 658.891 82.9062C659.219 84.375 659.297 85.9375 659.125 87.5938L658.68 90.8047H638.523L639.32 85.8594L651.742 85.8828L651.883 85.2031C651.992 84.4688 651.961 83.8047 651.789 83.2109C651.617 82.6172 651.297 82.1484 650.828 81.8047C650.359 81.4453 649.727 81.25 648.93 81.2188C647.961 81.2031 647.156 81.4141 646.516 81.8516C645.891 82.2891 645.383 82.8672 644.992 83.5859C644.617 84.3047 644.328 85.0859 644.125 85.9297C643.922 86.7578 643.773 87.5547 643.68 88.3203L643.586 89.2109C643.523 89.9766 643.547 90.7188 643.656 91.4375C643.766 92.1562 643.984 92.8047 644.312 93.3828C644.656 93.9609 645.117 94.4297 645.695 94.7891C646.273 95.1328 647 95.3203 647.875 95.3516C649.047 95.3828 650.141 95.1641 651.156 94.6953C652.172 94.2266 653.086 93.5859 653.898 92.7734L657.109 97.0391C656.406 98.1016 655.5 98.9609 654.391 99.6172C653.281 100.258 652.086 100.727 650.805 101.023C649.539 101.336 648.305 101.484 647.102 101.469ZM675.18 94.7422L680.336 65H688.094L681.859 101H674.945L675.18 94.7422ZM661.164 88.8125L661.211 88.2969C661.398 86.75 661.75 85.1875 662.266 83.6094C662.781 82.0312 663.484 80.5938 664.375 79.2969C665.281 78 666.398 76.9688 667.727 76.2031C669.07 75.4375 670.664 75.0859 672.508 75.1484C674.07 75.2109 675.352 75.6797 676.352 76.5547C677.352 77.4297 678.125 78.5391 678.672 79.8828C679.219 81.2109 679.594 82.6094 679.797 84.0781C680 85.5469 680.086 86.8984 680.055 88.1328L679.984 88.7656C679.75 90.0938 679.344 91.5078 678.766 93.0078C678.203 94.4922 677.461 95.8906 676.539 97.2031C675.633 98.5 674.555 99.5547 673.305 100.367C672.055 101.164 670.641 101.539 669.062 101.492C667.344 101.445 665.938 101.031 664.844 100.25C663.75 99.4688 662.906 98.4531 662.312 97.2031C661.734 95.9531 661.359 94.5938 661.188 93.125C661.031 91.6562 661.023 90.2188 661.164 88.8125ZM668.945 88.2734L668.898 88.7656C668.852 89.3281 668.812 89.9766 668.781 90.7109C668.75 91.4453 668.789 92.1641 668.898 92.8672C669.023 93.5703 669.281 94.1641 669.672 94.6484C670.078 95.1172 670.68 95.375 671.477 95.4219C672.633 95.4688 673.578 95.1953 674.312 94.6016C675.062 94.0078 675.633 93.25 676.023 92.3281C676.43 91.3906 676.688 90.4297 676.797 89.4453L677.008 87.5703C677.086 86.9297 677.125 86.25 677.125 85.5312C677.141 84.8125 677.062 84.1328 676.891 83.4922C676.719 82.8516 676.406 82.3203 675.953 81.8984C675.5 81.4766 674.844 81.2578 673.984 81.2422C673.078 81.2109 672.312 81.4219 671.688 81.875C671.078 82.3281 670.586 82.9219 670.211 83.6562C669.852 84.375 669.57 85.1484 669.367 85.9766C669.18 86.7891 669.039 87.5547 668.945 88.2734ZM715.422 75.6406L714.461 81.125H699.602L700.562 75.6406H715.422ZM704.758 69.3359H712.469L708.438 92.7734C708.375 93.3203 708.375 93.7734 708.438 94.1328C708.5 94.4766 708.664 94.7422 708.93 94.9297C709.211 95.1016 709.641 95.2031 710.219 95.2344C710.547 95.25 710.875 95.2422 711.203 95.2109C711.531 95.1797 711.859 95.1484 712.188 95.1172L711.648 100.836C710.977 101.055 710.289 101.211 709.586 101.305C708.898 101.398 708.195 101.445 707.477 101.445C705.883 101.414 704.547 101.094 703.469 100.484C702.406 99.8594 701.633 98.9766 701.148 97.8359C700.68 96.6797 700.516 95.3047 700.656 93.7109L704.758 69.3359ZM714.602 88.7188L714.648 88.2266C714.852 86.3984 715.297 84.6875 715.984 83.0938C716.672 81.5 717.586 80.1016 718.727 78.8984C719.883 77.6953 721.242 76.7656 722.805 76.1094C724.367 75.4375 726.117 75.125 728.055 75.1719C729.914 75.2031 731.523 75.5625 732.883 76.25C734.242 76.9375 735.359 77.875 736.234 79.0625C737.109 80.2344 737.727 81.5938 738.086 83.1406C738.461 84.6719 738.57 86.3047 738.414 88.0391L738.367 88.5547C738.164 90.3672 737.711 92.0625 737.008 93.6406C736.305 95.2188 735.375 96.6016 734.219 97.7891C733.078 98.9766 731.727 99.8984 730.164 100.555C728.602 101.211 726.859 101.516 724.938 101.469C723.109 101.438 721.508 101.086 720.133 100.414C718.773 99.7266 717.656 98.8047 716.781 97.6484C715.906 96.4766 715.281 95.1328 714.906 93.6172C714.547 92.0859 714.445 90.4531 714.602 88.7188ZM722.359 88.2266L722.312 88.7188C722.266 89.3594 722.234 90.0625 722.219 90.8281C722.219 91.5781 722.305 92.3047 722.477 93.0078C722.648 93.6953 722.961 94.2656 723.414 94.7188C723.883 95.1562 724.555 95.3906 725.43 95.4219C726.367 95.4531 727.148 95.2578 727.773 94.8359C728.414 94.4141 728.93 93.8516 729.32 93.1484C729.711 92.4453 730.008 91.6875 730.211 90.875C730.43 90.0625 730.578 89.2812 730.656 88.5312L730.703 88.0391C730.75 87.4141 730.773 86.7188 730.773 85.9531C730.789 85.1719 730.711 84.4297 730.539 83.7266C730.367 83.0234 730.047 82.4453 729.578 81.9922C729.109 81.5234 728.438 81.2734 727.562 81.2422C726.625 81.2109 725.836 81.4141 725.195 81.8516C724.57 82.2891 724.062 82.8672 723.672 83.5859C723.281 84.2891 722.984 85.0547 722.781 85.8828C722.578 86.6953 722.438 87.4766 722.359 88.2266ZM767.383 89.4453L758.711 89.4219L759.812 83.0703L767.664 83.0938C768.68 83.0938 769.609 82.9141 770.453 82.5547C771.297 82.1797 771.992 81.6406 772.539 80.9375C773.086 80.2344 773.438 79.3594 773.594 78.3125C773.734 77.4531 773.711 76.6484 773.523 75.8984C773.336 75.1484 772.969 74.5312 772.422 74.0469C771.875 73.5625 771.125 73.2969 770.172 73.25L764.57 73.2266L759.742 101H751.727L757.633 66.875L770.43 66.8984C772.664 66.9453 774.664 67.4297 776.43 68.3516C778.195 69.2734 779.562 70.5703 780.531 72.2422C781.5 73.9141 781.891 75.9219 781.703 78.2656C781.5 80.7969 780.695 82.8906 779.289 84.5469C777.898 86.2031 776.148 87.4375 774.039 88.25C771.945 89.0469 769.727 89.4453 767.383 89.4453ZM796.07 65L789.836 101H782.102L788.336 65H796.07ZM808.422 94.625L810.062 84.0781C810.125 83.5156 810.117 82.9766 810.039 82.4609C809.977 81.9453 809.781 81.5234 809.453 81.1953C809.141 80.8516 808.648 80.6719 807.977 80.6562C807.367 80.6406 806.852 80.75 806.43 80.9844C806.008 81.2188 805.672 81.5469 805.422 81.9688C805.172 82.3906 804.992 82.875 804.883 83.4219L797.148 83.4688C797.211 82 797.602 80.7344 798.32 79.6719C799.039 78.6094 799.961 77.7422 801.086 77.0703C802.211 76.3984 803.438 75.9062 804.766 75.5938C806.109 75.2812 807.43 75.1406 808.727 75.1719C810.508 75.2031 812.117 75.5781 813.555 76.2969C815.008 77 816.125 78.0234 816.906 79.3672C817.703 80.6953 818.008 82.3125 817.82 84.2188L816.156 94.625C816.016 95.5625 815.891 96.5625 815.781 97.625C815.672 98.6719 815.828 99.6484 816.25 100.555L816.227 101L808.703 101.023C808.359 100.008 808.188 98.9531 808.188 97.8594C808.188 96.7656 808.266 95.6875 808.422 94.625ZM810.93 85.5078L810.227 89.7266L807.203 89.7031C806.609 89.7188 806.039 89.8203 805.492 90.0078C804.961 90.1797 804.484 90.4297 804.062 90.7578C803.641 91.0859 803.289 91.4922 803.008 91.9766C802.742 92.4609 802.57 93.0156 802.492 93.6406C802.43 94.0625 802.461 94.4453 802.586 94.7891C802.727 95.1172 802.938 95.3828 803.219 95.5859C803.516 95.7891 803.883 95.8984 804.32 95.9141C804.992 95.9297 805.641 95.8047 806.266 95.5391C806.891 95.2734 807.43 94.8984 807.883 94.4141C808.352 93.9297 808.672 93.3672 808.844 92.7266L810.203 96.0312C809.797 96.8438 809.328 97.5859 808.797 98.2578C808.281 98.9297 807.695 99.5156 807.039 100.016C806.398 100.5 805.68 100.875 804.883 101.141C804.086 101.406 803.203 101.531 802.234 101.516C800.844 101.484 799.562 101.148 798.391 100.508C797.219 99.8672 796.289 98.9922 795.602 97.8828C794.914 96.7734 794.594 95.4922 794.641 94.0391C794.703 92.3516 795.117 90.9531 795.883 89.8438C796.648 88.7344 797.641 87.8672 798.859 87.2422C800.094 86.6016 801.43 86.1484 802.867 85.8828C804.32 85.6172 805.758 85.4844 807.18 85.4844L810.93 85.5078ZM830.688 95.3984C831.422 95.4141 832.055 95.2812 832.586 95C833.117 94.7031 833.539 94.2969 833.852 93.7812C834.18 93.25 834.391 92.6406 834.484 91.9531L841.727 91.9297C841.633 93.9297 841.047 95.6484 839.969 97.0859C838.906 98.5234 837.539 99.625 835.867 100.391C834.195 101.156 832.398 101.516 830.477 101.469C828.633 101.438 827.047 101.078 825.719 100.391C824.391 99.6875 823.312 98.75 822.484 97.5781C821.656 96.3906 821.07 95.0312 820.727 93.5C820.398 91.9688 820.312 90.3516 820.469 88.6484L820.539 88.0859C820.727 86.3047 821.148 84.625 821.805 83.0469C822.477 81.4688 823.367 80.0859 824.477 78.8984C825.586 77.6953 826.898 76.7656 828.414 76.1094C829.945 75.4375 831.664 75.125 833.57 75.1719C835.602 75.2031 837.328 75.6562 838.75 76.5312C840.188 77.4062 841.273 78.6016 842.008 80.1172C842.742 81.6328 843.086 83.3828 843.039 85.3672L835.797 85.3438C835.828 84.6719 835.766 84.0312 835.609 83.4219C835.469 82.7969 835.188 82.2891 834.766 81.8984C834.344 81.4922 833.734 81.2734 832.938 81.2422C832.016 81.2109 831.266 81.4141 830.688 81.8516C830.109 82.2891 829.648 82.8672 829.305 83.5859C828.977 84.2891 828.734 85.0469 828.578 85.8594C828.422 86.6562 828.305 87.4062 828.227 88.1094L828.203 88.6484C828.141 89.2109 828.078 89.875 828.016 90.6406C827.969 91.3906 827.992 92.125 828.086 92.8438C828.195 93.5625 828.445 94.1641 828.836 94.6484C829.227 95.1172 829.844 95.3672 830.688 95.3984ZM856 75.6406L851.617 101H843.883L848.289 75.6406H856ZM848.969 69.2422C848.938 68.0234 849.344 67.0547 850.188 66.3359C851.047 65.6172 852.055 65.25 853.211 65.2344C854.32 65.2188 855.305 65.5469 856.164 66.2188C857.023 66.875 857.461 67.7891 857.477 68.9609C857.508 70.1797 857.094 71.1484 856.234 71.8672C855.391 72.5859 854.391 72.9531 853.234 72.9688C852.125 72.9844 851.141 72.6641 850.281 72.0078C849.438 71.3359 849 70.4141 848.969 69.2422ZM867.227 81.4766L863.828 101H856.117L860.523 75.6406H867.719L867.227 81.4766ZM865.305 87.4531L863.711 87.5469C863.852 86.0312 864.164 84.5312 864.648 83.0469C865.133 81.5469 865.805 80.1953 866.664 78.9922C867.539 77.7891 868.617 76.8438 869.898 76.1562C871.195 75.4531 872.719 75.1172 874.469 75.1484C875.891 75.1953 877.055 75.5 877.961 76.0625C878.883 76.625 879.586 77.375 880.07 78.3125C880.555 79.2344 880.859 80.2812 880.984 81.4531C881.125 82.6094 881.133 83.8047 881.008 85.0391L878.336 101H870.578L873.273 84.9688C873.352 84.2344 873.328 83.5859 873.203 83.0234C873.094 82.4609 872.828 82.0234 872.406 81.7109C872 81.3984 871.391 81.2344 870.578 81.2188C869.672 81.2031 868.906 81.375 868.281 81.7344C867.672 82.0938 867.164 82.5859 866.758 83.2109C866.367 83.8203 866.055 84.5 865.82 85.25C865.602 85.9844 865.43 86.7188 865.305 87.4531ZM902.359 75.6406H909.438L905.289 99.9922C904.961 102.43 904.133 104.469 902.805 106.109C901.492 107.766 899.836 109.008 897.836 109.836C895.836 110.664 893.648 111.047 891.273 110.984C890.148 110.969 889.039 110.812 887.945 110.516C886.867 110.219 885.844 109.781 884.875 109.203C883.906 108.641 883.047 107.93 882.297 107.07L885.953 102.523C886.625 103.367 887.406 104.016 888.297 104.469C889.203 104.922 890.195 105.156 891.273 105.172C892.383 105.203 893.367 105.008 894.227 104.586C895.102 104.164 895.82 103.562 896.383 102.781C896.945 102 897.328 101.062 897.531 99.9688L900.719 81.2422L902.359 75.6406ZM883.844 88.7891L883.914 88.2969C884.102 86.7031 884.477 85.1172 885.039 83.5391C885.602 81.9609 886.359 80.5312 887.312 79.25C888.281 77.9688 889.453 76.9609 890.828 76.2266C892.219 75.4766 893.836 75.125 895.68 75.1719C897.383 75.2188 898.742 75.6562 899.758 76.4844C900.789 77.3125 901.562 78.375 902.078 79.6719C902.594 80.9688 902.93 82.3672 903.086 83.8672C903.242 85.3516 903.297 86.7812 903.25 88.1562L903.203 88.7656C902.953 90.125 902.539 91.5547 901.961 93.0547C901.398 94.5547 900.664 95.9531 899.758 97.25C898.867 98.5469 897.789 99.5938 896.523 100.391C895.273 101.172 893.836 101.539 892.211 101.492C890.508 101.461 889.086 101.062 887.945 100.297C886.805 99.5156 885.906 98.5078 885.25 97.2734C884.609 96.0234 884.18 94.6641 883.961 93.1953C883.742 91.7109 883.703 90.2422 883.844 88.7891ZM891.625 88.2969L891.578 88.7891C891.516 89.3984 891.484 90.0781 891.484 90.8281C891.5 91.5625 891.602 92.2734 891.789 92.9609C891.977 93.6484 892.297 94.2188 892.75 94.6719C893.203 95.125 893.836 95.3672 894.648 95.3984C895.852 95.4609 896.844 95.2109 897.625 94.6484C898.406 94.0859 899.008 93.3438 899.43 92.4219C899.852 91.4844 900.125 90.4922 900.25 89.4453L900.461 87.5703C900.539 86.8672 900.578 86.1562 900.578 85.4375C900.594 84.7031 900.5 84.0234 900.297 83.3984C900.109 82.7734 899.773 82.2656 899.289 81.875C898.805 81.4688 898.109 81.2578 897.203 81.2422C896.281 81.2109 895.484 81.4219 894.812 81.875C894.156 82.3125 893.609 82.8906 893.172 83.6094C892.734 84.3281 892.391 85.1016 892.141 85.9297C891.891 86.7578 891.719 87.5469 891.625 88.2969ZM940.281 74.4453L927.719 101H918.836L936.93 66.875H942.602L940.281 74.4453ZM942.438 101L938.969 73.625L939.156 66.875H944.5L950.805 101H942.438ZM944.266 88.2734L943.141 94.625H926.102L927.227 88.2734H944.266ZM981.555 86.4922H972.672L973.586 81.1016L980.102 81.125C981.055 81.125 981.969 81.0156 982.844 80.7969C983.734 80.5625 984.484 80.1562 985.094 79.5781C985.719 79 986.117 78.1797 986.289 77.1172C986.43 76.1484 986.352 75.3906 986.055 74.8438C985.758 74.2812 985.281 73.8828 984.625 73.6484C983.984 73.3984 983.219 73.2656 982.328 73.25L978.039 73.2266L973.211 101H965.195L971.102 66.875L982.586 66.8984C984.07 66.9141 985.539 67.0781 986.992 67.3906C988.445 67.7031 989.75 68.2109 990.906 68.9141C992.062 69.6016 992.969 70.5391 993.625 71.7266C994.281 72.8984 994.555 74.3672 994.445 76.1328C994.336 78.0547 993.797 79.6172 992.828 80.8203C991.875 82.0078 990.641 82.8906 989.125 83.4688C987.609 84.0312 985.969 84.3359 984.203 84.3828L981.555 86.4922ZM978.836 101H968.055L971.898 94.6719L979.094 94.6953C979.984 94.6797 980.82 94.5312 981.602 94.25C982.398 93.9688 983.062 93.5312 983.594 92.9375C984.141 92.3281 984.492 91.5547 984.648 90.6172C984.789 89.8203 984.773 89.125 984.602 88.5312C984.445 87.9219 984.117 87.4453 983.617 87.1016C983.133 86.7578 982.477 86.5625 981.648 86.5156L974.5 86.4922L975.484 81.1016L983.266 81.125L984.672 83.2578C986.25 83.2734 987.648 83.5547 988.867 84.1016C990.086 84.6484 991.023 85.4766 991.68 86.5859C992.352 87.6797 992.633 89.0547 992.523 90.7109C992.367 93.2578 991.633 95.2891 990.32 96.8047C989.008 98.3047 987.336 99.3828 985.305 100.039C983.273 100.695 981.117 101.016 978.836 101ZM1007.43 101.469C1005.68 101.438 1004.09 101.117 1002.65 100.508C1001.21 99.8828 999.992 99.0234 998.992 97.9297C997.992 96.8359 997.25 95.5547 996.766 94.0859C996.297 92.6016 996.125 90.9844 996.25 89.2344L996.344 88.3203C996.531 86.4766 996.969 84.7578 997.656 83.1641C998.344 81.5547 999.266 80.1484 1000.42 78.9453C1001.58 77.7266 1002.94 76.7812 1004.5 76.1094C1006.08 75.4375 1007.84 75.125 1009.8 75.1719C1011.56 75.2031 1013.09 75.5547 1014.37 76.2266C1015.66 76.8984 1016.72 77.8125 1017.53 78.9688C1018.34 80.1094 1018.91 81.4219 1019.22 82.9062C1019.55 84.375 1019.62 85.9375 1019.45 87.5938L1019.01 90.8047H998.852L999.648 85.8594L1012.07 85.8828L1012.21 85.2031C1012.32 84.4688 1012.29 83.8047 1012.12 83.2109C1011.95 82.6172 1011.62 82.1484 1011.16 81.8047C1010.69 81.4453 1010.05 81.25 1009.26 81.2188C1008.29 81.2031 1007.48 81.4141 1006.84 81.8516C1006.22 82.2891 1005.71 82.8672 1005.32 83.5859C1004.95 84.3047 1004.66 85.0859 1004.45 85.9297C1004.25 86.7578 1004.1 87.5547 1004.01 88.3203L1003.91 89.2109C1003.85 89.9766 1003.88 90.7188 1003.98 91.4375C1004.09 92.1562 1004.31 92.8047 1004.64 93.3828C1004.98 93.9609 1005.45 94.4297 1006.02 94.7891C1006.6 95.1328 1007.33 95.3203 1008.2 95.3516C1009.38 95.3828 1010.47 95.1641 1011.48 94.6953C1012.5 94.2266 1013.41 93.5859 1014.23 92.7734L1017.44 97.0391C1016.73 98.1016 1015.83 98.9609 1014.72 99.6172C1013.61 100.258 1012.41 100.727 1011.13 101.023C1009.87 101.336 1008.63 101.484 1007.43 101.469ZM1037.69 75.6406L1036.73 81.125H1021.87L1022.83 75.6406H1037.69ZM1027.02 69.3359H1034.73L1030.7 92.7734C1030.64 93.3203 1030.64 93.7734 1030.7 94.1328C1030.77 94.4766 1030.93 94.7422 1031.2 94.9297C1031.48 95.1016 1031.91 95.2031 1032.48 95.2344C1032.81 95.25 1033.14 95.2422 1033.47 95.2109C1033.8 95.1797 1034.12 95.1484 1034.45 95.1172L1033.91 100.836C1033.24 101.055 1032.55 101.211 1031.85 101.305C1031.16 101.398 1030.46 101.445 1029.74 101.445C1028.15 101.414 1026.81 101.094 1025.73 100.484C1024.67 99.8594 1023.9 98.9766 1023.41 97.8359C1022.95 96.6797 1022.78 95.3047 1022.92 93.7109L1027.02 69.3359ZM1050.6 90.1953L1044.13 90.2422C1044.21 89.0391 1044.38 87.9062 1044.65 86.8438C1044.93 85.7812 1045.35 84.7891 1045.91 83.8672C1046.49 82.9453 1047.27 82.1016 1048.23 81.3359C1048.86 80.8672 1049.49 80.3594 1050.13 79.8125C1050.77 79.2656 1051.34 78.6641 1051.82 78.0078C1052.3 77.3516 1052.61 76.6094 1052.73 75.7812C1052.83 75.2188 1052.84 74.6797 1052.76 74.1641C1052.68 73.6484 1052.48 73.2344 1052.15 72.9219C1051.82 72.5938 1051.32 72.4219 1050.65 72.4062C1049.91 72.3906 1049.3 72.5781 1048.8 72.9688C1048.31 73.3594 1047.93 73.8594 1047.65 74.4688C1047.38 75.0625 1047.19 75.6719 1047.06 76.2969L1039.33 76.3438C1039.5 74.1562 1040.12 72.3203 1041.18 70.8359C1042.26 69.3359 1043.66 68.2109 1045.38 67.4609C1047.11 66.7109 1049.04 66.3516 1051.16 66.3828C1053.02 66.4297 1054.7 66.7969 1056.2 67.4844C1057.7 68.1562 1058.87 69.1641 1059.7 70.5078C1060.52 71.8359 1060.87 73.5 1060.73 75.5C1060.63 76.9219 1060.23 78.1719 1059.53 79.25C1058.84 80.3281 1058 81.3047 1057 82.1797C1056 83.0391 1054.98 83.875 1053.95 84.6875C1052.98 85.4375 1052.23 86.2422 1051.7 87.1016C1051.17 87.9609 1050.8 88.9922 1050.6 90.1953ZM1041.7 97.4844C1041.66 96.2656 1042.07 95.2734 1042.91 94.5078C1043.77 93.7422 1044.79 93.3516 1045.96 93.3359C1047.09 93.3359 1048.07 93.6875 1048.91 94.3906C1049.76 95.0938 1050.19 96.0234 1050.2 97.1797C1050.23 98.3984 1049.82 99.3906 1048.96 100.156C1048.12 100.922 1047.11 101.305 1045.94 101.305C1044.81 101.32 1043.83 100.977 1042.98 100.273C1042.16 99.5703 1041.73 98.6406 1041.7 97.4844Z" fill="white"/>
<g filter="url(#filter1_di_70_5127)">
<rect x="1180" y="52" width="144" height="66" rx="4" fill="#F5F5F5" shape-rendering="crispEdges"/>
<rect x="1180" y="52" width="144" height="66" rx="4" fill="#F5F5F5"/>
<path d="M1212.67 82.0977C1212.44 81.1146 1211.89 80.4277 1211 80.0371C1210.51 79.8223 1209.96 79.7148 1209.35 79.7148C1208.19 79.7148 1207.24 80.1543 1206.49 81.0332C1205.75 81.9056 1205.38 83.2207 1205.38 84.9785C1205.38 86.7493 1205.78 88.0026 1206.59 88.7383C1207.4 89.474 1208.31 89.8418 1209.34 89.8418C1210.35 89.8418 1211.18 89.5521 1211.82 88.9727C1212.47 88.3867 1212.86 87.6217 1213.01 86.6777H1209.68V84.2754H1215.68V92H1213.69L1213.38 90.2031C1212.81 90.8867 1212.28 91.3685 1211.82 91.6484C1211.03 92.1367 1210.05 92.3809 1208.89 92.3809C1206.99 92.3809 1205.42 91.7201 1204.21 90.3984C1202.94 89.0703 1202.3 87.2539 1202.3 84.9492C1202.3 82.6185 1202.94 80.75 1204.22 79.3438C1205.51 77.9375 1207.2 77.2344 1209.31 77.2344C1211.14 77.2344 1212.61 77.6999 1213.72 78.6309C1214.83 79.5553 1215.47 80.7109 1215.63 82.0977H1212.67ZM1229.21 80.1543H1221.59V83.2109H1228.58V85.7109H1221.59V89.4121H1229.56V92H1218.65V77.6055H1229.21V80.1543ZM1242.36 77.6055V80.1543H1238.05V92H1235.03V80.1543H1230.7V77.6055H1242.36ZM1249.67 92V77.6055H1252.65V83.0938H1258.28V77.6055H1261.27V92H1258.28V85.5742H1252.65V92H1249.67ZM1274.79 80.1543H1267.17V83.2109H1274.17V85.7109H1267.17V89.4121H1275.14V92H1264.23V77.6055H1274.79V80.1543ZM1277.49 77.6055H1280.49V89.4121H1287.62V92H1277.49V77.6055ZM1297.82 82.1855C1297.82 81.4368 1297.62 80.903 1297.22 80.584C1296.83 80.265 1296.28 80.1055 1295.57 80.1055H1292.77V84.3438H1295.57C1296.28 84.3438 1296.83 84.1712 1297.22 83.8262C1297.62 83.4811 1297.82 82.9342 1297.82 82.1855ZM1300.8 82.166C1300.8 83.8652 1300.37 85.0664 1299.51 85.7695C1298.65 86.4727 1297.42 86.8242 1295.83 86.8242H1292.77V92H1289.78V77.6055H1296.05C1297.5 77.6055 1298.65 77.9766 1299.51 78.7188C1300.37 79.4609 1300.8 80.61 1300.8 82.166Z" fill="#208C53"/>
</g>
</g>
<defs>
<filter id="filter0_d_70_5127" x="-4" y="0" width="1448" height="184" filterUnits="userSpaceOnUse" color-interpolation-filters="sRGB">
<feFlood flood-opacity="0" result="BackgroundImageFix"/>
<feColorMatrix in="SourceAlpha" type="matrix" values="0 0 0 0 0 0 0 0 0 0 0 0 0 0 0 0 0 0 127 0" result="hardAlpha"/>
<feOffset dy="8"/>
<feGaussianBlur stdDeviation="2"/>
<feComposite in2="hardAlpha" operator="out"/>
<feColorMatrix type="matrix" values="0 0 0 0 0 0 0 0 0 0 0 0 0 0 0 0 0 0 0.25 0"/>
<feBlend mode="normal" in2="BackgroundImageFix" result="effect1_dropShadow_70_5127"/>
<feBlend mode="normal" in="SourceGraphic" in2="effect1_dropShadow_70_5127" result="shape"/>
</filter>
<filter id="filter1_di_70_5127" x="1178" y="52" width="152" height="74" filterUnits="userSpaceOnUse" color-interpolation-filters="sRGB">
<feFlood flood-opacity="0" result="BackgroundImageFix"/>
<feColorMatrix in="SourceAlpha" type="matrix" values="0 0 0 0 0 0 0 0 0 0 0 0 0 0 0 0 0 0 127 0" result="hardAlpha"/>
<feOffset dx="2" dy="4"/>
<feGaussianBlur stdDeviation="2"/>
<feComposite in2="hardAlpha" operator="out"/>
<feColorMatrix type="matrix" values="0 0 0 0 0 0 0 0 0 0 0 0 0 0 0 0 0 0 0.25 0"/>
<feBlend mode="normal" in2="BackgroundImageFix" result="effect1_dropShadow_70_5127"/>
<feBlend mode="normal" in="SourceGraphic" in2="effect1_dropShadow_70_5127" result="shape"/>
<feColorMatrix in="SourceAlpha" type="matrix" values="0 0 0 0 0 0 0 0 0 0 0 0 0 0 0 0 0 0 127 0" result="hardAlpha"/>
<feOffset dx="2" dy="4"/>
<feGaussianBlur stdDeviation="2"/>
<feComposite in2="hardAlpha" operator="arithmetic" k2="-1" k3="1"/>
<feColorMatrix type="matrix" values="0 0 0 0 0 0 0 0 0 0 0 0 0 0 0 0 0 0 0.25 0"/>
<feBlend mode="normal" in2="shape" result="effect2_innerShadow_70_5127"/>
</filter>
</defs>
</svg>
