<svg width="1440" height="269" viewBox="0 0 1440 269" fill="none" xmlns="http://www.w3.org/2000/svg">
<g filter="url(#filter0_d_70_13086)">
<path d="M1415 0H25C11.1929 0 0 11.1929 0 25V232C0 245.807 11.1929 257 25 257H1415C1428.81 257 1440 245.807 1440 232V25C1440 11.1929 1428.81 0 1415 0Z" fill="url(#paint0_linear_70_13086)"/>
</g>
<path d="M86.0977 43.0938V63H81.6406V43.0938H86.0977ZM93.9316 51.4883V54.9336H84.8535V51.4883H93.9316ZM94.8066 43.0938V46.5527H84.8535V43.0938H94.8066ZM101.26 48.207V63H96.9805V48.207H101.26ZM96.7207 44.3789C96.7207 43.7591 96.9395 43.2533 97.377 42.8613C97.8145 42.4603 98.3887 42.2598 99.0996 42.2598C99.8105 42.2598 100.385 42.4603 100.822 42.8613C101.269 43.2533 101.492 43.7591 101.492 44.3789C101.492 44.9896 101.269 45.4954 100.822 45.8965C100.385 46.2884 99.8105 46.4844 99.0996 46.4844C98.3887 46.4844 97.8145 46.2884 97.377 45.8965C96.9395 45.4954 96.7207 44.9896 96.7207 44.3789ZM107.863 48.207L110.133 52.4863L112.471 48.207H116.955L112.922 55.4258L117.146 63H112.635L110.146 58.4336L107.672 63H103.146L107.371 55.4258L103.352 48.207H107.863ZM126.211 48.207V51.2012H117.434V48.207H126.211ZM119.443 44.543H123.723V58.3652C123.723 58.7754 123.773 59.0898 123.873 59.3086C123.973 59.5273 124.137 59.6823 124.365 59.7734C124.593 59.8555 124.885 59.8965 125.24 59.8965C125.495 59.8965 125.714 59.8874 125.896 59.8691C126.079 59.8509 126.247 59.8281 126.402 59.8008V62.8906C126.038 63.0091 125.65 63.1003 125.24 63.1641C124.83 63.237 124.383 63.2734 123.9 63.2734C122.98 63.2734 122.182 63.123 121.508 62.8223C120.842 62.5215 120.332 62.0475 119.977 61.4004C119.621 60.7441 119.443 59.8919 119.443 58.8438V44.543ZM136.943 59.4316V48.207H141.236V63H137.217L136.943 59.4316ZM137.395 56.4102L138.57 56.3828C138.57 57.3763 138.452 58.2923 138.215 59.1309C137.987 59.9694 137.641 60.6986 137.176 61.3184C136.72 61.9382 136.15 62.4212 135.467 62.7676C134.792 63.1048 134.004 63.2734 133.102 63.2734C132.372 63.2734 131.702 63.1732 131.092 62.9727C130.49 62.763 129.971 62.4395 129.533 62.002C129.096 61.5553 128.758 60.9857 128.521 60.293C128.285 59.5911 128.166 58.7526 128.166 57.7773V48.207H132.432V57.8047C132.432 58.1875 132.477 58.5156 132.568 58.7891C132.669 59.0534 132.801 59.2721 132.965 59.4453C133.138 59.6185 133.348 59.7461 133.594 59.8281C133.849 59.9102 134.127 59.9512 134.428 59.9512C135.184 59.9512 135.777 59.7962 136.205 59.4863C136.643 59.1673 136.948 58.7435 137.121 58.2148C137.303 57.6771 137.395 57.0755 137.395 56.4102ZM148.291 51.6523V63H144.025V48.207H148.031L148.291 51.6523ZM152.707 48.0977L152.639 52.0762C152.456 52.0488 152.219 52.026 151.928 52.0078C151.636 51.9805 151.385 51.9668 151.176 51.9668C150.629 51.9668 150.155 52.0352 149.754 52.1719C149.362 52.2995 149.034 52.4909 148.77 52.7461C148.514 53.0013 148.323 53.3203 148.195 53.7031C148.068 54.0768 148.004 54.5098 148.004 55.002L147.197 54.6055C147.197 53.6302 147.293 52.737 147.484 51.9258C147.676 51.1146 147.954 50.4128 148.318 49.8203C148.683 49.2188 149.13 48.7539 149.658 48.4258C150.187 48.0977 150.788 47.9336 151.463 47.9336C151.682 47.9336 151.905 47.9473 152.133 47.9746C152.361 48.002 152.552 48.043 152.707 48.0977ZM161.156 63.2734C159.98 63.2734 158.928 63.0866 157.998 62.7129C157.068 62.3392 156.28 61.8242 155.633 61.168C154.995 60.5026 154.507 59.737 154.17 58.8711C153.833 58.0052 153.664 57.0801 153.664 56.0957V55.5762C153.664 54.4733 153.819 53.457 154.129 52.5273C154.439 51.5977 154.89 50.791 155.482 50.1074C156.084 49.4147 156.822 48.8815 157.697 48.5078C158.572 48.125 159.57 47.9336 160.691 47.9336C161.74 47.9336 162.674 48.1068 163.494 48.4531C164.314 48.7904 165.007 49.278 165.572 49.916C166.137 50.5449 166.566 51.306 166.857 52.1992C167.158 53.0833 167.309 54.0768 167.309 55.1797V56.9297H155.387V54.1816H163.125V53.8535C163.125 53.334 163.029 52.8783 162.838 52.4863C162.656 52.0944 162.382 51.7936 162.018 51.584C161.662 51.3652 161.211 51.2559 160.664 51.2559C160.145 51.2559 159.712 51.3652 159.365 51.584C159.019 51.8027 158.741 52.1126 158.531 52.5137C158.331 52.9056 158.185 53.3659 158.094 53.8945C158.003 54.4141 157.957 54.9746 157.957 55.5762V56.0957C157.957 56.6699 158.035 57.194 158.189 57.668C158.344 58.1419 158.572 58.5475 158.873 58.8848C159.174 59.222 159.538 59.4863 159.967 59.6777C160.395 59.8691 160.883 59.9648 161.43 59.9648C162.104 59.9648 162.747 59.8372 163.357 59.582C163.968 59.3177 164.497 58.9076 164.943 58.3516L166.939 60.6348C166.639 61.0723 166.215 61.4961 165.668 61.9062C165.13 62.3073 164.483 62.6354 163.727 62.8906C162.97 63.1458 162.113 63.2734 161.156 63.2734ZM177.262 58.8848C177.262 58.6113 177.175 58.3698 177.002 58.1602C176.838 57.9505 176.537 57.7591 176.1 57.5859C175.671 57.4128 175.065 57.2396 174.281 57.0664C173.543 56.9115 172.855 56.7109 172.217 56.4648C171.579 56.2096 171.023 55.9043 170.549 55.5488C170.075 55.1842 169.706 54.7559 169.441 54.2637C169.177 53.7624 169.045 53.1927 169.045 52.5547C169.045 51.9349 169.177 51.347 169.441 50.791C169.715 50.235 170.107 49.7428 170.617 49.3145C171.137 48.8861 171.766 48.5488 172.504 48.3027C173.251 48.0566 174.099 47.9336 175.047 47.9336C176.35 47.9336 177.476 48.1387 178.424 48.5488C179.372 48.9499 180.101 49.515 180.611 50.2441C181.122 50.9642 181.377 51.7891 181.377 52.7188H177.111C177.111 52.3359 177.038 52.0033 176.893 51.7207C176.747 51.4382 176.523 51.2194 176.223 51.0645C175.922 50.9004 175.525 50.8184 175.033 50.8184C174.65 50.8184 174.313 50.8867 174.021 51.0234C173.739 51.151 173.516 51.3288 173.352 51.5566C173.197 51.7845 173.119 52.0488 173.119 52.3496C173.119 52.5592 173.165 52.7507 173.256 52.9238C173.356 53.0879 173.507 53.2428 173.707 53.3887C173.917 53.5254 174.186 53.6484 174.514 53.7578C174.851 53.8672 175.261 53.972 175.744 54.0723C176.774 54.2637 177.713 54.5326 178.561 54.8789C179.417 55.2253 180.101 55.7038 180.611 56.3145C181.131 56.9251 181.391 57.7318 181.391 58.7344C181.391 59.3906 181.24 59.9922 180.939 60.5391C180.648 61.0859 180.224 61.5645 179.668 61.9746C179.112 62.3848 178.447 62.7038 177.672 62.9316C176.897 63.1595 176.022 63.2734 175.047 63.2734C173.652 63.2734 172.472 63.0228 171.506 62.5215C170.54 62.0202 169.811 61.3913 169.318 60.6348C168.835 59.8691 168.594 59.0853 168.594 58.2832H172.6C172.618 58.7754 172.741 59.1764 172.969 59.4863C173.206 59.7962 173.511 60.0241 173.885 60.1699C174.258 60.3066 174.678 60.375 175.143 60.375C175.607 60.375 175.995 60.3112 176.305 60.1836C176.615 60.056 176.852 59.8828 177.016 59.6641C177.18 59.4362 177.262 59.1764 177.262 58.8848ZM190.127 55.7539V55.4668C190.127 54.3822 190.282 53.3841 190.592 52.4727C190.902 51.5521 191.357 50.7546 191.959 50.0801C192.561 49.4056 193.299 48.8815 194.174 48.5078C195.049 48.125 196.051 47.9336 197.182 47.9336C198.33 47.9336 199.342 48.125 200.217 48.5078C201.101 48.8815 201.844 49.4056 202.445 50.0801C203.047 50.7546 203.503 51.5521 203.812 52.4727C204.122 53.3841 204.277 54.3822 204.277 55.4668V55.7539C204.277 56.8294 204.122 57.8275 203.812 58.748C203.503 59.6595 203.047 60.457 202.445 61.1406C201.844 61.8151 201.105 62.3392 200.23 62.7129C199.355 63.0866 198.348 63.2734 197.209 63.2734C196.079 63.2734 195.072 63.0866 194.188 62.7129C193.303 62.3392 192.561 61.8151 191.959 61.1406C191.357 60.457 190.902 59.6595 190.592 58.748C190.282 57.8275 190.127 56.8294 190.127 55.7539ZM194.406 55.4668V55.7539C194.406 56.3372 194.452 56.8841 194.543 57.3945C194.643 57.9049 194.803 58.3516 195.021 58.7344C195.24 59.1172 195.527 59.418 195.883 59.6367C196.247 59.8464 196.689 59.9512 197.209 59.9512C197.729 59.9512 198.166 59.8464 198.521 59.6367C198.877 59.418 199.164 59.1172 199.383 58.7344C199.602 58.3516 199.757 57.9049 199.848 57.3945C199.948 56.8841 199.998 56.3372 199.998 55.7539V55.4668C199.998 54.8926 199.948 54.3548 199.848 53.8535C199.757 53.3431 199.602 52.8919 199.383 52.5C199.164 52.1081 198.872 51.8027 198.508 51.584C198.152 51.3652 197.71 51.2559 197.182 51.2559C196.671 51.2559 196.238 51.3652 195.883 51.584C195.527 51.8027 195.24 52.1081 195.021 52.5C194.803 52.8919 194.643 53.3431 194.543 53.8535C194.452 54.3548 194.406 54.8926 194.406 55.4668ZM211.838 63H207.545V46.9492C207.545 45.8099 207.768 44.8529 208.215 44.0781C208.671 43.3034 209.313 42.7155 210.143 42.3145C210.972 41.9134 211.952 41.7129 213.082 41.7129C213.474 41.7129 213.839 41.7402 214.176 41.7949C214.522 41.8405 214.859 41.9043 215.188 41.9863V45.1719C215.014 45.1263 214.837 45.0944 214.654 45.0762C214.472 45.0579 214.253 45.0488 213.998 45.0488C213.542 45.0488 213.15 45.1217 212.822 45.2676C212.503 45.4043 212.257 45.6185 212.084 45.9102C211.92 46.1927 211.838 46.5391 211.838 46.9492V63ZM214.764 48.207V51.2012H205.385V48.207H214.764ZM231.416 59.4727V53.1289C231.416 52.6823 231.348 52.2995 231.211 51.9805C231.074 51.6615 230.86 51.4108 230.568 51.2285C230.277 51.0462 229.898 50.9551 229.434 50.9551C229.042 50.9551 228.7 51.0234 228.408 51.1602C228.126 51.2969 227.907 51.4928 227.752 51.748C227.606 52.0033 227.533 52.3177 227.533 52.6914H223.268C223.268 52.026 223.418 51.4062 223.719 50.832C224.02 50.2578 224.448 49.752 225.004 49.3145C225.569 48.877 226.243 48.5397 227.027 48.3027C227.811 48.0566 228.691 47.9336 229.666 47.9336C230.824 47.9336 231.854 48.1296 232.756 48.5215C233.667 48.9043 234.387 49.4831 234.916 50.2578C235.445 51.0234 235.709 51.9896 235.709 53.1562V59.3496C235.709 60.2428 235.759 60.9447 235.859 61.4551C235.969 61.9564 236.124 62.3939 236.324 62.7676V63H232.018C231.817 62.5716 231.667 62.043 231.566 61.4141C231.466 60.776 231.416 60.1289 231.416 59.4727ZM231.949 53.9766L231.977 56.3281H229.857C229.383 56.3281 228.973 56.3874 228.627 56.5059C228.29 56.6243 228.016 56.7884 227.807 56.998C227.597 57.1986 227.442 57.4355 227.342 57.709C227.251 57.9733 227.205 58.265 227.205 58.584C227.205 58.8848 227.278 59.1582 227.424 59.4043C227.57 59.6413 227.77 59.8281 228.025 59.9648C228.281 60.1016 228.577 60.1699 228.914 60.1699C229.47 60.1699 229.944 60.0605 230.336 59.8418C230.737 59.623 231.047 59.3587 231.266 59.0488C231.484 58.7298 231.594 58.4336 231.594 58.1602L232.619 59.9375C232.455 60.3021 232.255 60.6803 232.018 61.0723C231.781 61.4551 231.48 61.8151 231.115 62.1523C230.751 62.4805 230.309 62.7493 229.789 62.959C229.279 63.1686 228.663 63.2734 227.943 63.2734C227.014 63.2734 226.171 63.0866 225.414 62.7129C224.658 62.3301 224.051 61.806 223.596 61.1406C223.149 60.4753 222.926 59.7096 222.926 58.8438C222.926 58.069 223.067 57.3809 223.35 56.7793C223.632 56.1777 224.056 55.6673 224.621 55.248C225.195 54.8288 225.915 54.5143 226.781 54.3047C227.647 54.0859 228.659 53.9766 229.816 53.9766H231.949ZM243.01 42V63H238.73V42H243.01ZM250.584 42V63H246.305V42H250.584ZM271.748 43.0938H276.205V56.1641C276.205 57.7135 275.877 59.0169 275.221 60.0742C274.574 61.1315 273.671 61.929 272.514 62.4668C271.356 63.0046 270.016 63.2734 268.494 63.2734C266.963 63.2734 265.614 63.0046 264.447 62.4668C263.29 61.929 262.378 61.1315 261.713 60.0742C261.057 59.0169 260.729 57.7135 260.729 56.1641V43.0938H265.199V56.1641C265.199 57.0208 265.327 57.7227 265.582 58.2695C265.846 58.8073 266.225 59.2038 266.717 59.459C267.209 59.7051 267.801 59.8281 268.494 59.8281C269.187 59.8281 269.775 59.7051 270.258 59.459C270.75 59.2038 271.119 58.8073 271.365 58.2695C271.62 57.7227 271.748 57.0208 271.748 56.1641V43.0938ZM283.451 51.0508V68.6875H279.186V48.207H283.164L283.451 51.0508ZM292.68 55.4395V55.7266C292.68 56.8021 292.557 57.8001 292.311 58.7207C292.064 59.6322 291.695 60.4297 291.203 61.1133C290.72 61.7969 290.123 62.3301 289.412 62.7129C288.701 63.0866 287.876 63.2734 286.938 63.2734C286.044 63.2734 285.27 63.0866 284.613 62.7129C283.966 62.3301 283.419 61.8014 282.973 61.127C282.535 60.4434 282.18 59.6641 281.906 58.7891C281.642 57.9049 281.437 56.9616 281.291 55.959V55.3984C281.437 54.332 281.646 53.3431 281.92 52.4316C282.193 51.5202 282.549 50.7318 282.986 50.0664C283.424 49.3919 283.966 48.8678 284.613 48.4941C285.26 48.1204 286.031 47.9336 286.924 47.9336C287.854 47.9336 288.678 48.1113 289.398 48.4668C290.118 48.8223 290.72 49.3327 291.203 49.998C291.695 50.6543 292.064 51.4427 292.311 52.3633C292.557 53.2839 292.68 54.3092 292.68 55.4395ZM288.4 55.7266V55.4395C288.4 54.8379 288.355 54.2865 288.264 53.7852C288.173 53.2747 288.027 52.8327 287.826 52.459C287.626 52.0762 287.361 51.7799 287.033 51.5703C286.705 51.3607 286.304 51.2559 285.83 51.2559C285.32 51.2559 284.887 51.3379 284.531 51.502C284.176 51.666 283.889 51.9076 283.67 52.2266C283.451 52.5365 283.292 52.9193 283.191 53.375C283.1 53.8307 283.05 54.3503 283.041 54.9336V56.4375C283.05 57.1211 283.146 57.7318 283.328 58.2695C283.52 58.7982 283.816 59.2129 284.217 59.5137C284.627 59.8053 285.174 59.9512 285.857 59.9512C286.34 59.9512 286.742 59.8464 287.061 59.6367C287.389 59.418 287.648 59.1126 287.84 58.7207C288.04 58.3288 288.182 57.8776 288.264 57.3672C288.355 56.8568 288.4 56.3099 288.4 55.7266ZM301.129 59.9512C301.585 59.9512 301.981 59.8646 302.318 59.6914C302.656 59.5182 302.915 59.2767 303.098 58.9668C303.289 58.6478 303.385 58.265 303.385 57.8184H307.404C307.404 58.8939 307.126 59.8418 306.57 60.6621C306.023 61.4824 305.285 62.125 304.355 62.5898C303.426 63.0456 302.378 63.2734 301.211 63.2734C300.062 63.2734 299.06 63.0866 298.203 62.7129C297.346 62.3301 296.631 61.7969 296.057 61.1133C295.482 60.4297 295.049 59.6367 294.758 58.7344C294.475 57.8229 294.334 56.8385 294.334 55.7812V55.4258C294.334 54.3776 294.475 53.3978 294.758 52.4863C295.049 51.5749 295.482 50.7773 296.057 50.0938C296.631 49.4102 297.342 48.8815 298.189 48.5078C299.046 48.125 300.049 47.9336 301.197 47.9336C302.41 47.9336 303.48 48.166 304.41 48.6309C305.349 49.0957 306.083 49.7656 306.611 50.6406C307.14 51.5065 307.404 52.5501 307.404 53.7715H303.385C303.385 53.2975 303.298 52.8737 303.125 52.5C302.961 52.1172 302.706 51.8164 302.359 51.5977C302.022 51.3698 301.603 51.2559 301.102 51.2559C300.582 51.2559 300.154 51.3698 299.816 51.5977C299.488 51.8164 299.238 52.1217 299.064 52.5137C298.891 52.9056 298.773 53.3522 298.709 53.8535C298.645 54.3457 298.613 54.8698 298.613 55.4258V55.7812C298.613 56.3464 298.645 56.8841 298.709 57.3945C298.773 57.8958 298.891 58.3379 299.064 58.7207C299.247 59.1035 299.502 59.4043 299.83 59.623C300.158 59.8418 300.591 59.9512 301.129 59.9512ZM308.908 55.7539V55.4668C308.908 54.3822 309.063 53.3841 309.373 52.4727C309.683 51.5521 310.139 50.7546 310.74 50.0801C311.342 49.4056 312.08 48.8815 312.955 48.5078C313.83 48.125 314.833 47.9336 315.963 47.9336C317.111 47.9336 318.123 48.125 318.998 48.5078C319.882 48.8815 320.625 49.4056 321.227 50.0801C321.828 50.7546 322.284 51.5521 322.594 52.4727C322.904 53.3841 323.059 54.3822 323.059 55.4668V55.7539C323.059 56.8294 322.904 57.8275 322.594 58.748C322.284 59.6595 321.828 60.457 321.227 61.1406C320.625 61.8151 319.887 62.3392 319.012 62.7129C318.137 63.0866 317.13 63.2734 315.99 63.2734C314.86 63.2734 313.853 63.0866 312.969 62.7129C312.085 62.3392 311.342 61.8151 310.74 61.1406C310.139 60.457 309.683 59.6595 309.373 58.748C309.063 57.8275 308.908 56.8294 308.908 55.7539ZM313.188 55.4668V55.7539C313.188 56.3372 313.233 56.8841 313.324 57.3945C313.424 57.9049 313.584 58.3516 313.803 58.7344C314.021 59.1172 314.309 59.418 314.664 59.6367C315.029 59.8464 315.471 59.9512 315.99 59.9512C316.51 59.9512 316.947 59.8464 317.303 59.6367C317.658 59.418 317.945 59.1172 318.164 58.7344C318.383 58.3516 318.538 57.9049 318.629 57.3945C318.729 56.8841 318.779 56.3372 318.779 55.7539V55.4668C318.779 54.8926 318.729 54.3548 318.629 53.8535C318.538 53.3431 318.383 52.8919 318.164 52.5C317.945 52.1081 317.654 51.8027 317.289 51.584C316.934 51.3652 316.492 51.2559 315.963 51.2559C315.452 51.2559 315.02 51.3652 314.664 51.584C314.309 51.8027 314.021 52.1081 313.803 52.5C313.584 52.8919 313.424 53.3431 313.324 53.8535C313.233 54.3548 313.188 54.8926 313.188 55.4668ZM329.58 51.3105V63H325.314V48.207H329.32L329.58 51.3105ZM329.033 55.084L327.953 55.1113C327.953 54.0723 328.076 53.1198 328.322 52.2539C328.577 51.3789 328.947 50.6178 329.43 49.9707C329.913 49.3236 330.51 48.8223 331.221 48.4668C331.941 48.1113 332.77 47.9336 333.709 47.9336C334.365 47.9336 334.962 48.0339 335.5 48.2344C336.038 48.4258 336.498 48.7311 336.881 49.1504C337.273 49.5605 337.574 50.0983 337.783 50.7637C337.993 51.4199 338.098 52.2083 338.098 53.1289V63H333.832V53.6484C333.832 52.9922 333.75 52.4954 333.586 52.1582C333.431 51.8118 333.203 51.5749 332.902 51.4473C332.602 51.3197 332.242 51.2559 331.822 51.2559C331.367 51.2559 330.961 51.3561 330.605 51.5566C330.259 51.748 329.967 52.0169 329.73 52.3633C329.493 52.7096 329.316 53.1152 329.197 53.5801C329.088 54.0449 329.033 54.5462 329.033 55.084ZM337.66 54.8652L336.307 54.9746C336.307 53.972 336.425 53.0423 336.662 52.1855C336.899 51.3288 337.255 50.5859 337.729 49.957C338.202 49.319 338.79 48.8223 339.492 48.4668C340.203 48.1113 341.028 47.9336 341.967 47.9336C342.66 47.9336 343.288 48.0339 343.854 48.2344C344.428 48.4349 344.92 48.7585 345.33 49.2051C345.749 49.6517 346.073 50.2396 346.301 50.9688C346.529 51.6888 346.643 52.5729 346.643 53.6211V63H342.35V53.6211C342.35 52.974 342.268 52.4818 342.104 52.1445C341.949 51.8073 341.721 51.5749 341.42 51.4473C341.128 51.3197 340.777 51.2559 340.367 51.2559C339.911 51.2559 339.515 51.3516 339.178 51.543C338.84 51.7253 338.558 51.9805 338.33 52.3086C338.102 52.6276 337.934 53.0059 337.824 53.4434C337.715 53.8809 337.66 54.3548 337.66 54.8652ZM353.998 48.207V63H349.719V48.207H353.998ZM349.459 44.3789C349.459 43.7591 349.678 43.2533 350.115 42.8613C350.553 42.4603 351.127 42.2598 351.838 42.2598C352.549 42.2598 353.123 42.4603 353.561 42.8613C354.007 43.2533 354.23 43.7591 354.23 44.3789C354.23 44.9896 354.007 45.4954 353.561 45.8965C353.123 46.2884 352.549 46.4844 351.838 46.4844C351.127 46.4844 350.553 46.2884 350.115 45.8965C349.678 45.4954 349.459 44.9896 349.459 44.3789ZM361.258 51.3652V63H356.979V48.207H360.998L361.258 51.3652ZM360.697 55.084L359.631 55.1113C359.631 53.9993 359.768 53.0013 360.041 52.1172C360.314 51.2331 360.702 50.4811 361.203 49.8613C361.714 49.2324 362.32 48.7539 363.021 48.4258C363.732 48.0977 364.516 47.9336 365.373 47.9336C366.066 47.9336 366.699 48.0339 367.273 48.2344C367.848 48.4349 368.34 48.7585 368.75 49.2051C369.169 49.6426 369.488 50.2259 369.707 50.9551C369.926 51.6751 370.035 52.5638 370.035 53.6211V63H365.742V53.6074C365.742 52.9876 365.656 52.5091 365.482 52.1719C365.309 51.8346 365.054 51.5977 364.717 51.4609C364.389 51.3242 363.988 51.2559 363.514 51.2559C363.012 51.2559 362.584 51.3561 362.229 51.5566C361.873 51.748 361.581 52.0169 361.354 52.3633C361.126 52.7096 360.957 53.1152 360.848 53.5801C360.747 54.0449 360.697 54.5462 360.697 55.084ZM382.148 48.207H386.031V62.4668C386.031 63.8249 385.721 64.9779 385.102 65.9258C384.491 66.8737 383.639 67.5938 382.545 68.0859C381.451 68.5781 380.171 68.8242 378.703 68.8242C378.065 68.8242 377.4 68.7376 376.707 68.5645C376.014 68.4004 375.363 68.1497 374.752 67.8125C374.141 67.4844 373.631 67.0651 373.221 66.5547L375.039 64.0391C375.458 64.513 375.96 64.8958 376.543 65.1875C377.126 65.4883 377.792 65.6387 378.539 65.6387C379.223 65.6387 379.801 65.5156 380.275 65.2695C380.749 65.0234 381.109 64.6634 381.355 64.1895C381.611 63.7155 381.738 63.1413 381.738 62.4668V51.666L382.148 48.207ZM372.264 55.7812V55.4941C372.264 54.373 372.4 53.3522 372.674 52.4316C372.947 51.502 373.344 50.7044 373.863 50.0391C374.392 49.3646 375.025 48.8451 375.764 48.4805C376.511 48.1159 377.35 47.9336 378.279 47.9336C379.282 47.9336 380.111 48.125 380.768 48.5078C381.424 48.8815 381.957 49.4102 382.367 50.0938C382.777 50.7682 383.101 51.5658 383.338 52.4863C383.575 53.3978 383.766 54.3867 383.912 55.4531V55.9453C383.766 56.9661 383.557 57.9186 383.283 58.8027C383.01 59.6868 382.654 60.4661 382.217 61.1406C381.779 61.806 381.232 62.3301 380.576 62.7129C379.929 63.0866 379.154 63.2734 378.252 63.2734C377.331 63.2734 376.502 63.0866 375.764 62.7129C375.025 62.3392 374.392 61.8151 373.863 61.1406C373.344 60.4661 372.947 59.6732 372.674 58.7617C372.4 57.8503 372.264 56.8568 372.264 55.7812ZM376.529 55.4941V55.7812C376.529 56.3646 376.584 56.9069 376.693 57.4082C376.812 57.9095 376.985 58.3516 377.213 58.7344C377.45 59.1172 377.742 59.418 378.088 59.6367C378.443 59.8464 378.858 59.9512 379.332 59.9512C380.025 59.9512 380.585 59.8053 381.014 59.5137C381.451 59.2129 381.77 58.7982 381.971 58.2695C382.18 57.7409 382.29 57.1257 382.299 56.4238V54.9883C382.299 54.4049 382.24 53.8809 382.121 53.416C382.003 52.9512 381.825 52.5592 381.588 52.2402C381.36 51.9212 381.059 51.6797 380.686 51.5156C380.321 51.3424 379.879 51.2559 379.359 51.2559C378.895 51.2559 378.484 51.3652 378.129 51.584C377.773 51.7936 377.477 52.0898 377.24 52.4727C377.003 52.8555 376.826 53.3066 376.707 53.8262C376.589 54.3366 376.529 54.8926 376.529 55.4941ZM398.199 43.0938H401.891L406.676 57.3262L411.447 43.0938H415.139L408.166 63H405.172L398.199 43.0938ZM396.066 43.0938H399.826L400.523 57.8457V63H396.066V43.0938ZM413.512 43.0938H417.285V63H412.814V57.8457L413.512 43.0938ZM428.209 59.4727V53.1289C428.209 52.6823 428.141 52.2995 428.004 51.9805C427.867 51.6615 427.653 51.4108 427.361 51.2285C427.07 51.0462 426.691 50.9551 426.227 50.9551C425.835 50.9551 425.493 51.0234 425.201 51.1602C424.919 51.2969 424.7 51.4928 424.545 51.748C424.399 52.0033 424.326 52.3177 424.326 52.6914H420.061C420.061 52.026 420.211 51.4062 420.512 50.832C420.812 50.2578 421.241 49.752 421.797 49.3145C422.362 48.877 423.036 48.5397 423.82 48.3027C424.604 48.0566 425.484 47.9336 426.459 47.9336C427.617 47.9336 428.646 48.1296 429.549 48.5215C430.46 48.9043 431.18 49.4831 431.709 50.2578C432.238 51.0234 432.502 51.9896 432.502 53.1562V59.3496C432.502 60.2428 432.552 60.9447 432.652 61.4551C432.762 61.9564 432.917 62.3939 433.117 62.7676V63H428.811C428.61 62.5716 428.46 62.043 428.359 61.4141C428.259 60.776 428.209 60.1289 428.209 59.4727ZM428.742 53.9766L428.77 56.3281H426.65C426.176 56.3281 425.766 56.3874 425.42 56.5059C425.083 56.6243 424.809 56.7884 424.6 56.998C424.39 57.1986 424.235 57.4355 424.135 57.709C424.044 57.9733 423.998 58.265 423.998 58.584C423.998 58.8848 424.071 59.1582 424.217 59.4043C424.363 59.6413 424.563 59.8281 424.818 59.9648C425.074 60.1016 425.37 60.1699 425.707 60.1699C426.263 60.1699 426.737 60.0605 427.129 59.8418C427.53 59.623 427.84 59.3587 428.059 59.0488C428.277 58.7298 428.387 58.4336 428.387 58.1602L429.412 59.9375C429.248 60.3021 429.048 60.6803 428.811 61.0723C428.574 61.4551 428.273 61.8151 427.908 62.1523C427.544 62.4805 427.102 62.7493 426.582 62.959C426.072 63.1686 425.456 63.2734 424.736 63.2734C423.807 63.2734 422.964 63.0866 422.207 62.7129C421.451 62.3301 420.844 61.806 420.389 61.1406C419.942 60.4753 419.719 59.7096 419.719 58.8438C419.719 58.069 419.86 57.3809 420.143 56.7793C420.425 56.1777 420.849 55.6673 421.414 55.248C421.988 54.8288 422.708 54.5143 423.574 54.3047C424.44 54.0859 425.452 53.9766 426.609 53.9766H428.742ZM442.824 48.207V51.2012H434.047V48.207H442.824ZM436.057 44.543H440.336V58.3652C440.336 58.7754 440.386 59.0898 440.486 59.3086C440.587 59.5273 440.751 59.6823 440.979 59.7734C441.206 59.8555 441.498 59.8965 441.854 59.8965C442.109 59.8965 442.327 59.8874 442.51 59.8691C442.692 59.8509 442.861 59.8281 443.016 59.8008V62.8906C442.651 63.0091 442.264 63.1003 441.854 63.1641C441.443 63.237 440.997 63.2734 440.514 63.2734C439.593 63.2734 438.796 63.123 438.121 62.8223C437.456 62.5215 436.945 62.0475 436.59 61.4004C436.234 60.7441 436.057 59.8919 436.057 58.8438V44.543ZM451.055 59.9512C451.51 59.9512 451.907 59.8646 452.244 59.6914C452.581 59.5182 452.841 59.2767 453.023 58.9668C453.215 58.6478 453.311 58.265 453.311 57.8184H457.33C457.33 58.8939 457.052 59.8418 456.496 60.6621C455.949 61.4824 455.211 62.125 454.281 62.5898C453.352 63.0456 452.303 63.2734 451.137 63.2734C449.988 63.2734 448.986 63.0866 448.129 62.7129C447.272 62.3301 446.557 61.7969 445.982 61.1133C445.408 60.4297 444.975 59.6367 444.684 58.7344C444.401 57.8229 444.26 56.8385 444.26 55.7812V55.4258C444.26 54.3776 444.401 53.3978 444.684 52.4863C444.975 51.5749 445.408 50.7773 445.982 50.0938C446.557 49.4102 447.268 48.8815 448.115 48.5078C448.972 48.125 449.975 47.9336 451.123 47.9336C452.335 47.9336 453.406 48.166 454.336 48.6309C455.275 49.0957 456.008 49.7656 456.537 50.6406C457.066 51.5065 457.33 52.5501 457.33 53.7715H453.311C453.311 53.2975 453.224 52.8737 453.051 52.5C452.887 52.1172 452.632 51.8164 452.285 51.5977C451.948 51.3698 451.529 51.2559 451.027 51.2559C450.508 51.2559 450.079 51.3698 449.742 51.5977C449.414 51.8164 449.163 52.1217 448.99 52.5137C448.817 52.9056 448.699 53.3522 448.635 53.8535C448.571 54.3457 448.539 54.8698 448.539 55.4258V55.7812C448.539 56.3464 448.571 56.8841 448.635 57.3945C448.699 57.8958 448.817 58.3379 448.99 58.7207C449.173 59.1035 449.428 59.4043 449.756 59.623C450.084 59.8418 450.517 59.9512 451.055 59.9512ZM463.619 42V63H459.354V42H463.619ZM463.059 55.084L461.992 55.1113C461.992 54.0723 462.12 53.1198 462.375 52.2539C462.639 51.3789 463.013 50.6178 463.496 49.9707C463.979 49.3236 464.558 48.8223 465.232 48.4668C465.916 48.1113 466.668 47.9336 467.488 47.9336C468.217 47.9336 468.883 48.0384 469.484 48.248C470.086 48.4577 470.605 48.7904 471.043 49.2461C471.48 49.7018 471.818 50.2988 472.055 51.0371C472.292 51.7754 472.41 52.6732 472.41 53.7305V63H468.117V53.7031C468.117 53.0742 468.026 52.582 467.844 52.2266C467.671 51.8711 467.415 51.6204 467.078 51.4746C466.75 51.3288 466.349 51.2559 465.875 51.2559C465.319 51.2559 464.859 51.3561 464.494 51.5566C464.13 51.748 463.842 52.0169 463.633 52.3633C463.423 52.7096 463.273 53.1152 463.182 53.5801C463.1 54.0449 463.059 54.5462 463.059 55.084ZM482.172 63.2734C480.996 63.2734 479.943 63.0866 479.014 62.7129C478.084 62.3392 477.296 61.8242 476.648 61.168C476.01 60.5026 475.523 59.737 475.186 58.8711C474.848 58.0052 474.68 57.0801 474.68 56.0957V55.5762C474.68 54.4733 474.835 53.457 475.145 52.5273C475.454 51.5977 475.906 50.791 476.498 50.1074C477.1 49.4147 477.838 48.8815 478.713 48.5078C479.588 48.125 480.586 47.9336 481.707 47.9336C482.755 47.9336 483.689 48.1068 484.51 48.4531C485.33 48.7904 486.023 49.278 486.588 49.916C487.153 50.5449 487.581 51.306 487.873 52.1992C488.174 53.0833 488.324 54.0768 488.324 55.1797V56.9297H476.402V54.1816H484.141V53.8535C484.141 53.334 484.045 52.8783 483.854 52.4863C483.671 52.0944 483.398 51.7936 483.033 51.584C482.678 51.3652 482.227 51.2559 481.68 51.2559C481.16 51.2559 480.727 51.3652 480.381 51.584C480.035 51.8027 479.757 52.1126 479.547 52.5137C479.346 52.9056 479.201 53.3659 479.109 53.8945C479.018 54.4141 478.973 54.9746 478.973 55.5762V56.0957C478.973 56.6699 479.05 57.194 479.205 57.668C479.36 58.1419 479.588 58.5475 479.889 58.8848C480.189 59.222 480.554 59.4863 480.982 59.6777C481.411 59.8691 481.898 59.9648 482.445 59.9648C483.12 59.9648 483.762 59.8372 484.373 59.582C484.984 59.3177 485.512 58.9076 485.959 58.3516L487.955 60.6348C487.654 61.0723 487.23 61.4961 486.684 61.9062C486.146 62.3073 485.499 62.6354 484.742 62.8906C483.986 63.1458 483.129 63.2734 482.172 63.2734ZM498.277 58.8848C498.277 58.6113 498.191 58.3698 498.018 58.1602C497.854 57.9505 497.553 57.7591 497.115 57.5859C496.687 57.4128 496.081 57.2396 495.297 57.0664C494.559 56.9115 493.87 56.7109 493.232 56.4648C492.594 56.2096 492.038 55.9043 491.564 55.5488C491.09 55.1842 490.721 54.7559 490.457 54.2637C490.193 53.7624 490.061 53.1927 490.061 52.5547C490.061 51.9349 490.193 51.347 490.457 50.791C490.73 50.235 491.122 49.7428 491.633 49.3145C492.152 48.8861 492.781 48.5488 493.52 48.3027C494.267 48.0566 495.115 47.9336 496.062 47.9336C497.366 47.9336 498.492 48.1387 499.439 48.5488C500.387 48.9499 501.117 49.515 501.627 50.2441C502.137 50.9642 502.393 51.7891 502.393 52.7188H498.127C498.127 52.3359 498.054 52.0033 497.908 51.7207C497.762 51.4382 497.539 51.2194 497.238 51.0645C496.938 50.9004 496.541 50.8184 496.049 50.8184C495.666 50.8184 495.329 50.8867 495.037 51.0234C494.755 51.151 494.531 51.3288 494.367 51.5566C494.212 51.7845 494.135 52.0488 494.135 52.3496C494.135 52.5592 494.18 52.7507 494.271 52.9238C494.372 53.0879 494.522 53.2428 494.723 53.3887C494.932 53.5254 495.201 53.6484 495.529 53.7578C495.867 53.8672 496.277 53.972 496.76 54.0723C497.79 54.2637 498.729 54.5326 499.576 54.8789C500.433 55.2253 501.117 55.7038 501.627 56.3145C502.146 56.9251 502.406 57.7318 502.406 58.7344C502.406 59.3906 502.256 59.9922 501.955 60.5391C501.663 61.0859 501.24 61.5645 500.684 61.9746C500.128 62.3848 499.462 62.7038 498.688 62.9316C497.913 63.1595 497.038 63.2734 496.062 63.2734C494.668 63.2734 493.488 63.0228 492.521 62.5215C491.555 62.0202 490.826 61.3913 490.334 60.6348C489.851 59.8691 489.609 59.0853 489.609 58.2832H493.615C493.633 58.7754 493.757 59.1764 493.984 59.4863C494.221 59.7962 494.527 60.0241 494.9 60.1699C495.274 60.3066 495.693 60.375 496.158 60.375C496.623 60.375 497.01 60.3112 497.32 60.1836C497.63 60.056 497.867 59.8828 498.031 59.6641C498.195 59.4362 498.277 59.1764 498.277 58.8848Z" fill="black"/>
<g filter="url(#filter1_i_70_13086)">
<path d="M234 105H84C81.7909 105 80 106.791 80 109V193C80 195.209 81.7909 197 84 197H234C236.209 197 238 195.209 238 193V109C238 106.791 236.209 105 234 105Z" fill="#208C53"/>
<mask id="mask0_70_13086" style="mask-type:luminance" maskUnits="userSpaceOnUse" x="145" y="125" width="28" height="24">
<path d="M172.5 125H145.5V149H172.5V125Z" fill="white"/>
</mask>
<g mask="url(#mask0_70_13086)">
<path d="M164.25 125.516H153.75C153.125 125.547 152.594 125.766 152.156 126.172C151.75 126.609 151.547 127.141 151.547 127.766C151.547 128.016 151.563 128.266 151.594 128.516H146.625C145.938 128.578 145.562 128.953 145.5 129.641C145.531 131.797 145.875 133.656 146.531 135.219C147.219 136.75 148.109 138.031 149.203 139.062C150.234 140.062 151.328 140.844 152.484 141.406C153.641 141.969 154.703 142.375 155.672 142.625C156.203 142.781 156.641 143.047 156.984 143.422C157.328 143.828 157.5 144.266 157.5 144.734C157.5 145.234 157.328 145.656 156.984 146C156.641 146.344 156.219 146.516 155.719 146.516H154.5C154.062 146.516 153.703 146.656 153.422 146.938C153.141 147.219 153 147.578 153 148.016C153 148.453 153.141 148.812 153.422 149.094C153.703 149.375 154.062 149.516 154.5 149.516H163.5C163.937 149.516 164.297 149.375 164.578 149.094C164.859 148.812 165 148.453 165 148.016C165 147.578 164.859 147.219 164.578 146.938C164.297 146.656 163.937 146.516 163.5 146.516H162.281C161.781 146.516 161.359 146.344 161.016 146C160.672 145.656 160.5 145.234 160.5 144.734C160.5 144.266 160.672 143.828 161.016 143.422C161.359 143.047 161.797 142.781 162.328 142.625C163.297 142.375 164.359 141.969 165.516 141.406C166.672 140.844 167.781 140.062 168.844 139.062C169.906 138.031 170.781 136.75 171.469 135.219C172.125 133.656 172.469 131.797 172.5 129.641C172.437 128.953 172.062 128.578 171.375 128.516H166.406C166.437 128.266 166.453 128.016 166.453 127.766C166.453 127.141 166.25 126.609 165.844 126.172C165.406 125.766 164.875 125.547 164.25 125.516ZM147.797 130.766H151.734C151.953 132.859 152.281 134.641 152.719 136.109C153.156 137.578 153.641 138.781 154.172 139.719C152.984 139.219 151.844 138.453 150.75 137.422C150 136.703 149.344 135.797 148.781 134.703C148.25 133.609 147.922 132.297 147.797 130.766ZM167.25 137.422C166.156 138.453 165.016 139.219 163.828 139.719C164.359 138.781 164.844 137.578 165.281 136.109C165.719 134.641 166.047 132.859 166.266 130.766H170.203C170.078 132.297 169.75 133.609 169.219 134.703C168.688 135.797 168.031 136.703 167.25 137.422Z" fill="white"/>
</g>
<path d="M130.781 174.744H133.246L132.033 170.921L130.781 174.744ZM130.906 168.7H133.2L136.641 178.416H134.439L133.813 176.419H130.233L129.561 178.416H127.438L130.906 168.7ZM139.646 178.416H137.768V168.7H139.646V178.416ZM143.404 178.416H141.525V168.7H143.404V178.416ZM150.622 175.417C150.683 175.861 150.804 176.192 150.984 176.412C151.314 176.812 151.879 177.012 152.678 177.012C153.157 177.012 153.546 176.959 153.845 176.854C154.412 176.652 154.696 176.276 154.696 175.727C154.696 175.406 154.555 175.157 154.274 174.982C153.992 174.81 153.551 174.659 152.949 174.527L151.92 174.296C150.91 174.068 150.211 173.819 149.824 173.551C149.169 173.103 148.842 172.402 148.842 171.448C148.842 170.578 149.158 169.855 149.791 169.28C150.424 168.704 151.354 168.416 152.58 168.416C153.604 168.416 154.476 168.689 155.197 169.234C155.922 169.774 156.302 170.561 156.337 171.594H154.386C154.351 171.009 154.096 170.594 153.621 170.348C153.305 170.185 152.911 170.104 152.441 170.104C151.918 170.104 151.501 170.209 151.189 170.42C150.877 170.631 150.721 170.926 150.721 171.303C150.721 171.651 150.875 171.91 151.182 172.081C151.38 172.196 151.802 172.33 152.448 172.483L154.122 172.885C154.856 173.061 155.41 173.296 155.783 173.591C156.363 174.048 156.653 174.709 156.653 175.575C156.653 176.463 156.313 177.201 155.632 177.79C154.955 178.374 153.997 178.667 152.758 178.667C151.492 178.667 150.497 178.379 149.771 177.803C149.046 177.223 148.684 176.427 148.684 175.417H150.622ZM162.955 174.823C162.955 174.27 162.828 173.78 162.573 173.354C162.322 172.927 161.914 172.714 161.347 172.714C160.666 172.714 160.198 173.037 159.943 173.683C159.811 174.026 159.745 174.461 159.745 174.988C159.745 175.823 159.967 176.41 160.411 176.748C160.674 176.946 160.986 177.045 161.347 177.045C161.87 177.045 162.267 176.843 162.54 176.438C162.817 176.034 162.955 175.496 162.955 174.823ZM161.887 171.073C162.727 171.073 163.436 171.383 164.016 172.002C164.601 172.622 164.893 173.531 164.893 174.731C164.893 175.997 164.607 176.961 164.036 177.625C163.469 178.289 162.738 178.62 161.841 178.62C161.27 178.62 160.795 178.478 160.417 178.192C160.211 178.034 160.009 177.803 159.811 177.5V181.244H157.952V171.231H159.751V172.292C159.954 171.98 160.169 171.734 160.397 171.554C160.815 171.233 161.312 171.073 161.887 171.073ZM169.481 177.091C170.03 177.091 170.452 176.896 170.747 176.504C171.041 176.113 171.188 175.557 171.188 174.837C171.188 174.116 171.041 173.562 170.747 173.176C170.452 172.784 170.03 172.589 169.481 172.589C168.932 172.589 168.508 172.784 168.209 173.176C167.914 173.562 167.767 174.116 167.767 174.837C167.767 175.557 167.914 176.113 168.209 176.504C168.508 176.896 168.932 177.091 169.481 177.091ZM173.159 174.837C173.159 175.891 172.856 176.794 172.25 177.546C171.643 178.293 170.722 178.667 169.488 178.667C168.253 178.667 167.332 178.293 166.726 177.546C166.119 176.794 165.816 175.891 165.816 174.837C165.816 173.8 166.119 172.901 166.726 172.141C167.332 171.38 168.253 171 169.488 171C170.722 171 171.643 171.38 172.25 172.141C172.856 172.901 173.159 173.8 173.159 174.837ZM178.413 171.06C178.448 171.06 178.477 171.062 178.499 171.066C178.525 171.066 178.58 171.068 178.663 171.073V172.998C178.545 172.984 178.439 172.976 178.347 172.971C178.255 172.967 178.18 172.965 178.123 172.965C177.367 172.965 176.859 173.211 176.6 173.703C176.455 173.98 176.383 174.406 176.383 174.982V178.416H174.491V171.231H176.284V172.483C176.574 172.004 176.826 171.677 177.042 171.501C177.393 171.207 177.85 171.06 178.413 171.06ZM179.032 172.635V171.297H180.034V169.293H181.893V171.297H183.06V172.635H181.893V176.432C181.893 176.726 181.931 176.911 182.005 176.986C182.08 177.056 182.309 177.091 182.691 177.091C182.748 177.091 182.807 177.091 182.869 177.091C182.935 177.087 182.999 177.082 183.06 177.078V178.482L182.17 178.515C181.282 178.546 180.676 178.392 180.351 178.053C180.14 177.838 180.034 177.506 180.034 177.058V172.635H179.032ZM185.73 176.122C185.769 176.456 185.855 176.693 185.987 176.834C186.22 177.084 186.65 177.21 187.279 177.21C187.648 177.21 187.94 177.155 188.156 177.045C188.375 176.935 188.485 176.77 188.485 176.551C188.485 176.34 188.397 176.179 188.221 176.069C188.046 175.959 187.393 175.771 186.264 175.502C185.451 175.3 184.877 175.048 184.543 174.744C184.209 174.446 184.042 174.015 184.042 173.452C184.042 172.789 184.302 172.22 184.82 171.745C185.343 171.266 186.077 171.027 187.022 171.027C187.918 171.027 188.648 171.207 189.21 171.567C189.777 171.923 190.102 172.541 190.186 173.419H188.307C188.281 173.178 188.213 172.987 188.103 172.846C187.896 172.591 187.545 172.464 187.048 172.464C186.639 172.464 186.347 172.527 186.171 172.655C186 172.782 185.914 172.932 185.914 173.103C185.914 173.318 186.007 173.474 186.191 173.571C186.376 173.672 187.028 173.846 188.149 174.092C188.896 174.268 189.456 174.533 189.83 174.889C190.199 175.25 190.384 175.7 190.384 176.241C190.384 176.953 190.118 177.535 189.586 177.988C189.059 178.436 188.241 178.66 187.134 178.66C186.004 178.66 185.169 178.423 184.629 177.948C184.093 177.469 183.825 176.86 183.825 176.122H185.73Z" fill="white"/>
</g>
<g filter="url(#filter2_d_70_13086)">
<path d="M514 105H364C361.791 105 360 106.791 360 109V193C360 195.209 361.791 197 364 197H514C516.209 197 518 195.209 518 193V109C518 106.791 516.209 105 514 105Z" fill="white"/>
<path d="M402.759 174.297H409.648V176.004H404.776V178.239H409.041V179.926H404.776V184H402.759V174.297ZM415.31 182.55C416.114 182.55 416.751 182.253 417.222 181.66C417.696 181.067 417.934 180.223 417.934 179.129C417.934 178.039 417.696 177.197 417.222 176.604C416.751 176.006 416.114 175.708 415.31 175.708C414.506 175.708 413.864 176.004 413.385 176.597C412.906 177.191 412.667 178.034 412.667 179.129C412.667 180.223 412.906 181.067 413.385 181.66C413.864 182.253 414.506 182.55 415.31 182.55ZM419.964 179.129C419.964 180.873 419.474 182.209 418.494 183.136C417.76 183.892 416.699 184.27 415.31 184.27C413.921 184.27 412.86 183.892 412.126 183.136C411.142 182.209 410.65 180.873 410.65 179.129C410.65 177.349 411.142 176.013 412.126 175.121C412.86 174.365 413.921 173.987 415.31 173.987C416.699 173.987 417.76 174.365 418.494 175.121C419.474 176.013 419.964 177.349 419.964 179.129ZM425.817 182.55C426.622 182.55 427.259 182.253 427.729 181.66C428.204 181.067 428.441 180.223 428.441 179.129C428.441 178.039 428.204 177.197 427.729 176.604C427.259 176.006 426.622 175.708 425.817 175.708C425.013 175.708 424.372 176.004 423.893 176.597C423.414 177.191 423.174 178.034 423.174 179.129C423.174 180.223 423.414 181.067 423.893 181.66C424.372 182.253 425.013 182.55 425.817 182.55ZM430.471 179.129C430.471 180.873 429.981 182.209 429.001 183.136C428.267 183.892 427.206 184.27 425.817 184.27C424.429 184.27 423.367 183.892 422.634 183.136C421.649 182.209 421.157 180.873 421.157 179.129C421.157 177.349 421.649 176.013 422.634 175.121C423.367 174.365 424.429 173.987 425.817 173.987C427.206 173.987 428.267 174.365 429.001 175.121C429.981 176.013 430.471 177.349 430.471 179.129ZM439.087 174.284V176.004H436.18V184H434.136V176.004H431.216V174.284H439.087ZM442.251 175.971V178.114H444.637C445.063 178.114 445.408 178.034 445.672 177.876C445.94 177.714 446.074 177.428 446.074 177.019C446.074 176.567 445.898 176.268 445.547 176.123C445.243 176.022 444.857 175.971 444.386 175.971H442.251ZM442.251 179.722V182.312H444.637C445.063 182.312 445.395 182.255 445.632 182.141C446.063 181.93 446.278 181.526 446.278 180.928C446.278 180.423 446.07 180.076 445.652 179.887C445.419 179.781 445.092 179.726 444.67 179.722H442.251ZM445.032 174.284C446.223 174.301 447.067 174.646 447.564 175.319C447.863 175.732 448.012 176.226 448.012 176.802C448.012 177.395 447.863 177.872 447.564 178.232C447.397 178.434 447.151 178.619 446.825 178.786C447.322 178.966 447.696 179.252 447.946 179.643C448.201 180.034 448.328 180.509 448.328 181.067C448.328 181.642 448.183 182.159 447.893 182.616C447.709 182.919 447.478 183.174 447.201 183.38C446.889 183.618 446.52 183.78 446.094 183.868C445.672 183.956 445.213 184 444.716 184H440.313V174.284H445.032ZM452.692 180.328H455.157L453.945 176.505L452.692 180.328ZM452.817 174.284H455.111L458.552 184H456.351L455.724 182.003H452.145L451.473 184H449.35L452.817 174.284ZM459.792 174.284H461.822V182.253H466.634V184H459.792V174.284ZM468.044 174.284H470.075V182.253H474.887V184H468.044V174.284Z" fill="black"/>
</g>
<g filter="url(#filter3_d_70_13086)">
<path d="M794 105H644C641.791 105 640 106.791 640 109V193C640 195.209 641.791 197 644 197H794C796.209 197 798 195.209 798 193V109C798 106.791 796.209 105 794 105Z" fill="white"/>
<path d="M684.73 175.971V178.114H687.116C687.543 178.114 687.888 178.034 688.151 177.876C688.419 177.714 688.553 177.428 688.553 177.019C688.553 176.567 688.378 176.268 688.026 176.123C687.723 176.022 687.336 175.971 686.866 175.971H684.73ZM684.73 179.722V182.312H687.116C687.543 182.312 687.875 182.255 688.112 182.141C688.542 181.93 688.758 181.526 688.758 180.928C688.758 180.423 688.549 180.076 688.132 179.887C687.899 179.781 687.571 179.726 687.149 179.722H684.73ZM687.512 174.284C688.703 174.301 689.547 174.646 690.043 175.319C690.342 175.732 690.491 176.226 690.491 176.802C690.491 177.395 690.342 177.872 690.043 178.232C689.876 178.434 689.63 178.619 689.305 178.786C689.802 178.966 690.175 179.252 690.426 179.643C690.68 180.034 690.808 180.509 690.808 181.067C690.808 181.642 690.663 182.159 690.373 182.616C690.188 182.919 689.958 183.174 689.681 183.38C689.369 183.618 689 183.78 688.573 183.868C688.151 183.956 687.692 184 687.196 184H682.792V174.284H687.512ZM695.172 180.328H697.637L696.424 176.505L695.172 180.328ZM695.297 174.284H697.591L701.032 184H698.83L698.204 182.003H694.625L693.952 184H691.83L695.297 174.284ZM703.741 181.001C703.802 181.445 703.923 181.776 704.104 181.996C704.433 182.396 704.998 182.596 705.798 182.596C706.277 182.596 706.666 182.543 706.964 182.438C707.531 182.236 707.815 181.86 707.815 181.311C707.815 180.99 707.674 180.741 707.393 180.566C707.112 180.394 706.67 180.243 706.068 180.111L705.04 179.88C704.029 179.652 703.33 179.403 702.943 179.135C702.289 178.687 701.961 177.986 701.961 177.032C701.961 176.162 702.278 175.439 702.91 174.864C703.543 174.288 704.473 174 705.699 174C706.723 174 707.595 174.273 708.316 174.818C709.041 175.358 709.421 176.145 709.456 177.177H707.505C707.47 176.593 707.215 176.178 706.74 175.932C706.424 175.769 706.031 175.688 705.56 175.688C705.037 175.688 704.62 175.793 704.308 176.004C703.996 176.215 703.84 176.51 703.84 176.887C703.84 177.235 703.994 177.494 704.301 177.665C704.499 177.78 704.921 177.914 705.567 178.067L707.241 178.469C707.975 178.645 708.529 178.88 708.902 179.175C709.482 179.632 709.772 180.293 709.772 181.159C709.772 182.047 709.432 182.785 708.751 183.374C708.074 183.958 707.116 184.25 705.877 184.25C704.611 184.25 703.616 183.963 702.891 183.387C702.166 182.807 701.803 182.011 701.803 181.001H703.741ZM718.46 176.004H713.319V178.067H718.039V179.755H713.319V182.253H718.698V184H711.335V174.284H718.46V176.004ZM722.251 175.971V178.114H724.637C725.063 178.114 725.408 178.034 725.672 177.876C725.94 177.714 726.074 177.428 726.074 177.019C726.074 176.567 725.898 176.268 725.547 176.123C725.243 176.022 724.857 175.971 724.386 175.971H722.251ZM722.251 179.722V182.312H724.637C725.063 182.312 725.395 182.255 725.632 182.141C726.063 181.93 726.278 181.526 726.278 180.928C726.278 180.423 726.07 180.076 725.652 179.887C725.419 179.781 725.092 179.726 724.67 179.722H722.251ZM725.032 174.284C726.223 174.301 727.067 174.646 727.564 175.319C727.863 175.732 728.012 176.226 728.012 176.802C728.012 177.395 727.863 177.872 727.564 178.232C727.397 178.434 727.151 178.619 726.825 178.786C727.322 178.966 727.696 179.252 727.946 179.643C728.201 180.034 728.328 180.509 728.328 181.067C728.328 181.642 728.183 182.159 727.893 182.616C727.709 182.919 727.478 183.174 727.201 183.38C726.889 183.618 726.52 183.78 726.094 183.868C725.672 183.956 725.213 184 724.716 184H720.313V174.284H725.032ZM732.692 180.328H735.157L733.945 176.505L732.692 180.328ZM732.817 174.284H735.111L738.552 184H736.351L735.724 182.003H732.145L731.473 184H729.35L732.817 174.284ZM739.792 174.284H741.822V182.253H746.634V184H739.792V174.284ZM748.044 174.284H750.075V182.253H754.887V184H748.044V174.284Z" fill="black"/>
</g>
<g filter="url(#filter4_d_70_13086)">
<path d="M1074 105H924C921.791 105 920 106.791 920 109V193C920 195.209 921.791 197 924 197H1074C1076.21 197 1078 195.209 1078 193V109C1078 106.791 1076.21 105 1074 105Z" fill="white"/>
<path d="M970.623 184V174.284H972.634V177.988H976.431V174.284H978.448V184H976.431V179.663H972.634V184H970.623ZM984.69 182.55C985.494 182.55 986.132 182.253 986.602 181.66C987.076 181.067 987.314 180.223 987.314 179.129C987.314 178.039 987.076 177.197 986.602 176.604C986.132 176.006 985.494 175.708 984.69 175.708C983.886 175.708 983.244 176.004 982.765 176.597C982.286 177.191 982.047 178.034 982.047 179.129C982.047 180.223 982.286 181.067 982.765 181.66C983.244 182.253 983.886 182.55 984.69 182.55ZM989.344 179.129C989.344 180.873 988.854 182.209 987.874 183.136C987.14 183.892 986.079 184.27 984.69 184.27C983.302 184.27 982.24 183.892 981.506 183.136C980.522 182.209 980.03 180.873 980.03 179.129C980.03 177.349 980.522 176.013 981.506 175.121C982.24 174.365 983.302 173.987 984.69 173.987C986.079 173.987 987.14 174.365 987.874 175.121C988.854 176.013 989.344 177.349 989.344 179.129ZM990.478 179.221C990.478 177.525 990.933 176.217 991.842 175.299C992.633 174.499 993.64 174.099 994.861 174.099C996.496 174.099 997.691 174.635 998.447 175.708C998.865 176.31 999.089 176.914 999.12 177.52H997.089C996.958 177.054 996.788 176.703 996.582 176.466C996.213 176.044 995.666 175.833 994.94 175.833C994.202 175.833 993.62 176.132 993.194 176.729C992.767 177.323 992.554 178.164 992.554 179.254C992.554 180.344 992.778 181.161 993.227 181.706C993.679 182.247 994.253 182.517 994.947 182.517C995.659 182.517 996.202 182.284 996.575 181.818C996.782 181.568 996.953 181.192 997.089 180.691H999.1C998.924 181.75 998.474 182.611 997.749 183.275C997.028 183.938 996.103 184.27 994.973 184.27C993.576 184.27 992.477 183.822 991.677 182.926C990.878 182.025 990.478 180.79 990.478 179.221ZM1000.69 174.284H1002.69V178.285L1006.44 174.284H1009.06L1005.08 178.285L1009.26 184H1006.65L1003.65 179.755L1002.69 180.75V184H1000.69V174.284ZM1017.6 176.004H1012.45V178.067H1017.17V179.755H1012.45V182.253H1017.83V184H1010.47V174.284H1017.6V176.004ZM1024.96 174.284H1027.26L1024.01 180.348V184H1021.98V180.348L1018.62 174.284H1021.01L1023.03 178.516L1024.96 174.284Z" fill="black"/>
</g>
<g filter="url(#filter5_d_70_13086)">
<path d="M1354 105H1204C1201.79 105 1200 106.791 1200 109V193C1200 195.209 1201.79 197 1204 197H1354C1356.21 197 1358 195.209 1358 193V109C1358 106.791 1356.21 105 1354 105Z" fill="white"/>
<path d="M1240.2 174.284H1242.3L1238.99 184H1237.07L1233.79 174.284H1235.96L1238.07 181.66L1240.2 174.284ZM1247.81 182.55C1248.61 182.55 1249.25 182.253 1249.72 181.66C1250.19 181.067 1250.43 180.223 1250.43 179.129C1250.43 178.039 1250.19 177.197 1249.72 176.604C1249.25 176.006 1248.61 175.708 1247.81 175.708C1247 175.708 1246.36 176.004 1245.88 176.597C1245.4 177.191 1245.17 178.034 1245.17 179.129C1245.17 180.223 1245.4 181.067 1245.88 181.66C1246.36 182.253 1247 182.55 1247.81 182.55ZM1252.46 179.129C1252.46 180.873 1251.97 182.209 1250.99 183.136C1250.26 183.892 1249.2 184.27 1247.81 184.27C1246.42 184.27 1245.36 183.892 1244.62 183.136C1243.64 182.209 1243.15 180.873 1243.15 179.129C1243.15 177.349 1243.64 176.013 1244.62 175.121C1245.36 174.365 1246.42 173.987 1247.81 173.987C1249.2 173.987 1250.26 174.365 1250.99 175.121C1251.97 176.013 1252.46 177.349 1252.46 179.129ZM1254.02 174.284H1256.05V182.253H1260.86V184H1254.02V174.284ZM1262.27 174.284H1264.3V182.253H1269.11V184H1262.27V174.284ZM1277.71 176.004H1272.57V178.067H1277.29V179.755H1272.57V182.253H1277.95V184H1270.58V174.284H1277.71V176.004ZM1285.07 174.284H1287.37L1284.12 180.348V184H1282.09V180.348L1278.73 174.284H1281.12L1283.14 178.516L1285.07 174.284ZM1290.5 175.971V178.114H1292.89C1293.32 178.114 1293.66 178.034 1293.92 177.876C1294.19 177.714 1294.33 177.428 1294.33 177.019C1294.33 176.567 1294.15 176.268 1293.8 176.123C1293.5 176.022 1293.11 175.971 1292.64 175.971H1290.5ZM1290.5 179.722V182.312H1292.89C1293.32 182.312 1293.65 182.255 1293.89 182.141C1294.32 181.93 1294.53 181.526 1294.53 180.928C1294.53 180.423 1294.32 180.076 1293.91 179.887C1293.67 179.781 1293.34 179.726 1292.92 179.722H1290.5ZM1293.29 174.284C1294.48 174.301 1295.32 174.646 1295.82 175.319C1296.12 175.732 1296.26 176.226 1296.26 176.802C1296.26 177.395 1296.12 177.872 1295.82 178.232C1295.65 178.434 1295.4 178.619 1295.08 178.786C1295.57 178.966 1295.95 179.252 1296.2 179.643C1296.45 180.034 1296.58 180.509 1296.58 181.067C1296.58 181.642 1296.44 182.159 1296.15 182.616C1295.96 182.919 1295.73 183.174 1295.45 183.38C1295.14 183.618 1294.77 183.78 1294.35 183.868C1293.92 183.956 1293.47 184 1292.97 184H1288.57V174.284H1293.29ZM1300.95 180.328H1303.41L1302.2 176.505L1300.95 180.328ZM1301.07 174.284H1303.36L1306.81 184H1304.6L1303.98 182.003H1300.4L1299.73 184H1297.6L1301.07 174.284ZM1308.04 174.284H1310.07V182.253H1314.89V184H1308.04V174.284ZM1316.3 174.284H1318.33V182.253H1323.14V184H1316.3V174.284Z" fill="black"/>
</g>
<mask id="mask1_70_13086" style="mask-type:luminance" maskUnits="userSpaceOnUse" x="427" y="123" width="24" height="24">
<path d="M451 123H427V147H451V123Z" fill="white"/>
</mask>
<g mask="url(#mask1_70_13086)">
<path d="M446.547 140.391L443.219 140.156C442.969 140.156 442.734 140.234 442.516 140.391C442.328 140.516 442.203 140.703 442.141 140.953L441.297 144.234C440.578 144.422 439.813 144.516 439 144.516C438.187 144.516 437.422 144.422 436.703 144.234L435.859 140.953C435.797 140.703 435.672 140.516 435.484 140.391C435.266 140.234 435.031 140.156 434.781 140.156L431.453 140.391C430.609 139.109 430.125 137.641 430 135.984L432.859 134.203C433.078 134.078 433.219 133.891 433.281 133.641C433.375 133.422 433.375 133.188 433.281 132.938L432.016 129.844C433.016 128.625 434.266 127.719 435.766 127.125L438.344 129.281C438.531 129.438 438.75 129.516 439 129.516C439.25 129.516 439.469 129.438 439.656 129.281L442.234 127.125C443.734 127.719 444.984 128.625 445.984 129.844L444.719 132.938C444.625 133.188 444.625 133.422 444.719 133.641C444.781 133.891 444.922 134.078 445.141 134.203L448 136.031C447.875 137.656 447.391 139.109 446.547 140.391ZM439 147.516C441.187 147.484 443.187 146.953 445 145.922C446.813 144.859 448.281 143.391 449.406 141.516C450.469 139.609 451 137.609 451 135.516C451 133.422 450.469 131.422 449.406 129.516C448.281 127.641 446.813 126.172 445 125.109C443.187 124.078 441.187 123.547 439 123.516C436.812 123.547 434.812 124.078 433 125.109C431.188 126.172 429.719 127.641 428.594 129.516C427.531 131.422 427 133.422 427 135.516C427 137.609 427.531 139.609 428.594 141.516C429.719 143.391 431.188 144.859 433 145.922C434.812 146.953 436.812 147.484 439 147.516ZM439.656 132.234C439.219 131.953 438.781 131.953 438.344 132.234L436.094 133.875C435.688 134.219 435.547 134.641 435.672 135.141L436.562 137.766C436.75 138.266 437.094 138.531 437.594 138.562H440.406C440.906 138.531 441.25 138.266 441.438 137.766L442.328 135.141C442.453 134.641 442.312 134.219 441.906 133.875L439.656 132.234Z" fill="black"/>
</g>
<path d="M711.078 130L715.062 133.984C716.156 132.672 716.719 131.094 716.75 129.25C716.75 128.563 716.656 127.906 716.469 127.281C714.406 127.719 712.609 128.625 711.078 130ZM710 131.078C708.625 132.609 707.719 134.406 707.281 136.469C707.906 136.656 708.562 136.75 709.25 136.75C711.094 136.719 712.672 136.156 713.984 135.062L710 131.078ZM719 127C718.656 127 718.313 127.016 717.969 127.047C718.156 127.766 718.25 128.5 718.25 129.25C718.219 131.5 717.516 133.438 716.141 135.062L719 137.922L726.922 130C724.734 128.063 722.094 127.063 719 127ZM709.25 138.25C708.5 138.25 707.766 138.156 707.047 137.969C707.016 138.313 707 138.656 707 139C707.062 142.094 708.062 144.734 710 146.922L717.922 139L715.062 136.141C713.438 137.516 711.5 138.219 709.25 138.25ZM730.953 140.031C730.984 139.687 731 139.344 731 139C730.937 135.906 729.937 133.266 728 131.078L720.078 139L722.938 141.859C724.562 140.484 726.5 139.781 728.75 139.75C729.5 139.75 730.234 139.844 730.953 140.031ZM730.719 141.531C730.094 141.344 729.437 141.25 728.75 141.25C726.906 141.281 725.328 141.844 724.016 142.938L728 146.922C729.375 145.391 730.281 143.594 730.719 141.531ZM722.938 144.016C721.844 145.328 721.281 146.906 721.25 148.75C721.25 149.438 721.344 150.094 721.531 150.719C723.594 150.281 725.391 149.375 726.922 148L722.938 144.016ZM721.859 142.938L719 140.078L711.078 148C713.234 149.938 715.875 150.938 719 151C719.344 151 719.687 150.984 720.031 150.953C719.844 150.234 719.75 149.5 719.75 148.75C719.781 146.5 720.484 144.562 721.859 142.938Z" fill="black"/>
<mask id="mask2_70_13086" style="mask-type:luminance" maskUnits="userSpaceOnUse" x="987" y="135" width="24" height="24">
<path d="M1011 135H987V159H1011V135Z" fill="white"/>
</mask>
<g mask="url(#mask2_70_13086)">
<path d="M999 147.516C995.594 147.484 992.766 147.047 990.516 146.203C988.266 145.359 987.094 144.297 987 143.016C987.094 141.734 988.266 140.672 990.516 139.828C992.766 138.984 995.594 138.547 999 138.516C1002.41 138.547 1005.23 138.984 1007.48 139.828C1009.73 140.672 1010.91 141.734 1011 143.016C1010.91 144.297 1009.73 145.359 1007.48 146.203C1005.23 147.047 1002.41 147.484 999 147.516ZM1008 147.609C1009.19 147.172 1010.19 146.609 1011 145.922V152.016C1010.91 153.297 1009.73 154.359 1007.48 155.203C1005.23 156.047 1002.41 156.484 999 156.516C995.594 156.484 992.766 156.047 990.516 155.203C988.266 154.359 987.094 153.297 987 152.016V145.922C987.812 146.609 988.812 147.172 990 147.609C992.469 148.516 995.469 148.984 999 149.016C1002.53 148.984 1005.53 148.516 1008 147.609Z" fill="black"/>
</g>
<mask id="mask3_70_13086" style="mask-type:luminance" maskUnits="userSpaceOnUse" x="1267" y="123" width="24" height="24">
<path d="M1291 123H1267V147H1291V123Z" fill="white"/>
</mask>
<g mask="url(#mask3_70_13086)">
<path d="M1291 136.031C1289.75 136.469 1288.48 136.719 1287.2 136.781C1287.39 134.281 1287.06 131.922 1286.22 129.703C1285.34 127.516 1284.06 125.609 1282.38 123.984C1284.91 124.766 1286.97 126.187 1288.56 128.25C1290.12 130.312 1290.94 132.734 1291 135.516C1291 135.703 1291 135.875 1291 136.031ZM1290.81 137.672C1290.53 139.172 1290 140.563 1289.22 141.844C1286.88 142.969 1284.42 143.453 1281.86 143.297C1279.27 143.109 1276.84 142.234 1274.59 140.672C1275.72 138.953 1277.19 137.531 1279 136.406C1280.91 137.406 1282.86 138 1284.86 138.188C1286.89 138.406 1288.87 138.234 1290.81 137.672ZM1279.75 135.094C1279.69 132.938 1279.23 130.938 1278.39 129.094C1277.55 127.25 1276.41 125.625 1274.97 124.219C1276.22 123.75 1277.56 123.516 1279 123.516C1279.12 123.516 1279.25 123.516 1279.38 123.516C1281.53 124.953 1283.17 126.844 1284.3 129.188C1285.45 131.5 1285.92 134.016 1285.7 136.734C1283.64 136.641 1281.66 136.094 1279.75 135.094ZM1273.47 124.875C1274.44 125.719 1275.28 126.688 1276 127.781C1273.72 128.875 1271.84 130.344 1270.38 132.188C1268.91 134.031 1267.89 136.094 1267.33 138.375C1267.11 137.469 1267 136.516 1267 135.516C1267.03 133.172 1267.62 131.062 1268.78 129.188C1269.97 127.344 1271.53 125.906 1273.47 124.875ZM1276.75 129.094C1277.66 130.938 1278.16 132.938 1278.25 135.094C1276.44 136.219 1274.94 137.609 1273.75 139.266C1272.56 140.922 1271.72 142.719 1271.22 144.656C1270.09 143.688 1269.16 142.531 1268.41 141.188C1268.59 138.594 1269.41 136.219 1270.84 134.062C1272.28 131.938 1274.25 130.281 1276.75 129.094ZM1279 147.516C1276.59 147.484 1274.44 146.859 1272.53 145.641C1272.81 144.359 1273.25 143.141 1273.84 141.984C1275.87 143.391 1278.06 144.281 1280.41 144.656C1282.75 145 1285.05 144.844 1287.3 144.188C1286.2 145.219 1284.95 146.031 1283.55 146.625C1282.14 147.219 1280.62 147.516 1279 147.516Z" fill="black"/>
</g>
<defs>
<filter id="filter0_d_70_13086" x="-4" y="0" width="1448" height="269" filterUnits="userSpaceOnUse" color-interpolation-filters="sRGB">
<feFlood flood-opacity="0" result="BackgroundImageFix"/>
<feColorMatrix in="SourceAlpha" type="matrix" values="0 0 0 0 0 0 0 0 0 0 0 0 0 0 0 0 0 0 127 0" result="hardAlpha"/>
<feOffset dy="8"/>
<feGaussianBlur stdDeviation="2"/>
<feComposite in2="hardAlpha" operator="out"/>
<feColorMatrix type="matrix" values="0 0 0 0 0 0 0 0 0 0 0 0 0 0 0 0 0 0 0.25 0"/>
<feBlend mode="normal" in2="BackgroundImageFix" result="effect1_dropShadow_70_13086"/>
<feBlend mode="normal" in="SourceGraphic" in2="effect1_dropShadow_70_13086" result="shape"/>
</filter>
<filter id="filter1_i_70_13086" x="80" y="105" width="162.3" height="96.3" filterUnits="userSpaceOnUse" color-interpolation-filters="sRGB">
<feFlood flood-opacity="0" result="BackgroundImageFix"/>
<feBlend mode="normal" in="SourceGraphic" in2="BackgroundImageFix" result="shape"/>
<feColorMatrix in="SourceAlpha" type="matrix" values="0 0 0 0 0 0 0 0 0 0 0 0 0 0 0 0 0 0 127 0" result="hardAlpha"/>
<feOffset dx="7" dy="7"/>
<feGaussianBlur stdDeviation="2.15"/>
<feComposite in2="hardAlpha" operator="arithmetic" k2="-1" k3="1"/>
<feColorMatrix type="matrix" values="0 0 0 0 0 0 0 0 0 0 0 0 0 0 0 0 0 0 0.25 0"/>
<feBlend mode="normal" in2="shape" result="effect1_innerShadow_70_13086"/>
</filter>
<filter id="filter2_d_70_13086" x="359.5" y="105" width="167" height="103.5" filterUnits="userSpaceOnUse" color-interpolation-filters="sRGB">
<feFlood flood-opacity="0" result="BackgroundImageFix"/>
<feColorMatrix in="SourceAlpha" type="matrix" values="0 0 0 0 0 0 0 0 0 0 0 0 0 0 0 0 0 0 127 0" result="hardAlpha"/>
<feOffset dx="4" dy="7"/>
<feGaussianBlur stdDeviation="2.25"/>
<feComposite in2="hardAlpha" operator="out"/>
<feColorMatrix type="matrix" values="0 0 0 0 0 0 0 0 0 0 0 0 0 0 0 0 0 0 0.25 0"/>
<feBlend mode="normal" in2="BackgroundImageFix" result="effect1_dropShadow_70_13086"/>
<feBlend mode="normal" in="SourceGraphic" in2="effect1_dropShadow_70_13086" result="shape"/>
</filter>
<filter id="filter3_d_70_13086" x="639.5" y="105" width="167" height="103.5" filterUnits="userSpaceOnUse" color-interpolation-filters="sRGB">
<feFlood flood-opacity="0" result="BackgroundImageFix"/>
<feColorMatrix in="SourceAlpha" type="matrix" values="0 0 0 0 0 0 0 0 0 0 0 0 0 0 0 0 0 0 127 0" result="hardAlpha"/>
<feOffset dx="4" dy="7"/>
<feGaussianBlur stdDeviation="2.25"/>
<feComposite in2="hardAlpha" operator="out"/>
<feColorMatrix type="matrix" values="0 0 0 0 0 0 0 0 0 0 0 0 0 0 0 0 0 0 0.25 0"/>
<feBlend mode="normal" in2="BackgroundImageFix" result="effect1_dropShadow_70_13086"/>
<feBlend mode="normal" in="SourceGraphic" in2="effect1_dropShadow_70_13086" result="shape"/>
</filter>
<filter id="filter4_d_70_13086" x="919.5" y="105" width="167" height="103.5" filterUnits="userSpaceOnUse" color-interpolation-filters="sRGB">
<feFlood flood-opacity="0" result="BackgroundImageFix"/>
<feColorMatrix in="SourceAlpha" type="matrix" values="0 0 0 0 0 0 0 0 0 0 0 0 0 0 0 0 0 0 127 0" result="hardAlpha"/>
<feOffset dx="4" dy="7"/>
<feGaussianBlur stdDeviation="2.25"/>
<feComposite in2="hardAlpha" operator="out"/>
<feColorMatrix type="matrix" values="0 0 0 0 0 0 0 0 0 0 0 0 0 0 0 0 0 0 0.25 0"/>
<feBlend mode="normal" in2="BackgroundImageFix" result="effect1_dropShadow_70_13086"/>
<feBlend mode="normal" in="SourceGraphic" in2="effect1_dropShadow_70_13086" result="shape"/>
</filter>
<filter id="filter5_d_70_13086" x="1199.5" y="105" width="167" height="103.5" filterUnits="userSpaceOnUse" color-interpolation-filters="sRGB">
<feFlood flood-opacity="0" result="BackgroundImageFix"/>
<feColorMatrix in="SourceAlpha" type="matrix" values="0 0 0 0 0 0 0 0 0 0 0 0 0 0 0 0 0 0 127 0" result="hardAlpha"/>
<feOffset dx="4" dy="7"/>
<feGaussianBlur stdDeviation="2.25"/>
<feComposite in2="hardAlpha" operator="out"/>
<feColorMatrix type="matrix" values="0 0 0 0 0 0 0 0 0 0 0 0 0 0 0 0 0 0 0.25 0"/>
<feBlend mode="normal" in2="BackgroundImageFix" result="effect1_dropShadow_70_13086"/>
<feBlend mode="normal" in="SourceGraphic" in2="effect1_dropShadow_70_13086" result="shape"/>
</filter>
<linearGradient id="paint0_linear_70_13086" x1="703" y1="258.44" x2="705.591" y2="-80.6459" gradientUnits="userSpaceOnUse">
<stop stop-color="#47B67C"/>
<stop offset="1" stop-color="#208C53"/>
</linearGradient>
</defs>
</svg>
