<svg width="1065" height="178" viewBox="0 0 1065 178" fill="none" xmlns="http://www.w3.org/2000/svg">
<g filter="url(#filter0_d_70_5211)">
<mask id="path-1-outside-1_70_5211" maskUnits="userSpaceOnUse" x="4" y="0" width="1057" height="166" fill="black">
<rect fill="white" x="4" width="1057" height="166"/>
<path fill-rule="evenodd" clip-rule="evenodd" d="M85.985 11.3504C86.5216 10.5368 87.4437 10 88.4912 10H978.455C979.556 10 980.518 10.5928 981.04 11.4765C983.021 11.8085 984.921 12.7387 986.45 14.2672L1047.84 75.6533C1051.74 79.5585 1051.74 85.8902 1047.84 89.7954L986.345 151.287C984.828 152.804 982.945 153.731 980.98 154.07C980.446 154.899 979.515 155.449 978.455 155.449H88.4912C87.4852 155.449 86.5948 154.954 86.0505 154.194C83.2746 154.377 80.4367 153.408 78.315 151.287L16.9289 89.9005C13.0237 85.9953 13.0237 79.6637 16.9289 75.7584L78.4201 14.2672C80.4984 12.1889 83.2638 11.2167 85.985 11.3504Z"/>
</mask>
<path fill-rule="evenodd" clip-rule="evenodd" d="M85.985 11.3504C86.5216 10.5368 87.4437 10 88.4912 10H978.455C979.556 10 980.518 10.5928 981.04 11.4765C983.021 11.8085 984.921 12.7387 986.45 14.2672L1047.84 75.6533C1051.74 79.5585 1051.74 85.8902 1047.84 89.7954L986.345 151.287C984.828 152.804 982.945 153.731 980.98 154.07C980.446 154.899 979.515 155.449 978.455 155.449H88.4912C87.4852 155.449 86.5948 154.954 86.0505 154.194C83.2746 154.377 80.4367 153.408 78.315 151.287L16.9289 89.9005C13.0237 85.9953 13.0237 79.6637 16.9289 75.7584L78.4201 14.2672C80.4984 12.1889 83.2638 11.2167 85.985 11.3504Z" fill="#208C53"/>
<path d="M85.985 11.3504L85.4942 21.3383L91.192 21.6183L94.3329 16.8562L85.985 11.3504ZM981.04 11.4765L972.43 16.5622L974.797 20.5695L979.387 21.3389L981.04 11.4765ZM986.45 14.2672L979.379 21.3382L979.379 21.3383L986.45 14.2672ZM1047.84 75.6533L1040.76 82.7243V82.7244L1047.84 75.6533ZM1047.84 89.7954L1040.76 82.7243V82.7244L1047.84 89.7954ZM986.345 151.287L979.274 144.216L979.273 144.216L986.345 151.287ZM980.98 154.07L979.282 144.215L974.949 144.961L972.57 148.659L980.98 154.07ZM86.0505 154.194L94.1805 148.371L90.9412 143.848L85.3901 144.215L86.0505 154.194ZM78.315 151.287L71.2439 158.358H71.244L78.315 151.287ZM16.9289 89.9005L9.85786 96.9716H9.85787L16.9289 89.9005ZM16.9289 75.7584L9.85786 68.6873L16.9289 75.7584ZM78.4201 14.2672L71.3491 7.19613L71.3491 7.19614L78.4201 14.2672ZM88.4912 0C83.9422 0 79.9457 2.34458 77.6372 5.84458L94.3329 16.8562C93.0976 18.7291 90.9452 20 88.4912 20V0ZM978.455 0H88.4912V20H978.455V0ZM989.65 6.3908C987.404 2.58748 983.237 0 978.455 0V20C975.875 20 973.633 18.598 972.43 16.5622L989.65 6.3908ZM993.521 7.19618C990.473 4.14824 986.659 2.27873 982.693 1.61406L979.387 21.3389C979.39 21.3394 979.386 21.3392 979.378 21.335C979.374 21.3329 979.371 21.3309 979.37 21.3299C979.368 21.3287 979.371 21.3306 979.379 21.3382L993.521 7.19618ZM1054.91 68.5822L993.521 7.19613L979.379 21.3383L1040.76 82.7243L1054.91 68.5822ZM1054.91 96.8665C1062.72 89.056 1062.72 76.3927 1054.91 68.5822L1040.76 82.7244V82.7243L1054.91 96.8665ZM993.416 158.358L1054.91 96.8665L1040.76 82.7244L979.274 144.216L993.416 158.358ZM982.678 163.924C986.612 163.247 990.391 161.382 993.416 158.358L979.273 144.216C979.266 144.223 979.263 144.225 979.264 144.224C979.266 144.223 979.269 144.221 979.273 144.219C979.281 144.215 979.285 144.214 979.282 144.215L982.678 163.924ZM978.455 165.449C983.058 165.449 987.094 163.049 989.39 159.48L972.57 148.659C973.799 146.749 975.972 145.449 978.455 145.449V165.449ZM88.4912 165.449H978.455V145.449H88.4912V165.449ZM77.9205 160.016C80.2619 163.285 84.124 165.449 88.4912 165.449V145.449C90.8464 145.449 92.9277 146.622 94.1805 148.371L77.9205 160.016ZM85.3901 144.215C85.3857 144.216 85.3815 144.215 85.3784 144.215C85.3756 144.215 85.3759 144.214 85.3792 144.216C85.3831 144.217 85.3882 144.219 85.3928 144.222C85.3949 144.224 85.3957 144.224 85.3952 144.224C85.3946 144.224 85.3916 144.221 85.3861 144.216L71.244 158.358C75.4885 162.602 81.1816 164.538 86.711 164.172L85.3901 144.215ZM85.3861 144.216L24 82.8295L9.85787 96.9716L71.2439 158.358L85.3861 144.216ZM24 82.8295H24L9.85786 68.6873C2.04738 76.4978 2.04738 89.1611 9.85786 96.9716L24 82.8295ZM24 82.8295L85.4912 21.3383L71.3491 7.19614L9.85786 68.6873L24 82.8295ZM85.4912 21.3383C85.4966 21.3329 85.4996 21.3304 85.5002 21.3299C85.5009 21.3294 85.5002 21.33 85.4982 21.3313C85.4938 21.3341 85.4888 21.3366 85.4848 21.3381C85.4813 21.3394 85.4806 21.3392 85.4831 21.3388C85.4857 21.3384 85.4897 21.3381 85.4942 21.3383L86.4759 1.36245C81.0542 1.09603 75.506 3.03925 71.3491 7.19613L85.4912 21.3383Z" fill="#F6F7F9" mask="url(#path-1-outside-1_70_5211)"/>
<path d="M225.145 82.9062L224.184 89H201.051L201.895 83.5625L214.035 72.2891C214.691 71.6484 215.395 70.9297 216.145 70.1328C216.895 69.3359 217.559 68.4844 218.137 67.5781C218.73 66.6562 219.098 65.7188 219.238 64.7656C219.332 64.0469 219.316 63.3594 219.191 62.7031C219.082 62.0469 218.809 61.5078 218.371 61.0859C217.949 60.6484 217.316 60.4219 216.473 60.4062C215.504 60.375 214.691 60.6406 214.035 61.2031C213.395 61.7656 212.895 62.4688 212.535 63.3125C212.191 64.1562 211.965 64.9922 211.855 65.8203L204.191 65.8672C204.301 63.6016 204.965 61.6016 206.184 59.8672C207.418 58.1328 208.988 56.7734 210.895 55.7891C212.816 54.8047 214.887 54.3281 217.105 54.3594C219.121 54.3906 220.918 54.7734 222.496 55.5078C224.09 56.2422 225.316 57.3281 226.176 58.7656C227.035 60.2031 227.379 61.9922 227.207 64.1328C227.082 65.6172 226.691 66.9922 226.035 68.2578C225.395 69.5234 224.59 70.7109 223.621 71.8203C222.668 72.9141 221.645 73.9609 220.551 74.9609C219.473 75.9453 218.434 76.9062 217.434 77.8438L212.254 82.8594L225.145 82.9062ZM237.332 73.7422L231.074 72.2188L235.785 54.875H255.238L254.254 61.0156H241.223L239.137 67.8359C239.824 67.3984 240.582 67.0859 241.41 66.8984C242.238 66.6953 243.051 66.5859 243.848 66.5703C245.488 66.5703 246.902 66.875 248.09 67.4844C249.277 68.0781 250.238 68.8984 250.973 69.9453C251.707 70.9922 252.223 72.1953 252.52 73.5547C252.816 74.9141 252.902 76.3438 252.777 77.8438C252.637 79.5625 252.215 81.1406 251.512 82.5781C250.809 84.0156 249.879 85.2578 248.723 86.3047C247.566 87.3516 246.238 88.1562 244.738 88.7188C243.238 89.2656 241.629 89.5234 239.91 89.4922C238.426 89.4609 237.035 89.2031 235.738 88.7188C234.457 88.2188 233.324 87.5234 232.34 86.6328C231.355 85.7266 230.59 84.6562 230.043 83.4219C229.496 82.1719 229.23 80.7891 229.246 79.2734H236.957C236.988 79.9766 237.113 80.6328 237.332 81.2422C237.551 81.8516 237.895 82.3516 238.363 82.7422C238.848 83.1172 239.488 83.3203 240.285 83.3516C241.129 83.3672 241.84 83.1953 242.418 82.8359C242.996 82.4766 243.473 82 243.848 81.4062C244.223 80.7969 244.504 80.1328 244.691 79.4141C244.895 78.6953 245.027 77.9922 245.09 77.3047C245.168 76.6172 245.168 75.9609 245.09 75.3359C245.012 74.6953 244.84 74.1328 244.574 73.6484C244.309 73.1484 243.918 72.7578 243.402 72.4766C242.902 72.1797 242.262 72.0234 241.48 72.0078C240.684 72.0078 239.926 72.1484 239.207 72.4297C238.488 72.7109 237.863 73.1484 237.332 73.7422ZM256.082 85.4375C256.051 84.2344 256.457 83.25 257.301 82.4844C258.145 81.7031 259.152 81.3125 260.324 81.3125C261.449 81.2969 262.426 81.6484 263.254 82.3672C264.082 83.0703 264.512 84 264.543 85.1562C264.574 86.3594 264.168 87.3516 263.324 88.1328C262.48 88.8984 261.473 89.2812 260.301 89.2812C259.191 89.2969 258.215 88.9531 257.371 88.25C256.543 87.5312 256.113 86.5938 256.082 85.4375ZM291.637 54.8516L285.918 89H278.207L282.566 63.9219L274.621 66.1719L275.699 59.9141L290.77 54.875L291.637 54.8516ZM310.059 52.9766L303.801 89H296.09L302.348 52.9766H310.059ZM324.215 63.6406L311.184 76.6719L304.645 82.3672L301.949 76.9531L307.551 70.8828L314.441 63.6406H324.215ZM311.488 89L306.824 77.1641L312.895 73.2266L319.973 89H311.488Z" fill="white"/>
<path d="M218.559 110.008H215.621L215.895 108.398L218.16 108.406C218.504 108.406 218.832 108.359 219.145 108.266C219.462 108.167 219.728 108.008 219.941 107.789C220.16 107.565 220.298 107.266 220.355 106.891C220.402 106.536 220.371 106.258 220.262 106.055C220.152 105.852 219.978 105.706 219.738 105.617C219.504 105.523 219.225 105.474 218.902 105.469L217.215 105.461L215.559 115H213.27L215.238 103.625L218.973 103.633C219.462 103.638 219.936 103.695 220.395 103.805C220.853 103.914 221.259 104.086 221.613 104.32C221.967 104.555 222.241 104.865 222.434 105.25C222.632 105.635 222.712 106.109 222.676 106.672C222.639 107.286 222.462 107.792 222.145 108.188C221.827 108.578 221.421 108.872 220.926 109.07C220.436 109.268 219.91 109.383 219.348 109.414L218.559 110.008ZM217.629 115H214.082L215.285 113.172L217.699 113.18C218.043 113.18 218.363 113.122 218.66 113.008C218.962 112.888 219.215 112.711 219.418 112.477C219.621 112.242 219.749 111.943 219.801 111.578C219.848 111.271 219.835 111.003 219.762 110.773C219.689 110.539 219.553 110.359 219.355 110.234C219.163 110.104 218.905 110.031 218.582 110.016L216.27 110.008L216.559 108.398L219.215 108.406L219.605 109.031C220.116 109.057 220.559 109.174 220.934 109.383C221.314 109.586 221.603 109.875 221.801 110.25C221.999 110.625 222.079 111.076 222.043 111.602C221.991 112.414 221.754 113.07 221.332 113.57C220.91 114.07 220.371 114.435 219.715 114.664C219.064 114.893 218.368 115.005 217.629 115ZM230.918 113.172L230.598 115H224.715L225.027 113.172H230.918ZM227.441 103.625L225.465 115H223.176L225.145 103.625H227.441ZM231.004 108.258L230.691 110.039H225.574L225.887 108.258H231.004ZM232.559 103.625L232.238 105.461H226.363L226.691 103.625H232.559ZM238.988 103.625L237.02 115H234.73L236.707 103.625H238.988ZM242.379 103.625L242.059 105.461H233.051L233.371 103.625H242.379ZM250.34 110.953L247.395 110.945L247.715 109.117L250.418 109.125C250.803 109.125 251.158 109.057 251.48 108.922C251.803 108.781 252.069 108.578 252.277 108.312C252.486 108.047 252.618 107.714 252.676 107.312C252.728 106.974 252.71 106.669 252.621 106.398C252.533 106.128 252.376 105.909 252.152 105.742C251.928 105.576 251.639 105.484 251.285 105.469L249.152 105.461L247.496 115H245.207L247.176 103.625L251.355 103.633C252.079 103.648 252.725 103.805 253.293 104.102C253.861 104.393 254.298 104.81 254.605 105.352C254.918 105.888 255.043 106.536 254.98 107.297C254.913 108.125 254.655 108.81 254.207 109.352C253.759 109.893 253.194 110.297 252.512 110.562C251.835 110.823 251.111 110.953 250.34 110.953ZM262.652 113.172L262.332 115H256.762L257.082 113.172H262.652ZM259.488 103.625L257.512 115H255.223L257.191 103.625H259.488ZM269.902 105.688L265.324 115H262.809L268.887 103.625H270.496L269.902 105.688ZM270.809 115L269.418 105.445L269.504 103.625H271.012L273.16 115H270.809ZM271.387 110.766L271.066 112.602H265.215L265.535 110.766H271.387ZM276.645 103.625L278.043 108.797L281.238 103.625H283.84L278.871 110.969L278.184 115H275.855L276.598 110.742L274.23 103.633L276.645 103.625ZM290.543 113.172L290.223 115H284.34L284.652 113.172H290.543ZM287.066 103.625L285.09 115H282.801L284.77 103.625H287.066ZM290.629 108.258L290.316 110.039H285.199L285.512 108.258H290.629ZM292.184 103.625L291.863 105.461H285.988L286.316 103.625H292.184ZM293.504 103.625L297.512 103.633C298.204 103.643 298.832 103.771 299.395 104.016C299.962 104.26 300.402 104.628 300.715 105.117C301.033 105.607 301.165 106.229 301.113 106.984C301.061 107.604 300.91 108.128 300.66 108.555C300.415 108.982 300.085 109.344 299.668 109.641C299.257 109.938 298.783 110.193 298.246 110.406L297.449 110.789H293.746L294.059 108.961L296.605 108.977C296.986 108.971 297.332 108.898 297.645 108.758C297.957 108.617 298.215 108.414 298.418 108.148C298.626 107.878 298.757 107.549 298.809 107.164C298.855 106.826 298.832 106.531 298.738 106.281C298.65 106.031 298.496 105.836 298.277 105.695C298.059 105.555 297.78 105.479 297.441 105.469L295.48 105.461L293.824 115H291.535L293.504 103.625ZM297.762 115L296.121 109.93L298.426 109.914L300.199 114.875V115H297.762ZM307.762 111.969C307.809 111.693 307.785 111.461 307.691 111.273C307.603 111.081 307.467 110.919 307.285 110.789C307.108 110.654 306.908 110.539 306.684 110.445C306.465 110.352 306.246 110.266 306.027 110.188C305.626 110.031 305.23 109.854 304.84 109.656C304.454 109.458 304.103 109.224 303.785 108.953C303.467 108.677 303.22 108.357 303.043 107.992C302.866 107.622 302.793 107.19 302.824 106.695C302.861 106.133 303.02 105.646 303.301 105.234C303.582 104.823 303.939 104.487 304.371 104.227C304.809 103.961 305.283 103.766 305.793 103.641C306.309 103.516 306.814 103.458 307.309 103.469C308.017 103.479 308.647 103.628 309.199 103.914C309.751 104.195 310.184 104.596 310.496 105.117C310.814 105.633 310.962 106.253 310.941 106.977H308.676C308.697 106.633 308.652 106.336 308.543 106.086C308.439 105.831 308.27 105.635 308.035 105.5C307.806 105.359 307.512 105.284 307.152 105.273C306.845 105.268 306.543 105.318 306.246 105.422C305.954 105.521 305.702 105.677 305.488 105.891C305.28 106.099 305.15 106.37 305.098 106.703C305.056 106.948 305.09 107.159 305.199 107.336C305.314 107.513 305.467 107.664 305.66 107.789C305.858 107.914 306.066 108.021 306.285 108.109C306.509 108.193 306.71 108.268 306.887 108.336C307.309 108.487 307.715 108.667 308.105 108.875C308.501 109.083 308.85 109.331 309.152 109.617C309.454 109.898 309.686 110.232 309.848 110.617C310.009 110.997 310.074 111.44 310.043 111.945C309.996 112.523 309.84 113.018 309.574 113.43C309.309 113.836 308.965 114.169 308.543 114.43C308.121 114.685 307.66 114.872 307.16 114.992C306.66 115.112 306.152 115.169 305.637 115.164C305.074 115.154 304.546 115.065 304.051 114.898C303.556 114.732 303.124 114.492 302.754 114.18C302.384 113.862 302.098 113.474 301.895 113.016C301.697 112.552 301.605 112.023 301.621 111.43L303.91 111.438C303.889 111.755 303.913 112.034 303.98 112.273C304.053 112.508 304.168 112.706 304.324 112.867C304.486 113.029 304.684 113.151 304.918 113.234C305.158 113.312 305.436 113.354 305.754 113.359C306.061 113.359 306.358 113.312 306.645 113.219C306.931 113.125 307.176 112.977 307.379 112.773C307.582 112.565 307.71 112.297 307.762 111.969Z" fill="black"/>
<path d="M579.504 68.6328L582.926 68.6797C583.863 68.6484 584.691 68.4531 585.41 68.0938C586.145 67.7344 586.73 67.2188 587.168 66.5469C587.621 65.8594 587.902 65.0469 588.012 64.1094C588.105 63.4062 588.035 62.7812 587.801 62.2344C587.582 61.6875 587.223 61.2578 586.723 60.9453C586.238 60.6172 585.637 60.4453 584.918 60.4297C584.23 60.4141 583.598 60.5391 583.02 60.8047C582.441 61.0703 581.949 61.4453 581.543 61.9297C581.152 62.4141 580.887 62.9844 580.746 63.6406L572.988 63.6875C573.098 61.625 573.754 59.8984 574.957 58.5078C576.176 57.1172 577.684 56.0781 579.48 55.3906C581.277 54.6875 583.121 54.3438 585.012 54.3594C586.98 54.3906 588.809 54.7578 590.496 55.4609C592.184 56.1484 593.527 57.2031 594.527 58.625C595.527 60.0312 595.965 61.8125 595.84 63.9688C595.762 65.4219 595.363 66.6953 594.645 67.7891C593.926 68.8828 592.996 69.7891 591.855 70.5078C590.73 71.2266 589.504 71.7734 588.176 72.1484C586.863 72.5078 585.559 72.6875 584.262 72.6875L578.848 72.6641L579.504 68.6328ZM578.566 74.5156L579.199 70.5781L583.816 70.6016C585.145 70.6328 586.426 70.8203 587.66 71.1641C588.895 71.5078 589.996 72.0234 590.965 72.7109C591.949 73.3984 592.707 74.2812 593.238 75.3594C593.77 76.4375 594.004 77.7266 593.941 79.2266C593.848 80.9766 593.395 82.5078 592.582 83.8203C591.77 85.1172 590.715 86.1875 589.418 87.0312C588.137 87.875 586.715 88.5 585.152 88.9062C583.605 89.3125 582.043 89.5078 580.465 89.4922C578.949 89.4609 577.543 89.2188 576.246 88.7656C574.949 88.2969 573.809 87.6406 572.824 86.7969C571.855 85.9375 571.098 84.8984 570.551 83.6797C570.02 82.4453 569.754 81.0469 569.754 79.4844H577.418C577.434 80.2188 577.59 80.875 577.887 81.4531C578.184 82.0312 578.605 82.4922 579.152 82.8359C579.699 83.1641 580.348 83.3359 581.098 83.3516C581.957 83.3672 582.762 83.2031 583.512 82.8594C584.262 82.5 584.887 82 585.387 81.3594C585.887 80.7031 586.199 79.9375 586.324 79.0625C586.449 78.1406 586.395 77.3516 586.16 76.6953C585.941 76.0234 585.543 75.5078 584.965 75.1484C584.387 74.7734 583.629 74.5703 582.691 74.5391L578.566 74.5156ZM620.426 82.9062L619.465 89H596.332L597.176 83.5625L609.316 72.2891C609.973 71.6484 610.676 70.9297 611.426 70.1328C612.176 69.3359 612.84 68.4844 613.418 67.5781C614.012 66.6562 614.379 65.7188 614.52 64.7656C614.613 64.0469 614.598 63.3594 614.473 62.7031C614.363 62.0469 614.09 61.5078 613.652 61.0859C613.23 60.6484 612.598 60.4219 611.754 60.4062C610.785 60.375 609.973 60.6406 609.316 61.2031C608.676 61.7656 608.176 62.4688 607.816 63.3125C607.473 64.1562 607.246 64.9922 607.137 65.8203L599.473 65.8672C599.582 63.6016 600.246 61.6016 601.465 59.8672C602.699 58.1328 604.27 56.7734 606.176 55.7891C608.098 54.8047 610.168 54.3281 612.387 54.3594C614.402 54.3906 616.199 54.7734 617.777 55.5078C619.371 56.2422 620.598 57.3281 621.457 58.7656C622.316 60.2031 622.66 61.9922 622.488 64.1328C622.363 65.6172 621.973 66.9922 621.316 68.2578C620.676 69.5234 619.871 70.7109 618.902 71.8203C617.949 72.9141 616.926 73.9609 615.832 74.9609C614.754 75.9453 613.715 76.9062 612.715 77.8438L607.535 82.8594L620.426 82.9062ZM649.535 68.8203L648.574 75.0312C648.309 76.9062 647.848 78.7188 647.191 80.4688C646.535 82.2031 645.66 83.7578 644.566 85.1328C643.488 86.5078 642.16 87.5859 640.582 88.3672C639.02 89.1484 637.168 89.5156 635.027 89.4688C633.402 89.4375 632.004 89.1484 630.832 88.6016C629.66 88.0391 628.684 87.2891 627.902 86.3516C627.137 85.4141 626.543 84.3359 626.121 83.1172C625.715 81.8984 625.465 80.6016 625.371 79.2266C625.277 77.8516 625.316 76.4609 625.488 75.0547L626.426 68.8203C626.707 66.9453 627.176 65.1406 627.832 63.4062C628.488 61.6562 629.363 60.0938 630.457 58.7188C631.551 57.3438 632.887 56.2734 634.465 55.5078C636.043 54.7266 637.895 54.3594 640.02 54.4062C641.645 54.4375 643.043 54.7344 644.215 55.2969C645.387 55.8438 646.355 56.5859 647.121 57.5234C647.887 58.4609 648.473 59.5391 648.879 60.7578C649.301 61.9766 649.559 63.2734 649.652 64.6484C649.746 66.0234 649.707 67.4141 649.535 68.8203ZM640.77 76.0391L641.988 67.7656C642.035 67.2969 642.09 66.7578 642.152 66.1484C642.215 65.5391 642.23 64.9141 642.199 64.2734C642.184 63.6172 642.09 63.0078 641.918 62.4453C641.762 61.8828 641.488 61.4219 641.098 61.0625C640.723 60.6875 640.191 60.4844 639.504 60.4531C638.535 60.4062 637.73 60.6172 637.09 61.0859C636.465 61.5547 635.965 62.1797 635.59 62.9609C635.215 63.7266 634.926 64.5469 634.723 65.4219C634.535 66.2812 634.387 67.0703 634.277 67.7891L633.059 76.0391C633.012 76.5078 632.957 77.0547 632.895 77.6797C632.832 78.2891 632.809 78.9219 632.824 79.5781C632.84 80.2344 632.926 80.8438 633.082 81.4062C633.254 81.9688 633.535 82.4375 633.926 82.8125C634.316 83.1719 634.855 83.375 635.543 83.4219C636.512 83.4688 637.309 83.2578 637.934 82.7891C638.574 82.3047 639.082 81.6797 639.457 80.9141C639.832 80.1328 640.113 79.3047 640.301 78.4297C640.504 77.5547 640.66 76.7578 640.77 76.0391ZM672.809 54.8516L667.09 89H659.379L663.738 63.9219L655.793 66.1719L656.871 59.9141L671.941 54.875L672.809 54.8516Z" fill="white"/>
<path d="M586.441 111.969C586.488 111.693 586.465 111.461 586.371 111.273C586.283 111.081 586.147 110.919 585.965 110.789C585.788 110.654 585.587 110.539 585.363 110.445C585.145 110.352 584.926 110.266 584.707 110.188C584.306 110.031 583.91 109.854 583.52 109.656C583.134 109.458 582.783 109.224 582.465 108.953C582.147 108.677 581.9 108.357 581.723 107.992C581.546 107.622 581.473 107.19 581.504 106.695C581.54 106.133 581.699 105.646 581.98 105.234C582.262 104.823 582.618 104.487 583.051 104.227C583.488 103.961 583.962 103.766 584.473 103.641C584.988 103.516 585.493 103.458 585.988 103.469C586.697 103.479 587.327 103.628 587.879 103.914C588.431 104.195 588.863 104.596 589.176 105.117C589.493 105.633 589.642 106.253 589.621 106.977H587.355C587.376 106.633 587.332 106.336 587.223 106.086C587.118 105.831 586.949 105.635 586.715 105.5C586.486 105.359 586.191 105.284 585.832 105.273C585.525 105.268 585.223 105.318 584.926 105.422C584.634 105.521 584.382 105.677 584.168 105.891C583.96 106.099 583.829 106.37 583.777 106.703C583.736 106.948 583.77 107.159 583.879 107.336C583.993 107.513 584.147 107.664 584.34 107.789C584.538 107.914 584.746 108.021 584.965 108.109C585.189 108.193 585.389 108.268 585.566 108.336C585.988 108.487 586.395 108.667 586.785 108.875C587.181 109.083 587.53 109.331 587.832 109.617C588.134 109.898 588.366 110.232 588.527 110.617C588.689 110.997 588.754 111.44 588.723 111.945C588.676 112.523 588.52 113.018 588.254 113.43C587.988 113.836 587.645 114.169 587.223 114.43C586.801 114.685 586.34 114.872 585.84 114.992C585.34 115.112 584.832 115.169 584.316 115.164C583.754 115.154 583.225 115.065 582.73 114.898C582.236 114.732 581.803 114.492 581.434 114.18C581.064 113.862 580.777 113.474 580.574 113.016C580.376 112.552 580.285 112.023 580.301 111.43L582.59 111.438C582.569 111.755 582.592 112.034 582.66 112.273C582.733 112.508 582.848 112.706 583.004 112.867C583.165 113.029 583.363 113.151 583.598 113.234C583.837 113.312 584.116 113.354 584.434 113.359C584.741 113.359 585.038 113.312 585.324 113.219C585.611 113.125 585.855 112.977 586.059 112.773C586.262 112.565 586.389 112.297 586.441 111.969ZM596.652 103.625L594.684 115H592.395L594.371 103.625H596.652ZM600.043 103.625L599.723 105.461H590.715L591.035 103.625H600.043ZM601.324 103.625L605.332 103.633C606.025 103.643 606.652 103.771 607.215 104.016C607.783 104.26 608.223 104.628 608.535 105.117C608.853 105.607 608.986 106.229 608.934 106.984C608.882 107.604 608.73 108.128 608.48 108.555C608.236 108.982 607.905 109.344 607.488 109.641C607.077 109.938 606.603 110.193 606.066 110.406L605.27 110.789H601.566L601.879 108.961L604.426 108.977C604.806 108.971 605.152 108.898 605.465 108.758C605.777 108.617 606.035 108.414 606.238 108.148C606.447 107.878 606.577 107.549 606.629 107.164C606.676 106.826 606.652 106.531 606.559 106.281C606.47 106.031 606.316 105.836 606.098 105.695C605.879 105.555 605.6 105.479 605.262 105.469L603.301 105.461L601.645 115H599.355L601.324 103.625ZM605.582 115L603.941 109.93L606.246 109.914L608.02 114.875V115H605.582ZM617.051 113.172L616.73 115H610.848L611.16 113.172H617.051ZM613.574 103.625L611.598 115H609.309L611.277 103.625H613.574ZM617.137 108.258L616.824 110.039H611.707L612.02 108.258H617.137ZM618.691 103.625L618.371 105.461H612.496L612.824 103.625H618.691ZM624.16 105.688L619.582 115H617.066L623.145 103.625H624.754L624.16 105.688ZM625.066 115L623.676 105.445L623.762 103.625H625.27L627.418 115H625.066ZM625.645 110.766L625.324 112.602H619.473L619.793 110.766H625.645ZM631.535 103.625H633.395L634.777 111.953L639.051 103.625H641.066L635.113 115H633.551L631.535 103.625ZM630.449 103.625H632.387L631.316 111.867L630.762 115H628.48L630.449 103.625ZM640.129 103.625H642.074L640.105 115H637.809L638.395 111.672L640.129 103.625ZM646.48 103.625L644.512 115H642.223L644.199 103.625H646.48ZM657.59 103.625L655.613 115H653.395L650.246 107.289L648.91 115H646.621L648.59 103.625H650.816L653.973 111.344L655.309 103.625H657.59ZM667.363 109.055L666.652 113.57C666.314 113.982 665.892 114.305 665.387 114.539C664.887 114.768 664.358 114.93 663.801 115.023C663.243 115.117 662.712 115.159 662.207 115.148C661.431 115.138 660.77 114.982 660.223 114.68C659.681 114.372 659.249 113.961 658.926 113.445C658.608 112.93 658.395 112.349 658.285 111.703C658.176 111.052 658.165 110.375 658.254 109.672L658.355 108.961C658.454 108.232 658.645 107.536 658.926 106.875C659.207 106.208 659.574 105.617 660.027 105.102C660.48 104.581 661.022 104.174 661.652 103.883C662.283 103.586 662.999 103.445 663.801 103.461C664.603 103.477 665.285 103.633 665.848 103.93C666.41 104.227 666.848 104.654 667.16 105.211C667.478 105.763 667.663 106.435 667.715 107.227L665.512 107.219C665.486 106.844 665.41 106.513 665.285 106.227C665.16 105.94 664.973 105.716 664.723 105.555C664.473 105.393 664.145 105.305 663.738 105.289C663.238 105.268 662.809 105.367 662.449 105.586C662.09 105.805 661.788 106.099 661.543 106.469C661.303 106.833 661.113 107.234 660.973 107.672C660.832 108.104 660.733 108.529 660.676 108.945L660.574 109.68C660.527 110.06 660.504 110.461 660.504 110.883C660.509 111.299 660.569 111.693 660.684 112.062C660.803 112.427 661.001 112.727 661.277 112.961C661.553 113.19 661.939 113.31 662.434 113.32C662.673 113.326 662.908 113.31 663.137 113.273C663.366 113.237 663.587 113.177 663.801 113.094C664.014 113.005 664.215 112.891 664.402 112.75L664.793 110.727H662.715L663.004 109.055H667.363Z" fill="black"/>
<path d="M398.668 74.7422L392.41 73.2188L397.121 55.875H416.574L415.59 62.0156H402.559L400.473 68.8359C401.16 68.3984 401.918 68.0859 402.746 67.8984C403.574 67.6953 404.387 67.5859 405.184 67.5703C406.824 67.5703 408.238 67.875 409.426 68.4844C410.613 69.0781 411.574 69.8984 412.309 70.9453C413.043 71.9922 413.559 73.1953 413.855 74.5547C414.152 75.9141 414.238 77.3438 414.113 78.8438C413.973 80.5625 413.551 82.1406 412.848 83.5781C412.145 85.0156 411.215 86.2578 410.059 87.3047C408.902 88.3516 407.574 89.1562 406.074 89.7188C404.574 90.2656 402.965 90.5234 401.246 90.4922C399.762 90.4609 398.371 90.2031 397.074 89.7188C395.793 89.2188 394.66 88.5234 393.676 87.6328C392.691 86.7266 391.926 85.6562 391.379 84.4219C390.832 83.1719 390.566 81.7891 390.582 80.2734H398.293C398.324 80.9766 398.449 81.6328 398.668 82.2422C398.887 82.8516 399.23 83.3516 399.699 83.7422C400.184 84.1172 400.824 84.3203 401.621 84.3516C402.465 84.3672 403.176 84.1953 403.754 83.8359C404.332 83.4766 404.809 83 405.184 82.4062C405.559 81.7969 405.84 81.1328 406.027 80.4141C406.23 79.6953 406.363 78.9922 406.426 78.3047C406.504 77.6172 406.504 76.9609 406.426 76.3359C406.348 75.6953 406.176 75.1328 405.91 74.6484C405.645 74.1484 405.254 73.7578 404.738 73.4766C404.238 73.1797 403.598 73.0234 402.816 73.0078C402.02 73.0078 401.262 73.1484 400.543 73.4297C399.824 73.7109 399.199 74.1484 398.668 74.7422ZM444.77 55.875L444.043 60.4453L427.215 90H418.777L435.535 61.9688H419.879L420.863 55.875H444.77ZM469.074 76.6641L468.02 82.7578H444.184L444.605 77.5547L461.434 55.875H467.973L459.254 67.2656L452.199 76.6172L469.074 76.6641ZM469.332 55.875L463.426 90H455.715L461.621 55.875H469.332ZM495.207 70.6406L494.035 77.4141H471.301L472.473 70.6406H495.207ZM489.02 61.7344L484.707 86.5781H477.512L481.824 61.7344H489.02Z" fill="white"/>
<path d="M404.27 106.688L399.691 116H397.176L403.254 104.625H404.863L404.27 106.688ZM405.176 116L403.785 106.445L403.871 104.625H405.379L407.527 116H405.176ZM405.754 111.766L405.434 113.602H399.582L399.902 111.766H405.754ZM416.02 114.172L415.699 116H410.129L410.449 114.172H416.02ZM412.855 104.625L410.879 116H408.59L410.559 104.625H412.855ZM424.426 114.172L424.105 116H418.535L418.855 114.172H424.426ZM421.262 104.625L419.285 116H416.996L418.965 104.625H421.262ZM435.613 112.969C435.66 112.693 435.637 112.461 435.543 112.273C435.454 112.081 435.319 111.919 435.137 111.789C434.96 111.654 434.759 111.539 434.535 111.445C434.316 111.352 434.098 111.266 433.879 111.188C433.478 111.031 433.082 110.854 432.691 110.656C432.306 110.458 431.954 110.224 431.637 109.953C431.319 109.677 431.072 109.357 430.895 108.992C430.717 108.622 430.645 108.19 430.676 107.695C430.712 107.133 430.871 106.646 431.152 106.234C431.434 105.823 431.79 105.487 432.223 105.227C432.66 104.961 433.134 104.766 433.645 104.641C434.16 104.516 434.665 104.458 435.16 104.469C435.868 104.479 436.499 104.628 437.051 104.914C437.603 105.195 438.035 105.596 438.348 106.117C438.665 106.633 438.814 107.253 438.793 107.977H436.527C436.548 107.633 436.504 107.336 436.395 107.086C436.29 106.831 436.121 106.635 435.887 106.5C435.658 106.359 435.363 106.284 435.004 106.273C434.697 106.268 434.395 106.318 434.098 106.422C433.806 106.521 433.553 106.677 433.34 106.891C433.132 107.099 433.001 107.37 432.949 107.703C432.908 107.948 432.941 108.159 433.051 108.336C433.165 108.513 433.319 108.664 433.512 108.789C433.71 108.914 433.918 109.021 434.137 109.109C434.361 109.193 434.561 109.268 434.738 109.336C435.16 109.487 435.566 109.667 435.957 109.875C436.353 110.083 436.702 110.331 437.004 110.617C437.306 110.898 437.538 111.232 437.699 111.617C437.861 111.997 437.926 112.44 437.895 112.945C437.848 113.523 437.691 114.018 437.426 114.43C437.16 114.836 436.816 115.169 436.395 115.43C435.973 115.685 435.512 115.872 435.012 115.992C434.512 116.112 434.004 116.169 433.488 116.164C432.926 116.154 432.397 116.065 431.902 115.898C431.408 115.732 430.975 115.492 430.605 115.18C430.236 114.862 429.949 114.474 429.746 114.016C429.548 113.552 429.457 113.023 429.473 112.43L431.762 112.438C431.741 112.755 431.764 113.034 431.832 113.273C431.905 113.508 432.02 113.706 432.176 113.867C432.337 114.029 432.535 114.151 432.77 114.234C433.009 114.312 433.288 114.354 433.605 114.359C433.913 114.359 434.21 114.312 434.496 114.219C434.783 114.125 435.027 113.977 435.23 113.773C435.434 113.565 435.561 113.297 435.613 112.969ZM444.035 111.953L441.09 111.945L441.41 110.117L444.113 110.125C444.499 110.125 444.853 110.057 445.176 109.922C445.499 109.781 445.764 109.578 445.973 109.312C446.181 109.047 446.314 108.714 446.371 108.312C446.423 107.974 446.405 107.669 446.316 107.398C446.228 107.128 446.072 106.909 445.848 106.742C445.624 106.576 445.335 106.484 444.98 106.469L442.848 106.461L441.191 116H438.902L440.871 104.625L445.051 104.633C445.775 104.648 446.421 104.805 446.988 105.102C447.556 105.393 447.993 105.81 448.301 106.352C448.613 106.888 448.738 107.536 448.676 108.297C448.608 109.125 448.35 109.81 447.902 110.352C447.454 110.893 446.889 111.297 446.207 111.562C445.53 111.823 444.806 111.953 444.035 111.953ZM459.012 110.008L458.949 110.555C458.845 111.284 458.65 111.987 458.363 112.664C458.077 113.341 457.702 113.945 457.238 114.477C456.775 115.003 456.223 115.419 455.582 115.727C454.947 116.029 454.225 116.172 453.418 116.156C452.647 116.141 451.993 115.974 451.457 115.656C450.926 115.333 450.504 114.906 450.191 114.375C449.884 113.844 449.678 113.253 449.574 112.602C449.47 111.945 449.46 111.273 449.543 110.586L449.605 110.047C449.71 109.318 449.905 108.617 450.191 107.945C450.483 107.273 450.861 106.674 451.324 106.148C451.793 105.617 452.345 105.201 452.98 104.898C453.621 104.596 454.34 104.453 455.137 104.469C455.908 104.479 456.559 104.646 457.09 104.969C457.626 105.286 458.048 105.711 458.355 106.242C458.668 106.768 458.876 107.359 458.98 108.016C459.085 108.667 459.095 109.331 459.012 110.008ZM456.629 110.586L456.707 110.023C456.749 109.669 456.77 109.286 456.77 108.875C456.775 108.458 456.728 108.06 456.629 107.68C456.53 107.294 456.353 106.979 456.098 106.734C455.848 106.484 455.486 106.349 455.012 106.328C454.501 106.312 454.064 106.414 453.699 106.633C453.34 106.852 453.038 107.148 452.793 107.523C452.553 107.893 452.363 108.299 452.223 108.742C452.087 109.18 451.988 109.609 451.926 110.031L451.855 110.594C451.809 110.943 451.783 111.328 451.777 111.75C451.777 112.167 451.827 112.568 451.926 112.953C452.025 113.333 452.202 113.648 452.457 113.898C452.712 114.148 453.077 114.284 453.551 114.305C454.056 114.32 454.488 114.216 454.848 113.992C455.212 113.768 455.517 113.471 455.762 113.102C456.007 112.727 456.199 112.32 456.34 111.883C456.48 111.44 456.577 111.008 456.629 110.586ZM461.59 104.625L465.598 104.633C466.29 104.643 466.918 104.771 467.48 105.016C468.048 105.26 468.488 105.628 468.801 106.117C469.118 106.607 469.251 107.229 469.199 107.984C469.147 108.604 468.996 109.128 468.746 109.555C468.501 109.982 468.171 110.344 467.754 110.641C467.342 110.938 466.868 111.193 466.332 111.406L465.535 111.789H461.832L462.145 109.961L464.691 109.977C465.072 109.971 465.418 109.898 465.73 109.758C466.043 109.617 466.301 109.414 466.504 109.148C466.712 108.878 466.842 108.549 466.895 108.164C466.941 107.826 466.918 107.531 466.824 107.281C466.736 107.031 466.582 106.836 466.363 106.695C466.145 106.555 465.866 106.479 465.527 106.469L463.566 106.461L461.91 116H459.621L461.59 104.625ZM465.848 116L464.207 110.93L466.512 110.914L468.285 115.875V116H465.848ZM476.027 104.625L474.059 116H471.77L473.746 104.625H476.027ZM479.418 104.625L479.098 106.461H470.09L470.41 104.625H479.418ZM484.879 112.969C484.926 112.693 484.902 112.461 484.809 112.273C484.72 112.081 484.585 111.919 484.402 111.789C484.225 111.654 484.025 111.539 483.801 111.445C483.582 111.352 483.363 111.266 483.145 111.188C482.743 111.031 482.348 110.854 481.957 110.656C481.572 110.458 481.22 110.224 480.902 109.953C480.585 109.677 480.337 109.357 480.16 108.992C479.983 108.622 479.91 108.19 479.941 107.695C479.978 107.133 480.137 106.646 480.418 106.234C480.699 105.823 481.056 105.487 481.488 105.227C481.926 104.961 482.4 104.766 482.91 104.641C483.426 104.516 483.931 104.458 484.426 104.469C485.134 104.479 485.764 104.628 486.316 104.914C486.868 105.195 487.301 105.596 487.613 106.117C487.931 106.633 488.079 107.253 488.059 107.977H485.793C485.814 107.633 485.77 107.336 485.66 107.086C485.556 106.831 485.387 106.635 485.152 106.5C484.923 106.359 484.629 106.284 484.27 106.273C483.962 106.268 483.66 106.318 483.363 106.422C483.072 106.521 482.819 106.677 482.605 106.891C482.397 107.099 482.267 107.37 482.215 107.703C482.173 107.948 482.207 108.159 482.316 108.336C482.431 108.513 482.585 108.664 482.777 108.789C482.975 108.914 483.184 109.021 483.402 109.109C483.626 109.193 483.827 109.268 484.004 109.336C484.426 109.487 484.832 109.667 485.223 109.875C485.618 110.083 485.967 110.331 486.27 110.617C486.572 110.898 486.803 111.232 486.965 111.617C487.126 111.997 487.191 112.44 487.16 112.945C487.113 113.523 486.957 114.018 486.691 114.43C486.426 114.836 486.082 115.169 485.66 115.43C485.238 115.685 484.777 115.872 484.277 115.992C483.777 116.112 483.27 116.169 482.754 116.164C482.191 116.154 481.663 116.065 481.168 115.898C480.673 115.732 480.241 115.492 479.871 115.18C479.501 114.862 479.215 114.474 479.012 114.016C478.814 113.552 478.723 113.023 478.738 112.43L481.027 112.438C481.007 112.755 481.03 113.034 481.098 113.273C481.171 113.508 481.285 113.706 481.441 113.867C481.603 114.029 481.801 114.151 482.035 114.234C482.275 114.312 482.553 114.354 482.871 114.359C483.178 114.359 483.475 114.312 483.762 114.219C484.048 114.125 484.293 113.977 484.496 113.773C484.699 113.565 484.827 113.297 484.879 112.969Z" fill="black"/>
<path d="M774.637 55.8516L768.918 90H761.207L765.566 64.9219L757.621 67.1719L758.699 60.9141L773.77 55.875L774.637 55.8516ZM805.363 69.8203L804.402 76.0312C804.137 77.9062 803.676 79.7188 803.02 81.4688C802.363 83.2031 801.488 84.7578 800.395 86.1328C799.316 87.5078 797.988 88.5859 796.41 89.3672C794.848 90.1484 792.996 90.5156 790.855 90.4688C789.23 90.4375 787.832 90.1484 786.66 89.6016C785.488 89.0391 784.512 88.2891 783.73 87.3516C782.965 86.4141 782.371 85.3359 781.949 84.1172C781.543 82.8984 781.293 81.6016 781.199 80.2266C781.105 78.8516 781.145 77.4609 781.316 76.0547L782.254 69.8203C782.535 67.9453 783.004 66.1406 783.66 64.4062C784.316 62.6562 785.191 61.0938 786.285 59.7188C787.379 58.3438 788.715 57.2734 790.293 56.5078C791.871 55.7266 793.723 55.3594 795.848 55.4062C797.473 55.4375 798.871 55.7344 800.043 56.2969C801.215 56.8438 802.184 57.5859 802.949 58.5234C803.715 59.4609 804.301 60.5391 804.707 61.7578C805.129 62.9766 805.387 64.2734 805.48 65.6484C805.574 67.0234 805.535 68.4141 805.363 69.8203ZM796.598 77.0391L797.816 68.7656C797.863 68.2969 797.918 67.7578 797.98 67.1484C798.043 66.5391 798.059 65.9141 798.027 65.2734C798.012 64.6172 797.918 64.0078 797.746 63.4453C797.59 62.8828 797.316 62.4219 796.926 62.0625C796.551 61.6875 796.02 61.4844 795.332 61.4531C794.363 61.4062 793.559 61.6172 792.918 62.0859C792.293 62.5547 791.793 63.1797 791.418 63.9609C791.043 64.7266 790.754 65.5469 790.551 66.4219C790.363 67.2812 790.215 68.0703 790.105 68.7891L788.887 77.0391C788.84 77.5078 788.785 78.0547 788.723 78.6797C788.66 79.2891 788.637 79.9219 788.652 80.5781C788.668 81.2344 788.754 81.8438 788.91 82.4062C789.082 82.9688 789.363 83.4375 789.754 83.8125C790.145 84.1719 790.684 84.375 791.371 84.4219C792.34 84.4688 793.137 84.2578 793.762 83.7891C794.402 83.3047 794.91 82.6797 795.285 81.9141C795.66 81.1328 795.941 80.3047 796.129 79.4297C796.332 78.5547 796.488 77.7578 796.598 77.0391ZM820.059 53.9766L813.801 90H806.09L812.348 53.9766H820.059ZM834.215 64.6406L821.184 77.6719L814.645 83.3672L811.949 77.9531L817.551 71.8828L824.441 64.6406H834.215ZM821.488 90L816.824 78.1641L822.895 74.2266L829.973 90H821.488ZM856.434 70.6406L855.262 77.4141H832.527L833.699 70.6406H856.434ZM850.246 61.7344L845.934 86.5781H838.738L843.051 61.7344H850.246Z" fill="white"/>
<path d="M783.809 111.953L780.863 111.945L781.184 110.117L783.887 110.125C784.272 110.125 784.626 110.057 784.949 109.922C785.272 109.781 785.538 109.578 785.746 109.312C785.954 109.047 786.087 108.714 786.145 108.312C786.197 107.974 786.178 107.669 786.09 107.398C786.001 107.128 785.845 106.909 785.621 106.742C785.397 106.576 785.108 106.484 784.754 106.469L782.621 106.461L780.965 116H778.676L780.645 104.625L784.824 104.633C785.548 104.648 786.194 104.805 786.762 105.102C787.329 105.393 787.767 105.81 788.074 106.352C788.387 106.888 788.512 107.536 788.449 108.297C788.382 109.125 788.124 109.81 787.676 110.352C787.228 110.893 786.663 111.297 785.98 111.562C785.303 111.823 784.579 111.953 783.809 111.953ZM790.66 104.625L794.668 104.633C795.361 104.643 795.988 104.771 796.551 105.016C797.118 105.26 797.559 105.628 797.871 106.117C798.189 106.607 798.322 107.229 798.27 107.984C798.217 108.604 798.066 109.128 797.816 109.555C797.572 109.982 797.241 110.344 796.824 110.641C796.413 110.938 795.939 111.193 795.402 111.406L794.605 111.789H790.902L791.215 109.961L793.762 109.977C794.142 109.971 794.488 109.898 794.801 109.758C795.113 109.617 795.371 109.414 795.574 109.148C795.783 108.878 795.913 108.549 795.965 108.164C796.012 107.826 795.988 107.531 795.895 107.281C795.806 107.031 795.652 106.836 795.434 106.695C795.215 106.555 794.936 106.479 794.598 106.469L792.637 106.461L790.98 116H788.691L790.66 104.625ZM794.918 116L793.277 110.93L795.582 110.914L797.355 115.875V116H794.918ZM803.051 104.625L801.082 116H798.793L800.77 104.625H803.051ZM810.199 112.234L812.434 112.203C812.335 113.042 812.051 113.76 811.582 114.359C811.118 114.953 810.535 115.406 809.832 115.719C809.129 116.026 808.366 116.172 807.543 116.156C806.783 116.141 806.142 115.979 805.621 115.672C805.1 115.359 804.691 114.943 804.395 114.422C804.098 113.901 803.902 113.32 803.809 112.68C803.715 112.039 803.71 111.383 803.793 110.711L803.902 109.922C804.007 109.214 804.197 108.529 804.473 107.867C804.754 107.206 805.121 106.617 805.574 106.102C806.027 105.586 806.564 105.18 807.184 104.883C807.803 104.586 808.507 104.445 809.293 104.461C810.116 104.477 810.811 104.654 811.379 104.992C811.952 105.326 812.392 105.792 812.699 106.391C813.012 106.984 813.186 107.68 813.223 108.477L810.949 108.469C810.954 108.047 810.902 107.677 810.793 107.359C810.689 107.036 810.507 106.786 810.246 106.609C809.986 106.427 809.626 106.328 809.168 106.312C808.668 106.297 808.243 106.396 807.895 106.609C807.546 106.823 807.257 107.109 807.027 107.469C806.803 107.828 806.626 108.221 806.496 108.648C806.371 109.076 806.277 109.495 806.215 109.906L806.105 110.719C806.064 111.057 806.035 111.432 806.02 111.844C806.004 112.25 806.038 112.638 806.121 113.008C806.204 113.378 806.366 113.685 806.605 113.93C806.845 114.169 807.202 114.297 807.676 114.312C808.145 114.328 808.548 114.255 808.887 114.094C809.23 113.932 809.509 113.693 809.723 113.375C809.941 113.057 810.1 112.677 810.199 112.234ZM821.09 114.172L820.77 116H814.887L815.199 114.172H821.09ZM817.613 104.625L815.637 116H813.348L815.316 104.625H817.613ZM821.176 109.258L820.863 111.039H815.746L816.059 109.258H821.176ZM822.73 104.625L822.41 106.461H816.535L816.863 104.625H822.73ZM828.355 112.969C828.402 112.693 828.379 112.461 828.285 112.273C828.197 112.081 828.061 111.919 827.879 111.789C827.702 111.654 827.501 111.539 827.277 111.445C827.059 111.352 826.84 111.266 826.621 111.188C826.22 111.031 825.824 110.854 825.434 110.656C825.048 110.458 824.697 110.224 824.379 109.953C824.061 109.677 823.814 109.357 823.637 108.992C823.46 108.622 823.387 108.19 823.418 107.695C823.454 107.133 823.613 106.646 823.895 106.234C824.176 105.823 824.533 105.487 824.965 105.227C825.402 104.961 825.876 104.766 826.387 104.641C826.902 104.516 827.408 104.458 827.902 104.469C828.611 104.479 829.241 104.628 829.793 104.914C830.345 105.195 830.777 105.596 831.09 106.117C831.408 106.633 831.556 107.253 831.535 107.977H829.27C829.29 107.633 829.246 107.336 829.137 107.086C829.033 106.831 828.863 106.635 828.629 106.5C828.4 106.359 828.105 106.284 827.746 106.273C827.439 106.268 827.137 106.318 826.84 106.422C826.548 106.521 826.296 106.677 826.082 106.891C825.874 107.099 825.743 107.37 825.691 107.703C825.65 107.948 825.684 108.159 825.793 108.336C825.908 108.513 826.061 108.664 826.254 108.789C826.452 108.914 826.66 109.021 826.879 109.109C827.103 109.193 827.303 109.268 827.48 109.336C827.902 109.487 828.309 109.667 828.699 109.875C829.095 110.083 829.444 110.331 829.746 110.617C830.048 110.898 830.28 111.232 830.441 111.617C830.603 111.997 830.668 112.44 830.637 112.945C830.59 113.523 830.434 114.018 830.168 114.43C829.902 114.836 829.559 115.169 829.137 115.43C828.715 115.685 828.254 115.872 827.754 115.992C827.254 116.112 826.746 116.169 826.23 116.164C825.668 116.154 825.139 116.065 824.645 115.898C824.15 115.732 823.717 115.492 823.348 115.18C822.978 114.862 822.691 114.474 822.488 114.016C822.29 113.552 822.199 113.023 822.215 112.43L824.504 112.438C824.483 112.755 824.507 113.034 824.574 113.273C824.647 113.508 824.762 113.706 824.918 113.867C825.079 114.029 825.277 114.151 825.512 114.234C825.751 114.312 826.03 114.354 826.348 114.359C826.655 114.359 826.952 114.312 827.238 114.219C827.525 114.125 827.77 113.977 827.973 113.773C828.176 113.565 828.303 113.297 828.355 112.969Z" fill="black"/>
<rect opacity="0.3" x="355.16" y="57" width="1.45449" height="58.5536" transform="rotate(9 355.16 57)" fill="black"/>
<rect opacity="0.3" x="717.16" y="57" width="1.45449" height="58.5536" transform="rotate(9 717.16 57)" fill="black"/>
<rect opacity="0.3" x="536.16" y="54" width="1.45449" height="58.5536" transform="rotate(9 536.16 54)" fill="black"/>
</g>
<defs>
<filter id="filter0_d_70_5211" x="0" y="0" width="1064.77" height="177.449" filterUnits="userSpaceOnUse" color-interpolation-filters="sRGB">
<feFlood flood-opacity="0" result="BackgroundImageFix"/>
<feColorMatrix in="SourceAlpha" type="matrix" values="0 0 0 0 0 0 0 0 0 0 0 0 0 0 0 0 0 0 127 0" result="hardAlpha"/>
<feOffset dy="8"/>
<feGaussianBlur stdDeviation="2"/>
<feComposite in2="hardAlpha" operator="out"/>
<feColorMatrix type="matrix" values="0 0 0 0 0 0 0 0 0 0 0 0 0 0 0 0 0 0 0.25 0"/>
<feBlend mode="normal" in2="BackgroundImageFix" result="effect1_dropShadow_70_5211"/>
<feBlend mode="normal" in="SourceGraphic" in2="effect1_dropShadow_70_5211" result="shape"/>
</filter>
</defs>
</svg>
