<svg width="732" height="364" viewBox="0 0 732 364" fill="none" xmlns="http://www.w3.org/2000/svg">
<path d="M36.2041 16.6797H47.1538V51.9092C47.1538 56.0107 46.2749 59.4653 44.5171 62.2729C42.7837 65.0806 40.3789 67.1924 37.3027 68.6084C34.251 70.0244 30.7354 70.7324 26.7559 70.7324C22.7764 70.7324 19.2363 70.0244 16.1357 68.6084C13.0596 67.1924 10.6426 65.0806 8.88477 62.2729C7.15137 59.4653 6.28467 56.0107 6.28467 51.9092V16.6797H17.271V51.9092C17.271 54.3018 17.6494 56.2549 18.4062 57.7686C19.1631 59.2822 20.2495 60.3931 21.6655 61.1011C23.106 61.8091 24.8027 62.1631 26.7559 62.1631C28.7578 62.1631 30.4546 61.8091 31.8462 61.1011C33.2622 60.3931 34.3364 59.2822 35.0688 57.7686C35.8257 56.2549 36.2041 54.3018 36.2041 51.9092V16.6797ZM91.978 61.4307V70H63.5967V61.4307H91.978ZM67.1855 16.6797V70H56.1992V16.6797H67.1855ZM88.2793 38.396V46.7456H63.5967V38.396H88.2793ZM91.9414 16.6797V25.2856H63.5967V16.6797H91.9414ZM109.373 16.6797V70H98.3867V16.6797H109.373ZM130.613 39.458V48.0273H106.37V39.458H130.613ZM133.177 16.6797V25.2856H106.37V16.6797H133.177ZM154.49 25.7983L139.988 70H128.306L148.118 16.6797H155.552L154.49 25.7983ZM166.539 70L152 25.7983L150.828 16.6797H158.335L178.257 70H166.539ZM165.879 50.1514V58.7573H137.718V50.1514H165.879ZM232.786 52.312H243.736C243.516 55.9009 242.527 59.0869 240.77 61.8701C239.036 64.6533 236.607 66.8262 233.482 68.3887C230.381 69.9512 226.646 70.7324 222.276 70.7324C218.858 70.7324 215.794 70.1465 213.084 68.9746C210.374 67.7783 208.055 66.0693 206.126 63.8477C204.222 61.626 202.769 58.9404 201.768 55.791C200.767 52.6416 200.267 49.1138 200.267 45.2075V41.5088C200.267 37.6025 200.779 34.0747 201.805 30.9253C202.854 27.7515 204.344 25.0537 206.272 22.832C208.226 20.6104 210.557 18.9014 213.267 17.7051C215.977 16.5088 219.004 15.9106 222.349 15.9106C226.792 15.9106 230.54 16.7163 233.592 18.3276C236.668 19.939 239.048 22.1606 240.733 24.9927C242.442 27.8247 243.467 31.0474 243.809 34.6606H232.823C232.701 32.5122 232.273 30.6934 231.541 29.2041C230.809 27.6904 229.698 26.5552 228.208 25.7983C226.744 25.0171 224.791 24.6265 222.349 24.6265C220.518 24.6265 218.919 24.9683 217.552 25.6519C216.185 26.3354 215.037 27.373 214.109 28.7646C213.182 30.1562 212.486 31.9141 212.022 34.0381C211.583 36.1377 211.363 38.6035 211.363 41.4355V45.2075C211.363 47.9663 211.57 50.3955 211.985 52.4951C212.4 54.5703 213.035 56.3281 213.89 57.7686C214.769 59.1846 215.892 60.2588 217.259 60.9912C218.65 61.6992 220.323 62.0532 222.276 62.0532C224.571 62.0532 226.463 61.687 227.952 60.9546C229.441 60.2222 230.577 59.1357 231.358 57.6953C232.164 56.2549 232.64 54.4604 232.786 52.312ZM260.582 13.75V70H250.035V13.75H260.582ZM259.08 48.7964H256.187C256.211 46.0376 256.578 43.4985 257.286 41.1792C257.994 38.8354 259.007 36.8091 260.325 35.1001C261.644 33.3667 263.218 32.0239 265.049 31.0718C266.905 30.1196 268.956 29.6436 271.202 29.6436C273.155 29.6436 274.925 29.9243 276.512 30.4858C278.123 31.0229 279.502 31.9019 280.65 33.1226C281.822 34.3188 282.725 35.8936 283.36 37.8467C283.995 39.7998 284.312 42.168 284.312 44.9512V70H273.692V44.8779C273.692 43.1201 273.436 41.7407 272.923 40.7397C272.435 39.7144 271.714 38.9941 270.762 38.5791C269.834 38.1396 268.687 37.9199 267.32 37.9199C265.806 37.9199 264.512 38.2007 263.438 38.7622C262.388 39.3237 261.546 40.105 260.911 41.106C260.276 42.0825 259.812 43.23 259.52 44.5483C259.227 45.8667 259.08 47.2827 259.08 48.7964ZM313.719 61.0645V43.4131C313.719 42.1436 313.511 41.0571 313.096 40.1538C312.681 39.2261 312.034 38.5059 311.155 37.9932C310.301 37.4805 309.19 37.2241 307.823 37.2241C306.651 37.2241 305.638 37.4316 304.783 37.8467C303.929 38.2373 303.27 38.811 302.806 39.5679C302.342 40.3003 302.11 41.167 302.11 42.168H291.563C291.563 40.4834 291.954 38.8843 292.735 37.3706C293.516 35.8569 294.651 34.5264 296.141 33.3789C297.63 32.207 299.4 31.2915 301.451 30.6323C303.526 29.9731 305.845 29.6436 308.409 29.6436C311.485 29.6436 314.219 30.1562 316.612 31.1816C319.004 32.207 320.884 33.7451 322.251 35.7959C323.643 37.8467 324.339 40.4102 324.339 43.4863V60.4419C324.339 62.6147 324.473 64.397 324.742 65.7886C325.01 67.1558 325.401 68.3521 325.914 69.3774V70H315.257C314.744 68.9258 314.354 67.583 314.085 65.9717C313.841 64.3359 313.719 62.7002 313.719 61.0645ZM315.11 45.8667L315.184 51.8359H309.288C307.896 51.8359 306.688 51.9946 305.662 52.312C304.637 52.6294 303.794 53.0811 303.135 53.667C302.476 54.2285 301.988 54.8877 301.67 55.6445C301.377 56.4014 301.231 57.2314 301.231 58.1348C301.231 59.0381 301.438 59.856 301.854 60.5884C302.269 61.2964 302.867 61.8579 303.648 62.2729C304.429 62.6636 305.345 62.8589 306.395 62.8589C307.981 62.8589 309.361 62.5415 310.533 61.9067C311.705 61.272 312.608 60.4907 313.243 59.563C313.902 58.6353 314.244 57.7563 314.268 56.9263L317.051 61.394C316.661 62.395 316.124 63.4326 315.44 64.5068C314.781 65.5811 313.938 66.5942 312.913 67.5464C311.888 68.4741 310.655 69.2432 309.214 69.8535C307.774 70.4395 306.065 70.7324 304.087 70.7324C301.573 70.7324 299.29 70.2319 297.239 69.231C295.213 68.2056 293.602 66.8018 292.405 65.0195C291.233 63.2129 290.647 61.1621 290.647 58.8672C290.647 56.792 291.038 54.9487 291.819 53.3374C292.601 51.7261 293.748 50.3711 295.262 49.2725C296.8 48.1494 298.716 47.3071 301.011 46.7456C303.306 46.1597 305.967 45.8667 308.995 45.8667H315.11ZM343.016 38.5791V70H332.432V30.376H342.356L343.016 38.5791ZM341.551 48.7964H338.621C338.621 46.0376 338.951 43.4985 339.61 41.1792C340.293 38.8354 341.282 36.8091 342.576 35.1001C343.895 33.3667 345.518 32.0239 347.447 31.0718C349.375 30.1196 351.609 29.6436 354.148 29.6436C355.906 29.6436 357.518 29.9121 358.982 30.4492C360.447 30.9619 361.705 31.7798 362.754 32.9028C363.829 34.0015 364.659 35.4419 365.245 37.2241C365.831 38.9819 366.124 41.0938 366.124 43.5596V70H355.577V44.7314C355.577 42.9248 355.333 41.5332 354.844 40.5566C354.356 39.5801 353.66 38.8965 352.757 38.5059C351.878 38.1152 350.816 37.9199 349.571 37.9199C348.204 37.9199 347.007 38.2007 345.982 38.7622C344.981 39.3237 344.151 40.105 343.492 41.106C342.833 42.0825 342.344 43.23 342.027 44.5483C341.709 45.8667 341.551 47.2827 341.551 48.7964ZM365.135 47.5879L361.363 48.064C361.363 45.4761 361.68 43.0713 362.315 40.8496C362.974 38.6279 363.938 36.6748 365.208 34.9902C366.502 33.3057 368.101 31.9995 370.005 31.0718C371.91 30.1196 374.107 29.6436 376.597 29.6436C378.501 29.6436 380.235 29.9243 381.797 30.4858C383.36 31.0229 384.69 31.8896 385.789 33.0859C386.912 34.2578 387.767 35.7959 388.353 37.7002C388.963 39.6045 389.268 41.936 389.268 44.6948V70H378.685V44.6948C378.685 42.8638 378.44 41.4722 377.952 40.52C377.488 39.5435 376.805 38.8721 375.901 38.5059C375.022 38.1152 373.973 37.9199 372.752 37.9199C371.482 37.9199 370.372 38.1763 369.419 38.689C368.467 39.1772 367.674 39.8608 367.039 40.7397C366.404 41.6187 365.928 42.644 365.611 43.8159C365.293 44.9634 365.135 46.2207 365.135 47.5879ZM407.981 37.9932V85.2344H397.435V30.376H407.212L407.981 37.9932ZM433.067 49.7485V50.5176C433.067 53.3984 432.725 56.0718 432.042 58.5376C431.382 61.0034 430.406 63.1519 429.112 64.9829C427.818 66.7896 426.207 68.2056 424.278 69.231C422.374 70.2319 420.176 70.7324 417.686 70.7324C415.269 70.7324 413.169 70.2441 411.387 69.2676C409.605 68.291 408.104 66.9238 406.883 65.166C405.687 63.3838 404.722 61.3208 403.99 58.9771C403.257 56.6333 402.696 54.1187 402.305 51.4331V49.4189C402.696 46.5381 403.257 43.9014 403.99 41.5088C404.722 39.0918 405.687 37.0044 406.883 35.2466C408.104 33.4644 409.593 32.085 411.351 31.1084C413.133 30.1318 415.22 29.6436 417.613 29.6436C420.127 29.6436 422.337 30.1196 424.241 31.0718C426.17 32.0239 427.781 33.3911 429.075 35.1733C430.394 36.9556 431.382 39.0796 432.042 41.5454C432.725 44.0112 433.067 46.7456 433.067 49.7485ZM422.483 50.5176V49.7485C422.483 48.064 422.337 46.5137 422.044 45.0977C421.775 43.6572 421.336 42.3999 420.726 41.3257C420.14 40.2515 419.358 39.4214 418.382 38.8354C417.43 38.2251 416.27 37.9199 414.903 37.9199C413.462 37.9199 412.229 38.1519 411.204 38.6157C410.203 39.0796 409.385 39.751 408.75 40.6299C408.116 41.5088 407.64 42.5586 407.322 43.7793C407.005 45 406.81 46.3794 406.736 47.9175V53.0078C406.858 54.8145 407.2 56.438 407.762 57.8784C408.323 59.2944 409.19 60.4175 410.362 61.2476C411.534 62.0776 413.072 62.4927 414.976 62.4927C416.368 62.4927 417.54 62.1875 418.492 61.5771C419.444 60.9424 420.213 60.0757 420.799 58.9771C421.409 57.8784 421.836 56.6089 422.081 55.1685C422.349 53.728 422.483 52.1777 422.483 50.5176ZM450.755 30.376V70H440.171V30.376H450.755ZM439.512 20.0488C439.512 18.5107 440.049 17.2412 441.124 16.2402C442.198 15.2393 443.638 14.7388 445.445 14.7388C447.227 14.7388 448.655 15.2393 449.729 16.2402C450.828 17.2412 451.377 18.5107 451.377 20.0488C451.377 21.5869 450.828 22.8564 449.729 23.8574C448.655 24.8584 447.227 25.3589 445.445 25.3589C443.638 25.3589 442.198 24.8584 441.124 23.8574C440.049 22.8564 439.512 21.5869 439.512 20.0488ZM457.786 50.5908V49.8218C457.786 46.9165 458.201 44.2432 459.031 41.8018C459.861 39.3359 461.07 37.1997 462.657 35.3931C464.244 33.5864 466.197 32.1826 468.516 31.1816C470.835 30.1562 473.497 29.6436 476.5 29.6436C479.502 29.6436 482.176 30.1562 484.52 31.1816C486.863 32.1826 488.829 33.5864 490.416 35.3931C492.027 37.1997 493.248 39.3359 494.078 41.8018C494.908 44.2432 495.323 46.9165 495.323 49.8218V50.5908C495.323 53.4717 494.908 56.145 494.078 58.6108C493.248 61.0522 492.027 63.1885 490.416 65.0195C488.829 66.8262 486.875 68.23 484.556 69.231C482.237 70.2319 479.576 70.7324 476.573 70.7324C473.57 70.7324 470.896 70.2319 468.553 69.231C466.233 68.23 464.268 66.8262 462.657 65.0195C461.07 63.1885 459.861 61.0522 459.031 58.6108C458.201 56.145 457.786 53.4717 457.786 50.5908ZM468.333 49.8218V50.5908C468.333 52.251 468.479 53.8013 468.772 55.2417C469.065 56.6821 469.529 57.9517 470.164 59.0503C470.823 60.1245 471.678 60.9668 472.728 61.5771C473.777 62.1875 475.059 62.4927 476.573 62.4927C478.038 62.4927 479.295 62.1875 480.345 61.5771C481.395 60.9668 482.237 60.1245 482.872 59.0503C483.506 57.9517 483.97 56.6821 484.263 55.2417C484.581 53.8013 484.739 52.251 484.739 50.5908V49.8218C484.739 48.2104 484.581 46.6968 484.263 45.2808C483.97 43.8403 483.494 42.5708 482.835 41.4722C482.2 40.3491 481.358 39.4702 480.308 38.8354C479.258 38.2007 477.989 37.8833 476.5 37.8833C475.01 37.8833 473.741 38.2007 472.691 38.8354C471.666 39.4702 470.823 40.3491 470.164 41.4722C469.529 42.5708 469.065 43.8403 468.772 45.2808C468.479 46.6968 468.333 48.2104 468.333 49.8218ZM512.132 38.8354V70H501.585V30.376H511.473L512.132 38.8354ZM510.594 48.7964H507.737C507.737 45.8667 508.116 43.23 508.873 40.8862C509.629 38.5181 510.691 36.5039 512.059 34.8438C513.426 33.1592 515.049 31.8774 516.929 30.9985C518.833 30.0952 520.958 29.6436 523.301 29.6436C525.157 29.6436 526.854 29.9121 528.392 30.4492C529.93 30.9863 531.248 31.8408 532.347 33.0127C533.47 34.1846 534.324 35.7349 534.91 37.6636C535.521 39.5923 535.826 41.9482 535.826 44.7314V70H525.206V44.6948C525.206 42.937 524.961 41.5698 524.473 40.5933C523.985 39.6167 523.265 38.9331 522.312 38.5425C521.385 38.1274 520.237 37.9199 518.87 37.9199C517.454 37.9199 516.221 38.2007 515.171 38.7622C514.146 39.3237 513.292 40.105 512.608 41.106C511.949 42.0825 511.448 43.23 511.106 44.5483C510.765 45.8667 510.594 47.2827 510.594 48.7964ZM565.269 59.0503C565.269 58.2935 565.049 57.6099 564.61 56.9995C564.17 56.3892 563.353 55.8276 562.156 55.3149C560.984 54.7778 559.288 54.2896 557.066 53.8501C555.064 53.4106 553.196 52.8613 551.463 52.2021C549.754 51.5186 548.265 50.7007 546.995 49.7485C545.75 48.7964 544.773 47.6733 544.065 46.3794C543.357 45.061 543.003 43.5596 543.003 41.875C543.003 40.2148 543.357 38.6523 544.065 37.1875C544.798 35.7227 545.835 34.4287 547.178 33.3057C548.545 32.1582 550.206 31.2671 552.159 30.6323C554.136 29.9731 556.358 29.6436 558.824 29.6436C562.266 29.6436 565.22 30.1929 567.686 31.2915C570.176 32.3901 572.081 33.9038 573.399 35.8325C574.742 37.7368 575.413 39.9097 575.413 42.3511H564.866C564.866 41.3257 564.646 40.4102 564.207 39.6045C563.792 38.7744 563.133 38.1274 562.229 37.6636C561.351 37.1753 560.203 36.9312 558.787 36.9312C557.615 36.9312 556.602 37.1387 555.748 37.5537C554.893 37.9443 554.234 38.4814 553.77 39.165C553.331 39.8242 553.111 40.5566 553.111 41.3623C553.111 41.9727 553.233 42.522 553.477 43.0103C553.746 43.4741 554.173 43.9014 554.759 44.292C555.345 44.6826 556.102 45.0488 557.029 45.3906C557.981 45.708 559.153 46.001 560.545 46.2695C563.401 46.8555 565.953 47.6245 568.199 48.5767C570.445 49.5044 572.227 50.7739 573.545 52.3853C574.864 53.9722 575.523 56.0596 575.523 58.6475C575.523 60.4053 575.132 62.0166 574.351 63.4814C573.57 64.9463 572.447 66.228 570.982 67.3267C569.517 68.4009 567.759 69.2432 565.708 69.8535C563.682 70.4395 561.399 70.7324 558.86 70.7324C555.174 70.7324 552.049 70.0732 549.485 68.7549C546.946 67.4365 545.018 65.7642 543.699 63.7378C542.405 61.687 541.758 59.5874 541.758 57.439H551.756C551.805 58.8794 552.171 60.0391 552.854 60.918C553.562 61.7969 554.454 62.4316 555.528 62.8223C556.626 63.2129 557.811 63.4082 559.08 63.4082C560.447 63.4082 561.583 63.2251 562.486 62.8589C563.389 62.4683 564.073 61.9556 564.537 61.3208C565.025 60.6616 565.269 59.9048 565.269 59.0503ZM41.0381 149.431V158H14.1948V149.431H41.0381ZM17.7471 104.68V158H6.76074V104.68H17.7471ZM64.915 158.732C61.8389 158.732 59.0801 158.244 56.6387 157.268C54.1973 156.267 52.1221 154.887 50.4131 153.129C48.7285 151.372 47.4346 149.333 46.5312 147.014C45.6279 144.67 45.1763 142.18 45.1763 139.543V138.078C45.1763 135.075 45.6035 132.329 46.458 129.838C47.3125 127.348 48.5332 125.188 50.1201 123.356C51.7314 121.525 53.6846 120.122 55.9795 119.145C58.2744 118.144 60.8623 117.644 63.7432 117.644C66.5508 117.644 69.041 118.107 71.2139 119.035C73.3867 119.963 75.2056 121.281 76.6704 122.99C78.1597 124.699 79.2827 126.75 80.0396 129.143C80.7964 131.511 81.1748 134.147 81.1748 137.053V141.447H49.6807V134.416H70.811V133.61C70.811 132.146 70.5425 130.839 70.0054 129.692C69.4927 128.52 68.7114 127.592 67.6616 126.909C66.6118 126.225 65.269 125.883 63.6333 125.883C62.2417 125.883 61.0454 126.188 60.0444 126.799C59.0435 127.409 58.2256 128.264 57.5908 129.362C56.9805 130.461 56.5166 131.755 56.1992 133.244C55.9062 134.709 55.7598 136.32 55.7598 138.078V139.543C55.7598 141.13 55.9795 142.595 56.4189 143.938C56.8828 145.28 57.5298 146.44 58.3599 147.417C59.2144 148.393 60.2397 149.15 61.436 149.687C62.6567 150.224 64.0361 150.493 65.5742 150.493C67.4785 150.493 69.2485 150.126 70.8843 149.394C72.5444 148.637 73.9727 147.502 75.1689 145.988L80.2959 151.555C79.4658 152.751 78.3306 153.898 76.8901 154.997C75.4741 156.096 73.7651 156.999 71.7632 157.707C69.7612 158.391 67.4785 158.732 64.915 158.732ZM108.567 149.064V131.413C108.567 130.144 108.36 129.057 107.945 128.154C107.53 127.226 106.883 126.506 106.004 125.993C105.149 125.48 104.039 125.224 102.671 125.224C101.5 125.224 100.486 125.432 99.6318 125.847C98.7773 126.237 98.1182 126.811 97.6543 127.568C97.1904 128.3 96.9585 129.167 96.9585 130.168H86.4116C86.4116 128.483 86.8022 126.884 87.5835 125.371C88.3647 123.857 89.5 122.526 90.9893 121.379C92.4785 120.207 94.2485 119.292 96.2993 118.632C98.3745 117.973 100.694 117.644 103.257 117.644C106.333 117.644 109.068 118.156 111.46 119.182C113.853 120.207 115.733 121.745 117.1 123.796C118.492 125.847 119.188 128.41 119.188 131.486V148.442C119.188 150.615 119.322 152.397 119.59 153.789C119.859 155.156 120.25 156.352 120.762 157.377V158H110.105C109.593 156.926 109.202 155.583 108.934 153.972C108.689 152.336 108.567 150.7 108.567 149.064ZM109.959 133.867L110.032 139.836H104.136C102.745 139.836 101.536 139.995 100.511 140.312C99.4854 140.629 98.6431 141.081 97.9839 141.667C97.3247 142.229 96.8364 142.888 96.519 143.645C96.2261 144.401 96.0796 145.231 96.0796 146.135C96.0796 147.038 96.2871 147.856 96.7021 148.588C97.1172 149.296 97.7153 149.858 98.4966 150.273C99.2778 150.664 100.193 150.859 101.243 150.859C102.83 150.859 104.209 150.542 105.381 149.907C106.553 149.272 107.457 148.491 108.091 147.563C108.75 146.635 109.092 145.756 109.117 144.926L111.9 149.394C111.509 150.395 110.972 151.433 110.289 152.507C109.629 153.581 108.787 154.594 107.762 155.546C106.736 156.474 105.503 157.243 104.063 157.854C102.623 158.439 100.914 158.732 98.936 158.732C96.4214 158.732 94.1387 158.232 92.0879 157.231C90.0615 156.206 88.4502 154.802 87.2539 153.02C86.082 151.213 85.4961 149.162 85.4961 146.867C85.4961 144.792 85.8867 142.949 86.668 141.337C87.4492 139.726 88.5967 138.371 90.1104 137.272C91.6484 136.149 93.5649 135.307 95.8599 134.746C98.1548 134.16 100.816 133.867 103.843 133.867H109.959ZM152.403 118.376H161.961V156.682C161.961 160.295 161.155 163.359 159.544 165.874C157.957 168.413 155.735 170.329 152.879 171.623C150.022 172.941 146.702 173.601 142.918 173.601C141.258 173.601 139.5 173.381 137.645 172.941C135.813 172.502 134.056 171.818 132.371 170.891C130.711 169.963 129.319 168.791 128.196 167.375L132.847 161.149C134.068 162.565 135.484 163.664 137.095 164.445C138.707 165.251 140.489 165.654 142.442 165.654C144.346 165.654 145.958 165.3 147.276 164.592C148.594 163.908 149.607 162.895 150.315 161.552C151.023 160.234 151.377 158.635 151.377 156.755V127.531L152.403 118.376ZM125.743 138.664V137.895C125.743 134.868 126.109 132.121 126.841 129.655C127.598 127.165 128.66 125.029 130.027 123.247C131.419 121.464 133.104 120.085 135.081 119.108C137.059 118.132 139.292 117.644 141.783 117.644C144.419 117.644 146.629 118.132 148.411 119.108C150.193 120.085 151.658 121.477 152.806 123.283C153.953 125.065 154.844 127.177 155.479 129.619C156.138 132.036 156.651 134.685 157.017 137.565V139.25C156.651 142.009 156.102 144.572 155.369 146.94C154.637 149.309 153.672 151.384 152.476 153.166C151.28 154.924 149.791 156.291 148.008 157.268C146.25 158.244 144.151 158.732 141.709 158.732C139.268 158.732 137.059 158.232 135.081 157.231C133.128 156.23 131.456 154.826 130.064 153.02C128.672 151.213 127.598 149.089 126.841 146.647C126.109 144.206 125.743 141.545 125.743 138.664ZM136.29 137.895V138.664C136.29 140.3 136.448 141.826 136.766 143.242C137.083 144.658 137.571 145.915 138.23 147.014C138.914 148.088 139.756 148.93 140.757 149.541C141.783 150.126 142.991 150.419 144.383 150.419C146.312 150.419 147.886 150.017 149.107 149.211C150.328 148.381 151.243 147.246 151.854 145.805C152.464 144.365 152.818 142.705 152.916 140.825V136.027C152.867 134.489 152.659 133.11 152.293 131.889C151.927 130.644 151.414 129.582 150.755 128.703C150.096 127.824 149.241 127.141 148.191 126.652C147.142 126.164 145.896 125.92 144.456 125.92C143.064 125.92 141.856 126.237 140.831 126.872C139.83 127.482 138.987 128.325 138.304 129.399C137.645 130.473 137.144 131.743 136.802 133.208C136.46 134.648 136.29 136.21 136.29 137.895ZM193.602 148.515V118.376H204.148V158H194.224L193.602 148.515ZM194.773 140.385L197.886 140.312C197.886 142.949 197.581 145.402 196.971 147.673C196.36 149.919 195.445 151.872 194.224 153.532C193.003 155.168 191.465 156.45 189.61 157.377C187.754 158.281 185.569 158.732 183.055 158.732C181.126 158.732 179.344 158.464 177.708 157.927C176.097 157.365 174.705 156.499 173.533 155.327C172.386 154.13 171.482 152.604 170.823 150.749C170.188 148.869 169.871 146.611 169.871 143.974V118.376H180.418V144.047C180.418 145.219 180.552 146.208 180.821 147.014C181.114 147.819 181.517 148.479 182.029 148.991C182.542 149.504 183.14 149.87 183.824 150.09C184.532 150.31 185.313 150.419 186.167 150.419C188.34 150.419 190.049 149.98 191.294 149.101C192.564 148.222 193.455 147.026 193.968 145.512C194.505 143.974 194.773 142.265 194.773 140.385ZM230.442 158.732C227.366 158.732 224.607 158.244 222.166 157.268C219.725 156.267 217.649 154.887 215.94 153.129C214.256 151.372 212.962 149.333 212.059 147.014C211.155 144.67 210.704 142.18 210.704 139.543V138.078C210.704 135.075 211.131 132.329 211.985 129.838C212.84 127.348 214.061 125.188 215.647 123.356C217.259 121.525 219.212 120.122 221.507 119.145C223.802 118.144 226.39 117.644 229.271 117.644C232.078 117.644 234.568 118.107 236.741 119.035C238.914 119.963 240.733 121.281 242.198 122.99C243.687 124.699 244.81 126.75 245.567 129.143C246.324 131.511 246.702 134.147 246.702 137.053V141.447H215.208V134.416H236.338V133.61C236.338 132.146 236.07 130.839 235.533 129.692C235.02 128.52 234.239 127.592 233.189 126.909C232.139 126.225 230.796 125.883 229.161 125.883C227.769 125.883 226.573 126.188 225.572 126.799C224.571 127.409 223.753 128.264 223.118 129.362C222.508 130.461 222.044 131.755 221.727 133.244C221.434 134.709 221.287 136.32 221.287 138.078V139.543C221.287 141.13 221.507 142.595 221.946 143.938C222.41 145.28 223.057 146.44 223.887 147.417C224.742 148.393 225.767 149.15 226.963 149.687C228.184 150.224 229.563 150.493 231.102 150.493C233.006 150.493 234.776 150.126 236.412 149.394C238.072 148.637 239.5 147.502 240.696 145.988L245.823 151.555C244.993 152.751 243.858 153.898 242.417 154.997C241.001 156.096 239.292 156.999 237.291 157.707C235.289 158.391 233.006 158.732 230.442 158.732ZM307.42 149.76V158H270.945V150.969L288.194 132.475C289.927 130.546 291.294 128.85 292.295 127.385C293.296 125.896 294.017 124.565 294.456 123.393C294.92 122.197 295.152 121.062 295.152 119.987C295.152 118.376 294.883 116.997 294.346 115.849C293.809 114.677 293.016 113.774 291.966 113.139C290.94 112.504 289.671 112.187 288.157 112.187C286.546 112.187 285.154 112.578 283.982 113.359C282.835 114.14 281.956 115.227 281.346 116.618C280.76 118.01 280.467 119.584 280.467 121.342H269.883C269.883 118.168 270.64 115.263 272.154 112.626C273.667 109.965 275.804 107.854 278.562 106.291C281.321 104.704 284.593 103.911 288.377 103.911C292.112 103.911 295.262 104.521 297.825 105.742C300.413 106.938 302.366 108.671 303.685 110.942C305.027 113.188 305.699 115.874 305.699 118.999C305.699 120.756 305.418 122.478 304.856 124.162C304.295 125.822 303.489 127.482 302.439 129.143C301.414 130.778 300.169 132.438 298.704 134.123C297.239 135.808 295.616 137.553 293.833 139.36L284.568 149.76H307.42ZM349.9 126.652V135.881C349.9 139.885 349.473 143.339 348.619 146.245C347.764 149.125 346.531 151.494 344.92 153.349C343.333 155.18 341.441 156.535 339.244 157.414C337.046 158.293 334.605 158.732 331.919 158.732C329.771 158.732 327.769 158.464 325.914 157.927C324.058 157.365 322.386 156.499 320.896 155.327C319.432 154.155 318.162 152.678 317.088 150.896C316.038 149.089 315.232 146.94 314.671 144.45C314.109 141.96 313.829 139.104 313.829 135.881V126.652C313.829 122.648 314.256 119.218 315.11 116.362C315.989 113.481 317.222 111.125 318.809 109.294C320.42 107.463 322.325 106.12 324.522 105.266C326.719 104.387 329.161 103.947 331.846 103.947C333.995 103.947 335.984 104.228 337.815 104.79C339.671 105.327 341.343 106.169 342.833 107.316C344.322 108.464 345.591 109.941 346.641 111.748C347.691 113.53 348.497 115.666 349.058 118.156C349.62 120.622 349.9 123.454 349.9 126.652ZM339.317 137.272V125.224C339.317 123.295 339.207 121.611 338.987 120.17C338.792 118.73 338.487 117.509 338.072 116.508C337.657 115.483 337.144 114.653 336.534 114.018C335.923 113.383 335.228 112.919 334.446 112.626C333.665 112.333 332.798 112.187 331.846 112.187C330.65 112.187 329.588 112.419 328.66 112.883C327.757 113.347 326.988 114.091 326.353 115.117C325.718 116.118 325.23 117.46 324.888 119.145C324.571 120.805 324.412 122.832 324.412 125.224V137.272C324.412 139.201 324.51 140.898 324.705 142.363C324.925 143.828 325.242 145.085 325.657 146.135C326.097 147.16 326.609 148.002 327.195 148.662C327.806 149.296 328.501 149.76 329.283 150.053C330.088 150.346 330.967 150.493 331.919 150.493C333.091 150.493 334.129 150.261 335.032 149.797C335.96 149.309 336.741 148.552 337.376 147.526C338.035 146.477 338.523 145.109 338.841 143.425C339.158 141.74 339.317 139.689 339.317 137.272ZM393.553 149.76V158H357.078V150.969L374.327 132.475C376.06 130.546 377.427 128.85 378.428 127.385C379.429 125.896 380.149 124.565 380.589 123.393C381.053 122.197 381.285 121.062 381.285 119.987C381.285 118.376 381.016 116.997 380.479 115.849C379.942 114.677 379.148 113.774 378.099 113.139C377.073 112.504 375.804 112.187 374.29 112.187C372.679 112.187 371.287 112.578 370.115 113.359C368.968 114.14 368.089 115.227 367.479 116.618C366.893 118.01 366.6 119.584 366.6 121.342H356.016C356.016 118.168 356.773 115.263 358.287 112.626C359.8 109.965 361.937 107.854 364.695 106.291C367.454 104.704 370.726 103.911 374.51 103.911C378.245 103.911 381.395 104.521 383.958 105.742C386.546 106.938 388.499 108.671 389.817 110.942C391.16 113.188 391.832 115.874 391.832 118.999C391.832 120.756 391.551 122.478 390.989 124.162C390.428 125.822 389.622 127.482 388.572 129.143C387.547 130.778 386.302 132.438 384.837 134.123C383.372 135.808 381.749 137.553 379.966 139.36L370.701 149.76H393.553ZM437.498 138.078V146.354H399.083L398.57 139.946L420.799 104.68H429.185L420.103 119.877L409.043 138.078H437.498ZM431.456 104.68V158H420.909V104.68H431.456Z" fill="black"/>
<path d="M4.60742 213.781H7.08789L10.7402 224.221L14.3926 213.781H16.873L11.7363 228H9.74414L4.60742 213.781ZM3.26953 213.781H5.74023L6.18945 223.957V228H3.26953V213.781ZM15.7402 213.781H18.2207V228H15.291V223.957L15.7402 213.781ZM26.3164 225.617V220.91C26.3164 220.572 26.2611 220.282 26.1504 220.041C26.0397 219.794 25.8672 219.602 25.6328 219.465C25.4049 219.328 25.1087 219.26 24.7441 219.26C24.4316 219.26 24.1615 219.315 23.9336 219.426C23.7057 219.53 23.5299 219.683 23.4062 219.885C23.2826 220.08 23.2207 220.311 23.2207 220.578H20.4082C20.4082 220.129 20.5124 219.702 20.7207 219.299C20.929 218.895 21.2318 218.54 21.6289 218.234C22.026 217.922 22.498 217.678 23.0449 217.502C23.5983 217.326 24.2168 217.238 24.9004 217.238C25.7207 217.238 26.4499 217.375 27.0879 217.648C27.7259 217.922 28.2272 218.332 28.5918 218.879C28.9629 219.426 29.1484 220.109 29.1484 220.93V225.451C29.1484 226.031 29.1842 226.506 29.2559 226.877C29.3275 227.242 29.4316 227.561 29.5684 227.834V228H26.7266C26.5898 227.714 26.4857 227.355 26.4141 226.926C26.349 226.49 26.3164 226.053 26.3164 225.617ZM26.6875 221.564L26.707 223.156H25.1348C24.7637 223.156 24.4414 223.199 24.168 223.283C23.8945 223.368 23.6699 223.488 23.4941 223.645C23.3184 223.794 23.1882 223.97 23.1035 224.172C23.0254 224.374 22.9863 224.595 22.9863 224.836C22.9863 225.077 23.0417 225.295 23.1523 225.49C23.263 225.679 23.4225 225.829 23.6309 225.939C23.8392 226.044 24.0833 226.096 24.3633 226.096C24.7865 226.096 25.1543 226.011 25.4668 225.842C25.7793 225.673 26.0202 225.464 26.1895 225.217C26.3652 224.969 26.4564 224.735 26.4629 224.514L27.2051 225.705C27.1009 225.972 26.9577 226.249 26.7754 226.535C26.5996 226.822 26.375 227.092 26.1016 227.346C25.8281 227.593 25.4993 227.798 25.1152 227.961C24.7311 228.117 24.2754 228.195 23.748 228.195C23.0775 228.195 22.4688 228.062 21.9219 227.795C21.3815 227.521 20.9518 227.147 20.6328 226.672C20.3203 226.19 20.1641 225.643 20.1641 225.031C20.1641 224.478 20.2682 223.986 20.4766 223.557C20.6849 223.127 20.9909 222.766 21.3945 222.473C21.8047 222.173 22.3158 221.949 22.9277 221.799C23.5397 221.643 24.2493 221.564 25.0566 221.564H26.6875ZM34.0703 219.689V228H31.2578V217.434H33.8945L34.0703 219.689ZM33.6602 222.346H32.8984C32.8984 221.564 32.9993 220.861 33.2012 220.236C33.403 219.605 33.6862 219.068 34.0508 218.625C34.4154 218.176 34.8483 217.834 35.3496 217.6C35.8574 217.359 36.4238 217.238 37.0488 217.238C37.5436 217.238 37.9961 217.31 38.4062 217.453C38.8164 217.596 39.168 217.824 39.4609 218.137C39.7604 218.449 39.9883 218.863 40.1445 219.377C40.3073 219.891 40.3887 220.52 40.3887 221.262V228H37.5566V221.252C37.5566 220.783 37.4915 220.419 37.3613 220.158C37.2311 219.898 37.0391 219.715 36.7852 219.611C36.5378 219.501 36.2318 219.445 35.8672 219.445C35.4896 219.445 35.1608 219.52 34.8809 219.67C34.6074 219.82 34.3796 220.028 34.1973 220.295C34.0215 220.555 33.888 220.861 33.7969 221.213C33.7057 221.564 33.6602 221.942 33.6602 222.346ZM46.8926 225.998C47.2376 225.998 47.5436 225.933 47.8105 225.803C48.0775 225.666 48.2858 225.477 48.4355 225.236C48.5918 224.989 48.6732 224.699 48.6797 224.367H51.3262C51.3197 225.109 51.1211 225.77 50.7305 226.35C50.3398 226.923 49.8158 227.375 49.1582 227.707C48.5007 228.033 47.765 228.195 46.9512 228.195C46.1309 228.195 45.4147 228.059 44.8027 227.785C44.1973 227.512 43.6927 227.134 43.2891 226.652C42.8854 226.164 42.5827 225.598 42.3809 224.953C42.179 224.302 42.0781 223.605 42.0781 222.863V222.58C42.0781 221.831 42.179 221.135 42.3809 220.49C42.5827 219.839 42.8854 219.273 43.2891 218.791C43.6927 218.303 44.1973 217.922 44.8027 217.648C45.4082 217.375 46.1178 217.238 46.9316 217.238C47.7975 217.238 48.556 217.404 49.207 217.736C49.8646 218.068 50.3789 218.544 50.75 219.162C51.1276 219.774 51.3197 220.5 51.3262 221.34H48.6797C48.6732 220.988 48.5983 220.669 48.4551 220.383C48.3184 220.096 48.1165 219.868 47.8496 219.699C47.5892 219.523 47.2669 219.436 46.8828 219.436C46.4727 219.436 46.1374 219.523 45.877 219.699C45.6165 219.868 45.4147 220.103 45.2715 220.402C45.1283 220.695 45.0273 221.031 44.9688 221.408C44.9167 221.779 44.8906 222.17 44.8906 222.58V222.863C44.8906 223.273 44.9167 223.667 44.9688 224.045C45.0208 224.423 45.1185 224.758 45.2617 225.051C45.4115 225.344 45.6165 225.575 45.877 225.744C46.1374 225.913 46.4759 225.998 46.8926 225.998ZM55.7012 213V228H52.8887V213H55.7012ZM55.3008 222.346H54.5293C54.5358 221.61 54.6335 220.933 54.8223 220.314C55.0111 219.689 55.2812 219.149 55.6328 218.693C55.9844 218.231 56.4043 217.873 56.8926 217.619C57.3874 217.365 57.9342 217.238 58.5332 217.238C59.054 217.238 59.526 217.313 59.9492 217.463C60.3789 217.606 60.7467 217.84 61.0527 218.166C61.3652 218.485 61.6061 218.905 61.7754 219.426C61.9447 219.947 62.0293 220.578 62.0293 221.32V228H59.1973V221.301C59.1973 220.832 59.1289 220.464 58.9922 220.197C58.862 219.924 58.6699 219.732 58.416 219.621C58.1686 219.504 57.8626 219.445 57.498 219.445C57.0944 219.445 56.7493 219.52 56.4629 219.67C56.1829 219.82 55.9583 220.028 55.7891 220.295C55.6198 220.555 55.4961 220.861 55.418 221.213C55.3398 221.564 55.3008 221.942 55.3008 222.346ZM69.0312 228.195C68.2109 228.195 67.4753 228.065 66.8242 227.805C66.1732 227.538 65.6198 227.17 65.1641 226.701C64.7148 226.232 64.3698 225.689 64.1289 225.07C63.888 224.445 63.7676 223.781 63.7676 223.078V222.688C63.7676 221.887 63.8815 221.154 64.1094 220.49C64.3372 219.826 64.6628 219.25 65.0859 218.762C65.5156 218.273 66.0365 217.899 66.6484 217.639C67.2604 217.372 67.9505 217.238 68.7188 217.238C69.4674 217.238 70.1315 217.362 70.7109 217.609C71.2904 217.857 71.7754 218.208 72.166 218.664C72.5632 219.12 72.8626 219.667 73.0645 220.305C73.2663 220.936 73.3672 221.639 73.3672 222.414V223.586H64.9688V221.711H70.6035V221.496C70.6035 221.105 70.5319 220.757 70.3887 220.451C70.252 220.139 70.0436 219.891 69.7637 219.709C69.4837 219.527 69.1257 219.436 68.6895 219.436C68.3184 219.436 67.9993 219.517 67.7324 219.68C67.4655 219.842 67.2474 220.07 67.0781 220.363C66.9154 220.656 66.7917 221.001 66.707 221.398C66.6289 221.789 66.5898 222.219 66.5898 222.688V223.078C66.5898 223.501 66.6484 223.892 66.7656 224.25C66.8893 224.608 67.0618 224.917 67.2832 225.178C67.5111 225.438 67.7845 225.64 68.1035 225.783C68.429 225.926 68.7969 225.998 69.207 225.998C69.7148 225.998 70.1868 225.9 70.623 225.705C71.0658 225.503 71.4466 225.201 71.7656 224.797L73.1328 226.281C72.9115 226.6 72.6087 226.906 72.2246 227.199C71.847 227.492 71.3913 227.733 70.8574 227.922C70.3236 228.104 69.7148 228.195 69.0312 228.195ZM80.6816 225.08C80.6816 224.878 80.623 224.696 80.5059 224.533C80.3887 224.37 80.1706 224.221 79.8516 224.084C79.5391 223.941 79.0866 223.811 78.4941 223.693C77.9603 223.576 77.4622 223.43 77 223.254C76.5443 223.072 76.1471 222.854 75.8086 222.6C75.4766 222.346 75.2161 222.046 75.0273 221.701C74.8385 221.35 74.7441 220.949 74.7441 220.5C74.7441 220.057 74.8385 219.641 75.0273 219.25C75.2227 218.859 75.4993 218.514 75.8574 218.215C76.222 217.909 76.6647 217.671 77.1855 217.502C77.7129 217.326 78.3053 217.238 78.9629 217.238C79.8809 217.238 80.6686 217.385 81.3262 217.678C81.9902 217.971 82.498 218.374 82.8496 218.889C83.2077 219.396 83.3867 219.976 83.3867 220.627H80.5742C80.5742 220.354 80.5156 220.109 80.3984 219.895C80.2878 219.673 80.112 219.501 79.8711 219.377C79.6367 219.247 79.3307 219.182 78.9531 219.182C78.6406 219.182 78.3704 219.237 78.1426 219.348C77.9147 219.452 77.7389 219.595 77.6152 219.777C77.498 219.953 77.4395 220.148 77.4395 220.363C77.4395 220.526 77.472 220.673 77.5371 220.803C77.6087 220.926 77.7227 221.04 77.8789 221.145C78.0352 221.249 78.237 221.346 78.4844 221.438C78.7383 221.522 79.0508 221.6 79.4219 221.672C80.1836 221.828 80.8639 222.033 81.4629 222.287C82.0618 222.535 82.5371 222.873 82.8887 223.303C83.2402 223.726 83.416 224.283 83.416 224.973C83.416 225.441 83.3118 225.871 83.1035 226.262C82.8952 226.652 82.5957 226.994 82.2051 227.287C81.8145 227.574 81.3457 227.798 80.7988 227.961C80.2585 228.117 79.6497 228.195 78.9727 228.195C77.9896 228.195 77.1562 228.02 76.4727 227.668C75.7956 227.316 75.2812 226.87 74.9297 226.33C74.5846 225.783 74.4121 225.223 74.4121 224.65H77.0781C77.0911 225.035 77.1888 225.344 77.3711 225.578C77.5599 225.812 77.7975 225.982 78.084 226.086C78.377 226.19 78.6927 226.242 79.0312 226.242C79.3958 226.242 79.6986 226.193 79.9395 226.096C80.1803 225.992 80.3626 225.855 80.4863 225.686C80.6165 225.51 80.6816 225.308 80.6816 225.08ZM90.418 217.434V219.426H84.2656V217.434H90.418ZM85.7891 214.826H88.6016V224.816C88.6016 225.122 88.6406 225.357 88.7188 225.52C88.8034 225.682 88.9271 225.796 89.0898 225.861C89.2526 225.92 89.4577 225.949 89.7051 225.949C89.8809 225.949 90.0371 225.943 90.1738 225.93C90.3171 225.91 90.4375 225.891 90.5352 225.871L90.5449 227.941C90.304 228.02 90.0436 228.081 89.7637 228.127C89.4837 228.173 89.1745 228.195 88.8359 228.195C88.2174 228.195 87.6771 228.094 87.2148 227.893C86.7591 227.684 86.4076 227.352 86.1602 226.896C85.9128 226.441 85.7891 225.842 85.7891 225.1V214.826ZM96.8828 228.195C96.0625 228.195 95.3268 228.065 94.6758 227.805C94.0247 227.538 93.4714 227.17 93.0156 226.701C92.5664 226.232 92.2214 225.689 91.9805 225.07C91.7396 224.445 91.6191 223.781 91.6191 223.078V222.688C91.6191 221.887 91.7331 221.154 91.9609 220.49C92.1888 219.826 92.5143 219.25 92.9375 218.762C93.3672 218.273 93.888 217.899 94.5 217.639C95.112 217.372 95.8021 217.238 96.5703 217.238C97.319 217.238 97.9831 217.362 98.5625 217.609C99.1419 217.857 99.627 218.208 100.018 218.664C100.415 219.12 100.714 219.667 100.916 220.305C101.118 220.936 101.219 221.639 101.219 222.414V223.586H92.8203V221.711H98.4551V221.496C98.4551 221.105 98.3835 220.757 98.2402 220.451C98.1035 220.139 97.8952 219.891 97.6152 219.709C97.3353 219.527 96.9772 219.436 96.541 219.436C96.1699 219.436 95.8509 219.517 95.584 219.68C95.3171 219.842 95.099 220.07 94.9297 220.363C94.7669 220.656 94.6432 221.001 94.5586 221.398C94.4805 221.789 94.4414 222.219 94.4414 222.688V223.078C94.4414 223.501 94.5 223.892 94.6172 224.25C94.7409 224.608 94.9134 224.917 95.1348 225.178C95.3626 225.438 95.6361 225.64 95.9551 225.783C96.2806 225.926 96.6484 225.998 97.0586 225.998C97.5664 225.998 98.0384 225.9 98.4746 225.705C98.9173 225.503 99.2982 225.201 99.6172 224.797L100.984 226.281C100.763 226.6 100.46 226.906 100.076 227.199C99.6986 227.492 99.2428 227.733 98.709 227.922C98.1751 228.104 97.5664 228.195 96.8828 228.195ZM105.633 219.738V228H102.82V217.434H105.467L105.633 219.738ZM108.816 217.365L108.768 219.973C108.631 219.953 108.465 219.937 108.27 219.924C108.081 219.904 107.908 219.895 107.752 219.895C107.355 219.895 107.01 219.947 106.717 220.051C106.43 220.148 106.189 220.295 105.994 220.49C105.805 220.686 105.662 220.923 105.564 221.203C105.473 221.483 105.421 221.802 105.408 222.16L104.842 221.984C104.842 221.301 104.91 220.673 105.047 220.1C105.184 219.52 105.382 219.016 105.643 218.586C105.91 218.156 106.235 217.824 106.619 217.59C107.003 217.355 107.443 217.238 107.938 217.238C108.094 217.238 108.253 217.251 108.416 217.277C108.579 217.297 108.712 217.326 108.816 217.365ZM123.152 213.781H126.072V223.176C126.072 224.27 125.838 225.191 125.369 225.939C124.907 226.688 124.266 227.251 123.445 227.629C122.632 228.007 121.694 228.195 120.633 228.195C119.572 228.195 118.628 228.007 117.801 227.629C116.98 227.251 116.336 226.688 115.867 225.939C115.405 225.191 115.174 224.27 115.174 223.176V213.781H118.104V223.176C118.104 223.814 118.204 224.335 118.406 224.738C118.608 225.142 118.898 225.438 119.275 225.627C119.66 225.816 120.112 225.91 120.633 225.91C121.167 225.91 121.619 225.816 121.99 225.627C122.368 225.438 122.654 225.142 122.85 224.738C123.051 224.335 123.152 223.814 123.152 223.176V213.781ZM131.062 219.689V228H128.25V217.434H130.887L131.062 219.689ZM130.652 222.346H129.891C129.891 221.564 129.992 220.861 130.193 220.236C130.395 219.605 130.678 219.068 131.043 218.625C131.408 218.176 131.84 217.834 132.342 217.6C132.85 217.359 133.416 217.238 134.041 217.238C134.536 217.238 134.988 217.31 135.398 217.453C135.809 217.596 136.16 217.824 136.453 218.137C136.753 218.449 136.98 218.863 137.137 219.377C137.299 219.891 137.381 220.52 137.381 221.262V228H134.549V221.252C134.549 220.783 134.484 220.419 134.354 220.158C134.223 219.898 134.031 219.715 133.777 219.611C133.53 219.501 133.224 219.445 132.859 219.445C132.482 219.445 132.153 219.52 131.873 219.67C131.6 219.82 131.372 220.028 131.189 220.295C131.014 220.555 130.88 220.861 130.789 221.213C130.698 221.564 130.652 221.942 130.652 222.346ZM142.488 217.434V228H139.666V217.434H142.488ZM139.49 214.68C139.49 214.27 139.633 213.931 139.92 213.664C140.206 213.397 140.59 213.264 141.072 213.264C141.548 213.264 141.928 213.397 142.215 213.664C142.508 213.931 142.654 214.27 142.654 214.68C142.654 215.09 142.508 215.428 142.215 215.695C141.928 215.962 141.548 216.096 141.072 216.096C140.59 216.096 140.206 215.962 139.92 215.695C139.633 215.428 139.49 215.09 139.49 214.68ZM149.988 217.434V219.426H143.836V217.434H149.988ZM145.359 214.826H148.172V224.816C148.172 225.122 148.211 225.357 148.289 225.52C148.374 225.682 148.497 225.796 148.66 225.861C148.823 225.92 149.028 225.949 149.275 225.949C149.451 225.949 149.607 225.943 149.744 225.93C149.887 225.91 150.008 225.891 150.105 225.871L150.115 227.941C149.874 228.02 149.614 228.081 149.334 228.127C149.054 228.173 148.745 228.195 148.406 228.195C147.788 228.195 147.247 228.094 146.785 227.893C146.329 227.684 145.978 227.352 145.73 226.896C145.483 226.441 145.359 225.842 145.359 225.1V214.826ZM156.453 228.195C155.633 228.195 154.897 228.065 154.246 227.805C153.595 227.538 153.042 227.17 152.586 226.701C152.137 226.232 151.792 225.689 151.551 225.07C151.31 224.445 151.189 223.781 151.189 223.078V222.688C151.189 221.887 151.303 221.154 151.531 220.49C151.759 219.826 152.085 219.25 152.508 218.762C152.938 218.273 153.458 217.899 154.07 217.639C154.682 217.372 155.372 217.238 156.141 217.238C156.889 217.238 157.553 217.362 158.133 217.609C158.712 217.857 159.197 218.208 159.588 218.664C159.985 219.12 160.285 219.667 160.486 220.305C160.688 220.936 160.789 221.639 160.789 222.414V223.586H152.391V221.711H158.025V221.496C158.025 221.105 157.954 220.757 157.811 220.451C157.674 220.139 157.465 219.891 157.186 219.709C156.906 219.527 156.548 219.436 156.111 219.436C155.74 219.436 155.421 219.517 155.154 219.68C154.887 219.842 154.669 220.07 154.5 220.363C154.337 220.656 154.214 221.001 154.129 221.398C154.051 221.789 154.012 222.219 154.012 222.688V223.078C154.012 223.501 154.07 223.892 154.188 224.25C154.311 224.608 154.484 224.917 154.705 225.178C154.933 225.438 155.206 225.64 155.525 225.783C155.851 225.926 156.219 225.998 156.629 225.998C157.137 225.998 157.609 225.9 158.045 225.705C158.488 225.503 158.868 225.201 159.188 224.797L160.555 226.281C160.333 226.6 160.031 226.906 159.646 227.199C159.269 227.492 158.813 227.733 158.279 227.922C157.745 228.104 157.137 228.195 156.453 228.195ZM168.631 225.695V213H171.463V228H168.914L168.631 225.695ZM161.951 222.844V222.639C161.951 221.831 162.042 221.099 162.225 220.441C162.407 219.777 162.674 219.208 163.025 218.732C163.377 218.257 163.81 217.889 164.324 217.629C164.839 217.368 165.424 217.238 166.082 217.238C166.701 217.238 167.241 217.368 167.703 217.629C168.172 217.889 168.569 218.26 168.895 218.742C169.227 219.217 169.493 219.781 169.695 220.432C169.897 221.076 170.044 221.783 170.135 222.551V223C170.044 223.736 169.897 224.419 169.695 225.051C169.493 225.682 169.227 226.236 168.895 226.711C168.569 227.18 168.172 227.544 167.703 227.805C167.234 228.065 166.688 228.195 166.062 228.195C165.405 228.195 164.819 228.062 164.305 227.795C163.797 227.528 163.367 227.154 163.016 226.672C162.671 226.19 162.407 225.624 162.225 224.973C162.042 224.322 161.951 223.612 161.951 222.844ZM164.764 222.639V222.844C164.764 223.28 164.796 223.687 164.861 224.064C164.933 224.442 165.047 224.777 165.203 225.07C165.366 225.357 165.574 225.581 165.828 225.744C166.089 225.9 166.404 225.979 166.775 225.979C167.257 225.979 167.654 225.871 167.967 225.656C168.279 225.435 168.517 225.132 168.68 224.748C168.849 224.364 168.947 223.921 168.973 223.42V222.141C168.953 221.73 168.895 221.363 168.797 221.037C168.706 220.705 168.569 220.422 168.387 220.188C168.211 219.953 167.99 219.771 167.723 219.641C167.462 219.51 167.153 219.445 166.795 219.445C166.43 219.445 166.118 219.53 165.857 219.699C165.597 219.862 165.385 220.087 165.223 220.373C165.066 220.66 164.949 220.998 164.871 221.389C164.799 221.773 164.764 222.189 164.764 222.639ZM182.234 225.949L184.578 217.434H187.518L183.953 228H182.176L182.234 225.949ZM180.623 217.434L182.977 225.959L183.025 228H181.238L177.674 217.434H180.623ZM194.49 225.08C194.49 224.878 194.432 224.696 194.314 224.533C194.197 224.37 193.979 224.221 193.66 224.084C193.348 223.941 192.895 223.811 192.303 223.693C191.769 223.576 191.271 223.43 190.809 223.254C190.353 223.072 189.956 222.854 189.617 222.6C189.285 222.346 189.025 222.046 188.836 221.701C188.647 221.35 188.553 220.949 188.553 220.5C188.553 220.057 188.647 219.641 188.836 219.25C189.031 218.859 189.308 218.514 189.666 218.215C190.031 217.909 190.473 217.671 190.994 217.502C191.521 217.326 192.114 217.238 192.771 217.238C193.689 217.238 194.477 217.385 195.135 217.678C195.799 217.971 196.307 218.374 196.658 218.889C197.016 219.396 197.195 219.976 197.195 220.627H194.383C194.383 220.354 194.324 220.109 194.207 219.895C194.096 219.673 193.921 219.501 193.68 219.377C193.445 219.247 193.139 219.182 192.762 219.182C192.449 219.182 192.179 219.237 191.951 219.348C191.723 219.452 191.548 219.595 191.424 219.777C191.307 219.953 191.248 220.148 191.248 220.363C191.248 220.526 191.281 220.673 191.346 220.803C191.417 220.926 191.531 221.04 191.688 221.145C191.844 221.249 192.046 221.346 192.293 221.438C192.547 221.522 192.859 221.6 193.23 221.672C193.992 221.828 194.673 222.033 195.271 222.287C195.87 222.535 196.346 222.873 196.697 223.303C197.049 223.726 197.225 224.283 197.225 224.973C197.225 225.441 197.12 225.871 196.912 226.262C196.704 226.652 196.404 226.994 196.014 227.287C195.623 227.574 195.154 227.798 194.607 227.961C194.067 228.117 193.458 228.195 192.781 228.195C191.798 228.195 190.965 228.02 190.281 227.668C189.604 227.316 189.09 226.87 188.738 226.33C188.393 225.783 188.221 225.223 188.221 224.65H190.887C190.9 225.035 190.997 225.344 191.18 225.578C191.368 225.812 191.606 225.982 191.893 226.086C192.186 226.19 192.501 226.242 192.84 226.242C193.204 226.242 193.507 226.193 193.748 226.096C193.989 225.992 194.171 225.855 194.295 225.686C194.425 225.51 194.49 225.308 194.49 225.08ZM204.207 213.781H209.51C210.597 213.781 211.531 213.944 212.312 214.27C213.1 214.595 213.706 215.077 214.129 215.715C214.552 216.353 214.764 217.137 214.764 218.068C214.764 218.83 214.633 219.484 214.373 220.031C214.119 220.572 213.758 221.024 213.289 221.389C212.827 221.747 212.283 222.033 211.658 222.248L210.73 222.736H206.121L206.102 220.451H209.529C210.044 220.451 210.47 220.36 210.809 220.178C211.147 219.995 211.401 219.742 211.57 219.416C211.746 219.09 211.834 218.713 211.834 218.283C211.834 217.827 211.749 217.434 211.58 217.102C211.411 216.77 211.154 216.516 210.809 216.34C210.464 216.164 210.031 216.076 209.51 216.076H207.137V228H204.207V213.781ZM212.156 228L208.914 221.662L212.01 221.643L215.291 227.863V228H212.156ZM221.707 228.195C220.887 228.195 220.151 228.065 219.5 227.805C218.849 227.538 218.296 227.17 217.84 226.701C217.391 226.232 217.046 225.689 216.805 225.07C216.564 224.445 216.443 223.781 216.443 223.078V222.688C216.443 221.887 216.557 221.154 216.785 220.49C217.013 219.826 217.339 219.25 217.762 218.762C218.191 218.273 218.712 217.899 219.324 217.639C219.936 217.372 220.626 217.238 221.395 217.238C222.143 217.238 222.807 217.362 223.387 217.609C223.966 217.857 224.451 218.208 224.842 218.664C225.239 219.12 225.538 219.667 225.74 220.305C225.942 220.936 226.043 221.639 226.043 222.414V223.586H217.645V221.711H223.279V221.496C223.279 221.105 223.208 220.757 223.064 220.451C222.928 220.139 222.719 219.891 222.439 219.709C222.16 219.527 221.801 219.436 221.365 219.436C220.994 219.436 220.675 219.517 220.408 219.68C220.141 219.842 219.923 220.07 219.754 220.363C219.591 220.656 219.467 221.001 219.383 221.398C219.305 221.789 219.266 222.219 219.266 222.688V223.078C219.266 223.501 219.324 223.892 219.441 224.25C219.565 224.608 219.738 224.917 219.959 225.178C220.187 225.438 220.46 225.64 220.779 225.783C221.105 225.926 221.473 225.998 221.883 225.998C222.391 225.998 222.863 225.9 223.299 225.705C223.742 225.503 224.122 225.201 224.441 224.797L225.809 226.281C225.587 226.6 225.285 226.906 224.9 227.199C224.523 227.492 224.067 227.733 223.533 227.922C222.999 228.104 222.391 228.195 221.707 228.195ZM233.348 225.617V220.91C233.348 220.572 233.292 220.282 233.182 220.041C233.071 219.794 232.898 219.602 232.664 219.465C232.436 219.328 232.14 219.26 231.775 219.26C231.463 219.26 231.193 219.315 230.965 219.426C230.737 219.53 230.561 219.683 230.438 219.885C230.314 220.08 230.252 220.311 230.252 220.578H227.439C227.439 220.129 227.544 219.702 227.752 219.299C227.96 218.895 228.263 218.54 228.66 218.234C229.057 217.922 229.529 217.678 230.076 217.502C230.63 217.326 231.248 217.238 231.932 217.238C232.752 217.238 233.481 217.375 234.119 217.648C234.757 217.922 235.258 218.332 235.623 218.879C235.994 219.426 236.18 220.109 236.18 220.93V225.451C236.18 226.031 236.215 226.506 236.287 226.877C236.359 227.242 236.463 227.561 236.6 227.834V228H233.758C233.621 227.714 233.517 227.355 233.445 226.926C233.38 226.49 233.348 226.053 233.348 225.617ZM233.719 221.564L233.738 223.156H232.166C231.795 223.156 231.473 223.199 231.199 223.283C230.926 223.368 230.701 223.488 230.525 223.645C230.35 223.794 230.219 223.97 230.135 224.172C230.057 224.374 230.018 224.595 230.018 224.836C230.018 225.077 230.073 225.295 230.184 225.49C230.294 225.679 230.454 225.829 230.662 225.939C230.87 226.044 231.115 226.096 231.395 226.096C231.818 226.096 232.186 226.011 232.498 225.842C232.811 225.673 233.051 225.464 233.221 225.217C233.396 224.969 233.488 224.735 233.494 224.514L234.236 225.705C234.132 225.972 233.989 226.249 233.807 226.535C233.631 226.822 233.406 227.092 233.133 227.346C232.859 227.593 232.531 227.798 232.146 227.961C231.762 228.117 231.307 228.195 230.779 228.195C230.109 228.195 229.5 228.062 228.953 227.795C228.413 227.521 227.983 227.147 227.664 226.672C227.352 226.19 227.195 225.643 227.195 225.031C227.195 224.478 227.299 223.986 227.508 223.557C227.716 223.127 228.022 222.766 228.426 222.473C228.836 222.173 229.347 221.949 229.959 221.799C230.571 221.643 231.281 221.564 232.088 221.564H233.719ZM241.316 213V228H238.494V213H241.316ZM250.135 213.781H252.615L256.268 224.221L259.92 213.781H262.4L257.264 228H255.271L250.135 213.781ZM248.797 213.781H251.268L251.717 223.957V228H248.797V213.781ZM261.268 213.781H263.748V228H260.818V223.957L261.268 213.781ZM271.844 225.617V220.91C271.844 220.572 271.788 220.282 271.678 220.041C271.567 219.794 271.395 219.602 271.16 219.465C270.932 219.328 270.636 219.26 270.271 219.26C269.959 219.26 269.689 219.315 269.461 219.426C269.233 219.53 269.057 219.683 268.934 219.885C268.81 220.08 268.748 220.311 268.748 220.578H265.936C265.936 220.129 266.04 219.702 266.248 219.299C266.456 218.895 266.759 218.54 267.156 218.234C267.553 217.922 268.025 217.678 268.572 217.502C269.126 217.326 269.744 217.238 270.428 217.238C271.248 217.238 271.977 217.375 272.615 217.648C273.253 217.922 273.755 218.332 274.119 218.879C274.49 219.426 274.676 220.109 274.676 220.93V225.451C274.676 226.031 274.712 226.506 274.783 226.877C274.855 227.242 274.959 227.561 275.096 227.834V228H272.254C272.117 227.714 272.013 227.355 271.941 226.926C271.876 226.49 271.844 226.053 271.844 225.617ZM272.215 221.564L272.234 223.156H270.662C270.291 223.156 269.969 223.199 269.695 223.283C269.422 223.368 269.197 223.488 269.021 223.645C268.846 223.794 268.715 223.97 268.631 224.172C268.553 224.374 268.514 224.595 268.514 224.836C268.514 225.077 268.569 225.295 268.68 225.49C268.79 225.679 268.95 225.829 269.158 225.939C269.367 226.044 269.611 226.096 269.891 226.096C270.314 226.096 270.682 226.011 270.994 225.842C271.307 225.673 271.548 225.464 271.717 225.217C271.893 224.969 271.984 224.735 271.99 224.514L272.732 225.705C272.628 225.972 272.485 226.249 272.303 226.535C272.127 226.822 271.902 227.092 271.629 227.346C271.355 227.593 271.027 227.798 270.643 227.961C270.258 228.117 269.803 228.195 269.275 228.195C268.605 228.195 267.996 228.062 267.449 227.795C266.909 227.521 266.479 227.147 266.16 226.672C265.848 226.19 265.691 225.643 265.691 225.031C265.691 224.478 265.796 223.986 266.004 223.557C266.212 223.127 266.518 222.766 266.922 222.473C267.332 222.173 267.843 221.949 268.455 221.799C269.067 221.643 269.777 221.564 270.584 221.564H272.215ZM283.084 225.695V213H285.916V228H283.367L283.084 225.695ZM276.404 222.844V222.639C276.404 221.831 276.495 221.099 276.678 220.441C276.86 219.777 277.127 219.208 277.479 218.732C277.83 218.257 278.263 217.889 278.777 217.629C279.292 217.368 279.878 217.238 280.535 217.238C281.154 217.238 281.694 217.368 282.156 217.629C282.625 217.889 283.022 218.26 283.348 218.742C283.68 219.217 283.947 219.781 284.148 220.432C284.35 221.076 284.497 221.783 284.588 222.551V223C284.497 223.736 284.35 224.419 284.148 225.051C283.947 225.682 283.68 226.236 283.348 226.711C283.022 227.18 282.625 227.544 282.156 227.805C281.688 228.065 281.141 228.195 280.516 228.195C279.858 228.195 279.272 228.062 278.758 227.795C278.25 227.528 277.82 227.154 277.469 226.672C277.124 226.19 276.86 225.624 276.678 224.973C276.495 224.322 276.404 223.612 276.404 222.844ZM279.217 222.639V222.844C279.217 223.28 279.249 223.687 279.314 224.064C279.386 224.442 279.5 224.777 279.656 225.07C279.819 225.357 280.027 225.581 280.281 225.744C280.542 225.9 280.857 225.979 281.229 225.979C281.71 225.979 282.107 225.871 282.42 225.656C282.732 225.435 282.97 225.132 283.133 224.748C283.302 224.364 283.4 223.921 283.426 223.42V222.141C283.406 221.73 283.348 221.363 283.25 221.037C283.159 220.705 283.022 220.422 282.84 220.188C282.664 219.953 282.443 219.771 282.176 219.641C281.915 219.51 281.606 219.445 281.248 219.445C280.883 219.445 280.571 219.53 280.311 219.699C280.05 219.862 279.839 220.087 279.676 220.373C279.52 220.66 279.402 220.998 279.324 221.389C279.253 221.773 279.217 222.189 279.217 222.639ZM290.926 219.738V228H288.113V217.434H290.76L290.926 219.738ZM294.109 217.365L294.061 219.973C293.924 219.953 293.758 219.937 293.562 219.924C293.374 219.904 293.201 219.895 293.045 219.895C292.648 219.895 292.303 219.947 292.01 220.051C291.723 220.148 291.482 220.295 291.287 220.49C291.098 220.686 290.955 220.923 290.857 221.203C290.766 221.483 290.714 221.802 290.701 222.16L290.135 221.984C290.135 221.301 290.203 220.673 290.34 220.1C290.477 219.52 290.675 219.016 290.936 218.586C291.202 218.156 291.528 217.824 291.912 217.59C292.296 217.355 292.736 217.238 293.23 217.238C293.387 217.238 293.546 217.251 293.709 217.277C293.872 217.297 294.005 217.326 294.109 217.365ZM298.406 217.434V228H295.584V217.434H298.406ZM295.408 214.68C295.408 214.27 295.551 213.931 295.838 213.664C296.124 213.397 296.508 213.264 296.99 213.264C297.465 213.264 297.846 213.397 298.133 213.664C298.426 213.931 298.572 214.27 298.572 214.68C298.572 215.09 298.426 215.428 298.133 215.695C297.846 215.962 297.465 216.096 296.99 216.096C296.508 216.096 296.124 215.962 295.838 215.695C295.551 215.428 295.408 215.09 295.408 214.68ZM306.971 225.695V213H309.803V228H307.254L306.971 225.695ZM300.291 222.844V222.639C300.291 221.831 300.382 221.099 300.564 220.441C300.747 219.777 301.014 219.208 301.365 218.732C301.717 218.257 302.15 217.889 302.664 217.629C303.178 217.368 303.764 217.238 304.422 217.238C305.04 217.238 305.581 217.368 306.043 217.629C306.512 217.889 306.909 218.26 307.234 218.742C307.566 219.217 307.833 219.781 308.035 220.432C308.237 221.076 308.383 221.783 308.475 222.551V223C308.383 223.736 308.237 224.419 308.035 225.051C307.833 225.682 307.566 226.236 307.234 226.711C306.909 227.18 306.512 227.544 306.043 227.805C305.574 228.065 305.027 228.195 304.402 228.195C303.745 228.195 303.159 228.062 302.645 227.795C302.137 227.528 301.707 227.154 301.355 226.672C301.01 226.19 300.747 225.624 300.564 224.973C300.382 224.322 300.291 223.612 300.291 222.844ZM303.104 222.639V222.844C303.104 223.28 303.136 223.687 303.201 224.064C303.273 224.442 303.387 224.777 303.543 225.07C303.706 225.357 303.914 225.581 304.168 225.744C304.428 225.9 304.744 225.979 305.115 225.979C305.597 225.979 305.994 225.871 306.307 225.656C306.619 225.435 306.857 225.132 307.02 224.748C307.189 224.364 307.286 223.921 307.312 223.42V222.141C307.293 221.73 307.234 221.363 307.137 221.037C307.046 220.705 306.909 220.422 306.727 220.188C306.551 219.953 306.329 219.771 306.062 219.641C305.802 219.51 305.493 219.445 305.135 219.445C304.77 219.445 304.458 219.53 304.197 219.699C303.937 219.862 303.725 220.087 303.562 220.373C303.406 220.66 303.289 220.998 303.211 221.389C303.139 221.773 303.104 222.189 303.104 222.639Z" fill="black"/>
<g filter="url(#filter0_di_70_5212)">
<rect x="2" y="289" width="144" height="66" rx="4" fill="url(#paint0_linear_70_5212)"/>
<path d="M30.6973 317.105V320.279H34.2324C34.8639 320.279 35.375 320.162 35.7656 319.928C36.1628 319.687 36.3613 319.264 36.3613 318.658C36.3613 317.988 36.1009 317.545 35.5801 317.33C35.1309 317.18 34.5579 317.105 33.8613 317.105H30.6973ZM30.6973 322.662V326.5H34.2324C34.8639 326.5 35.3555 326.415 35.707 326.246C36.3451 325.934 36.6641 325.335 36.6641 324.449C36.6641 323.701 36.3548 323.186 35.7363 322.906C35.3913 322.75 34.9062 322.669 34.2812 322.662H30.6973ZM34.8184 314.605C36.5827 314.632 37.8327 315.143 38.5684 316.139C39.0111 316.751 39.2324 317.483 39.2324 318.336C39.2324 319.215 39.0111 319.921 38.5684 320.455C38.321 320.755 37.9564 321.028 37.4746 321.275C38.2103 321.542 38.7637 321.965 39.1348 322.545C39.5124 323.124 39.7012 323.827 39.7012 324.654C39.7012 325.507 39.4863 326.272 39.0566 326.949C38.7832 327.398 38.4414 327.776 38.0312 328.082C37.569 328.434 37.0221 328.674 36.3906 328.805C35.7656 328.935 35.0853 329 34.3496 329H27.8262V314.605H34.8184ZM52.875 317.154H45.2578V320.211H52.25V322.711H45.2578V326.412H53.2266V329H42.3184V314.605H52.875V317.154ZM66.0293 314.605V317.154H61.7227V329H58.6953V317.154H54.3691V314.605H66.0293ZM73.3145 314.605H76.4688L82.2012 324.654V314.605H85.0039V329H81.9961L76.1172 318.775V329H73.3145V314.605ZM94.1836 326.852C95.375 326.852 96.319 326.412 97.0156 325.533C97.7188 324.654 98.0703 323.404 98.0703 321.783C98.0703 320.169 97.7188 318.922 97.0156 318.043C96.319 317.158 95.375 316.715 94.1836 316.715C92.9922 316.715 92.0417 317.154 91.332 318.033C90.6224 318.912 90.2676 320.162 90.2676 321.783C90.2676 323.404 90.6224 324.654 91.332 325.533C92.0417 326.412 92.9922 326.852 94.1836 326.852ZM101.078 321.783C101.078 324.368 100.352 326.347 98.9004 327.721C97.8132 328.84 96.2409 329.4 94.1836 329.4C92.1263 329.4 90.554 328.84 89.4668 327.721C88.0085 326.347 87.2793 324.368 87.2793 321.783C87.2793 319.146 88.0085 317.167 89.4668 315.846C90.554 314.726 92.1263 314.166 94.1836 314.166C96.2409 314.166 97.8132 314.726 98.9004 315.846C100.352 317.167 101.078 319.146 101.078 321.783ZM105.346 314.605L107.25 322.848L107.66 325.143L108.08 322.896L109.701 314.605H112.875L114.584 322.848L115.023 325.143L115.463 322.936L117.387 314.605H120.443L116.391 329H113.52L111.781 320.582L111.273 317.799L110.766 320.582L109.027 329H106.234L102.152 314.605H105.346Z" fill="white"/>
</g>
<g filter="url(#filter1_di_70_5212)">
<rect x="188" y="289" width="144" height="66" rx="4" fill="#F5F5F5" shape-rendering="crispEdges"/>
<rect x="187.5" y="288.5" width="145" height="67" rx="4.5" stroke="black" shape-rendering="crispEdges"/>
<rect x="188" y="289" width="144" height="66" rx="4" fill="#F5F5F5"/>
<path d="M223.365 317.154H215.748V320.211H222.74V322.711H215.748V326.412H223.717V329H212.809V314.605H223.365V317.154ZM228.355 329H224.859L229.488 321.666L225.084 314.605H228.678L231.246 319.283L233.883 314.605H237.359L232.955 321.549L237.633 329H233.98L231.246 324.098L228.355 329ZM247.506 319.186C247.506 318.437 247.307 317.903 246.91 317.584C246.52 317.265 245.969 317.105 245.26 317.105H242.457V321.344H245.26C245.969 321.344 246.52 321.171 246.91 320.826C247.307 320.481 247.506 319.934 247.506 319.186ZM250.484 319.166C250.484 320.865 250.055 322.066 249.195 322.77C248.336 323.473 247.109 323.824 245.514 323.824H242.457V329H239.469V314.605H245.738C247.184 314.605 248.336 314.977 249.195 315.719C250.055 316.461 250.484 317.61 250.484 319.166ZM252.74 314.605H255.748V326.412H262.877V329H252.74V314.605ZM271.334 326.852C272.525 326.852 273.469 326.412 274.166 325.533C274.869 324.654 275.221 323.404 275.221 321.783C275.221 320.169 274.869 318.922 274.166 318.043C273.469 317.158 272.525 316.715 271.334 316.715C270.143 316.715 269.192 317.154 268.482 318.033C267.773 318.912 267.418 320.162 267.418 321.783C267.418 323.404 267.773 324.654 268.482 325.533C269.192 326.412 270.143 326.852 271.334 326.852ZM278.229 321.783C278.229 324.368 277.503 326.347 276.051 327.721C274.964 328.84 273.391 329.4 271.334 329.4C269.277 329.4 267.704 328.84 266.617 327.721C265.159 326.347 264.43 324.368 264.43 321.783C264.43 319.146 265.159 317.167 266.617 315.846C267.704 314.726 269.277 314.166 271.334 314.166C273.391 314.166 274.964 314.726 276.051 315.846C277.503 317.167 278.229 319.146 278.229 321.783ZM283.541 317.105V320.973H286.949C287.626 320.973 288.134 320.895 288.473 320.738C289.072 320.465 289.371 319.924 289.371 319.117C289.371 318.245 289.081 317.659 288.502 317.359C288.176 317.19 287.688 317.105 287.037 317.105H283.541ZM287.662 314.605C288.671 314.625 289.446 314.749 289.986 314.977C290.533 315.204 290.995 315.54 291.373 315.982C291.686 316.347 291.933 316.751 292.115 317.193C292.298 317.636 292.389 318.141 292.389 318.707C292.389 319.391 292.216 320.064 291.871 320.729C291.526 321.386 290.956 321.852 290.162 322.125C290.826 322.392 291.295 322.773 291.568 323.268C291.848 323.756 291.988 324.505 291.988 325.514V326.48C291.988 327.138 292.014 327.584 292.066 327.818C292.145 328.189 292.327 328.463 292.613 328.639V329H289.303C289.212 328.681 289.146 328.424 289.107 328.229C289.029 327.825 288.987 327.411 288.98 326.988L288.961 325.65C288.948 324.732 288.779 324.12 288.453 323.814C288.134 323.508 287.532 323.355 286.646 323.355H283.541V329H280.602V314.605H287.662ZM305.631 317.154H298.014V320.211H305.006V322.711H298.014V326.412H305.982V329H295.074V314.605H305.631V317.154Z" fill="black"/>
</g>
<defs>
<filter id="filter0_di_70_5212" x="0" y="289" width="152" height="74" filterUnits="userSpaceOnUse" color-interpolation-filters="sRGB">
<feFlood flood-opacity="0" result="BackgroundImageFix"/>
<feColorMatrix in="SourceAlpha" type="matrix" values="0 0 0 0 0 0 0 0 0 0 0 0 0 0 0 0 0 0 127 0" result="hardAlpha"/>
<feOffset dx="2" dy="4"/>
<feGaussianBlur stdDeviation="2"/>
<feComposite in2="hardAlpha" operator="out"/>
<feColorMatrix type="matrix" values="0 0 0 0 0 0 0 0 0 0 0 0 0 0 0 0 0 0 0.25 0"/>
<feBlend mode="normal" in2="BackgroundImageFix" result="effect1_dropShadow_70_5212"/>
<feBlend mode="normal" in="SourceGraphic" in2="effect1_dropShadow_70_5212" result="shape"/>
<feColorMatrix in="SourceAlpha" type="matrix" values="0 0 0 0 0 0 0 0 0 0 0 0 0 0 0 0 0 0 127 0" result="hardAlpha"/>
<feOffset dx="2" dy="4"/>
<feGaussianBlur stdDeviation="2"/>
<feComposite in2="hardAlpha" operator="arithmetic" k2="-1" k3="1"/>
<feColorMatrix type="matrix" values="0 0 0 0 0 0 0 0 0 0 0 0 0 0 0 0 0 0 0.25 0"/>
<feBlend mode="normal" in2="shape" result="effect2_innerShadow_70_5212"/>
</filter>
<filter id="filter1_di_70_5212" x="185" y="288" width="154" height="76" filterUnits="userSpaceOnUse" color-interpolation-filters="sRGB">
<feFlood flood-opacity="0" result="BackgroundImageFix"/>
<feColorMatrix in="SourceAlpha" type="matrix" values="0 0 0 0 0 0 0 0 0 0 0 0 0 0 0 0 0 0 127 0" result="hardAlpha"/>
<feOffset dx="2" dy="4"/>
<feGaussianBlur stdDeviation="2"/>
<feComposite in2="hardAlpha" operator="out"/>
<feColorMatrix type="matrix" values="0 0 0 0 0 0 0 0 0 0 0 0 0 0 0 0 0 0 0.25 0"/>
<feBlend mode="normal" in2="BackgroundImageFix" result="effect1_dropShadow_70_5212"/>
<feBlend mode="normal" in="SourceGraphic" in2="effect1_dropShadow_70_5212" result="shape"/>
<feColorMatrix in="SourceAlpha" type="matrix" values="0 0 0 0 0 0 0 0 0 0 0 0 0 0 0 0 0 0 127 0" result="hardAlpha"/>
<feOffset dx="2" dy="4"/>
<feGaussianBlur stdDeviation="2"/>
<feComposite in2="hardAlpha" operator="arithmetic" k2="-1" k3="1"/>
<feColorMatrix type="matrix" values="0 0 0 0 0 0 0 0 0 0 0 0 0 0 0 0 0 0 0.25 0"/>
<feBlend mode="normal" in2="shape" result="effect2_innerShadow_70_5212"/>
</filter>
<linearGradient id="paint0_linear_70_5212" x1="74" y1="289" x2="74" y2="355" gradientUnits="userSpaceOnUse">
<stop stop-color="#208C53"/>
<stop offset="1" stop-color="#47B67C"/>
</linearGradient>
</defs>
</svg>
