<svg width="378" height="30" viewBox="0 0 378 30" fill="none" xmlns="http://www.w3.org/2000/svg">
<g clip-path="url(#clip0_70_5220)">
<rect width="50" height="30" rx="15" fill="#208C53"/>
<path d="M15.6848 16.3284H18.1501L16.9373 12.5051L15.6848 16.3284ZM15.8101 10.2837H18.104L21.5449 20H19.3433L18.717 18.0027H15.1377L14.4653 20H12.3428L15.8101 10.2837ZM22.7842 10.2837H24.8145V18.2532H29.6265V20H22.7842V10.2837ZM31.0371 10.2837H33.0674V18.2532H37.8794V20H31.0371V10.2837Z" fill="black"/>
<rect x="78" width="50" height="30" rx="15" fill="#D9D9D9"/>
<path d="M89.0283 10.2837H91.0586V18.2532H95.8706V20H89.0283V10.2837ZM99.1401 20H97.123V10.2837H99.1401V20ZM106.727 10.2837H108.837L105.521 20H103.603L100.32 10.2837H102.489L104.598 17.6599L106.727 10.2837ZM117.228 12.0042H112.086V14.0674H116.806V15.7549H112.086V18.2532H117.465V20H110.102V10.2837H117.228V12.0042Z" fill="black"/>
<rect x="156" width="95" height="30" rx="15" fill="#D9D9D9"/>
<path d="M167.028 10.2837H169.092V16.2559C169.092 16.9238 169.171 17.4116 169.329 17.7192C169.575 18.2642 170.111 18.5366 170.937 18.5366C171.759 18.5366 172.293 18.2642 172.539 17.7192C172.697 17.4116 172.776 16.9238 172.776 16.2559V10.2837H174.84V16.2559C174.84 17.2886 174.679 18.0928 174.358 18.6685C173.761 19.7231 172.62 20.2505 170.937 20.2505C169.254 20.2505 168.112 19.7231 167.51 18.6685C167.189 18.0928 167.028 17.2886 167.028 16.2559V10.2837ZM182.255 13.3752C182.255 12.8699 182.121 12.5095 181.853 12.2942C181.59 12.0789 181.218 11.9712 180.739 11.9712H178.847V14.832H180.739C181.218 14.832 181.59 14.7156 181.853 14.4827C182.121 14.2498 182.255 13.8806 182.255 13.3752ZM184.266 13.3621C184.266 14.509 183.976 15.3198 183.396 15.7944C182.816 16.269 181.987 16.5063 180.911 16.5063H178.847V20H176.83V10.2837H181.062C182.038 10.2837 182.816 10.5342 183.396 11.0352C183.976 11.5361 184.266 12.3118 184.266 13.3621ZM185.367 15.2209C185.367 13.5247 185.822 12.2173 186.731 11.2988C187.522 10.499 188.529 10.0991 189.75 10.0991C191.385 10.0991 192.58 10.6353 193.336 11.7075C193.754 12.3096 193.978 12.9138 194.009 13.5203H191.978C191.846 13.0544 191.677 12.7029 191.471 12.4656C191.102 12.0437 190.554 11.8328 189.829 11.8328C189.091 11.8328 188.509 12.1316 188.083 12.7292C187.656 13.3225 187.443 14.1641 187.443 15.2539C187.443 16.3438 187.667 17.1611 188.115 17.7061C188.568 18.2466 189.142 18.5168 189.836 18.5168C190.548 18.5168 191.091 18.2839 191.464 17.8181C191.671 17.5676 191.842 17.1919 191.978 16.6909H193.989C193.813 17.75 193.363 18.6113 192.637 19.2749C191.917 19.9385 190.992 20.2703 189.862 20.2703C188.465 20.2703 187.366 19.822 186.566 18.9255C185.767 18.0247 185.367 16.7898 185.367 15.2209ZM199.842 18.5498C200.646 18.5498 201.284 18.2532 201.754 17.6599C202.229 17.0667 202.466 16.2229 202.466 15.1287C202.466 14.0388 202.229 13.1973 201.754 12.604C201.284 12.0063 200.646 11.7075 199.842 11.7075C199.038 11.7075 198.396 12.0042 197.917 12.5974C197.438 13.1907 197.199 14.0344 197.199 15.1287C197.199 16.2229 197.438 17.0667 197.917 17.6599C198.396 18.2532 199.038 18.5498 199.842 18.5498ZM204.496 15.1287C204.496 16.8733 204.006 18.2092 203.026 19.1365C202.292 19.8923 201.231 20.2703 199.842 20.2703C198.454 20.2703 197.392 19.8923 196.658 19.1365C195.674 18.2092 195.182 16.8733 195.182 15.1287C195.182 13.3489 195.674 12.0129 196.658 11.1208C197.392 10.365 198.454 9.98706 199.842 9.98706C201.231 9.98706 202.292 10.365 203.026 11.1208C204.006 12.0129 204.496 13.3489 204.496 15.1287ZM212.492 10.2837H215.412V20H213.52V13.428C213.52 13.239 213.522 12.9753 213.527 12.637C213.531 12.2942 213.533 12.0305 213.533 11.8459L211.694 20H209.723L207.897 11.8459C207.897 12.0305 207.9 12.2942 207.904 12.637C207.908 12.9753 207.911 13.239 207.911 13.428V20H206.019V10.2837H208.972L210.739 17.9236L212.492 10.2837ZM219.156 20H217.139V10.2837H219.156V20ZM221.022 10.2837H223.151L227.02 17.0667V10.2837H228.912V20H226.882L222.914 13.0984V20H221.022V10.2837ZM237.343 13.3159C237.189 12.6523 236.813 12.1887 236.216 11.925C235.882 11.78 235.51 11.7075 235.102 11.7075C234.32 11.7075 233.676 12.0042 233.17 12.5974C232.669 13.1863 232.419 14.074 232.419 15.2605C232.419 16.4558 232.691 17.3018 233.236 17.7983C233.781 18.2949 234.401 18.5432 235.095 18.5432C235.776 18.5432 236.334 18.3477 236.77 17.9565C237.205 17.561 237.473 17.0447 237.574 16.4075H235.326V14.7859H239.373V20H238.029L237.824 18.7871C237.433 19.2485 237.082 19.5737 236.77 19.7627C236.233 20.0923 235.574 20.2571 234.792 20.2571C233.504 20.2571 232.45 19.811 231.628 18.9189C230.771 18.0225 230.343 16.7964 230.343 15.2407C230.343 13.6675 230.775 12.4062 231.641 11.457C232.507 10.5078 233.652 10.0332 235.075 10.0332C236.31 10.0332 237.301 10.3474 238.048 10.9758C238.8 11.5999 239.23 12.3799 239.34 13.3159H237.343Z" fill="black"/>
<rect x="279" width="99" height="30" rx="15" fill="#D9D9D9"/>
<path d="M298.028 10.2969H304.917V12.0042H300.045V14.2388H304.31V15.9263H300.045V20H298.028V10.2969ZM308.14 20H306.123V10.2837H308.14V20ZM310.006 10.2837H312.135L316.004 17.0667V10.2837H317.896V20H315.866L311.897 13.0984V20H310.006V10.2837ZM321.653 20H319.636V10.2837H321.653V20ZM325.022 17.0007C325.083 17.4446 325.204 17.7764 325.384 17.9961C325.714 18.396 326.279 18.5959 327.078 18.5959C327.557 18.5959 327.946 18.5432 328.245 18.4377C328.812 18.2356 329.095 17.8599 329.095 17.3105C329.095 16.9897 328.955 16.7415 328.674 16.5657C328.392 16.3943 327.951 16.2427 327.349 16.1108L326.32 15.8801C325.31 15.6516 324.611 15.4033 324.224 15.1353C323.569 14.687 323.242 13.9861 323.242 13.0325C323.242 12.1624 323.558 11.4395 324.191 10.8638C324.824 10.2881 325.753 10.0002 326.979 10.0002C328.003 10.0002 328.876 10.2727 329.596 10.8176C330.322 11.3582 330.702 12.1448 330.737 13.1775H328.786C328.75 12.593 328.496 12.1777 328.021 11.9316C327.705 11.769 327.311 11.6877 326.841 11.6877C326.318 11.6877 325.901 11.7932 325.589 12.0042C325.277 12.2151 325.121 12.5095 325.121 12.8875C325.121 13.2346 325.274 13.4939 325.582 13.6653C325.78 13.7795 326.202 13.9136 326.848 14.0674L328.522 14.4695C329.256 14.6453 329.81 14.8804 330.183 15.1748C330.763 15.6318 331.053 16.2932 331.053 17.1589C331.053 18.0466 330.713 18.7849 330.031 19.3738C329.355 19.9583 328.397 20.2505 327.157 20.2505C325.892 20.2505 324.896 19.9626 324.171 19.387C323.446 18.8069 323.084 18.0115 323.084 17.0007H325.022ZM332.543 20V10.2837H334.553V13.9883H338.35V10.2837H340.367V20H338.35V15.6626H334.553V20H332.543ZM349.497 12.0042H344.355V14.0674H349.075V15.7549H344.355V18.2532H349.734V20H342.371V10.2837H349.497V12.0042ZM353.287 11.9712V18.3125H355.159C356.117 18.3125 356.785 17.8401 357.163 16.8953C357.37 16.3767 357.473 15.7593 357.473 15.043C357.473 14.0542 357.317 13.2961 357.005 12.7688C356.698 12.2371 356.082 11.9712 355.159 11.9712H353.287ZM355.502 10.2837C356.104 10.2925 356.605 10.3628 357.005 10.4946C357.686 10.7188 358.238 11.1296 358.66 11.7273C358.998 12.2107 359.229 12.7336 359.352 13.2961C359.475 13.8586 359.536 14.3948 359.536 14.9045C359.536 16.1965 359.277 17.2908 358.759 18.1873C358.055 19.3958 356.97 20 355.502 20H351.316V10.2837H355.502Z" fill="black"/>
</g>
<defs>
<clipPath id="clip0_70_5220">
<rect width="378" height="30" fill="white"/>
</clipPath>
</defs>
</svg>
